<svg version="1.1"
	xmlns="http://www.w3.org/2000/svg"
	xmlns:xlink="http://www.w3.org/1999"
	width="370" height="355"
	viewBox="-50 -10 350 360"
	preserveAspectRatio="xMinYMid meet">

<style type="text/css">

</style>

<g id="owl">
	<g id="head">
	<g>
			<circle class="st0 head" cx="158.4" cy="45.6" r="1.5">
			</circle>	
		</g>
		<g>
			<circle class="st0 head" cx="220.7" cy="52.1" r="1.5"/>
		</g>
		<g>
			<path class="st0 head" d="M173.3,84.3"/>
		</g>
		<g>
				<path class="st0 head" d="M179.9,102.4c-0.2,0-0.4-0.1-0.6-0.2l-4-4c-0.1-0.1-0.2-0.3-0.2-0.6c0-0.1-0.6-10.8-5.8-23.9
					c-4.8-12.1-14.8-28.7-34.7-39.6c-0.3-0.2-0.5-0.5-0.4-0.8c0-0.2,1.7-19-6.4-32.1c-0.2-0.3-0.2-0.6,0-0.9
					c0.2-0.3,0.5-0.4,0.8-0.4c0.7,0.1,17,3.2,27.8,18.8c0.1,0.1,0.1,0.3,0.1,0.4c0,0.1,1.4,12.8,4.2,17c0.9,0.7,6.8,6,12.2,16.1
					c5.2,9.9,10.9,26.5,7.9,49.4c0,0.3-0.3,0.6-0.6,0.7C180.1,102.4,180,102.4,179.9,102.4z M176.8,97.2l2.5,2.5
					c4.8-41.8-19.5-62.1-19.8-62.3c-0.1-0.1-0.1-0.1-0.2-0.2c-2.9-4.2-4.3-15.9-4.5-17.7c-8.3-11.8-20.1-16.2-24.7-17.5
					c6.6,12.2,5.9,27.7,5.7,30.8c20,11.1,30.1,28,35,40.2C175.8,85.4,176.6,95.3,176.8,97.2z">
				</path>
		</g>
		<g>
				<path class="st0 head" d="M150.8,39.1c-0.1,0-0.2,0-0.3-0.1c-2.4-2.1-7.6-2.4-7.6-2.4c0,0-0.1,0-0.1,0c-1.8-0.6-3.1-1.7-3.8-3
					c-0.4-0.9-0.5-1.8-0.1-2.6c0.5-1.3,1.2-2,1.8-2.3c-3.6-3-6.1-10.2-4.9-14.4c0.6-2.1,2.1-3.1,4.2-3c6.5,0.4,10.2,10.7,11.1,13.3
					c0.3-0.2,0.8-0.4,1.4-0.4c1.1,0,2.2,0.7,3.2,2c2.6,3.5-0.5,8-0.6,8.2c-0.1,0.1-0.2,0.2-0.3,0.2c-2.5,0.5-3.5,4.1-3.5,4.2
					c0,0.1-0.1,0.3-0.3,0.3C150.9,39.1,150.8,39.1,150.8,39.1z M143,35.7c0.6,0,5,0.4,7.6,2.2c0.4-1.1,1.6-3.5,3.7-4.1
					c0.5-0.7,2.5-4.4,0.5-7.1c-0.8-1.1-1.7-1.7-2.5-1.7c-0.8,0-1.3,0.5-1.3,0.5c-0.1,0.1-0.3,0.2-0.4,0.1c-0.1,0-0.3-0.1-0.3-0.3
					c0-0.1-3.9-12.9-10.5-13.3c-1.7-0.1-2.8,0.7-3.4,2.4c-1.2,4.1,1.6,11.5,5.3,13.9c0.2,0.1,0.2,0.3,0.2,0.5
					c-0.1,0.2-0.2,0.3-0.4,0.3c0,0-1.1,0-1.9,2c-0.2,0.6-0.2,1.3,0.1,1.9C140.3,34.3,141.4,35.2,143,35.7z"/>
		</g>
		<g>
				<path class="st0 head" d="M150.8,39.1c-0.2,0-0.3-0.1-0.4-0.2c0-0.1-3.5-6.9-7.7-8.9c-0.2-0.1-0.3-0.4-0.2-0.6
					c0.1-0.2,0.4-0.3,0.6-0.2c2.8,1.3,5.1,4.5,6.6,6.7c-0.8-4.7,0.2-9.1,0.3-9.3c0.1-0.2,0.3-0.4,0.5-0.3c0.2,0.1,0.4,0.3,0.3,0.5
					c0,0.1-1.4,6.3,0.4,11.8c0.1,0.2,0,0.4-0.2,0.5C150.9,39.1,150.9,39.1,150.8,39.1z"/>
		</g>
		<g>
			<path class="st0 head" d="M143,29.6"/>
		</g>
		<g>
			<circle class="st0 head" cx="155.9" cy="39.7" r="2.3"/>
		</g>
		<g>
				<path class="st0 head" d="M161.5,57.7C161.4,57.7,161.4,57.7,161.5,57.7c-0.3,0-0.5-0.3-0.4-0.5c1-6.2,1.2-17.8,1.2-17.9
					c0-0.2,0.2-0.4,0.4-0.4c0,0,0,0,0,0c0.2,0,0.4,0.2,0.4,0.4c0,0.1-0.2,11.8-1.2,18C161.9,57.6,161.7,57.7,161.5,57.7z"/>
		</g>
		<g>
				<path class="st0 head" d="M166.4,65.9C166.3,65.9,166.3,65.9,166.4,65.9c-0.3,0-0.5-0.3-0.4-0.5c1-6.2,1.4-19.6,1.4-19.8
					c0-0.2,0.2-0.4,0.4-0.4c0.2,0,0.4,0.2,0.4,0.4c0,0.1-0.4,13.6-1.4,19.9C166.7,65.7,166.6,65.9,166.4,65.9z"/>
		</g>
		<g>
				<path class="st0 head" d="M170,73.7C170,73.7,169.9,73.7,170,73.7c-0.3,0-0.5-0.3-0.4-0.5c1-6.2,1.7-21.2,1.7-21.3
					c0-0.2,0.2-0.4,0.4-0.4c0.2,0,0.4,0.2,0.4,0.4c0,0.2-0.7,15.1-1.7,21.4C170.4,73.6,170.2,73.7,170,73.7z"/>
		</g>
		<g>
			<path class="st0 head" d="M172.4,80.3c0,0-0.1,0-0.1,0c-0.2-0.1-0.4-0.3-0.3-0.5c1.5-6.1,2.9-20.1,2.9-20.3c0-0.2,0.2-0.4,0.5-0.4
				c0.2,0,0.4,0.2,0.4,0.5c0,0.1-1.4,14.2-3,20.4C172.7,80.2,172.6,80.3,172.4,80.3z"/>
		</g>
		<g>
			<path class="st0 head" d="M174.2,87.2c0,0-0.1,0-0.1,0c-0.2-0.1-0.4-0.3-0.3-0.5c1.7-6.1,3.9-18.3,3.9-18.4c0-0.2,0.3-0.4,0.5-0.3
				c0.2,0,0.4,0.3,0.3,0.5c0,0.1-2.2,12.4-3.9,18.5C174.6,87.1,174.4,87.2,174.2,87.2z"/>
		</g>
		<g>
				<path class="st0 head" d="M175.6,94.5c-0.1,0-0.1,0-0.2,0c-0.2-0.1-0.3-0.3-0.2-0.6c2.9-6.3,4.5-14.4,4.5-14.4c0-0.2,0.3-0.4,0.5-0.3
					c0.2,0,0.4,0.3,0.3,0.5c0,0.1-1.6,8.2-4.5,14.6C175.9,94.4,175.8,94.5,175.6,94.5z"/>
		</g>
		<g>
			<path class="st0 head" d="M154.6,102.7c-1.1,0-2-0.3-2.6-0.8c-0.7-0.6-1.1-1.4-1.2-2c-1.5,0-2.8-0.4-3.8-1.2c-1-0.8-1.5-1.9-1.7-2.6
				c-1.5,0-2.7-0.5-3.5-1.4c-1.1-1.2-1.3-2.8-1.3-3.8c-1.9-0.2-3.2-0.9-4-2c-0.7-1-0.7-2-0.7-2.7c-1.1-0.3-2-0.8-2.6-1.6
				c-0.7-1-0.9-2.1-0.9-2.7c-2.5-1.6-2.5-4.5-2.1-6.3c-2.4-2.5-1.7-4.6-1.2-5.7c-1.5-2.3-0.8-4.2,0-5.3c-1.2-2.3-0.4-4.6,0.4-5.9
				c-1.6-2.3-0.7-4.6,0.3-5.8c-0.5-3.3,1-5.2,2.4-6c-0.3-1.1-0.3-2.1,0.2-3.1c0.5-1.1,1.5-1.7,2.1-2c-0.2-1.5,0.1-2.8,1-3.8
				c1.6-2,4.6-2.1,4.7-2.1c0,0,0,0,0,0c0.5,0,0.8,0.4,0.8,0.8c0,0.5-0.4,0.8-0.8,0.9c-0.1,0-2.3,0.1-3.4,1.4
				c-0.6,0.7-0.8,1.8-0.5,3.1c0.1,0.4-0.2,0.9-0.6,1c0,0-1.3,0.4-1.8,1.5c-0.3,0.7-0.3,1.5,0.1,2.4c0.1,0.2,0.1,0.4,0,0.7
				c-0.1,0.2-0.3,0.4-0.5,0.5c-0.3,0.1-2.8,1.2-2,4.9c0.1,0.3,0,0.6-0.2,0.8c-0.2,0.2-2.1,2.3-0.2,4.4c0.3,0.3,0.3,0.8,0,1.1
				c-0.1,0.1-2.1,2.5-0.4,5c0.2,0.3,0.2,0.8-0.1,1.1c-0.2,0.2-1.7,1.7,0.1,4.1c0.3,0.3,0.2,0.8,0,1.1c-0.2,0.2-1.5,1.9,1,4.2
				c0.2,0.2,0.3,0.6,0.2,0.9c-0.1,0.1-1.2,3.7,1.6,5c0.3,0.2,0.5,0.5,0.5,0.9c0,0-0.2,1.2,0.5,2.1c0.5,0.6,1.2,1,2.3,1.1
				c0.3,0,0.5,0.2,0.6,0.4c0.1,0.2,0.2,0.5,0.1,0.7c0,0-0.4,1.2,0.3,2.2c0.6,0.8,1.8,1.3,3.5,1.4c0.2,0,0.5,0.1,0.6,0.3
				c0.2,0.2,0.2,0.4,0.2,0.7c0,0-0.3,2.1,0.8,3.3c0.6,0.7,1.6,0.9,2.9,0.9c0.5,0,0.9,0.3,0.9,0.8c0,0,0.1,1.4,1.2,2.3
				c0.8,0.6,1.9,0.9,3.4,0.8c0.2,0,0.5,0.1,0.7,0.2c0.2,0.2,0.3,0.4,0.3,0.6c0,0,0,1,0.7,1.6c0.6,0.5,1.5,0.6,2.8,0.3l16.7-17.7
				c0.3-0.3,0.9-0.4,1.2,0c0.3,0.3,0.4,0.9,0,1.2l-16.8,17.9c-0.1,0.1-0.3,0.2-0.4,0.2C155.8,102.6,155.2,102.7,154.6,102.7z"/>
		</g>
		<g>
				<path class="st0 head" d="M168.2,69.5c-0.2,0-0.3-0.1-0.4-0.2c-1.8-3.5-12-8.6-12.1-8.7c-0.1-0.1-0.2-0.2-0.2-0.4
					c-0.7-11-13-21.7-13.2-21.8c-0.2-0.2-0.2-0.4,0-0.6c0.2-0.2,0.4-0.2,0.6,0c0.5,0.4,12.6,10.9,13.4,22.2
					c1.5,0.8,10.5,5.5,12.3,8.9c0.1,0.2,0,0.5-0.2,0.6C168.3,69.5,168.2,69.5,168.2,69.5z"/>
		</g>
		<g>
				<path class="st0 head" d="M163.1,82.8c-1.2,0-2.5-0.2-4-0.5c-4.4-1.1-8.3-5.1-10-10.2c-1.7-5-0.9-10,2.2-13.8
					c0.1-0.1,0.3-0.2,0.4-0.1c0.1,0,8.1,2.5,15.5,9.1c0.2,0.2,0.2,0.4,0,0.6c-0.2,0.2-0.4,0.2-0.6,0c-6.5-5.8-13.5-8.4-14.9-8.9
					c-2.7,3.5-3.4,8.2-1.9,12.8c1.6,4.8,5.3,8.6,9.4,9.6c8.5,2.1,12-3.3,12-3.4c0.1-0.2,0.4-0.3,0.6-0.1c0.2,0.1,0.3,0.4,0.1,0.6
					C172,78.6,169.4,82.8,163.1,82.8z"/>
		</g>
		<path class="st0 head" d="M168.3,69.7l-0.8-1.4c0,0-4.7-4.5-8.8-6.6c0,0-2.9,1.4-4.1,5.4s0.5,8.9,5.4,10.8c4.7,1.8,9.6-0.4,10-4.1
				L168.3,69.7z M165.5,71.3c-0.9,0-1.6-0.7-1.6-1.6c0-0.9,0.7-1.6,1.6-1.6c0.9,0,1.6,0.7,1.6,1.6C167.1,70.6,166.4,71.3,165.5,71.3
				z"/>
		<g>
			<path class="st0 head" d="M146.4,61.9c0,0-3.2,8.8,3.2,16.6s15.2,6.1,15.2,6.1s-10.3,2.2-17-4.8C141.2,72.9,146.4,61.9,146.4,61.9z"
				/>
		</g>
		<g>
			<path class="st0 head" d="M150,51.3l-7.5-9.3c0,0-1.9-2.4-3.4-0.9c-1.3,1.4,0.6,2.8,0.6,2.8l10.4,7.7"/>
		</g>
		<g>
			<path class="st0 head" d="M145.1,52.9l-7-5.1c0,0-1.8-1.3-2.5,0c-0.7,1.2,0.9,1.8,0.9,1.8l8.8,3.5"/>
		</g>
		<g>
			<path class="st0 head" d="M144.3,56.4l-8.2-2.9c0,0-2.1-0.7-2.4,0.7c-0.3,1.3,1.4,1.5,1.4,1.5l9.4,0.9"/>
		</g>
		<g>
			<path class="st0 head" d="M142.4,61.3l-7.9,0c0,0-2,0-1.8,1.4c0.2,1.2,1.7,0.8,1.7,0.8l8.3-2.2"/>
		</g>
		<g>
			<path class="st0 head" d="M139.9,67.4l-6.1,1.7c0,0-1.6,0.4-1.1,1.4c0.4,0.9,1.5,0.3,1.5,0.3l5.9-3.5"/>
		</g>
		<g>
			<path class="st0 head" d="M141.1,74.1l-5.7,2.8c0,0-1.5,0.7-0.9,1.6c0.5,0.8,1.5,0,1.5,0l5.2-4.5"/>
		</g>
		<g>
			<path class="st0 head" d="M142.8,80l-4,2.9c0,0-1,0.7-0.4,1.3c0.5,0.6,1.1-0.2,1.1-0.2L143,80"/>
		</g>
		<g>
			<path class="st0 head" d="M146.6,84.4l-3.3,2.3c0,0-0.8,0.6-0.4,1.1c0.4,0.5,0.9-0.1,0.9-0.1l2.8-3.3"/>
		</g>
		<g>
			<path class="st0 head" d="M150.6,87.8l-2.4,2.2c0,0-0.6,0.6-0.2,0.9c0.4,0.3,0.7-0.2,0.7-0.2L150.6,87.8"/>
		</g>
		<g>
			<path class="st0 head" d="M154.2,90.3l-1.9,2c0,0-0.5,0.5-0.1,0.8c0.3,0.3,0.6-0.2,0.6-0.2L154.2,90.3"/>
		</g>
		<g>
			<path class="st0 head" d="M157.2,92.4l-1.4,1.9c0,0-0.3,0.5,0,0.7c0.3,0.2,0.5-0.2,0.5-0.2L157.2,92.4"/>
		</g>
		<g>
				<path class="st0 head" d="M177.4,114.6c-0.3,0-0.6-0.1-0.7-0.4c-1.5-2.3-2-5.5-2.1-7.6c-2.2,2.1-5.5,3.6-5.7,3.6
					c-0.2,0.1-0.4,0.1-0.7,0c-0.2-0.1-0.4-0.3-0.5-0.5c-0.9-2.2-0.8-5-0.6-7.1c-2.3,1.9-5.1,3.1-5.3,3.1c-0.2,0.1-0.5,0.1-0.7,0
					c-0.2-0.1-0.4-0.3-0.4-0.6c-1.1-4.7-0.1-8.8-0.1-8.9c0.1-0.5,0.6-0.7,1-0.6c0.5,0.1,0.7,0.6,0.6,1c0,0-0.7,3.3-0.1,7.2
					c1.5-0.7,4.3-2.3,5.5-4.2c0.2-0.4,0.7-0.5,1-0.4c0.4,0.2,0.6,0.6,0.5,1c0,0.1-1,4.8-0.2,8.1c1.8-0.9,4.7-2.7,5.5-4.5
					c0.2-0.4,0.6-0.6,1-0.5c0.4,0.1,0.7,0.4,0.7,0.9c0,0.1-0.2,5,1.5,8.5c0.2-0.2,0.4-0.4,0.7-0.7c0.3-0.3,0.8-0.4,1.2-0.1
					c0.3,0.3,0.4,0.8,0.1,1.2c-0.9,1-1.8,1.5-1.9,1.5C177.6,114.6,177.5,114.6,177.4,114.6z"/>
		</g>
		<g>
			<path class="st0 head" d="M170.4,100.3c0,0-0.2,3.3,3.7,1.9C174.2,102.3,171.5,102,170.4,100.3z"/>
		</g>
		<g>
			<path class="st0 head" d="M163.6,95.7c0,0-0.6,3.3,3.5,2.4C167,98.1,164.4,97.5,163.6,95.7z"/>
		</g>
		<g>
			<path class="st0 head" d="M186.7,102.4c-0.2,0-0.3,0-0.5-0.1c-0.3-0.2-0.4-0.5-0.4-0.8c2.9-22.9,12.6-37.5,20.2-45.7
				c7.8-8.4,14.9-12,15.9-12.5c3.8-3.4,8.3-15.3,8.4-15.4c0.1-0.1,0.1-0.2,0.2-0.3c12.1-10.4,26.1-11.2,30.1-11.2c1,0,1.5,0,1.5,0
				c0.3,0,0.6,0.2,0.7,0.6c0.1,0.3,0,0.7-0.2,0.9c-11.2,10.6-14.3,29.2-14.4,29.4c-0.1,0.3-0.3,0.6-0.6,0.7
				c-22,5.4-35.9,19.1-43.6,29.5c-8.4,11.3-11.6,21.5-11.7,21.6c-0.1,0.2-0.2,0.4-0.4,0.5l-4.9,2.8
				C187,102.3,186.9,102.4,186.7,102.4z M231.8,28.6c-0.7,1.7-5,12.6-8.8,15.9c-0.1,0.1-0.1,0.1-0.2,0.1c-0.1,0-7.5,3.5-15.5,12.2
				c-7.2,7.8-16.3,21.6-19.4,43l3.1-1.8c0.6-1.8,4-11.2,11.8-21.8c7.9-10.6,21.9-24.4,44-30c0.6-3.1,3.8-18.2,13.4-28.4
				C255.7,18.1,243,19.2,231.8,28.6z"/>
		</g>
		<g>
			<path class="st0 head" d="M230.9,48.5c-0.1,0-0.2,0-0.2-0.1c-0.1-0.1-0.2-0.2-0.2-0.4c0,0-0.1-3.8-2.3-4.9c-0.1,0-0.2-0.1-0.2-0.2
				c-0.1-0.2-1.9-5.4,1.5-8.1c1-0.8,2-1.2,2.9-1.2c0.9,0,1.5,0.4,1.9,0.8c1.4-2.2,7-10.2,12.8-10.2c0.4,0,0.8,0,1.2,0.1
				c2,0.4,3.2,1.8,3.3,3.8c0.3,4.3-4.1,10.8-8.4,12.8c0.5,0.4,1,1.2,1.1,2.6c0.1,0.8-0.2,1.7-0.8,2.5c-0.9,1.1-2.5,1.8-4.4,2
				c0,0-0.1,0-0.1,0c0,0-1.8-0.4-3.8-0.4c-1.8,0-3.2,0.3-4.2,0.8C231,48.5,230.9,48.5,230.9,48.5z M228.7,42.5c2,1.1,2.5,3.7,2.6,5
				c1.1-0.4,2.4-0.6,4-0.6c1.9,0,3.6,0.3,3.9,0.4c1.7-0.1,3-0.7,3.8-1.7c0.5-0.6,0.7-1.2,0.6-1.8c-0.2-2.1-1.3-2.4-1.3-2.4
				c-0.2,0-0.3-0.2-0.3-0.4c0-0.2,0.1-0.4,0.3-0.4c4.3-1.4,8.9-8,8.6-12.3c-0.1-1.7-1-2.7-2.6-3c-0.4-0.1-0.7-0.1-1.1-0.1
				c-6.2,0-12.4,10.2-12.4,10.3c-0.1,0.1-0.2,0.2-0.4,0.2c-0.2,0-0.3-0.1-0.4-0.2c0,0-0.5-0.9-1.6-0.9c-0.7,0-1.5,0.4-2.4,1
				C227.3,37.6,228.4,41.7,228.7,42.5z"/>
		</g>
		<g>
			<path class="st0 head" d="M230.9,48.5c-0.1,0-0.2,0-0.3-0.1c-0.2-0.1-0.2-0.4-0.1-0.6c3.2-4.8,3.4-11.2,3.4-11.3
				c0-0.2,0.2-0.4,0.4-0.4c0.2,0,0.4,0.2,0.4,0.4c0,0.2-0.2,4.7-2.1,9.1c2-1.8,5.1-4.3,8.1-4.8c0.2,0,0.5,0.1,0.5,0.3
				c0,0.2-0.1,0.5-0.3,0.5c-4.6,0.9-9.6,6.6-9.7,6.7C231.1,48.5,231,48.5,230.9,48.5z"/>
		</g>
		<g>
			<path class="st0 head" d="M240.8,41.3"/>
		</g>
		<g>
			<circle class="st0 head" cx="225.7" cy="47.8" r="2.3"/>
		</g>
		<g>
			<path class="st0 head" d="M215.8,63.8C215.8,63.8,215.8,63.8,215.8,63.8c-0.3,0-0.4-0.2-0.4-0.5c0.6-6.3,3.4-17.6,3.4-17.7
				c0.1-0.2,0.3-0.4,0.5-0.3c0.2,0.1,0.4,0.3,0.3,0.5c0,0.1-2.8,11.4-3.4,17.6C216.2,63.7,216,63.8,215.8,63.8z"/>
		</g>
		<g>
			<path class="st0 head" d="M209,70.4C209,70.4,209,70.4,209,70.4c-0.3,0-0.4-0.2-0.4-0.5c0.6-6.3,3.7-19.5,3.7-19.6
				c0.1-0.2,0.3-0.4,0.5-0.3c0.2,0.1,0.4,0.3,0.3,0.5c0,0.1-3.1,13.2-3.7,19.5C209.4,70.3,209.2,70.4,209,70.4z"/>
		</g>
		<g>
			<path class="st0 head" d="M203.5,77.1C203.5,77.1,203.5,77.1,203.5,77.1c-0.3,0-0.4-0.2-0.4-0.5c0.6-6.3,3.7-21,3.8-21.1
				c0-0.2,0.3-0.4,0.5-0.3c0.2,0,0.4,0.3,0.3,0.5c0,0.1-3.2,14.8-3.8,21C203.9,76.9,203.7,77.1,203.5,77.1z"/>
		</g>
		<g>
			<path class="st0 head" d="M199.5,82.9C199.5,82.9,199.5,82.9,199.5,82.9c-0.2,0-0.4-0.2-0.4-0.4c0.1-6.4,2.3-20.3,2.3-20.5
				c0-0.2,0.3-0.4,0.5-0.4c0.2,0,0.4,0.3,0.4,0.5c0,0.1-2.2,14-2.3,20.3C200,82.7,199.8,82.9,199.5,82.9z"/>
		</g>
		<g>
			<path class="st0 head" d="M196,89.1c-0.2,0-0.4-0.2-0.4-0.4c-0.1-6.3,0.9-18.8,0.9-18.9c0-0.2,0.2-0.4,0.5-0.4c0.2,0,0.4,0.2,0.4,0.5
				c0,0.1-1,12.5-0.9,18.8C196.4,88.9,196.2,89.1,196,89.1C196,89.1,196,89.1,196,89.1z"/>
		</g>
		<g>
			<path class="st0 head" d="M192.8,95.7c-0.2,0-0.4-0.1-0.4-0.3c-1.2-7-0.7-15.2-0.7-15.3c0-0.2,0.2-0.4,0.5-0.4c0.2,0,0.4,0.2,0.4,0.5
				c0,0.1-0.6,8.2,0.7,15.1C193.2,95.5,193.1,95.7,192.8,95.7C192.8,95.7,192.8,95.7,192.8,95.7z"/>
		</g>
		<g>
			<path class="st0 head" d="M212.2,109.2c-0.9,0-1.9-0.3-3-0.9c-0.1-0.1-0.3-0.2-0.3-0.3l-11.7-21.6c-0.2-0.4-0.1-0.9,0.3-1.1
				c0.4-0.2,0.9-0.1,1.1,0.3l11.6,21.3c1.1,0.6,2.1,0.7,2.8,0.4c0.8-0.4,1.1-1.3,1.1-1.3c0.1-0.2,0.2-0.4,0.4-0.5
				c0.2-0.1,0.5-0.1,0.7,0c1.3,0.5,2.5,0.5,3.4,0.1c1.3-0.6,1.8-1.9,1.8-1.9c0.2-0.4,0.6-0.7,1.1-0.5c1.2,0.4,2.3,0.4,3-0.1
				c1.4-0.9,1.6-3,1.6-3c0-0.2,0.2-0.5,0.3-0.6c0.2-0.1,0.4-0.2,0.7-0.1c1.7,0.4,3,0.2,3.7-0.4c0.9-0.8,0.9-2.1,0.9-2.1
				c0-0.2,0.1-0.5,0.3-0.7c0.2-0.2,0.4-0.2,0.7-0.2c1.1,0.1,1.9,0,2.5-0.5c0.9-0.7,1-1.9,1-1.9c0-0.4,0.3-0.7,0.7-0.7
				c3-0.6,2.8-4.3,2.8-4.5c0-0.3,0.2-0.7,0.5-0.8c3.1-1.6,2.2-3.6,2.1-3.8c-0.2-0.4-0.1-0.8,0.2-1c2.4-1.8,1.2-3.8,1.1-3.9
				c-0.2-0.4-0.2-0.8,0.2-1.1c2.3-2,0.9-4.9,0.9-5c-0.2-0.4,0-0.8,0.3-1.1c2.5-1.6,1-4.2,1-4.3c-0.1-0.2-0.1-0.5,0-0.8
				c1.8-3.5-0.5-5.2-0.6-5.2c-0.2-0.1-0.3-0.3-0.3-0.6c0-0.2,0-0.5,0.2-0.6c0.6-0.8,0.9-1.6,0.7-2.3c-0.2-1.1-1.3-1.8-1.3-1.8
				c-0.4-0.2-0.5-0.7-0.3-1.1c0.6-1.2,0.7-2.3,0.3-3.1c-0.7-1.6-2.9-2.3-2.9-2.3c-0.4-0.1-0.7-0.6-0.6-1c0.1-0.4,0.6-0.7,1-0.6
				c0.1,0,2.9,0.8,4,3.2c0.5,1.2,0.5,2.5,0,3.9c0.5,0.5,1.3,1.3,1.5,2.5c0.2,1,0,2-0.6,3c1.1,1.2,2.1,3.4,0.7,6.4
				c0.6,1.4,1,4-1.2,5.7c0.5,1.5,0.6,3.9-1.1,5.8c0.5,1.3,0.6,3.3-1.4,5.1c0.3,1.1,0.4,3.4-2.6,5.2c0,1.8-0.8,4.7-3.6,5.6
				c-0.2,0.6-0.6,1.7-1.5,2.4c-0.8,0.6-1.8,0.9-2.9,0.9c-0.1,0.7-0.5,1.7-1.4,2.5c-1,0.9-2.5,1.2-4.3,0.9c-0.3,1-0.8,2.5-2.2,3.3
				c-1,0.7-2.3,0.8-3.8,0.5c-0.4,0.6-1.1,1.6-2.3,2.1c-1.2,0.5-2.5,0.6-4,0.2c-0.3,0.6-0.8,1.2-1.7,1.6
				C213.2,109.1,212.7,109.2,212.2,109.2z"/>
		</g>
		<g>
			<path class="st0 head" d="M206.3,73.5c-0.1,0-0.2,0-0.3-0.1c-0.2-0.2-0.2-0.4,0-0.6c2.6-2.9,12.4-5.1,14.1-5.5
				c3.7-10.7,18-17.7,18.6-18c0.2-0.1,0.5,0,0.6,0.2c0.1,0.2,0,0.5-0.2,0.6c-0.1,0.1-14.8,7.3-18.3,17.8c0,0.1-0.2,0.3-0.3,0.3
				c-0.1,0-11.3,2.4-13.9,5.3C206.6,73.5,206.4,73.5,206.3,73.5z"/>
		</g>
		<g>
			<path class="st0 head" d="M211.8,88.2c0,0-0.1,0-0.1,0c-9.4-0.1-11.5-6.9-11.5-6.9c-0.1-0.2,0.1-0.5,0.3-0.5c0.2-0.1,0.5,0.1,0.5,0.3
				c0.1,0.3,2,6.2,10.7,6.3c0,0,0.1,0,0.1,0c4.2,0,8.6-2.7,11.4-6.9c2.7-4.1,3.2-8.7,1.4-12.8c-1.5,0.1-8.9,0.8-16.7,4.8
				c-0.2,0.1-0.5,0-0.6-0.2c-0.1-0.2,0-0.5,0.2-0.6c8.9-4.5,17.2-4.9,17.3-4.9c0.2,0,0.3,0.1,0.4,0.2c2,4.4,1.5,9.5-1.4,13.9
				C221,85.3,216.3,88.2,211.8,88.2z"/>
		</g>
		<path class="st0 head" d="M219.9,74.7c-0.2-4.2-2.6-6.3-2.6-6.3c-4.5,0.9-10.2,4.1-10.2,4.1l-1.1,1.2l-2.6,3.6
			c-0.5,3.7,3.6,7.1,8.6,6.5C217.2,83.2,220.2,78.8,219.9,74.7z M215.1,74.7c-0.2,0.8-1.1,1.4-1.9,1.1c-0.8-0.2-1.4-1.1-1.1-1.9
			c0.2-0.8,1.1-1.4,1.9-1.1C214.8,73,215.3,73.8,215.1,74.7z"/>
		<g>
			<path class="st0 head" d="M229.2,71.7c0,0,0.8,9.4-7.3,15.2c-8.1,5.9-16.2,2-16.2,2s9.4,4.7,17.6-0.3
				C231.5,83.6,229.2,71.7,229.2,71.7z"/>
		</g>
		<g>
			<path class="st0 head" d="M228.5,60.5l9.6-7.1c0,0,2.5-1.8,3.5,0c0.9,1.6-1.3,2.5-1.3,2.5l-12.1,4.8"/>
		</g>
		<g>
			<path class="st0 head" d="M232.8,63.3l8.1-3.2c0,0,2.1-0.8,2.4,0.6c0.3,1.3-1.4,1.5-1.4,1.5l-9.4,1.2"/>
		</g>
		<g>
			<path class="st0 head" d="M232.7,66.8l8.7-0.7c0,0,2.2-0.2,2.2,1.3c-0.1,1.4-1.7,1.1-1.7,1.1l-9.3-1.6"/>
		</g>
		<g>
			<path class="st0 head" d="M233.3,72.1l7.6,2c0,0,2,0.5,1.4,1.8c-0.5,1.1-1.8,0.4-1.8,0.4l-7.4-4.2"/>
		</g>
		<g>
			<path class="st0 head" d="M234.1,78.7l5.5,3.2c0,0,1.4,0.8,0.7,1.7c-0.6,0.8-1.5-0.1-1.5-0.1l-4.9-4.9"/>
		</g>
		<g>
			<path class="st0 head" d="M231.3,84.8l4.8,4.1c0,0,1.2,1.1,0.4,1.8c-0.7,0.7-1.5-0.4-1.5-0.4l-3.9-5.7"/>
		</g>
		<g>
			<path class="st0 head" d="M228.1,90.1l3.1,3.8c0,0,0.8,1,0.1,1.4c-0.6,0.4-1-0.5-1-0.5l-2.2-4.8"/>
		</g>
		<g>
			<path class="st0 head" d="M223.3,93.4l2.5,3.1c0,0,0.7,0.8,0.1,1.2c-0.5,0.3-0.9-0.4-0.9-0.4L223.3,93.4"/>
		</g>
		<g>
			<path class="st0 head" d="M218.6,95.6l1.8,2.7c0,0,0.5,0.7,0,0.9c-0.5,0.2-0.7-0.4-0.7-0.4L218.6,95.6"/>
		</g>
		<g>
			<path class="st0 head" d="M214.5,97.1l1.4,2.4c0,0,0.3,0.6-0.1,0.8c-0.4,0.2-0.5-0.4-0.5-0.4L214.5,97.1"/>
		</g>
		<g>
			<path class="st0 head" d="M211,98.4l0.8,2.2c0,0,0.2,0.6-0.2,0.6c-0.3,0.1-0.4-0.4-0.4-0.4L211,98.4"/>
		</g>
		<g>
			<path class="st0 head" d="M186,114.8c-0.2,0-0.4-0.1-0.5-0.2c-0.1-0.1-0.8-0.7-1.5-1.9c-0.2-0.4,0-0.9,0.4-1.1c0.4-0.2,0.9,0,1.1,0.4
				c0.2,0.3,0.3,0.6,0.5,0.8c2.5-2.9,3.6-7.7,3.6-7.8c0.1-0.4,0.5-0.7,0.9-0.7c0.4,0,0.7,0.3,0.8,0.7c0.2,2,2.7,4.4,4.2,5.8
				c1.7-3,1.9-7.8,1.9-7.9c0-0.4,0.3-0.8,0.7-0.8c0.4-0.1,0.8,0.2,0.9,0.6c0.6,2.2,3,4.4,4.3,5.5c1.6-3.6,1.8-6.8,1.8-6.8
				c0-0.5,0.4-0.8,0.9-0.8c0.5,0,0.8,0.4,0.8,0.9c0,0.2-0.2,4.2-2.4,8.4c-0.1,0.2-0.3,0.4-0.6,0.4c-0.2,0.1-0.5,0-0.7-0.1
				c-0.1-0.1-2.6-2-4.3-4.4c-0.3,2.1-1,4.9-2.4,6.7c-0.1,0.2-0.3,0.3-0.6,0.3c-0.2,0-0.5,0-0.6-0.2c-0.2-0.1-3-2.4-4.6-5
				c-0.7,2.1-2,5-4,6.8C186.4,114.7,186.2,114.8,186,114.8z"/>
		</g>
		<g>
			<path class="st0 head" d="M196.2,102.7c0,0-0.7,3.2-4.1,0.9C192.1,103.6,194.8,104.1,196.2,102.7z"/>
		</g>
		<g>
			<path class="st0 head" d="M204,100c0,0-0.3,3.3-3.9,1.4C200.1,101.4,202.8,101.5,204,100z"/>
		</g>
		<g>
			<path class="st0 head" d="M180.9,118.3c-0.2,0-0.4-0.1-0.6-0.2c-3.2-2.8-2.2-10.4-2.1-11.3c0.2-1.4,1.6-8.3,5.1-8.3
				c0.2,0,0.5,0,0.7,0.1c4,1.1,2.7,9,2.5,9.9c-1.7,8.2-5.1,9.5-5.5,9.7C181.1,118.3,181,118.3,180.9,118.3z M183.4,100.3
				c-1.6,0-3,4-3.5,6.8c-0.3,1.9-0.5,7.1,1.2,9.3c0.9-0.6,2.8-2.6,3.9-8.1c0.4-2.4,0.7-7.4-1.3-8
				C183.6,100.3,183.5,100.3,183.4,100.3z"/>
		</g>
		<g>
			<path class="st0 head" d="M187.4,61c0,0-1.4-14.2-3.5-22.3c0,0-1.3-9.4,7.4-8c8.1,1.3,4.2,10,4.2,10S188.5,56.8,187.4,61z"/>
		</g>
		<g>
			<path class="st0 head" d="M184.5,66.2c0,0,1.1-13.4-4.4-23c-5.5-9.6-12.7-0.8-7.4,4.7C178.1,53.3,183.2,58.7,184.5,66.2z"/>
		</g>
		<g>
			<path class="st0 head" d="M189.3,66.6c0,0,3.2-13.1,11.4-20.5c8.2-7.4,12.3,3.2,5.5,6.7C199.4,56.3,192.9,59.8,189.3,66.6z"/>
		</g>
		<g>
			<path class="st0 head" d="M181.5,65.6c0,0,1,4.4,4.9,4.9c3.9,0.5,6.5-2.8,6.5-2.8s-3.1,6.5-7.1,5.7C181.9,72.6,181.6,67,181.5,65.6z"
				/>
		</g>
		<g>
			<path class="st0 head" d="M181.9,75.2c0,0,0.7,3.2,3.6,3.6c2.9,0.4,4.7-2,4.7-2s-2.3,4.7-5.1,4.1C182.1,80.3,181.9,76.3,181.9,75.2z"
				/>
		</g>
		<g>
			<path class="st0 head" d="M182.3,82.7c0,0,0.5,2.3,2.6,2.6c2.1,0.3,3.4-1.5,3.4-1.5s-1.7,3.4-3.7,3C182.5,86.4,182.4,83.5,182.3,82.7z
				"/>
		</g>
		<g>
			<path class="st0 head" d="M182.9,89c0,0,0.3,1.3,1.5,1.5c1.2,0.2,2-0.8,2-0.8s-0.9,2-2.1,1.7C183.1,91.1,183,89.4,182.9,89z"/>
		</g>
		<g>
			<path class="st0 head" d="M213.5,48.5c-0.4-8.7-9.6-10.5-10-10.5l-1.2-0.2l-0.2-1.2c-0.1-0.4-1.5-9.6-10.1-10.5
				c-9.5-0.9-12.6,7.6-12.7,7.9l-0.4,1.1l-1.2,0c-8.4,0-11.1,7.4-11.1,7.4l-3.2-1.1c1.1-3.2,5.3-9.1,13.2-9.6c1.8-4,6.9-10,15.8-9.1
				c8.3,0.8,11.9,7.8,12.9,12.2c4.4,1.2,11.3,5.1,11.7,13.4L213.5,48.5z"/>
		</g>
		<g>
			<path class="st0 head" d="M160,37.2c-0.2,0-0.4-0.2-0.4-0.4c0-0.1-0.6-10.6,11.8-12.2c0.7-1.8,4.9-12,13.5-12.6c0.2,0,0.4,0.2,0.4,0.4
				c0,0.2-0.2,0.4-0.4,0.4c-8.7,0.6-12.8,12.1-12.9,12.2c-0.1,0.2-0.2,0.3-0.3,0.3c-11.9,1.4-11.4,11-11.4,11.4
				C160.5,37,160.3,37.2,160,37.2C160.1,37.2,160.1,37.2,160,37.2z"/>
		</g>
		<g>
			<path class="st0 head" d="M225,40.8C225,40.8,225,40.8,225,40.8c-0.3,0-0.5-0.3-0.4-0.5c0.1-0.4,1.3-9.9-10.4-12.2
				c-0.2,0-0.3-0.2-0.3-0.3c0-0.1-2.4-11.8-11-13.3c-0.2,0-0.4-0.3-0.3-0.5c0-0.2,0.3-0.4,0.5-0.3c8.4,1.5,11.2,11.8,11.6,13.7
				c12.2,2.6,10.8,13,10.8,13.1C225.4,40.7,225.2,40.8,225,40.8z"/>
		</g>
		<g>
			<path class="st1 head" d="M119.4,77.6"/>
			<path class="st1 head" d="M117.7,76c0-1.3,1.5-32.5,17.2-48.7"/>
		</g>
		<g>
			<path class="st1 head" d="M154.4,15.6c0.6-0.3,15.1-6.5,39.9-4.6c23.6,1.8,37.1,14.2,37.6,14.7"/>
			<path class="st0" d="M229.6,28.3"/>
		</g>
		<g>
			<path class="st1 head" d="M248.7,45.2c0.4,0.8,10.7,23.2,2.1,48.5"/>
		</g>
	</g>
	<g id="body">
	<g>
		<path class="st1 body" d="M230.1,152.7"/>
		<path class="st1 body" d="M196.9,205.1"/>
		<path class="st1 body" d="M246.3,80.5l6,14.8c0.1,0.2,0.1,0.4,0.1,0.7c0,0.3-0.2,8.3-7.2,18.1c-0.1,5.4-1.1,20.1-7.6,20.1
			c-1.8,0-3.2-0.5-4.4-1.2c1.1,7.5,2.1,18.5-0.3,21.8c-1.3,1.8-2.6,1.9-3.5,1.7c-0.6-0.1-1.2-0.5-1.7-1c-0.7,5.1-2.6,12.4-7.5,21
			c-0.3,2.9-3.2,20.3-21.5,31.5c-0.5,0.3-12.1,7.3-27,10.1c-0.1,0-0.2,0-0.3,0"/>
		<path class="st0" d="M232,126.2"/>
	</g>
	<g>
		<path class="st1 body" d="M50,145
			C57.4,115.8,73.4,100.7,86,93c12.1-7.4,23.2-9.4,26-9.8l17.3-20.7
			 M24.2,236.6l-0.6,1.5c0,0,0,0.1,0,0.1c0.2-0.3,0.4-0.6,0.6-0.8L24.2,236.6z"/>
	</g>
	<g>
		<path class="st0 body" d="M145.7,102c0,0-8,4.2-4.8,7.5c3.3,3.3,15.2-0.7,15.2-0.7l-5.3-0.1l3.1-1.7l-5.1,1.2l2.8-2.8l-4.8,1.9
			l2.8-2.4l-4.2,0.8l3-2.4l-4.7,1.4L145.7,102z"/>
	</g>
	<g>
		<path class="st0 body" d="M131.2,103"/>
	</g>
	<g>
		<path class="st0 body" d="M122.6,95.8c0,0-10.1,6.8-6.1,10.3s16.2-3.9,16.2-3.9l-7.2,2.6l4.6-4.3l-7.2,3.7l4.7-4.6l-6.9,3.7l5.1-5.3
			l-6.1,2.9L122.6,95.8z"/>
	</g>
	<g>
		<path class="st0 body" d="M95.6,109.6c0,0-7.4,6.6-2.7,9.5c4.7,2.9,11.6-6,11.6-6l-5,2.4l3.4-4.5l-6,3.7l2.8-5.1l-4.8,3.6l2.9-4.3
			l-4.1,3.4L95.6,109.6z"/>
	</g>
	<g>
		<path class="st0 body" d="M87.9,95.3c-0.3-0.1-8.2,4.2-7,7.3c1.2,3.1,13.8-2.6,16.7-6.3L91.7,99l5.7-5.6l-7.5,4.1l4.8-4.4l-10.3,6.4
			L87.9,95.3z"/>
	</g>
	<g>
		<path class="st0 body" d="M71.9,117.8c0,0-10,7.6-6.5,11.8c3.5,4.2,16.6-8.1,16.6-8.1l-6,2.4l5.5-5.7l-8.3,5c0,0,5.4-5.9,5.5-6
			c0.1-0.1-8.7,5.1-8.7,5.1l4.9-6.5L71.9,117.8z"/>
	</g>
	<g>
		<path class="st0 body" d="M96.9,123.3c0,0-10.7,9-6.6,12.1c4.1,3.1,15.7-6.6,15.7-6.6l-5.3,1.4l4-4.8l-6.7,4.2l4.8-6.4l-8.2,4.7
			l4.8-5.9L96.9,123.3z"/>
	</g>
	<g>
		<path class="st0 body" d="M115.2,120.5c0,0-11.3,9.8-7,12.2c4.3,2.4,15.4-7.4,17.1-9.5l-6.2,3.3c0,0,5.1-5.4,4.9-5.1
			c-0.1,0.3-7.7,5.1-7.7,5.1l5-6l-7,5.2l4.5-6.5l-5.4,5.2L115.2,120.5z"/>
	</g>
	<g>
		<path class="st0 body" d="M202.3,116.6c0,0-2,10.2,4,13.5c6,3.3,5.8-6.1,5.8-6.1l-1.4,2.9l0.2-5.9l-1.4,5.3l-1.3-7.7l-1.2,6.5
			l-1.2-8.2l-0.7,5.4l-0.8-5l-0.4,3.9L202.3,116.6z"/>
	</g>
	<g>
		<path class="st0 body" d="M227.4,105.5c0,0,1.8,4.5,7.5,1.8c5.7-2.7,2.5-10.1,2.5-10.1l-1,4.1l-1.8-1.6l0.2,2.5c0,0-1.8-2-1.6-1.6
			s0.7,2.1,0.7,2.1l-1.9-1.2l0.6,2.5l-2.2-1.4l0.4,3.1l-2.1-1.9l1.1,2.5l-2.7-0.8"/>
	</g>
	<g>
		<path class="st0 body" d="M238.2,107.2c0,0,1.5,4.9,4.5,4.8c3.1-0.1,3.9-7.1,3.9-7.1l-1.8,2.2l-0.4-3.7l-1,4.8c0,0-1.2-5.1-1.2-4.7
			s-0.1,4.5-0.1,4.5l-1-4.5l-0.4,4.7l-0.7-4.2l-0.7,4.1L238.2,107.2z"/>
	</g>
	<g>
		<path class="st0 body" d="M242.2,116.3c0,0-0.6,3.9-3.9,2.4c-3.3-1.5-6.2-7.7-6.2-7.7l3.1,2.7l-0.3-3.7l2.4,4.5l0.2-3.5l2,3.8l0.9-2.7
			l0.6,3.1l1-2.4L242.2,116.3z"/>
	</g>
	<g>
		<path class="st0 body" d="M229.2,118.9c0,0,1.3,10.7,7.3,11.9s5.2-9.3,5.2-9.3l-2.6,5.3l-0.4-5.9l-1,5.1c0,0-1.6-5.8-1.6-5.6
			c0,0.2-0.4,5.2-0.4,5.2s-2-5.7-1.9-5.4s-0.1,5.1-0.1,5.1s-1.4-6-1.4-5.7s-0.3,4.5-0.3,4.5l-1.4-4.5l-0.2,1.7L229.2,118.9z"/>
	</g>
	<g>
		<path class="st0 body" d="M228.9,125.8c0,0-1,1.5-4.5-0.9c-3.5-2.4-3.3-9.3-3.3-9.3l1.7,5l0.6-4.1l0.6,4.7l0.9-3.4
			c0,0,0.6,4.5,0.6,4.2c0-0.2,0.7-3,0.7-3l0.4,3.8l1-2.4l0.4,3l0.7-2.5l0.1,3.4l0.8-0.8L228.9,125.8z"/>
	</g>
	<g>
		<path class="st0 body" d="M224,140.6c0,0-1.6,3.2-6,2.5s-5.7-8-5.4-10.4l0.8,3.7c0,0,0.7-4.1,0.7-3.9c0,0.2,0.4,4.8,0.4,4.8
			s2.1-5.2,2-4.8c-0.1,0.4,0.6,4.8,0.6,4.8l1.1-3.8l1,4.2l0.6-3.5c0,0,0.6,4.9,0.7,4.6s1-3.5,1-3.5s0.4,4.4,0.6,4.2
			c0.2-0.2,1.1-3.1,1.1-3.1v3.4l1.6-2L224,140.6z"/>
	</g>
	<g>
		<path class="st0 body" d="M227.3,130.6c0,0.2-0.1,4.7-3.1,3.9s-6.1-4.5-6-10.9l1.6,4l0.4-3.1l0.5,3.7l1.3-2.5l0.7,3.1l1-2.2l0.4,3.1
			l1.3-2.3l0.1,3.1l1-2.8v3.2l0.7-0.7"/>
	</g>
	<g>
		<path class="st0 body" d="M211.8,164.1c0,0,10.3-3.9,13.7-6.5c0,0-1.1,4.9-1.5,5.9c-0.4,1-6.4,4.5-15.4,6.9
			C208.6,170.3,210.6,166.5,211.8,164.1z"/>
	</g>
	<g>
		<path class="st0 body" d="M205.6,175.6c0,0,13.5-5.5,16.8-8.1c0,0-2.1,5.1-3.5,7.4c-0.6,0.9-12.4,6.9-18.2,8.3
			C200.8,183.2,204.1,178.3,205.6,175.6z"/>
	</g>
	<g>
		<path class="st0 body" d="M197.2,188.1c0,0,12.3-3.1,20.6-8.9c0,0-1.4,5.2-2.5,7.2c-0.5,0.9-18.5,8-24.2,9.4
			C191.2,195.7,194.9,191.2,197.2,188.1z"/>
	</g>
	<g>
		<path class="st0 body" d="M186.4,201.1c0,0,21-4.2,26.3-9.5c0,0-5,6.7-7.1,8.7c-0.8,0.7-9.3,4.5-26.4,7.6
			C179.2,207.9,184,203.7,186.4,201.1z"/>
	</g>
	<g>
		<path class="st0 body" d="M175.2,211.4c0,0,14.4-1.1,25.4-6.7c0,0-18.2,11.8-31.1,11C169.5,215.7,173.9,212.6,175.2,211.4z"/>
	</g>
	</g>
	<g id="wing">
	<g>
		<path class="st2 wing" d="M216.5,153.2c-0.2,0.6-5.9,16-17.8,33c-11,15.7-29.5,35.8-55.7,42.4c-1.8,2.2-9.6,10.8-22.2,10.8
			c-2.1,0-4.3-0.2-6.6-0.7"/>
	</g>
	<g>
		<path class="st1 wing" d="M130.9,226.9c-0.2,0.2-21.3,17.6-49.8,31.8C52.1,273.2,15.4,296,7,306.9c-0.3,0.4-0.8,0.7-1.3,0.7
			c-0.1,0-0.1,0-0.2,0c-0.6-0.1-1.1-0.5-1.3-1c-0.1-0.2-1.7-4.1-0.2-9.7l-1.4,0.8c-0.6,0.3-1.2,0.3-1.8-0.1c-0.5-0.4-0.8-1-0.7-1.6
			c0.1-1,3-23.7,17.4-43.5c0.5-1.6,2.6-9.1,5.8-13.8c-0.4,0.4-0.9,0.6-1.5,0.6c-0.8-0.1-1.3-0.7-1.4-1.5
			c-0.1-0.7-1.6-12.8,1.4-26.1c0,0.1-0.1,0.2-0.1,0.3c-0.2,0.8-1,1.3-1.8,1.2c-0.8-0.1-1.5-0.7-1.5-1.6
			c-0.1-0.8-1.1-19.3,11.5-41.4c10.6-18.6,19.6-24.2,22.5-25.7"/>
	</g>
	<g>
		<path class="st0 wing" d="M52.7,146.1c-0.2,0-0.3-0.1-0.4-0.2c-0.1-0.2,0-0.5,0.2-0.6c8.1-3.8,14.4-4.1,22.4-4.5
			c8.3-0.4,18.7-1,34.9-5.9c31-9.4,50.2-20.4,50.4-20.5c0.2-0.1,0.5,0,0.6,0.2c0.1,0.2,0,0.5-0.2,0.6c-0.2,0.1-19.5,11.2-50.6,20.6
			c-16.3,4.9-26.7,5.5-35.1,5.9c-7.9,0.4-14.1,0.8-22.1,4.5C52.9,146.1,52.8,146.1,52.7,146.1z"/>
	</g>
	<g>
		<path class="st0 wing" d="M28.9,185c0,0,18.6-12.7,24.6-23.4C53.5,161.6,50.8,178.2,28.9,185z"/>
	</g>
	<g>
		<path class="st0 wing" d="M54.8,171.6c0,0-6,7.9-14,12.2C40.8,183.8,51,181.4,54.8,171.6z"/>
	</g>
	<g>
		<path class="st0 wing" d="M64.8,169.6c0,0-15.8,20-23.9,28.1C40.8,197.8,59,182.7,64.8,169.6z"/>
	</g>
	<g>
		<path class="st0 wing" d="M63,182.5c0,0,16.2-16.8,19.1-23.5C82.1,158.9,75.9,177.5,63,182.5z"/>
	</g>
	<g>
		<path class="st0 wing" d="M82.9,168c0,0,16.1-17.3,18.7-23.7C101.6,144.3,98.4,157.7,82.9,168z"/>
	</g>
	<g>
		<path class="st0 wing" d="M107.2,167.2c0,0,16-13.7,19.5-20.5C126.7,146.7,121.3,162,107.2,167.2z"/>
	</g>
	<g>
		<path class="st0 wing" d="M154.6,168.1c0,0-10.2,1.1-18.3,7.3c-8,6.2-12.5,7.3-18.6,8.9c-6.1,1.7-10.8-3-10.8-3s3.1,5.4,9.3,5.5
			c6.3,0.1,17.5-5.6,20.6-8.9C139.9,174.5,149.6,168.4,154.6,168.1z"/>
	</g>
	<path class="st0 wing" d="M169.1,149.2c0,0-0.8,4.4,2.7,4.1c4.3-0.4,8-9,8-9C173.3,153.9,169.1,149.2,169.1,149.2z"/>
	<g>
		<path class="st0 wing" d="M127.6,162.1c-0.1,0-0.2,0-0.2-0.1c-0.2-0.1-0.2-0.4-0.1-0.6c9-12.2,32.7-39.5,33-39.8
			c0.2-0.2,0.4-0.2,0.6,0c0.2,0.2,0.2,0.4,0,0.6c-0.2,0.3-23.9,27.5-32.9,39.8C127.8,162,127.7,162.1,127.6,162.1z"/>
	</g>
	<g>
		<path class="st0 wing" d="M118.2,155.2c-0.1,0-0.2,0-0.3-0.1c-0.2-0.1-0.2-0.4-0.1-0.6c6.5-8,21.6-27.1,21.8-27.3
			c0.1-0.2,0.4-0.2,0.6-0.1c0.2,0.1,0.2,0.4,0.1,0.6c-0.2,0.2-15.3,19.3-21.8,27.3C118.4,155.2,118.3,155.2,118.2,155.2z"/>
	</g>
	<g>
		<path class="st0 wing" d="M101.6,175c-0.1,0-0.2,0-0.3-0.1c-0.2-0.1-0.2-0.4-0.1-0.6l4.6-5.7c0.1-0.2,0.4-0.2,0.6-0.1
			c0.2,0.1,0.2,0.4,0.1,0.6l-4.6,5.7C101.9,175,101.7,175,101.6,175z"/>
	</g>
	<g>
		<path class="st0 wing" d="M87.2,177.9c-0.1,0-0.1,0-0.2,0c-0.2-0.1-0.3-0.4-0.2-0.6c9.3-19.1,34.7-45.9,34.9-46.2
			c0.2-0.2,0.4-0.2,0.6,0c0.2,0.2,0.2,0.4,0,0.6c-0.3,0.3-25.5,27-34.8,45.9C87.5,177.8,87.3,177.9,87.2,177.9z"/>
	</g>
	<g>
		<path class="st0 wing" d="M85.1,140.2"/>
	</g>
	<g>
		<path class="st0 wing" d="M83.9,140.5"/>
	</g>
	<g>
		<path class="st0 wing" d="M58.9,172.2c-0.1,0-0.2,0-0.2-0.1c-0.2-0.1-0.2-0.4-0.1-0.6c8.6-12.4,26.1-31.4,26.3-31.6
			c0.2-0.2,0.4-0.2,0.6,0c0.2,0.2,0.2,0.4,0,0.6c-0.2,0.2-17.7,19.2-26.2,31.5C59.1,172.1,59,172.2,58.9,172.2z"/>
	</g>
	<g>
		<path class="st0 wing" d="M54.8,159.7c-0.1,0-0.2,0-0.2-0.1c-0.2-0.1-0.2-0.4-0.1-0.6c2.5-3.7,15-17.1,15.5-17.6
			c0.2-0.2,0.4-0.2,0.6,0c0.2,0.2,0.2,0.4,0,0.6c-0.1,0.1-13,13.9-15.5,17.5C55.1,159.6,55,159.7,54.8,159.7z"/>
	</g>
	<g>
		<circle class="st0 wing" cx="54.8" cy="150.9" r="1.1"/>
	</g>
	<g>
		<circle class="st0 wing" cx="47" cy="159.6" r="1.1"/>
	</g>
	<g>
		<circle class="st0 wing" cx="41.4" cy="168.3" r="1.1"/>
	</g>
	<g>
		<circle class="st0 wing" cx="67.2" cy="151.5" r="1.1"/>
	</g>
	<g>
		<circle class="st0 wing" cx="88.2" cy="147.3" r="1.1"/>
	</g>
	<g>
		<circle class="st0 wing" cx="121.5" cy="139.7" r="1.1"/>
	</g>
	<g>
		<circle class="st0 wing" cx="115.8" cy="145.7" r="1.1"/>
	</g>
	<g>
		<circle class="st0 wing" cx="146.6" cy="129.1" r="1.1"/>
	</g>
	<g>
		<circle class="st0 wing" cx="165.1" cy="126.5" r="1.1"/>
	</g>
	<g>
		<circle class="st0 wing" cx="158.1" cy="134.1" r="1.1"/>
	</g>
	<g>
		<circle class="st0 wing" cx="151" cy="142.1" r="1.1"/>
	</g>
	<g>
		<circle class="st0 wing" cx="143.9" cy="152.2" r="1.1"/>
	</g>
	<g>
		<circle class="st0 wing" cx="140.7" cy="135.9" r="1.1"/>
	</g>
	<g>
		<circle class="st0 wing" cx="134.5" cy="145" r="1.1"/>
	</g>
	<g>
		<circle class="st0 wing" cx="127.6" cy="154.7" r="1.1"/>
	</g>
	<g>
		<circle class="st0 wing" cx="118.6" cy="164.5" r="1.1"/>
	</g>
	<g>
		<circle class="st0 wing" cx="113" cy="173.5" r="1.1"/>
	</g>
	<g>
		<circle class="st0 wing" cx="108.3" cy="178.4" r="1.1"/>
	</g>
	<g>
		<circle class="st0 wing" cx="110.1" cy="153.4" r="1.1"/>
	</g>
	<g>
		<circle class="st0 wing" cx="102.6" cy="163.3" r="1.1"/>
	</g>
	<g>
		<circle class="st0 wing" cx="96.6" cy="171.9" r="1.1"/>
	</g>
	<g>
		<circle class="st0 wing" cx="83.2" cy="152.4" r="1.1"/>
	</g>
	<g>
		<circle class="st0 wing" cx="78" cy="157.9" r="1.1"/>
	</g>
	<g>
		<circle class="st0 wing" cx="62.5" cy="158.9" r="1.1"/>
	</g>
	<g>
		<circle class="st0 wing" cx="56.2" cy="166.7" r="1.1"/>
	</g>
	<g>
		<circle class="st0 wing" cx="40.2" cy="187.5" r="1.1"/>
	</g>
	<g>
		<path class="st0 wing" d="M172,171c0,0-7,6.5-12,10.4c-5.1,4-20.3,10.3-22.6,11c-2.3,0.7-6.5,1.5-10.9-1.1c0,0,4.8,4.6,9,4.3
			c4.3-0.3,10.7-3.2,12.8-4.6c2.1-1.4,11.5-6,13.6-8.2C164,180.6,171.8,171.9,172,171z"/>
	</g>
	<g>
		<path class="st0 wing" d="M27.7,219.6c0,0,9.4-11.7,12.2-18.9c0,0,11.3-4.2,15.5-10.8c0,0,7.2-1.6,7.8-2.3c0.7-0.7,10.8-9.9,10.8-9.9
			s-6.4,8.2-9.3,11l-7.9,2.4c0,0-5.7,7.5-15.8,10.1C41,201.2,34.2,214.7,27.7,219.6z"/>
	</g>
	<g>
		<path class="st0 wing" d="M86.2,179.9c0,0-5.1,6.1-10.2,8.5c0,0-7.6,1.6-12.6,1.7c0,0,8.2,1.3,14.5,0.1
			C77.9,190.2,84.8,183.4,86.2,179.9z"/>
	</g>
	<g>
		<path class="st0 wing" d="M101.4,176.4c0,0-10.9,10.7-22.3,11.9l-4.3,2.3C74.9,190.6,92.1,189.9,101.4,176.4z"/>
	</g>
	<g>
		<path class="st0 wing" d="M206.2,144.1c0,0-2.4,8.7-9.3,12.2C196.8,156.3,206,154,206.2,144.1z"/>
	</g>
	<g>
		<path class="st0 wing" d="M212.6,147c0,0,1.2,5.7-4,8.9C208.6,155.9,216.7,154.1,212.6,147z"/>
	</g>
	<g>
		<path class="st0 wing" d="M193,155.4c0,0-4.8,7.9-9.5,11.8c0,0-3.9,4.8-5.8,8.2c-1.9,3.4-11.6,16.7-20.3,19.8c0,0,2.8-3.6,3.3-5.1
			c0,0-16.5,14.8-32,17.1c0,0,17.9-4.3,26.2-9.5c0,0,12.2-2.4,21-15.5s8.8-13.7,8.8-13.7S191,161.5,193,155.4z"/>
	</g>
	<g>
		<path class="st0 wing" d="M196.6,147.9"/>
	</g>
	<g>
		<path class="st0 wing" d="M85.5,199c-0.9,0-1.7-0.1-2.3-0.3c-0.2-0.1-0.4-0.3-0.3-0.5c0.1-0.2,0.3-0.4,0.5-0.3c2.9,0.9,8.8-0.5,11-3
			c2.3-2.7,6.9-7.3,7-7.4c0.2-0.2,0.4-0.2,0.6,0c0.2,0.2,0.2,0.4,0,0.6c0,0-4.7,4.7-6.9,7.3C93.1,197.7,88.8,199,85.5,199z"/>
	</g>
	<g>
		<path class="st0 wing" d="M123.4,185"/>
	</g>
	<g>
		<path class="st0 wing" d="M123,184.8"/>
	</g>
	<g>
		<path class="st0 wing" d="M97,201.6c-7.3,0-9.4-2.8-9.5-3c-0.1-0.2-0.1-0.5,0.1-0.6c0.2-0.1,0.5-0.1,0.6,0.1c0,0,3.2,4.1,15.2,2
			c12.2-2.1,18.9-14.5,19-14.6c0.1-0.2,0.4-0.3,0.6-0.2c0.2,0.1,0.3,0.4,0.2,0.6c-0.1,0.1-7,12.8-19.6,15
			C101,201.4,98.8,201.6,97,201.6z"/>
	</g>
	<g>
		<path class="st0 wing" d="M18,253.6c-0.1,0-0.2,0-0.3-0.1c-0.2-0.2-0.2-0.4,0-0.6c20.6-23.6,65.4-54.5,65.8-54.8
			c0.2-0.1,0.5-0.1,0.6,0.1c0.1,0.2,0.1,0.5-0.1,0.6c-0.4,0.3-45.1,31.2-65.7,54.7C18.2,253.6,18.1,253.6,18,253.6z"/>
	</g>
	<g>
		<path class="st0 wing" d="M111.4,227.8c-6.1,0-10.5-1.7-10.5-1.7c-0.2-0.1-0.3-0.3-0.2-0.5c0.1-0.2,0.3-0.3,0.6-0.2
			c0.1,0,11,4.3,22.7-1c12-5.4,18-17.5,18.1-17.6c0.1-0.2,0.4-0.3,0.6-0.2c0.2,0.1,0.3,0.4,0.2,0.6c-0.1,0.1-6.2,12.4-18.5,18
			C119.7,227.1,115.2,227.8,111.4,227.8z"/>
	</g>
	<g>
		<path class="st0 wing" d="M108.1,217.4c-2.1,0-4.3-0.4-6.5-1.4c-0.2-0.1-0.3-0.3-0.2-0.6c0.1-0.2,0.3-0.3,0.6-0.2
			c12,5.3,23.2-7.2,23.4-7.3c0.2-0.2,0.4-0.2,0.6,0c0.2,0.2,0.2,0.4,0,0.6C125.9,208.6,117.9,217.4,108.1,217.4z"/>
	</g>
	<g>
		<path class="st0 wing" d="M104.4,214c-2.4,0-4.2-0.6-5.5-1.8c-1.5-1.5-1.5-3.3-1.5-3.4c0-0.2,0.2-0.4,0.4-0.4c0.2,0,0.4,0.2,0.4,0.4
			c0,0,0,1.6,1.3,2.8c1.1,1.1,2.8,1.6,5.1,1.6c6.6-0.1,16-6.2,16.1-6.3c0.2-0.1,0.5-0.1,0.6,0.1c0.1,0.2,0.1,0.5-0.1,0.6
			c-0.4,0.3-9.7,6.3-16.5,6.4C104.5,214,104.5,214,104.4,214z"/>
	</g>
	<g>
		<path class="st0 wing" d="M105.5,209.6c-2.1,0-4.2-0.6-5.9-2.3c-0.2-0.2-0.2-0.4,0-0.6s0.4-0.2,0.6,0c6.3,6.2,18.7-3.7,18.8-3.8
			c0.2-0.1,0.4-0.1,0.6,0.1c0.1,0.2,0.1,0.4-0.1,0.6C119.1,203.9,111.9,209.6,105.5,209.6z"/>
	</g>
	<g>
		<path class="st0 wing" d="M105.8,205.9c-0.8,0-1.5-0.1-2.2-0.3c-0.2-0.1-0.3-0.3-0.3-0.5c0.1-0.2,0.3-0.3,0.5-0.3
			c4.4,1.4,14.1-3.4,14.2-3.5c0.2-0.1,0.5,0,0.6,0.2c0.1,0.2,0,0.5-0.2,0.6C118.1,202.3,110.8,205.9,105.8,205.9z"/>
	</g>
	<g>
		<path class="st0 wing" d="M119.5,237.8c0,0-0.1,0-0.1,0c-0.2-0.1-0.3-0.3-0.3-0.5c0.7-2.2,0.2-4.1,0.2-4.1c-0.1-0.2,0.1-0.5,0.3-0.5
			c0.2-0.1,0.5,0.1,0.5,0.3c0,0.1,0.6,2.1-0.2,4.6C119.8,237.7,119.7,237.8,119.5,237.8z"/>
	</g>
	<g>
		<path class="st0 wing" d="M126,237.7c0,0-0.1,0-0.1,0c-0.2-0.1-0.3-0.3-0.3-0.5c1.3-3.9,0.8-9.9,0.8-10c0-0.2,0.2-0.4,0.4-0.5
			c0.2,0,0.4,0.2,0.5,0.4c0,0.3,0.5,6.2-0.8,10.3C126.3,237.6,126.1,237.7,126,237.7z"/>
	</g>
	<g>
		<path class="st0 wing" d="M134.6,235c0,0-0.1,0-0.1,0c-0.2-0.1-0.3-0.3-0.3-0.5c2.4-7.4,1.2-16.8,1.2-16.9c0-0.2,0.1-0.4,0.4-0.5
			c0.2,0,0.4,0.1,0.5,0.4c0,0.1,1.3,9.7-1.2,17.3C135,234.9,134.8,235,134.6,235z"/>
	</g>
	<g>
		<path class="st0 wing" d="M143.5,227.6c-0.1,0-0.1,0-0.2,0c-0.2-0.1-0.3-0.3-0.2-0.6c3.4-8-0.7-20.2-0.7-20.4c-0.1-0.2,0-0.5,0.3-0.5
			c0.2-0.1,0.5,0,0.5,0.3c0.2,0.5,4.3,12.7,0.7,21C143.8,227.5,143.7,227.6,143.5,227.6z"/>
	</g>
	<g>
		<path class="st0 wing" d="M152.4,224.6c-0.1,0-0.1,0-0.2,0c-0.2-0.1-0.3-0.3-0.2-0.5c3.3-8.4,0-24.8,0-25c0-0.2,0.1-0.5,0.3-0.5
			c0.2,0,0.5,0.1,0.5,0.3c0.1,0.7,3.3,16.8,0,25.4C152.8,224.5,152.6,224.6,152.4,224.6z"/>
	</g>
	<g>
		<path class="st0 wing" d="M161.9,194.9"/>
	</g>
	<g>
		<path class="st0 wing" d="M163.7,219.4C163.7,219.4,163.7,219.4,163.7,219.4c-0.3,0-0.5-0.3-0.4-0.5c1.4-10.3-1.6-24.3-1.6-24.4
			c0-0.2,0.1-0.5,0.3-0.5c0.2-0.1,0.5,0.1,0.5,0.3c0,0.1,3.1,14.3,1.6,24.7C164.1,219.3,163.9,219.4,163.7,219.4z"/>
	</g>
	<g>
		<path class="st0 wing" d="M173.8,213.1C173.8,213.1,173.8,213,173.8,213.1c-0.3,0-0.5-0.3-0.4-0.5c1.5-10.8-1.7-25.5-1.7-25.7
			c-0.1-0.2,0.1-0.5,0.3-0.5c0.2,0,0.5,0.1,0.5,0.3c0,0.1,3.2,15,1.7,26C174.2,212.9,174,213.1,173.8,213.1z"/>
	</g>
	<g>
		<path class="st0 wing" d="M183.7,204.4C183.6,204.4,183.6,204.4,183.7,204.4c-0.3,0-0.4-0.2-0.4-0.4c0.5-11.7-4-27.3-4.1-27.5
			c-0.1-0.2,0.1-0.5,0.3-0.5c0.2-0.1,0.5,0.1,0.5,0.3c0,0.2,4.7,15.9,4.1,27.8C184.1,204.3,183.9,204.4,183.7,204.4z"/>
	</g>
	<g>
		<path class="st0 wing" d="M192.2,195C192.2,195,192.2,195,192.2,195c-0.3,0-0.4-0.2-0.4-0.4c0.7-12.3-5.2-28.5-5.2-28.6
			c-0.1-0.2,0-0.5,0.2-0.5c0.2-0.1,0.5,0,0.5,0.2c0.1,0.2,6,16.5,5.3,29C192.6,194.9,192.4,195,192.2,195z"/>
	</g>
	<g>
		<path class="st0 wing" d="M199.1,185.6C199,185.6,199,185.6,199.1,185.6c-0.3,0-0.4-0.2-0.4-0.5c0.9-12.3-5.4-28.5-5.5-28.6
			c-0.1-0.2,0-0.5,0.2-0.5c0.2-0.1,0.5,0,0.5,0.2c0.1,0.2,6.5,16.5,5.5,29C199.5,185.4,199.3,185.6,199.1,185.6z"/>
	</g>
	<g>
		<path class="st0 wing" d="M206,175.3c-0.2,0-0.4-0.2-0.4-0.4c-0.1-9.1-4.2-21-4.3-21.1c-0.1-0.2,0-0.5,0.3-0.5c0.2-0.1,0.5,0,0.5,0.3
			c0,0.1,4.2,12.2,4.3,21.4C206.5,175.1,206.3,175.2,206,175.3L206,175.3z"/>
	</g>
	<g>
		<path class="st0 wing" d="M27.2,243.7c-0.2,0-0.4-0.2-0.4-0.4c-0.6-12,4.7-27.5,4.8-27.7c0.1-0.2,0.3-0.3,0.5-0.3
			c0.2,0.1,0.3,0.3,0.3,0.5c-0.1,0.2-5.3,15.6-4.7,27.4C27.6,243.5,27.5,243.7,27.2,243.7C27.2,243.7,27.2,243.7,27.2,243.7z"/>
	</g>
	<g>
		<path class="st0 wing" d="M34.8,236.8c-0.2,0-0.4-0.2-0.4-0.4c-1.3-12.9,3.1-29.8,3.2-30c0.1-0.2,0.3-0.4,0.5-0.3
			c0.2,0.1,0.4,0.3,0.3,0.5c0,0.2-4.4,16.9-3.2,29.7C35.2,236.6,35,236.8,34.8,236.8C34.8,236.8,34.8,236.8,34.8,236.8z"/>
	</g>
	<g>
		<path class="st0 wing" d="M41.5,231.4c-0.2,0-0.4-0.2-0.4-0.4c-1.7-12.1,2.4-31,2.5-31.1c0.1-0.2,0.3-0.4,0.5-0.3
			c0.2,0.1,0.4,0.3,0.3,0.5c0,0.2-4.1,18.9-2.5,30.8C42,231.1,41.8,231.3,41.5,231.4C41.6,231.4,41.5,231.4,41.5,231.4z"/>
	</g>
	<g>
		<path class="st0 wing" d="M48.2,225.2c-0.2,0-0.4-0.2-0.4-0.4c-1.2-9.2,0.1-27.1,0.1-27.3c0-0.2,0.2-0.4,0.5-0.4
			c0.2,0,0.4,0.2,0.4,0.5c0,0.2-1.3,18-0.1,27.1C48.6,225,48.5,225.2,48.2,225.2C48.2,225.2,48.2,225.2,48.2,225.2z"/>
	</g>
	<g>
		<path class="st0 wing" d="M55.3,219.6c-0.2,0-0.4-0.1-0.4-0.3c-1.8-10.2-0.7-26.3-0.7-26.4c0-0.2,0.2-0.4,0.4-0.4
			c0.2,0,0.4,0.2,0.4,0.4c0,0.2-1.1,16.2,0.7,26.2C55.8,219.4,55.6,219.6,55.3,219.6C55.4,219.6,55.4,219.6,55.3,219.6z"/>
	</g>
	<g>
		<path class="st0 wing" d="M62.3,214.6c-0.2,0-0.4-0.1-0.4-0.3c-2.5-9.6-2.2-24.3-2.2-24.5c0-0.2,0.2-0.4,0.4-0.4
			c0.2,0,0.4,0.2,0.4,0.4c0,0.1-0.3,14.8,2.2,24.2c0.1,0.2-0.1,0.5-0.3,0.5C62.4,214.6,62.3,214.6,62.3,214.6z"/>
	</g>
	<g>
		<path class="st0 wing" d="M67.3,210.3c-0.2,0-0.4-0.1-0.4-0.3c-1.8-6.2-2.6-18.9-2.6-19.5c0-0.2,0.2-0.4,0.4-0.4
			c0.2,0,0.4,0.2,0.4,0.4c0,0.1,0.8,13.1,2.6,19.3c0.1,0.2-0.1,0.5-0.3,0.5C67.3,210.3,67.3,210.3,67.3,210.3z"/>
	</g>
	<g>
		<path class="st0 wing" d="M73,206.2c-0.2,0-0.4-0.1-0.4-0.3c-1.7-5.9-2.9-15.7-2.9-15.8c0-0.2,0.1-0.4,0.4-0.5c0.2,0,0.4,0.1,0.5,0.4
			c0,0.1,1.2,9.8,2.9,15.6c0.1,0.2-0.1,0.5-0.3,0.5C73.1,206.2,73.1,206.2,73,206.2z"/>
	</g>
	<g>
		<path class="st0 wing" d="M78,202.7c-0.2,0-0.3-0.1-0.4-0.3c-1-3-2.6-11.5-2.7-11.9c0-0.2,0.1-0.5,0.3-0.5c0.2,0,0.5,0.1,0.5,0.3
			c0,0.1,1.7,8.8,2.7,11.8c0.1,0.2,0,0.5-0.3,0.5C78.1,202.7,78,202.7,78,202.7z"/>
	</g>
	<g>
		<path class="st0 wing" d="M80.6,189"/>
	</g>
	<g>
		<path class="st0 wing" d="M82.7,199.6c-0.2,0-0.3-0.1-0.4-0.2c-0.9-1.9-2.1-9.9-2.1-10.3c0-0.2,0.1-0.4,0.4-0.5c0.2,0,0.4,0.1,0.5,0.4
			c0,0.1,1.2,8.2,2.1,10c0.1,0.2,0,0.5-0.2,0.6C82.8,199.6,82.7,199.6,82.7,199.6z"/>
	</g>
	<g>
		<path class="st0 wing" d="M5.1,278.8c-0.1,0-0.2,0-0.2-0.1c-0.2-0.1-0.2-0.4-0.1-0.6c29.3-42.7,85-75.3,85.6-75.6
			c0.2-0.1,0.5,0,0.6,0.2c0.1,0.2,0,0.5-0.2,0.6c-0.6,0.3-56.1,32.8-85.3,75.4C5.3,278.8,5.2,278.8,5.1,278.8z"/>
	</g>
	<g>
		<path class="st0 wing" d="M3.3,287c-0.1,0-0.2,0-0.2-0.1c-0.2-0.1-0.2-0.4-0.1-0.6c31.4-45.5,90.9-80.3,91.5-80.6
			c0.2-0.1,0.5,0,0.6,0.2c0.1,0.2,0,0.5-0.2,0.6c-0.6,0.3-60,35-91.3,80.3C3.5,286.9,3.4,287,3.3,287z"/>
	</g>
	<g>
		<path class="st0 wing" d="M1.5,294.1c-0.1,0-0.2,0-0.2-0.1c-0.2-0.1-0.2-0.4-0.1-0.6c32.5-46.7,94.3-82.4,94.9-82.8
			c0.2-0.1,0.5,0,0.6,0.2c0.1,0.2,0,0.5-0.2,0.6c-0.6,0.4-62.2,36-94.6,82.5C1.7,294.1,1.6,294.1,1.5,294.1z"/>
	</g>
	<g>
		<path class="st0 wing" d="M7.8,291.7"/>
	</g>
	<g>
		<path class="st0 wing" d="M6.3,293.3c-0.1,0-0.2,0-0.3-0.1c-0.2-0.1-0.2-0.4-0.1-0.6c38.8-48.8,93-77.1,93.5-77.4
			c0.2-0.1,0.5,0,0.6,0.2c0.1,0.2,0,0.5-0.2,0.6c-0.5,0.3-54.6,28.5-93.2,77.2C6.5,293.3,6.4,293.3,6.3,293.3z"/>
	</g>
	<g>
		<path class="st0 wing" d="M24.1,285.4c-0.1,0-0.2,0-0.3-0.1c-0.2-0.2-0.2-0.4,0-0.6c36.2-36.8,86.8-67.9,87.3-68.2
			c0.2-0.1,0.5-0.1,0.6,0.1c0.1,0.2,0.1,0.5-0.1,0.6c-0.5,0.3-51,31.4-87.1,68.1C24.4,285.4,24.2,285.4,24.1,285.4z"/>
	</g>
	<g>
		<path class="st0 wing" d="M38.6,276.9c-0.1,0-0.3-0.1-0.3-0.2c-0.1-0.2-0.1-0.5,0.1-0.6c26.7-20.2,71.7-48.4,72.2-48.7
			c0.2-0.1,0.5-0.1,0.6,0.1c0.1,0.2,0.1,0.5-0.1,0.6c-0.5,0.3-45.4,28.4-72.1,48.7C38.8,276.8,38.7,276.9,38.6,276.9z"/>
	</g>
	<g>
		<path class="st0 wing" d="M73.2,257.8c-0.1,0-0.3-0.1-0.4-0.2c-0.1-0.2-0.1-0.5,0.1-0.6l49.1-32c0.2-0.1,0.5-0.1,0.6,0.1
			c0.1,0.2,0.1,0.5-0.1,0.6l-49.1,32C73.4,257.8,73.3,257.8,73.2,257.8z"/>
	</g>
	</g>
	<g id="tail">
		<g>
			<path class="st2 tail" d="M60.4,295.7"/>
			<path class="st2 tail" d="M35.6,285.7c0.2-0.9,1.1-1.5,2-1.3c0.9,0.2,1.5,1.1,1.3,2c0,0.1-1,5.1-1,9.5c0.7,1,3.4,4.6,10.8,4.6
				c8.1,0,8.3-4.7,8.3-4.8c0-0.8,0-8.4,0.6-11.1c0.2-0.9,1.1-1.5,2-1.3"/>
		</g>
		<g>
			<path class="st2 tail" d="M57.2,290.7c0.2-0.9,1.1-1.5,2-1.2c2.3,0.6,3.9-0.6,4.6-1.2c-0.2-10.1,3.9-23.2,4.1-23.7
				c0.3-0.9,1.2-1.4,2.1-1.1"/>
		</g>
		<g>
			<path class="st0 tail" d="M38.7,296.9c-0.2,0-0.4-0.2-0.4-0.4c0-4.5,2-14.3,2.1-14.7c0-0.2,0.3-0.4,0.5-0.3c0.2,0,0.4,0.3,0.3,0.5
				c0,0.1-2.1,10.1-2.1,14.5C39.2,296.8,39,296.9,38.7,296.9z"/>
		</g>
		<g>
			<path class="st0 tail" d="M44.6,299.6C44.5,299.6,44.5,299.6,44.6,299.6c-0.2,0-0.4-0.2-0.4-0.4c0.1-7,2.4-20.8,2.4-20.9
				c0-0.2,0.3-0.4,0.5-0.3c0.2,0,0.4,0.3,0.4,0.5c0,0.1-2.2,13.9-2.4,20.8C45,299.4,44.8,299.6,44.6,299.6z"/>
		</g>
		<g>
			<path class="st0 tail" d="M50.7,300.1c-0.2,0-0.4-0.2-0.4-0.4c-0.4-5.6,2.1-24.3,2.2-25.1c0-0.2,0.2-0.4,0.5-0.4
				c0.2,0,0.4,0.2,0.4,0.5c0,0.2-2.7,19.4-2.2,24.9C51.1,299.8,50.9,300.1,50.7,300.1C50.7,300.1,50.7,300.1,50.7,300.1z"/>
		</g>
		<g>
			<path class="st0 tail" d="M55.9,298.3c-0.2,0-0.4-0.2-0.4-0.4c-0.4-8.1,2.5-26.6,2.5-26.8c0-0.2,0.3-0.4,0.5-0.3
				c0.2,0,0.4,0.3,0.4,0.5c0,0.2-3,18.5-2.5,26.6C56.3,298.1,56.1,298.3,55.9,298.3C55.9,298.3,55.9,298.3,55.9,298.3z"/>
		</g>
		<g>
			<path class="st0 tail" d="M60.3,280.4C60.3,280.4,60.3,280.4,60.3,280.4c-0.3,0-0.4-0.2-0.4-0.5c0.4-3.7,2.1-11,2.1-11.1
				c0.1-0.2,0.3-0.4,0.5-0.3c0.2,0.1,0.4,0.3,0.3,0.5c0,0.1-1.6,7.3-2.1,11C60.7,280.2,60.6,280.4,60.3,280.4z"/>
		</g>
	</g>
	<g id="paw">
		<g>
			<path class="st2 paw" d="M169.4,215.7c0,0-12,8.5-25.4,11.5l-1.9,2.3c-2.2,4-1.6,14.6-1.6,14.6s5-11.6,11.4-11.6c0,0,0.1,0,0.1,0
				c6.4,0.1,13.3,7,13.3,7s0.6,1.6,0.7,6s4.3,9.8,5.2,13.4c0.9,3.6,1,9.2,1,9.2s4.9-7.3,5.8-12.2c0.9-4.9,0.6-10.4,0.3-13.4
				c-0.2-2.3,1.7-2.6,2.7-2.6c0.3,0,0.5,0,0.5,0c8.3,0.7,19.1,7.5,19.1,7.5c2.8,3.4,1.9,8.6,1.9,8.6c4-7.7,3.1-17.4,3.1-17.4
				c-2.7-3.6-14.3-8.9-14.3-8.9l-4.5-4.3l13.6,1.2c4.8,1.2,7.6,8.8,7.6,8.8c-0.7-10.4-4.9-17.4-4.9-17.4c-2.6-0.7-6.2-0.9-9.7-0.9
				c-5.8,0-11.2,0.6-11.2,0.6L169.4,215.7L169.4,215.7z"/>
		</g>
		<g>
			<path class="st0 paw" d="M146.6,235.1c-0.2,0-0.3-0.1-0.4-0.2c-1.3-2.7-5.2-2.1-5.2-2.1c-0.2,0-0.4-0.1-0.5-0.3
				c0-0.2,0.1-0.4,0.3-0.5c0.2,0,4.6-0.8,6.1,2.5c0.1,0.2,0,0.5-0.2,0.6C146.7,235.1,146.6,235.1,146.6,235.1z"/>
		</g>
		<g>
			<path class="st0 paw" d="M150.7,232.8c-0.2,0-0.4-0.1-0.4-0.4c-0.7-4-4.6-5.2-4.6-5.3c-0.2-0.1-0.3-0.3-0.3-0.5
				c0.1-0.2,0.3-0.4,0.5-0.3c0.2,0.1,4.4,1.4,5.2,5.9C151.1,232.6,151,232.8,150.7,232.8C150.7,232.8,150.7,232.8,150.7,232.8z"/>
		</g>
		<g>
			<path class="st0 paw" d="M154.5,227c-0.2,0-0.4-0.2-0.4-0.4c0-0.2,0.2-0.4,0.4-0.4c0.1,0,10.8-0.6,13.6-10.1c0.1-0.2,0.3-0.4,0.5-0.3
				c0.2,0.1,0.3,0.3,0.3,0.5C165.9,226.4,154.7,227,154.5,227C154.5,227,154.5,227,154.5,227z"/>
		</g>
		<g>
			<path class="st0 paw" d="M159.9,234.4c-0.1,0-0.3-0.1-0.4-0.2c-0.1-0.2-0.1-0.5,0.1-0.6c0.1-0.1,12.3-7.8,13.1-17
				c0-0.2,0.2-0.4,0.5-0.4c0.2,0,0.4,0.2,0.4,0.5c-0.9,9.7-13,17.4-13.5,17.7C160,234.4,160,234.4,159.9,234.4z"/>
		</g>
		<g>
			<path class="st0 paw" d="M167.7,237.3c-0.1,0-0.2,0-0.3-0.1c-0.2-0.2-0.1-0.4,0-0.6c0.1-0.1,10-9.1,11.3-18.5c0-0.2,0.2-0.4,0.5-0.4
				c0.2,0,0.4,0.2,0.4,0.5c-1.3,9.7-11.1,18.6-11.5,19C167.9,237.2,167.8,237.3,167.7,237.3z"/>
		</g>
		<g>
			<path class="st0 paw" d="M174.8,239.6c-0.1,0-0.2,0-0.3-0.1c-0.2-0.2-0.2-0.4,0-0.6c0.1-0.1,8.9-8.9,9.7-20.5c0-0.2,0.2-0.4,0.5-0.4
				c0.2,0,0.4,0.2,0.4,0.5c-0.8,11.9-9.9,21-10,21.1C175,239.6,174.9,239.6,174.8,239.6z"/>
		</g>
		<g>
			<path class="st0 paw" d="M188.7,225.2c-0.1,0-0.2,0-0.3-0.1c-2.6-2-1.8-7.1-1.8-7.3c0-0.2,0.2-0.4,0.5-0.4c0.2,0,0.4,0.2,0.4,0.5
				c0,0-0.7,4.8,1.5,6.5c0.2,0.1,0.2,0.4,0.1,0.6C188.9,225.1,188.8,225.2,188.7,225.2z"/>
		</g>
		<g>
			<path class="st0 paw" d="M192.4,225.7c-0.1,0-0.2,0-0.2-0.1c-3.8-2.5-3-7.9-3-8.1c0-0.2,0.2-0.4,0.5-0.4c0.2,0,0.4,0.2,0.4,0.5
				c0,0.1-0.7,5.1,2.6,7.3c0.2,0.1,0.2,0.4,0.1,0.6C192.7,225.6,192.5,225.7,192.4,225.7z"/>
		</g>
		<g>
			<path class="st0 paw" d="M195.1,225.8c-0.1,0-0.2,0-0.3-0.1c-2.5-2-1.7-8.2-1.7-8.4c0-0.2,0.2-0.4,0.5-0.4c0.2,0,0.4,0.2,0.4,0.5
				c0,0.1-0.7,6,1.4,7.7c0.2,0.1,0.2,0.4,0.1,0.6C195.4,225.7,195.3,225.8,195.1,225.8z"/>
		</g>
		<g>
			<path class="st0 paw" d="M198.1,226.1c-0.1,0-0.3-0.1-0.4-0.2c-1.6-2.4,0-8,0-8.2c0.1-0.2,0.3-0.4,0.5-0.3c0.2,0.1,0.4,0.3,0.3,0.5
				c0,0.1-1.5,5.4-0.1,7.5c0.1,0.2,0.1,0.5-0.1,0.6C198.3,226.1,198.2,226.1,198.1,226.1z"/>
		</g>
		<g>
			<path class="st0 paw" d="M201.5,226.4c-0.2,0-0.4-0.1-0.4-0.3c-0.8-3,1.4-7.3,1.5-7.5c0.1-0.2,0.4-0.3,0.6-0.2
				c0.2,0.1,0.3,0.4,0.2,0.6c0,0-2.2,4.2-1.5,6.9c0.1,0.2-0.1,0.5-0.3,0.5C201.5,226.4,201.5,226.4,201.5,226.4z"/>
		</g>
		<g>
			<path class="st0 paw" d="M205.2,230c-0.2,0-0.4-0.2-0.4-0.4c0-1.1,1-2.6,1.1-2.8c0.1-0.2,0.4-0.2,0.6-0.1c0.2,0.1,0.2,0.4,0.1,0.6
				c-0.3,0.4-1,1.6-1,2.3C205.6,229.9,205.4,230,205.2,230z"/>
		</g>
		<g>
			<path class="st0 paw" d="M178,239.5c0,0-0.1,0-0.1,0c-0.2-0.1-0.4-0.3-0.3-0.5c2.7-9.7,9.1-12.2,9.4-12.3c0.2-0.1,0.5,0,0.5,0.2
				c0.1,0.2,0,0.5-0.2,0.5c-0.1,0-6.2,2.5-8.8,11.8C178.4,239.4,178.2,239.5,178,239.5z"/>
		</g>
		<g>
			<path class="st0 paw" d="M181.8,239.2C181.8,239.2,181.8,239.2,181.8,239.2c-0.3,0-0.4-0.2-0.4-0.5c0.7-6,6.9-10.3,7.1-10.5
				c0.2-0.1,0.5-0.1,0.6,0.1c0.1,0.2,0.1,0.5-0.1,0.6c-0.1,0-6.1,4.2-6.8,9.9C182.2,239,182,239.2,181.8,239.2z"/>
		</g>
		<g>
			<path class="st0 paw" d="M186.9,239.4C186.8,239.4,186.8,239.4,186.9,239.4c-0.3-0.1-0.5-0.3-0.4-0.5c1.5-6.3,4.9-7.8,5-7.8
				c0.2-0.1,0.5,0,0.5,0.2c0.1,0.2,0,0.5-0.2,0.5c-0.1,0-3.2,1.4-4.5,7.2C187.2,239.3,187.1,239.4,186.9,239.4z"/>
		</g>
		<g>
			<path class="st0 paw" d="M191.6,242.2C191.6,242.2,191.6,242.2,191.6,242.2c-0.3-0.1-0.5-0.3-0.4-0.5c1.6-7.4,7.2-7.3,7.3-7.3
				c0.2,0,0.4,0.2,0.4,0.4c0,0.2-0.2,0.4-0.4,0.4c-0.2,0-5-0.1-6.4,6.6C192,242,191.8,242.2,191.6,242.2z"/>
		</g>
		<g>
			<path class="st0 paw" d="M196.8,245.5c0,0-0.1,0-0.1,0c-0.2-0.1-0.4-0.3-0.3-0.5c1.8-6.5,5.4-6.8,5.6-6.8c0.2,0,0.4,0.2,0.4,0.4
				c0,0.2-0.2,0.4-0.4,0.4c-0.1,0-3.2,0.3-4.8,6.2C197.1,245.4,197,245.5,196.8,245.5z"/>
		</g>
		<g>
			<path class="st0 paw" d="M200.5,247.2c-0.1,0-0.1,0-0.2,0c-0.2-0.1-0.3-0.4-0.2-0.6c1.9-3.7,5-3.3,5.1-3.3c0.2,0,0.4,0.3,0.4,0.5
				c0,0.2-0.3,0.4-0.5,0.4c-0.1,0-2.7-0.3-4.3,2.8C200.8,247.1,200.7,247.2,200.5,247.2z"/>
		</g>
		<g>
			<path class="st0 paw" d="M166.4,242.8c-0.1,0-0.2-0.1-0.3-0.1c-0.2-0.2-0.1-0.4,0-0.6c5.6-4.8,11.8-1,11.9-1c0.2,0.1,0.3,0.4,0.1,0.6
				c-0.1,0.2-0.4,0.3-0.6,0.1c-0.2-0.1-5.7-3.5-10.9,0.9C166.6,242.8,166.5,242.8,166.4,242.8z"/>
		</g>
		<g>
			<path class="st0 paw" d="M166.9,248.4c-0.1,0-0.2,0-0.3-0.1c-0.2-0.2-0.2-0.4,0-0.6c4.3-4.3,11.3-1.2,11.6-1.1
				c0.2,0.1,0.3,0.3,0.2,0.6c-0.1,0.2-0.3,0.3-0.6,0.2c-0.1,0-6.8-3-10.7,0.9C167.1,248.4,167,248.4,166.9,248.4z"/>
		</g>
		<g>
			<path class="st0 paw" d="M168.8,253.1c-0.1,0-0.2-0.1-0.3-0.2c-0.1-0.2-0.1-0.4,0.1-0.6c4.4-3.4,9.4-0.4,9.4-0.4
				c0.2,0.1,0.3,0.4,0.1,0.6c-0.1,0.2-0.4,0.3-0.6,0.1c-0.2-0.1-4.6-2.7-8.5,0.3C169,253.1,168.9,253.1,168.8,253.1z"/>
		</g>
		<g>
			<path class="st0 paw" d="M176.7,258.2c-0.1,0-0.2,0-0.3-0.1c-0.1-0.1-2.4-1.9-4.9-0.2c-0.2,0.1-0.5,0.1-0.6-0.1
				c-0.1-0.2-0.1-0.5,0.1-0.6c3-2.1,5.9,0.2,5.9,0.2c0.2,0.1,0.2,0.4,0.1,0.6C176.9,258.2,176.8,258.2,176.7,258.2z"/>
		</g>
		<g>
			<path class="st0 paw" d="M175,262.8c-0.1,0-0.2,0-0.2-0.1c-0.1,0-1.3-0.9-2.5,0c-0.2,0.1-0.5,0.1-0.6-0.1c-0.1-0.2-0.1-0.5,0.1-0.6
				c1.7-1.2,3.4-0.1,3.5,0c0.2,0.1,0.2,0.4,0.1,0.6C175.3,262.7,175.2,262.8,175,262.8z"/>
		</g>
	</g>
	<g id="down">
		<g>
			<path class="st2 down" d="M205,223.8c0.8-0.5,1.8-0.3,2.3,0.5l10.6,16.3l15,3.6c0.6,0.1,1.1,0.6,1.2,1.2l7.2,29c0,0.1,0,0.2,0,0.4
				l2.2,72.1c0,0.9-0.7,1.7-1.6,1.7c0,0,0,0-0.1,0"/>
		</g>
		<g>
			<path class="st2 down" d="M135.3,255"/>
			<path class="st2 down" d="M113.8,337.2c-0.8-0.5-1-1.6-0.5-2.3l8.9-13.3l1.4-36.7c0-0.4,0.1-0.7,0.4-1l6-7.5l1.9-22.1
				c0-0.3,0.1-0.5,0.3-0.8l13.6-20.6c0.5-0.8,1.6-1,2.3-0.5"/>
		</g>
		<g>
			<path class="st0 down" d="M133.6,254.8c-0.2,0-0.4-0.1-0.4-0.3c-0.1-0.2,0.1-0.5,0.3-0.5l22.9-6.4l3.8-11.9c0.1-0.2,0.3-0.3,0.5-0.3
				c0.2,0.1,0.3,0.3,0.3,0.5l-3.9,12.1c0,0.1-0.2,0.2-0.3,0.3l-23.1,6.5C133.7,254.8,133.7,254.8,133.6,254.8z"/>
		</g>
		<g>
			<path class="st0 down" d="M239,272.9c-0.1,0-0.2,0-0.3-0.1L226.2,260c0,0-0.1-0.1-0.1-0.1l-9.6-17.6c-0.1-0.2,0-0.5,0.2-0.6
				c0.2-0.1,0.5,0,0.6,0.2l9.6,17.6l12.5,12.8c0.2,0.2,0.2,0.4,0,0.6C239.2,272.9,239.1,272.9,239,272.9z"/>
		</g>
		<g>
			<path class="st0 down" d="M241.3,316.8c-0.1,0-0.2,0-0.3-0.1l-52.7-42.9c-0.1-0.1-0.1-0.2-0.2-0.3l-5.2-33.4c0-0.2,0.1-0.4,0.4-0.5
				c0.2,0,0.4,0.1,0.5,0.4l5.1,33.2l52.5,42.8c0.2,0.1,0.2,0.4,0.1,0.6C241.6,316.7,241.4,316.8,241.3,316.8z"/>
		</g>
		<g>
			<path class="st0 down" d="M199.6,282.6c-0.1,0-0.2-0.1-0.3-0.2c-0.1-0.2-0.1-0.4,0.1-0.6l26.8-22.4l6-13.5c0.1-0.2,0.3-0.3,0.6-0.2
				c0.2,0.1,0.3,0.3,0.2,0.6l-6.1,13.6c0,0.1-0.1,0.1-0.1,0.2l-26.9,22.5C199.8,282.6,199.7,282.6,199.6,282.6z"/>
		</g>
		<g>
			<path class="st0 down" d="M175.1,300.1c-0.2,0-0.3-0.1-0.4-0.3l-18.1-51.1l-24.7,28.6c-0.2,0.2-0.4,0.2-0.6,0c-0.2-0.2-0.2-0.4,0-0.6
				l25.1-29.1c0.1-0.1,0.2-0.2,0.4-0.1c0.1,0,0.3,0.1,0.3,0.3l18.4,51.8c0.1,0.2,0,0.5-0.3,0.5C175.2,300.1,175.2,300.1,175.1,300.1
				z"/>
		</g>
		<g>
			<path class="st0 down" d="M159.6,336.9c-0.1,0-0.1,0-0.2,0c-0.2-0.1-0.3-0.3-0.2-0.6l29-63c0.1-0.2,0.3-0.3,0.6-0.2
				c0.2,0.1,0.3,0.3,0.2,0.6l-29,63C160,336.8,159.8,336.9,159.6,336.9z"/>
		</g>
		<g>
			<path class="st0 down" d="M198.4,307.3c0,0-0.1,0-0.1,0l-73.1-21.9c-0.2-0.1-0.4-0.3-0.3-0.5c0.1-0.2,0.3-0.4,0.5-0.3l72.8,21.8
				l9-17.4c0.1-0.2,0.4-0.3,0.6-0.2c0.2,0.1,0.3,0.4,0.2,0.6l-9.1,17.7C198.7,307.2,198.5,307.3,198.4,307.3z"/>
		</g>
		<g>
			<path class="st0 down" d="M231.6,343.8c-0.1,0-0.1,0-0.2-0.1l-20.7-12.5c-0.1,0-0.1-0.1-0.2-0.2L198,307c-0.1-0.2,0-0.4,0.1-0.5
				l17.3-11.3c0.2-0.1,0.5-0.1,0.6,0.1c0.1,0.2,0.1,0.5-0.1,0.6l-17,11.1l12.3,23.6l20.6,12.5c0.2,0.1,0.3,0.4,0.1,0.6
				C231.9,343.7,231.7,343.8,231.6,343.8z"/>
		</g>
		<g>
			<path class="st0 down" d="M204,344.4c-0.1,0-0.1,0-0.2-0.1c-0.2-0.1-0.3-0.4-0.2-0.6l7-13.1c0.1-0.2,0.4-0.3,0.6-0.2
				c0.2,0.1,0.3,0.4,0.2,0.6l-7,13.1C204.3,344.3,204.1,344.4,204,344.4z"/>
		</g>
		<g>
			<path class="st0 down" d="M136.4,253.9c-0.1,0-0.2,0-0.2-0.1c-0.2-0.1-0.3-0.4-0.1-0.6l12.7-20.4c0.1-0.2,0.4-0.3,0.6-0.1
				c0.2,0.1,0.3,0.4,0.1,0.6l-12.7,20.4C136.7,253.8,136.5,253.9,136.4,253.9z"/>
		</g>
		<g>
			<path class="st0 down" d="M139.6,253.2c-0.1,0-0.2,0-0.2-0.1c-0.2-0.1-0.3-0.4-0.1-0.6l12.7-20.4c0.1-0.2,0.4-0.3,0.6-0.1
				c0.2,0.1,0.3,0.4,0.1,0.6L139.9,253C139.9,253.1,139.7,253.2,139.6,253.2z"/>
		</g>
		<g>
			<path class="st0 down" d="M143.6,252.1c-0.1,0-0.2,0-0.2-0.1c-0.2-0.1-0.3-0.4-0.1-0.6l11.6-18.5c0.1-0.2,0.4-0.3,0.6-0.1
				c0.2,0.1,0.3,0.4,0.1,0.6l-11.6,18.5C143.8,252,143.7,252.1,143.6,252.1z"/>
		</g>
		<g>
			<path class="st0 down" d="M147.3,251c-0.1,0-0.2,0-0.2-0.1c-0.2-0.1-0.3-0.4-0.1-0.6l10.3-16.5c0.1-0.2,0.4-0.3,0.6-0.1
				c0.2,0.1,0.3,0.4,0.1,0.6l-10.3,16.5C147.6,251,147.5,251,147.3,251z"/>
		</g>
		<g>
			<path class="st0 down" d="M151.4,249.8c-0.1,0-0.2,0-0.2-0.1c-0.2-0.1-0.3-0.4-0.1-0.6l8.7-13.9c0.1-0.2,0.4-0.3,0.6-0.1
				c0.2,0.1,0.3,0.4,0.1,0.6l-8.7,13.9C151.6,249.8,151.5,249.8,151.4,249.8z"/>
		</g>
		<g>
			<path class="st0 down" d="M154.7,249c-0.1,0-0.2,0-0.2-0.1c-0.2-0.1-0.3-0.4-0.1-0.6l3.8-6c0.1-0.2,0.4-0.3,0.6-0.1
				c0.2,0.1,0.3,0.4,0.1,0.6l-3.8,6C155,248.9,154.8,249,154.7,249z"/>
		</g>
		<g>
			<path class="st0 down" d="M171.8,290c-0.2,0-0.3-0.1-0.4-0.2c-0.1-0.2,0-0.5,0.2-0.6c0.2-0.1,6-3.2,9.8-0.1c0.2,0.1,0.2,0.4,0.1,0.6
				c-0.1,0.2-0.4,0.2-0.6,0.1c-3.4-2.8-8.8,0.1-8.9,0.1C171.9,290,171.8,290,171.8,290z"/>
		</g>
		<g>
			<path class="st0 down" d="M183.7,283.8c-0.1,0-0.2,0-0.3-0.1c-6.5-5.6-13.9-1.3-14-1.3c-0.2,0.1-0.5,0.1-0.6-0.1
				c-0.1-0.2-0.1-0.5,0.1-0.6c0.1,0,8-4.7,15,1.3c0.2,0.2,0.2,0.4,0,0.6C183.9,283.8,183.8,283.8,183.7,283.8z"/>
		</g>
		<g>
			<path class="st0 down" d="M186.5,278.4c-0.1,0-0.2,0-0.3-0.1c-7.2-7.8-19.2-2.1-19.3-2.1c-0.2,0.1-0.5,0-0.6-0.2
				c-0.1-0.2,0-0.5,0.2-0.6c0.1-0.1,12.7-6,20.3,2.3c0.2,0.2,0.1,0.4,0,0.6C186.7,278.4,186.6,278.4,186.5,278.4z"/>
		</g>
		<g>
			<path class="st0 down" d="M188,270.8c-0.1,0-0.2,0-0.2-0.1c-11.1-7.2-23.2-1-23.3-1c-0.2,0.1-0.5,0-0.6-0.2c-0.1-0.2,0-0.5,0.2-0.6
				c0.1-0.1,12.7-6.5,24.2,1c0.2,0.1,0.3,0.4,0.1,0.6C188.2,270.7,188.1,270.8,188,270.8z"/>
		</g>
		<g>
			<path class="st0 down" d="M162,263c-0.2,0-0.3-0.1-0.4-0.2c-0.1-0.2,0-0.5,0.2-0.6c0.2-0.1,4.7-2.5,9.4-3.2c0.2,0,0.4,0.1,0.5,0.4
				c0,0.2-0.1,0.4-0.4,0.5c-4.5,0.7-9.1,3.1-9.1,3.1C162.2,263,162.1,263,162,263z"/>
		</g>
		<g>
			<path class="st0 down" d="M187,262.6c-0.1,0-0.2,0-0.3-0.1c-3.3-2.7-9.6-2.6-9.7-2.6c0,0,0,0,0,0c-0.2,0-0.4-0.2-0.4-0.4
				c0-0.2,0.2-0.4,0.4-0.4c0.3,0,6.7-0.2,10.2,2.8c0.2,0.1,0.2,0.4,0.1,0.6C187.2,262.6,187.1,262.6,187,262.6z"/>
		</g>
		<g>
			<path class="st0 down" d="M240.7,308.8c-0.1,0-0.2,0-0.3-0.1l-37.6-29.5c-0.2-0.1-0.2-0.4-0.1-0.6c0.1-0.2,0.4-0.2,0.6-0.1l37.6,29.5
				c0.2,0.1,0.2,0.4,0.1,0.6C241,308.8,240.8,308.8,240.7,308.8z"/>
		</g>
		<g>
			<path class="st0 down" d="M240.6,301.8c-0.1,0-0.2,0-0.3-0.1l-32.9-25.9c-0.2-0.1-0.2-0.4-0.1-0.6c0.1-0.2,0.4-0.2,0.6-0.1l32.9,25.9
				c0.2,0.1,0.2,0.4,0.1,0.6C240.8,301.8,240.7,301.8,240.6,301.8z"/>
		</g>
		<g>
			<path class="st0 down" d="M240.4,294.8c-0.1,0-0.2,0-0.3-0.1l-28.5-22.5c-0.2-0.1-0.2-0.4-0.1-0.6c0.1-0.2,0.4-0.2,0.6-0.1l28.5,22.5
				c0.2,0.1,0.2,0.4,0.1,0.6C240.7,294.8,240.6,294.8,240.4,294.8z"/>
		</g>
		<g>
			<path class="st0 down" d="M240.1,287.7c-0.1,0-0.2,0-0.3-0.1L216,268.7c-0.2-0.1-0.2-0.4-0.1-0.6c0.1-0.2,0.4-0.2,0.6-0.1l23.9,18.9
				c0.2,0.1,0.2,0.4,0.1,0.6C240.4,287.6,240.3,287.7,240.1,287.7z"/>
		</g>
		<g>
			<path class="st0 down" d="M239.9,280.7c-0.1,0-0.2,0-0.3-0.1L220.1,265c-0.2-0.1-0.2-0.4-0.1-0.6c0.1-0.2,0.4-0.2,0.6-0.1l19.5,15.6
				c0.2,0.1,0.2,0.4,0.1,0.6C240.2,280.6,240,280.7,239.9,280.7z"/>
		</g>
		<g>
			<path class="st0 down" d="M239,272.9c-0.1,0-0.2,0-0.3-0.1l-14.3-11.4c-0.2-0.1-0.2-0.4-0.1-0.6c0.1-0.2,0.4-0.2,0.6-0.1l14.3,11.4
				c0.2,0.1,0.2,0.4,0.1,0.6C239.3,272.9,239.1,272.9,239,272.9z"/>
		</g>
		<g>
			<path class="st0 down" d="M188.3,254.7c-0.2,0-0.4-0.1-0.4-0.3l-2.8-13.6c0-0.2,0.1-0.5,0.3-0.5c0.2,0,0.5,0.1,0.5,0.3l2.8,13.6
				C188.7,254.4,188.6,254.6,188.3,254.7C188.3,254.7,188.3,254.7,188.3,254.7z"/>
		</g>
		<g>
			<path class="st0 down" d="M192.6,273.9c-0.2,0-0.4-0.1-0.4-0.3l-2.8-13.6c0-0.2,0.1-0.5,0.3-0.5c0.2,0,0.5,0.1,0.5,0.3l2.8,13.6
				C193.1,273.6,192.9,273.8,192.6,273.9C192.7,273.9,192.7,273.9,192.6,273.9z"/>
		</g>
		<g>
			<path class="st0 down" d="M192.1,256.2c-0.2,0-0.4-0.1-0.4-0.3l-2.8-13.6c0-0.2,0.1-0.5,0.3-0.5c0.2,0,0.5,0.1,0.5,0.3l2.8,13.6
				C192.6,255.9,192.4,256.1,192.1,256.2C192.2,256.2,192.2,256.2,192.1,256.2z"/>
		</g>
		<g>
			<path class="st0 down" d="M198.6,259c-0.2,0-0.4-0.1-0.4-0.3l-2.8-13.6c0-0.2,0.1-0.5,0.3-0.5c0.2,0,0.5,0.1,0.5,0.3l2.8,13.6
				C199,258.7,198.9,258.9,198.6,259C198.6,259,198.6,259,198.6,259z"/>
		</g>
		<g>
			<path class="st0 down" d="M212.5,268.5c-0.2,0-0.4-0.1-0.4-0.3l-2.8-13.6c0-0.2,0.1-0.5,0.3-0.5c0.2,0,0.5,0.1,0.5,0.3l2.8,13.6
				C213,268.2,212.8,268.5,212.5,268.5C212.6,268.5,212.5,268.5,212.5,268.5z"/>
		</g>
		<g>
			<path class="st0 down" d="M206.1,268.6c-0.2,0-0.4-0.1-0.4-0.3l-1.2-5.8c0-0.2,0.1-0.5,0.3-0.5c0.2,0,0.5,0.1,0.5,0.3l1.2,5.8
				C206.6,268.3,206.5,268.5,206.1,268.6C206.2,268.6,206.2,268.6,206.1,268.6z"/>
		</g>
		<g>
			<path class="st0 down" d="M200.7,269.2c-0.2,0-0.4-0.1-0.4-0.3l-1.2-5.8c0-0.2,0.1-0.5,0.3-0.5c0.2,0,0.5,0.1,0.5,0.3l1.2,5.8
				C201.1,268.9,201,269.1,200.7,269.2C200.7,269.2,200.7,269.2,200.7,269.2z"/>
		</g>
		<g>
			<path class="st0 down" d="M196.2,272.2c-0.2,0-0.4-0.1-0.4-0.3l-2.1-10.4c0-0.2,0.1-0.5,0.3-0.5c0.2,0,0.5,0.1,0.5,0.3l2.1,10.4
				C196.6,271.9,196.5,272.1,196.2,272.2C196.2,272.2,196.2,272.2,196.2,272.2z"/>
		</g>
		<g>
			<path class="st0 down" d="M218.1,260.2c-0.2,0-0.4-0.1-0.4-0.3l-2.8-13.6c0-0.2,0.1-0.5,0.3-0.5c0.2,0,0.5,0.1,0.5,0.3l2.8,13.6
				C218.5,259.9,218.4,260.1,218.1,260.2C218.1,260.2,218.1,260.2,218.1,260.2z"/>
		</g>
		<g>
			<path class="st0 down" d="M209,246.9c-0.2,0-0.4-0.1-0.4-0.3l-2.8-13.6c0-0.2,0.1-0.5,0.3-0.5c0.2,0,0.5,0.1,0.5,0.3l2.8,13.6
				C209.5,246.6,209.3,246.8,209,246.9C209.1,246.8,209,246.9,209,246.9z"/>
		</g>
		<g>
			<path class="st0 down" d="M135.7,272.3C135.7,272.3,135.7,272.3,135.7,272.3c-0.3,0-0.4-0.2-0.4-0.5l1.8-18.6c0-0.2,0.2-0.4,0.5-0.4
				c0.2,0,0.4,0.2,0.4,0.5l-1.8,18.6C136.1,272.1,135.9,272.3,135.7,272.3z"/>
		</g>
		<g>
			<path class="st0 down" d="M140.6,260.2C140.5,260.2,140.5,260.2,140.6,260.2c-0.3,0-0.5-0.3-0.4-0.5l1.2-7.5c0-0.2,0.3-0.4,0.5-0.4
				c0.2,0,0.4,0.3,0.4,0.5l-1.2,7.5C141,260,140.8,260.2,140.6,260.2z"/>
		</g>
		<g>
			<path class="st0 down" d="M130.5,283.5c-0.1,0-0.2,0-0.3-0.1c-0.2-0.1-0.2-0.4-0.1-0.6l10.7-13.3c0.1-0.2,0.4-0.2,0.6-0.1
				c0.2,0.1,0.2,0.4,0.1,0.6l-10.7,13.3C130.8,283.5,130.7,283.5,130.5,283.5z"/>
		</g>
		<g>
			<path class="st0 down" d="M136.8,285c-0.1,0-0.2,0-0.3-0.1c-0.2-0.1-0.2-0.4-0.1-0.6l10.7-13.3c0.1-0.2,0.4-0.2,0.6-0.1
				c0.2,0.1,0.2,0.4,0.1,0.6l-10.7,13.3C137,284.9,136.9,285,136.8,285z"/>
		</g>
		<g>
			<path class="st0 down" d="M142.9,286.5c-0.1,0-0.2,0-0.3-0.1c-0.2-0.1-0.2-0.4-0.1-0.6l6.9-8.5c0.1-0.2,0.4-0.2,0.6-0.1
				s0.2,0.4,0.1,0.6l-6.9,8.5C143.1,286.4,143,286.5,142.9,286.5z"/>
		</g>
		<g>
			<path class="st0 down" d="M149.1,285.7c-0.1,0-0.2,0-0.3-0.1c-0.2-0.1-0.2-0.4-0.1-0.6l3.1-3.8c0.1-0.2,0.4-0.2,0.6-0.1
				c0.2,0.1,0.2,0.4,0.1,0.6l-3.1,3.8C149.4,285.7,149.2,285.7,149.1,285.7z"/>
		</g>
	</g>
</g>
</svg>
