<svg version="1.1" id="Слой_1" xmlns="http://www.w3.org/2000/svg" xmlns:xlink="http://www.w3.org/1999/xlink" x="0px" y="0px"
	 width="22.5px" height="31.7px" viewBox="0 0 22.5 31.7" style="enable-background:new 0 0 22.5 31.7;" xml:space="preserve">
<style type="text/css">
	.st0{fill:#FFFFFF;}
	.st1{fill-rule:evenodd;clip-rule:evenodd;fill:#FFFFFF;}
</style>
<g>
	<g>
		<path class="st0" d="M21.6,59.4l-1.9,21.1l-8.3,2.3l-8.3-2.3L1.2,59.4H21.6 M22.4,58.7h-22l2,22.4l9,2.5l9-2.5L22.4,58.7
			L22.4,58.7z"/>
		<path class="st0" d="M2.5,52.6h1.4V54h1.3v-1.4h1.4v4.2H5.1v-1.4H3.9v1.4H2.5L2.5,52.6L2.5,52.6z"/>
		<path class="st0" d="M8.4,54H7.2v-1.4H11V54H9.8v2.8H8.4L8.4,54L8.4,54z"/>
		<path class="st0" d="M11.6,52.6h1.5l0.9,1.5l0.9-1.5h1.5v4.2h-1.4v-2.1l-1,1.5h0l-1-1.5v2.1h-1.4V52.6z"/>
		<path class="st0" d="M17,52.6h1.4v2.8h2v1.4H17V52.6z"/>
		<polygon class="st0" points="11.4,63.3 11.4,63.3 4.5,63.3 4.6,64 5.3,71.6 11.4,71.6 11.4,71.6 14.8,71.6 14.5,75.2 11.4,76 
			11.4,76 11.4,76 8.3,75.2 8.1,73 6.7,73 5.4,73 5.8,77.3 11.4,78.9 11.4,78.9 11.4,78.9 17,77.3 17.1,76.8 17.7,69.6 17.8,68.9 
			17.1,68.9 11.4,68.9 11.4,68.9 7.8,68.9 7.5,66 11.4,66 11.4,66 18,66 18,66 18.1,65.4 18.2,64 18.3,63.3 		"/>
	</g>
	<g>
		<g>
			<path class="st0" d="M21.7,7.5l-2,21.2l-8.3,2.2l-8.3-2.2l-2-21.2H21.7 M22.5,6.8H0.3l2.1,22.5l9,2.4l9-2.4L22.5,6.8L22.5,6.8z"
				/>
			<g>
				<polygon class="st0" points="6.3,3.5 6.3,2.1 8.3,2.1 8.3,0.7 4.8,0.7 4.8,4.8 8.3,4.8 8.3,3.5 				"/>
				<path class="st0" d="M11.8,2.1h1.4V0.7H9.7c0,0,0,0.7,0,1.5c0.5,0.5,0.7,0.7,1.4,1.3c-0.4,0-1.4,0-1.4,0v1.3h3.4V3.5L11.8,2.1z"
					/>
				<path class="st0" d="M16.6,2.1H18V0.7h-3.4c0,0,0,0.7,0,1.5c0.5,0.5,0.7,0.7,1.4,1.3c-0.4,0-1.4,0-1.4,0v1.3H18V3.5L16.6,2.1z"
					/>
			</g>
			<polygon class="st0" points="18,14.1 18.3,11.3 11.4,11.3 4.4,11.3 4.7,14.1 11.4,14.1 11.8,14.1 11.4,14.2 5,16.9 5.2,19.5 
				11.4,19.6 11.4,19.6 14.7,19.6 14.5,23.1 11.4,24 11.4,24 11.4,24 8.4,23.2 8.2,21 8.2,21 5.4,21 5.4,21 5.7,25.3 11.4,27 
				11.4,27 11.4,27 17.1,25.3 17.8,16.9 11.4,16.9 11.4,16.9 11.4,16.9 			"/>
		</g>
	</g>
	<g>
		<path class="st0" d="M11.4,147.4c-12.4,0-22.5,5.3-22.5,11.8c0,6.5,10.1,11.8,22.5,11.8s22.5-5.3,22.5-11.8
			C33.9,152.7,23.8,147.4,11.4,147.4z M11.4,170.2c-11.9,0-21.6-4.9-21.6-10.9c0-6,9.7-10.9,21.6-10.9c11.9,0,21.6,4.9,21.6,10.9
			C33,165.3,23.3,170.2,11.4,170.2z"/>
		<g>
			<path class="st0" d="M3.1,156c1,0,1.6,0.2,2,0.5c0.3,0.4,0.4,1,0.2,1.9c-0.2,0.9-0.5,1.6-1,2c-0.5,0.4-1.3,0.6-2.3,0.6H0.3l1-5
				H3.1z M-3.2,165.9h2.6l0.6-3.2h2.2c1,0,1.8-0.1,2.4-0.3c0.6-0.2,1.2-0.5,1.7-1c0.4-0.4,0.8-0.8,1.1-1.3c0.3-0.5,0.5-1,0.6-1.6
				c0.3-1.4,0.1-2.5-0.6-3.3c-0.7-0.8-1.8-1.2-3.3-1.2h-5L-3.2,165.9z"/>
			<path class="st0" d="M9.8,150.9h2.6l-0.6,3.2H14c1.4,0,2.4,0.3,3,0.8c0.5,0.5,0.7,1.3,0.5,2.4l-1.1,5.5h-2.6l1-5.2
				c0.1-0.6,0.1-1-0.1-1.2c-0.2-0.2-0.6-0.3-1.3-0.3h-2l-1.3,6.8H7.5L9.8,150.9z"/>
			<path class="st0" d="M23.2,156c1,0,1.6,0.2,2,0.5c0.3,0.4,0.4,1,0.2,1.9c-0.2,0.9-0.5,1.6-1,2c-0.5,0.4-1.3,0.6-2.3,0.6h-1.6l1-5
				H23.2z M16.9,165.9h2.6l0.6-3.2h2.2c1,0,1.8-0.1,2.4-0.3c0.6-0.2,1.2-0.5,1.7-1c0.4-0.4,0.8-0.8,1.1-1.3c0.3-0.5,0.5-1,0.6-1.6
				c0.3-1.4,0.1-2.5-0.6-3.3c-0.7-0.8-1.8-1.2-3.3-1.2h-5L16.9,165.9z"/>
		</g>
	</g>
	<g>
		<path class="st0" d="M-9.7,124.5h1.4V119l2.2,4.8c0.2,0.6,0.6,0.8,1.3,0.8c0.7,0,1-0.2,1.3-0.8l2.2-4.8v5.5H0V119
			c0-0.5-0.2-0.8-0.7-0.9c-1.1-0.3-1.8,0-2.1,0.7l-2.1,4.8l-2.1-4.8c-0.3-0.7-1-1-2.1-0.7c-0.4,0.1-0.7,0.4-0.7,0.9V124.5
			L-9.7,124.5z"/>
		<path class="st0" d="M1.2,120h1.4v3c0,0.2,0.1,0.6,0.8,0.6c0.4,0,3,0,3,0V120h1.4c0,0,0,4.9,0,5c0,1.2-1.5,1.5-2.2,1.5H1.2v-0.9
			c0,0,4.4,0,4.4,0c0.9-0.1,0.8-0.5,0.8-0.7v-0.4h-3c-1.4,0-2.3-0.6-2.3-1.3C1.2,123.1,1.2,120.1,1.2,120L1.2,120z"/>
		<path class="st0" d="M31.3,116.5c-0.9,0-1.5,0.1-2.1,0.3c-0.2,0.1-0.4,0.1-0.4,0.3c0.1,0.1,0.1,0.2,0.2,0.3
			c0.1,0.2,0.4,0.5,0.6,0.7c0.2,0.2,0.5,0.3,0.7,0.5c0.4,0.3,0.9,0.4,1.3,0.7c0.2,0.2,0.5,0.3,0.7,0.5c0.1,0.1,0.2,0.2,0.3,0.3
			c0,0,0,0,0,0c-0.1-0.1-0.1-0.2-0.2-0.3c-0.1-0.1-0.2-0.2-0.3-0.3c-0.3-0.4-0.7-0.8-1.1-1.1c-0.3-0.2-1.1-0.6-1.2-1c0,0,0,0,0,0
			c0.2,0,0.5-0.1,0.7-0.2c0.4-0.1,0.7-0.1,1.1-0.2c0.2,0,0.3-0.1,0.5-0.2c0,0,0-0.1,0-0.1c-0.2-0.2-0.3-0.5-0.5-0.6
			c-0.5-0.5-1.1-0.9-1.8-1.3c-0.3-0.2-0.8-0.4-1.1-0.5c-0.1-0.1-0.3-0.1-0.4-0.2c-0.2-0.2-0.3-0.5-0.4-0.8c-0.3-0.6-0.6-1.2-0.9-1.9
			c-0.2-0.4-0.3-0.8-0.5-1.2c-1.1-1.8-2.3-2.9-4.1-4c-0.4-0.2-0.9-0.3-1.4-0.4c-0.3,0-0.5,0-0.8,0c-0.2-0.1-0.3-0.3-0.5-0.4
			c-0.6-0.4-2.2-1.2-2.6-0.1c-0.3,0.7,0.4,1.4,0.7,1.7c0.2,0.2,0.4,0.5,0.5,0.8c0.1,0.2,0.1,0.4,0.2,0.6c0.2,0.5,0.3,1,0.6,1.4
			c0.1,0.2,0.2,0.5,0.4,0.7c0.1,0.1,0.2,0.2,0.3,0.4c-0.2,0.2-0.2,0.5-0.2,0.8c-0.4,1.2-0.2,2.7,0.3,3.6c0.2,0.3,0.6,0.9,1.1,0.6
			c0.5-0.2,0.4-0.8,0.5-1.3c0-0.1,0-0.2,0.1-0.3c0,0,0,0,0,0c0.2,0.3,0.3,0.6,0.4,0.9c0.3,0.5,0.9,1.1,1.4,1.4
			c0.3,0.2,0.5,0.5,0.8,0.6c0,0,0,0,0,0c0,0,0,0,0,0c-0.1-0.1-0.2-0.1-0.2-0.2c-0.2-0.2-0.4-0.4-0.6-0.6c-0.5-0.6-0.8-1.3-1.2-2
			c-0.2-0.3-0.3-0.7-0.5-1c-0.1-0.1-0.1-0.3-0.2-0.4c-0.2,0.2-0.4,0.4-0.5,0.7c-0.2,0.5-0.2,1-0.3,1.6c0,0,0,0,0,0
			c-0.3-0.1-0.5-0.4-0.6-0.7c-0.3-0.8-0.4-2-0.1-2.9c0.1-0.2,0.4-0.9,0.3-1.1c-0.1-0.2-0.3-0.3-0.4-0.5c-0.1-0.2-0.3-0.5-0.4-0.7
			c-0.3-0.6-0.4-1.3-0.7-1.9c-0.1-0.3-0.4-0.6-0.5-0.8c-0.2-0.3-0.4-0.5-0.6-0.8c-0.1-0.1-0.1-0.3,0-0.4c0-0.1,0.1-0.1,0.2-0.1
			c0.1-0.1,0.5,0,0.7,0.1c0.4,0.2,0.7,0.3,1.1,0.5c0.2,0.1,0.3,0.3,0.5,0.4c0.1,0,0.2,0,0.2,0c0.3,0.1,0.7,0,1.1,0.1
			c0.6,0.2,1.1,0.5,1.5,0.7c1.4,0.9,2.6,2.2,3.3,3.7c0.1,0.2,0.2,0.5,0.3,0.7c0.2,0.5,0.5,1.1,0.7,1.6c0.2,0.5,0.4,1,0.8,1.4
			c0.2,0.2,0.8,0.3,1.1,0.5c0.2,0.1,0.5,0.2,0.7,0.3c0.4,0.2,0.7,0.5,1.1,0.7C30.7,116,31.3,116.3,31.3,116.5L31.3,116.5z"/>
		<path class="st0" d="M20.4,107.2c-0.2,0-0.3,0-0.4,0.1c0,0,0,0,0,0c0,0,0,0,0,0c0.1,0.2,0.2,0.3,0.3,0.4c0.1,0.2,0.2,0.3,0.2,0.5
			c0,0,0,0,0,0c0.2-0.1,0.2-0.3,0.2-0.5c-0.1-0.1-0.1-0.2-0.1-0.2C20.6,107.4,20.4,107.3,20.4,107.2L20.4,107.2z"/>
		<path class="st0" d="M8.9,124.5h4c0.5,0,0.9-0.1,1.3-0.3c0.6-0.3,0.9-0.7,0.9-1.1v-1c0-0.4-0.3-0.8-1-1c-0.3-0.1-0.8-0.2-1.2-0.2
			h-1.7c-0.6,0-0.8-0.2-0.9-0.5c0,0,0-0.1,0-0.1v-0.6c0,0,0-0.1,0-0.1c0.1-0.3,0.2-0.4,0.7-0.4c0,0,0.1,0,0.1,0h4v-0.9h-3.9
			c-0.6,0-0.9,0-1.1,0.1c-0.8,0.3-1.2,0.7-1.2,1.4v0.8c0,0.6,0.7,1.2,1.9,1.3c0.1,0,0.3,0,0.4,0h1.4c0.1,0,0.1,0,0.2,0
			c0.4,0,0.6,0.1,0.8,0.3c0.1,0.1,0.1,0.2,0.1,0.3v0.8c0,0.1-0.1,0.2-0.2,0.3c-0.1,0.1-0.3,0.2-0.6,0.2c-0.1,0-0.1,0-0.1,0H8.9
			V124.5L8.9,124.5z"/>
		<path class="st0" d="M23.8,122.9c0,1,0.7,1.5,2.2,1.6c0.1,0,0.3,0,0.4,0h3.6v-0.9h-3.7c-0.8,0-1.1-0.2-1.1-0.7v-4.8h-1.4V122.9
			L23.8,122.9z"/>
		<path class="st0" d="M16,123v-3.3c0-0.8,0.6-1.4,1.8-1.5c0.1,0,0.3,0,0.4,0h2.7c0.1,0,0.3,0,0.4,0c1.2,0.2,1.8,0.7,1.8,1.5v3.3
			c0,0.7-0.2,1.1-0.8,1.3l1.4,1.2h-1.6l-1.1-1l-1.1,0.1h-1.5c-0.2,0-0.5,0-0.8-0.1C16.4,124.2,16,123.7,16,123L16,123z M17.5,122.9
			c0,0,0,0.1,0,0.1c0.1,0.4,0.4,0.6,1,0.6h1.3l-1.2-1.1h1.6l1,0.9c0.2-0.1,0.3-0.3,0.4-0.5c0,0,0-0.1,0-0.1v-3.2c0,0,0-0.1,0-0.1
			c-0.1-0.4-0.4-0.6-1-0.6h-2.1c-0.6,0-1,0.3-1,0.7V122.9L17.5,122.9z"/>
		<path class="st0" d="M30.7,124.6h0.2v-0.8h0.3v-0.2h-0.8v0.2h0.3V124.6L30.7,124.6z M32.3,124.6h0.2v-0.9h-0.3l-0.2,0.6l-0.3-0.6
			h-0.3v0.9h0.2v-0.7h0l0.3,0.7H32l0.3-0.7l0,0V124.6L32.3,124.6z"/>
	</g>
	<g>
		<path class="st0" d="M23.3,192.8v23.7H-0.4v-23.7H23.3 M24,192H-1.2v25.3H24V192L24,192z"/>
		<path class="st0" d="M7,211.6c0.4,0.7,0.8,1.2,1.6,1.2c0.8,0,1.3-0.3,1.3-1.5v-8.1h2.4v8.1c0,2.4-1.4,3.6-3.5,3.6
			c-1.9,0-3-1-3.6-2.2"/>
		<path class="st0" d="M15.5,211.4c0.5,0.8,1.2,1.4,2.3,1.4c1,0,1.6-0.5,1.6-1.2c0-0.8-0.6-1.1-1.7-1.6l-0.6-0.2
			c-1.7-0.7-2.8-1.6-2.8-3.6c0-1.8,1.4-3.1,3.5-3.1c1.5,0,2.6,0.5,3.4,1.9l-1.8,1.2c-0.4-0.7-0.8-1-1.5-1s-1.1,0.4-1.1,1
			c0,0.7,0.4,1,1.4,1.4l0.6,0.2c2,0.9,3.2,1.8,3.2,3.7c0,2.1-1.7,3.3-3.9,3.3c-2.2,0-3.6-1-4.3-2.4"/>
	</g>
	<g>
		<path class="st0" d="M11.4,239c2.9,0,5.7,1.1,7.8,3.2c2.1,2.1,3.2,4.8,3.2,7.8c0,2.9-1.1,5.7-3.2,7.8c-2.1,2.1-4.8,3.2-7.8,3.2
			c-2.9,0-5.7-1.1-7.8-3.2c-2.1-2.1-3.2-4.8-3.2-7.8c0-2.9,1.1-5.7,3.2-7.8C5.7,240.1,8.5,239,11.4,239 M11.4,238.2
			c-6.5,0-11.8,5.3-11.8,11.8c0,6.5,5.3,11.8,11.8,11.8c6.5,0,11.8-5.3,11.8-11.8C23.2,243.5,17.9,238.2,11.4,238.2L11.4,238.2z"/>
		<g>
			<path class="st1" d="M11.7,245.1L11.7,245.1c-0.5,0.6-0.9,1.3-1.2,2l-0.9,2.1c0,0,0,0,0,0c-0.3,0.8-0.5,1.4-0.8,1.9c0,0,0,0,0,0
				c-0.3,0.6-0.5,1.1-0.8,1.4c-0.3,0.4-0.6,0.6-0.9,0.8c-0.4,0.2-0.8,0.3-1.3,0.3c-0.2,0-0.3,0.1-0.3,0.3v2.7c0,0.2,0.1,0.3,0.3,0.3
				c2,0,3.7-0.8,4.9-2.3c0.4-0.5,0.7-1,1-1.6c0,0,0,0,0,0c0,0,0.5-1.2,0.7-1.5c0.4,0,2.9,0,2.9,0c0.2,0,0.3-0.1,0.3-0.3v-2.7
				c0-0.2-0.1-0.3-0.3-0.3c0,0-1,0-1.5,0c0.1-0.2,0.2-0.5,0.4-0.7c0.2-0.3,0.4-0.6,0.6-0.8c0,0,0,0,0,0c0.3-0.2,0.5-0.4,0.8-0.5
				c0.3-0.1,0.7-0.2,1.1-0.2c0.2,0,0.3-0.1,0.3-0.3v-2.7c0-0.2-0.1-0.3-0.3-0.3C14.6,242.7,12.9,243.5,11.7,245.1z"/>
		</g>
	</g>
	<g>
		<g>
			<path class="st0" d="M1.8,293.9c0,3.8,2.2,7.1,5.4,8.6L2.7,290C2.1,291.2,1.8,292.5,1.8,293.9z"/>
			<path class="st0" d="M17.9,293.4c0-1.2-0.4-2-0.8-2.6c-0.5-0.8-0.9-1.5-0.9-2.3c0-0.9,0.7-1.7,1.6-1.7c0,0,0.1,0,0.1,0
				c-1.7-1.6-4-2.5-6.5-2.5c-3.4,0-6.3,1.7-8,4.3c0.2,0,0.4,0,0.6,0c1,0,2.6-0.1,2.6-0.1c0.5,0,0.6,0.7,0.1,0.8c0,0-0.5,0.1-1.1,0.1
				L9,299.8l2.1-6.3l-1.5-4.1c-0.5,0-1-0.1-1-0.1c-0.5,0-0.5-0.8,0.1-0.8c0,0,1.6,0.1,2.5,0.1c1,0,2.6-0.1,2.6-0.1
				c0.5,0,0.6,0.7,0.1,0.8c0,0-0.5,0.1-1.1,0.1l3.5,10.3l1-3.2C17.6,295.2,17.9,294.2,17.9,293.4z"/>
			<path class="st0" d="M11.6,294.7l-2.9,8.4c0.9,0.3,1.8,0.4,2.7,0.4c1.1,0,2.2-0.2,3.2-0.5c0,0,0-0.1-0.1-0.1L11.6,294.7z"/>
			<path class="st0" d="M19.8,289.3c0,0.3,0.1,0.6,0.1,1c0,1-0.2,2.1-0.7,3.4l-2.9,8.5c2.9-1.7,4.8-4.8,4.8-8.3
				C21,292.2,20.6,290.7,19.8,289.3z"/>
			<path class="st0" d="M11.4,282.7c-6.2,0-11.2,5-11.2,11.2c0,6.2,5,11.2,11.2,11.2c6.2,0,11.2-5,11.2-11.2
				C22.6,287.7,17.6,282.7,11.4,282.7z M11.4,304.6c-5.9,0-10.7-4.8-10.7-10.7c0-5.9,4.8-10.7,10.7-10.7c5.9,0,10.7,4.8,10.7,10.7
				C22.1,299.8,17.3,304.6,11.4,304.6z"/>
		</g>
	</g>
	<g>
		<g>
			<path class="st0" d="M9.3,358c0,0.6-0.3,1.1-0.9,1.1c-0.6,0-0.9-0.5-0.9-1.1v-2.1H6.4v2.1c0,1.2,0.8,2.2,2,2.2c1.2,0,2-1,2-2.2
				v-2.1H9.3L9.3,358z"/>
			<rect x="20.6" y="354.7" class="st0" width="1.1" height="5.4"/>
			<path class="st0" d="M3.9,356.7C3.9,356.7,3.9,356.7,3.9,356.7C3.8,356.7,3.8,356.7,3.9,356.7l-0.2-0.7h-1v4.2h1.1v-2.3
				c0-0.2,0.5-1.1,1.5-0.8c0.5,0.1,0.7,0.3,0.7,0.3s0-0.8,0-1.3c-0.2-0.1-0.3-0.1-0.5-0.2C4.5,355.7,3.9,356.6,3.9,356.7z"/>
			<path class="st0" d="M13,355.9c-1.2,0-2.2,1-2.2,2.2c0,0,0,3,0,3.4H12V360l0-0.6c0,0,0,0,0,0c0,0,0,0,0.1,0
				c0.1,0.2,0.6,1,1.6,0.8c0.9-0.3,1.6-1.1,1.6-2.1C15.3,356.8,14.3,355.9,13,355.9z M13.1,359.2c-0.6,0-1.1-0.5-1.1-1.1
				c0-0.6,0.5-1.1,1.1-1.1c0.6,0,1.1,0.5,1.1,1.1C14.2,358.7,13.7,359.2,13.1,359.2z"/>
			<path class="st0" d="M17.9,355.9c-1.2,0-2.2,1-2.2,2.2c0,1,0.7,1.9,1.6,2.1c1,0.3,1.5-0.6,1.6-0.8c0,0,0,0,0.1,0c0,0,0,0,0,0
				l0,0.7h1.1v-2C20.1,356.8,19.2,355.9,17.9,355.9z M17.9,359.2c-0.6,0-1.1-0.5-1.1-1.1c0-0.6,0.5-1.1,1.1-1.1
				c0.6,0,1.1,0.5,1.1,1.1C19.1,358.7,18.5,359.2,17.9,359.2z"/>
			<path class="st0" d="M-0.8,354.7h-1.4v5.4h1.3c1.7,0,3-0.3,3-2.7C2.2,355,0.9,354.7-0.8,354.7z M-0.6,359.2l-0.5,0v-3.6h0.5
				c1,0,1.6,0.1,1.6,1.8C1,359.1,0.4,359.2-0.6,359.2z"/>
		</g>
		<g>
			<circle class="st0" cx="9.8" cy="345.9" r="4"/>
			<path class="st0" d="M14.8,341.1c1.2,1.2,1.9,2.9,1.9,4.8c0,2.4-1.2,4.4-3,5.7c3.3-1,6.1-3.5,7.3-6.6c1.7-4.2,0.1-7.4-2.5-10.2
				c0.1,0.4,0.1,0.8,0.1,1.1C18.6,338.4,17,340.5,14.8,341.1z"/>
			<circle class="st0" cx="13.3" cy="336" r="3.1"/>
			<path class="st0" d="M4.5,350.4c-1-1.2-1.6-2.8-1.6-4.5c0-3.6,2.7-6.5,6.1-6.9c-0.6-0.9-0.9-1.9-0.9-3c0-2.9,2.4-5.3,5.3-5.3
				c0.2,0,0.5,0,0.7,0c-1.7-1.5-3.5-3-4.8-4.7c0.7,7.3-6.6,4.6-9.4,11.4C-2,341.9-0.3,347.5,4.5,350.4z"/>
		</g>
	</g>
	<g>
		<path id="T_3_" class="st0" d="M19.7,388L19.7,388l-0.2,0.1v0.5h-0.1v-0.5h-0.2V388H19.7z"/>
		<path id="j-green_3_" class="st0" d="M4.4,392.5l-0.4-0.4c-1.2-1.2-1.6-2.9-1.1-4.4c-1.2-0.3-2.1-1.3-2.1-2.6
			c0-1.5,1.2-2.7,2.7-2.7c1.3,0,2.4,1,2.6,2.2c1.4-0.3,3,0.1,4.1,1.2l0.2,0.2l-2,2l-0.2-0.2c-0.6-0.6-1.7-0.6-2.3,0
			c-0.6,0.6-0.6,1.7,0,2.3l0.4,0.4l2,2l2.1,2.1l-2,2l-2.1-2.1L4.4,392.5L4.4,392.5z"/>
		<path id="j-yellow_3_" class="st0" d="M6.7,390.3l2.1-2.1l2-2l0.4-0.4c1.2-1.2,2.9-1.6,4.4-1.1c0.2-1.3,1.3-2.3,2.6-2.3
			c1.5,0,2.7,1.2,2.7,2.7c0,1.4-1,2.5-2.3,2.6c0.4,1.5,0.1,3.2-1.1,4.3l-0.2,0.2l-2-2l0.2-0.2c0.6-0.6,0.6-1.7,0-2.3
			c-0.6-0.6-1.7-0.6-2.3,0l-0.4,0.4l-2,2l-2.1,2.1L6.7,390.3L6.7,390.3z"/>
		<path id="j-red_3_" class="st0" d="M15.5,400.2c-1.5,0.5-3.2,0.1-4.4-1.1l-0.2-0.2l2-2l0.2,0.2c0.6,0.6,1.7,0.6,2.3,0
			c0.6-0.6,0.6-1.7,0-2.3l-0.4-0.4l-2-2l-2.1-2.1l2-2l2.1,2.1l2,2l0.4,0.4c1.1,1.1,1.5,2.7,1.2,4.2c1.3,0.2,2.3,1.3,2.3,2.6
			c0,1.5-1.2,2.7-2.7,2.7C16.8,402.3,15.8,401.4,15.5,400.2L15.5,400.2z"/>
		<path id="j-blue_3_" class="st0" d="M14.7,394.7l-2.1,2.1l-2,2l-0.4,0.4c-1.1,1.1-2.7,1.5-4.2,1.2c-0.3,1.2-1.3,2.1-2.6,2.1
			c-1.5,0-2.7-1.2-2.7-2.7c0-1.3,0.9-2.3,2.1-2.6c-0.4-1.5,0-3.1,1.2-4.2l0.2-0.2l2,2L6,394.8c-0.6,0.6-0.6,1.7,0,2.3
			c0.6,0.6,1.7,0.6,2.3,0l0.4-0.4l2-2l2.1-2.1L14.7,394.7L14.7,394.7z"/>
	</g>
</g>
</svg>
