<svg xmlns="http://www.w3.org/2000/svg"
	xmlns:xlink="http://www.w3.org/1999/xlink"
	width="30px" height="45px"
	viewBox="0 0 30 45">
<style type="text/css">
	.icon6_sm{fill:#FFFFFF;}
</style>
	<g>
		<g id="iconF">
			<path class="icon6_sm" d="M11.8,0.8c2.9,0,5.7,1.1,7.8,3.2c2.1,2.1,3.2,4.8,3.2,7.8c0,2.9-1.1,5.7-3.2,7.8c-2.1,2.1-4.8,3.2-7.8,3.2
				c-2.9,0-5.7-1.1-7.8-3.2c-2.1-2.1-3.2-4.8-3.2-7.8C0.8,8.9,1.9,6.1,4,4C6.1,1.9,8.9,0.8,11.8,0.8 M11.8,0C5.3,0,0,5.3,0,11.8
				c0,6.5,5.3,11.8,11.8,11.8c6.5,0,11.8-5.3,11.8-11.8C23.6,5.3,18.3,0,11.8,0L11.8,0z"/>
			<g>
				<path class="icon6_sm" d="M12.1,6.9L12.1,6.9c-0.5,0.6-0.9,1.3-1.2,2L10,11c0,0,0,0,0,0c-0.3,0.8-0.5,1.4-0.8,1.9c0,0,0,0,0,0
					c-0.3,0.6-0.5,1.1-0.8,1.4c-0.3,0.4-0.6,0.6-0.9,0.8c-0.4,0.2-0.8,0.3-1.3,0.3c-0.2,0-0.3,0.1-0.3,0.3v2.7c0,0.2,0.1,0.3,0.3,0.3
					c2,0,3.7-0.8,4.9-2.3c0.4-0.5,0.7-1,1-1.6c0,0,0,0,0,0c0,0,0.5-1.2,0.7-1.5c0.4,0,2.9,0,2.9,0c0.2,0,0.3-0.1,0.3-0.3v-2.7
					c0-0.2-0.1-0.3-0.3-0.3c0,0-1,0-1.5,0c0.1-0.2,0.2-0.5,0.4-0.7c0.2-0.3,0.4-0.6,0.6-0.8c0,0,0,0,0,0c0.3-0.2,0.5-0.4,0.8-0.5
					c0.3-0.1,0.7-0.2,1.1-0.2c0.2,0,0.3-0.1,0.3-0.3V4.9c0-0.2-0.1-0.3-0.3-0.3C15,4.5,13.3,5.3,12.1,6.9z"/>
			</g>
		</g>
	</g>
</svg>
