<svg xmlns="http://www.w3.org/2000/svg"
	xmlns:xlink="http://www.w3.org/1999/xlink"
	width="55px" height="45px"
	viewBox="0 0 55 45">
<style type="text/css">
	.icon4_sm{fill:#FFFFFF;}
</style>
	<g>
		<g id="iconPHP">
			<path class="icon4_sm" d="M22.5,0C10.1,0,0,5.3,0,11.8c0,6.5,10.1,11.8,22.5,11.8S45,18.4,45,11.8C45,5.3,34.9,0,22.5,0z M22.5,22.8
				c-11.9,0-21.6-4.9-21.6-10.9c0-6,9.7-10.9,21.6-10.9c11.9,0,21.6,4.9,21.6,10.9C44.1,17.9,34.4,22.8,22.5,22.8z"/>
			<g>
				<path class="icon4_sm" d="M14.1,8.5c1,0,1.6,0.2,2,0.5c0.3,0.4,0.4,1,0.2,1.9c-0.2,0.9-0.5,1.6-1,2c-0.5,0.4-1.3,0.6-2.3,0.6h-1.6l1-5
					H14.1z M7.8,18.5h2.6l0.6-3.2h2.2c1,0,1.8-0.1,2.4-0.3c0.6-0.2,1.2-0.5,1.7-1c0.4-0.4,0.8-0.8,1.1-1.3c0.3-0.5,0.5-1,0.6-1.6
					c0.3-1.4,0.1-2.5-0.6-3.3c-0.7-0.8-1.8-1.2-3.3-1.2h-5L7.8,18.5z"/>
				<path class="icon4_sm" d="M20.9,3.5h2.6l-0.6,3.2h2.3c1.4,0,2.4,0.3,3,0.8c0.5,0.5,0.7,1.3,0.5,2.4l-1.1,5.5h-2.6l1-5.2
					c0.1-0.6,0.1-1-0.1-1.2c-0.2-0.2-0.6-0.3-1.3-0.3h-2l-1.3,6.8h-2.6L20.9,3.5z"/>
				<path class="icon4_sm" d="M34.3,8.5c1,0,1.6,0.2,2,0.5c0.3,0.4,0.4,1,0.2,1.9c-0.2,0.9-0.5,1.6-1,2c-0.5,0.4-1.3,0.6-2.3,0.6h-1.6l1-5
					H34.3z M28,18.5h2.6l0.6-3.2h2.2c1,0,1.8-0.1,2.4-0.3c0.6-0.2,1.2-0.5,1.7-1c0.4-0.4,0.8-0.8,1.1-1.3c0.3-0.5,0.5-1,0.6-1.6
					c0.3-1.4,0.1-2.5-0.6-3.3c-0.7-0.8-1.8-1.2-3.3-1.2h-5L28,18.5z"/>
			</g>
		</g>
	</g>
</svg>
