<svg xmlns="http://www.w3.org/2000/svg"
	xmlns:xlink="http://www.w3.org/1999/xlink"
	width="30px" height="50px"
	viewBox="0 0 30 50">
<style type="text/css">
	.icon8_sm{fill:#FFFFFF;}
</style>
	<g>
		<g id="iconDrupal">
			<g>
				<path class="icon8_sm" d="M11.5,32c0,0.6-0.3,1.1-0.9,1.1c-0.6,0-0.9-0.5-0.9-1.1v-2.1H8.6V32c0,1.2,0.8,2.2,2,2.2c1.2,0,2-1,2-2.2
					v-2.1h-1.1L11.5,32z"/>
				<rect x="22.8" y="28.6" class="icon8_sm" width="1.1" height="5.4"/>
				<path class="icon8_sm" d="M6,30.7C6,30.7,6,30.7,6,30.7C5.9,30.7,5.9,30.7,6,30.7l-0.2-0.7h-1v4.2h1.1v-2.3c0-0.2,0.5-1.1,1.5-0.8
					c0.5,0.1,0.7,0.3,0.7,0.3s0-0.8,0-1.3c-0.2-0.1-0.3-0.1-0.5-0.2C6.7,29.6,6.1,30.6,6,30.7z"/>
				<path class="icon8_sm" d="M15.2,29.8c-1.2,0-2.2,1-2.2,2.2c0,0,0,3,0,3.4h1.1V34l0-0.6c0,0,0,0,0,0c0,0,0,0,0.1,0
					c0.1,0.2,0.6,1,1.6,0.8c0.9-0.3,1.6-1.1,1.6-2.1C17.4,30.8,16.4,29.8,15.2,29.8z M15.2,33.2c-0.6,0-1.1-0.5-1.1-1.1
					c0-0.6,0.5-1.1,1.1-1.1c0.6,0,1.1,0.5,1.1,1.1C16.3,32.7,15.8,33.2,15.2,33.2z"/>
				<path class="icon8_sm" d="M20.1,29.8c-1.2,0-2.2,1-2.2,2.2c0,1,0.7,1.9,1.6,2.1c1,0.3,1.5-0.6,1.6-0.8c0,0,0,0,0.1,0c0,0,0,0,0,0
					l0,0.7h1.1v-2C22.3,30.8,21.3,29.8,20.1,29.8z M20.1,33.2c-0.6,0-1.1-0.5-1.1-1.1c0-0.6,0.5-1.1,1.1-1.1c0.6,0,1.1,0.5,1.1,1.1
					C21.2,32.7,20.7,33.2,20.1,33.2z"/>
				<path class="icon8_sm" d="M1.4,28.6H0v5.4h1.3c1.7,0,3-0.3,3-2.7C4.3,28.9,3,28.6,1.4,28.6z M1.6,33.1l-0.5,0v-3.6h0.5
					c1,0,1.6,0.1,1.6,1.8C3.2,33.1,2.6,33.1,1.6,33.1z"/>
			</g>
			<g>
				<circle class="icon8_sm" cx="11.9" cy="19.9" r="4"/>
				<path class="icon8_sm" d="M17,15.1c1.2,1.2,1.9,2.9,1.9,4.8c0,2.4-1.2,4.4-3,5.7c3.3-1,6.1-3.5,7.3-6.6c1.7-4.2,0.1-7.4-2.5-10.2
					c0.1,0.4,0.1,0.8,0.1,1.1C20.8,12.4,19.2,14.4,17,15.1z"/>
				<circle class="icon8_sm" cx="15.5" cy="10" r="3.1"/>
				<path class="icon8_sm" d="M6.6,24.4c-1-1.2-1.6-2.8-1.6-4.5c0-3.6,2.7-6.5,6.1-6.9c-0.6-0.9-0.9-1.9-0.9-3c0-2.9,2.4-5.3,5.3-5.3
					c0.2,0,0.5,0,0.7,0c-1.7-1.5-3.5-3-4.8-4.7C12,7.3,4.7,4.6,2,11.4C0.2,15.9,1.8,21.4,6.6,24.4z"/>
			</g>
		</g>
	</g>
</svg>
