<?xml version="1.0" encoding="utf-8"?>
<!-- Generator: Adobe Illustrator 17.0.0, SVG Export Plug-In . SVG Version: 6.00 Build 0)  -->
<!DOCTYPE svg PUBLIC "-//W3C//DTD SVG 1.1//EN" "http://www.w3.org/Graphics/SVG/1.1/DTD/svg11.dtd">
<svg version="1.1" id="Слой_1" xmlns="http://www.w3.org/2000/svg" xmlns:xlink="http://www.w3.org/1999/xlink" x="0px" y="0px"
	 width="22.5px" height="31px" viewBox="0 0 22.5 31" style="enable-background:new 0 0 22.5 31;" xml:space="preserve">
<style type="text/css">
	.st0{fill:#FFFFFF;}
	.st1{fill-rule:evenodd;clip-rule:evenodd;fill:#FFFFFF;}
</style>
<g>
	<g>
		<path class="st0" d="M21.6,6.8l-1.9,21.1l-8.3,2.3L3.1,28L1.2,6.8H21.6 M22.4,6.1h-22l2,22.4l9,2.5l9-2.5L22.4,6.1L22.4,6.1z"/>
		<path class="st0" d="M2.5,0h1.4v1.4h1.3V0h1.4v4.2H5.1V2.8H3.9v1.4H2.5L2.5,0L2.5,0z"/>
		<path class="st0" d="M8.4,1.4H7.2V0H11v1.4H9.8v2.8H8.4L8.4,1.4L8.4,1.4z"/>
		<path class="st0" d="M11.6,0h1.5L14,1.5L14.9,0h1.5v4.2h-1.4V2.1l-1,1.5h0l-1-1.5v2.1h-1.4V0z"/>
		<path class="st0" d="M17,0h1.4v2.8h2v1.4H17V0z"/>
		<polygon class="st0" points="11.4,10.7 11.4,10.7 4.5,10.7 4.6,11.4 5.3,19 11.4,19 11.4,19 14.8,19 14.5,22.6 11.4,23.4 
			11.4,23.4 11.4,23.4 8.3,22.6 8.1,20.4 6.7,20.4 5.4,20.4 5.8,24.7 11.4,26.3 11.4,26.3 11.4,26.3 17,24.7 17.1,24.2 17.7,17 
			17.8,16.2 17.1,16.2 11.4,16.2 11.4,16.2 7.8,16.2 7.5,13.4 11.4,13.4 11.4,13.4 18,13.4 18,13.4 18.1,12.8 18.2,11.4 18.3,10.7 
					"/>
	</g>
	<g>
		<g>
			<path class="st0" d="M21.7-45.1l-2,21.2l-8.3,2.2l-8.3-2.2l-2-21.2H21.7 M22.5-45.8H0.3l2.1,22.5l9,2.4l9-2.4L22.5-45.8
				L22.5-45.8z"/>
			<g>
				<polygon class="st0" points="6.3,-49.1 6.3,-50.5 8.3,-50.5 8.3,-52 4.8,-52 4.8,-47.8 8.3,-47.8 8.3,-49.1 				"/>
				<path class="st0" d="M11.8-50.5h1.4V-52H9.7c0,0,0,0.7,0,1.5c0.5,0.5,0.7,0.7,1.4,1.3c-0.4,0-1.4,0-1.4,0v1.3h3.4v-1.3
					L11.8-50.5z"/>
				<path class="st0" d="M16.6-50.5H18V-52h-3.4c0,0,0,0.7,0,1.5c0.5,0.5,0.7,0.7,1.4,1.3c-0.4,0-1.4,0-1.4,0v1.3H18v-1.3L16.6-50.5
					z"/>
			</g>
			<polygon class="st0" points="18,-38.6 18.3,-41.3 11.4,-41.3 4.4,-41.3 4.7,-38.6 11.4,-38.6 11.8,-38.6 11.4,-38.4 5,-35.7 
				5.2,-33.1 11.4,-33 11.4,-33 14.7,-33 14.5,-29.5 11.4,-28.6 11.4,-28.6 11.4,-28.6 8.4,-29.4 8.2,-31.6 8.2,-31.6 5.4,-31.6 
				5.4,-31.6 5.7,-27.3 11.4,-25.7 11.4,-25.7 11.4,-25.7 17.1,-27.3 17.8,-35.7 11.4,-35.7 11.4,-35.7 11.4,-35.7 			"/>
		</g>
	</g>
	<g>
		<path class="st0" d="M11.4,94.8c-12.4,0-22.5,5.3-22.5,11.8c0,6.5,10.1,11.8,22.5,11.8s22.5-5.3,22.5-11.8
			C33.9,100.1,23.8,94.8,11.4,94.8z M11.4,117.6c-11.9,0-21.6-4.9-21.6-10.9c0-6,9.7-10.9,21.6-10.9c11.9,0,21.6,4.9,21.6,10.9
			C33,112.7,23.3,117.6,11.4,117.6z"/>
		<g>
			<path class="st0" d="M3.1,103.3c1,0,1.6,0.2,2,0.5c0.3,0.4,0.4,1,0.2,1.9c-0.2,0.9-0.5,1.6-1,2c-0.5,0.4-1.3,0.6-2.3,0.6H0.3l1-5
				H3.1z M-3.2,113.3h2.6l0.6-3.2h2.2c1,0,1.8-0.1,2.4-0.3c0.6-0.2,1.2-0.5,1.7-1c0.4-0.4,0.8-0.8,1.1-1.3c0.3-0.5,0.5-1,0.6-1.6
				c0.3-1.4,0.1-2.5-0.6-3.3c-0.7-0.8-1.8-1.2-3.3-1.2h-5L-3.2,113.3z"/>
			<path class="st0" d="M9.8,98.3h2.6l-0.6,3.2H14c1.4,0,2.4,0.3,3,0.8c0.5,0.5,0.7,1.3,0.5,2.4l-1.1,5.5h-2.6l1-5.2
				c0.1-0.6,0.1-1-0.1-1.2c-0.2-0.2-0.6-0.3-1.3-0.3h-2l-1.3,6.8H7.5L9.8,98.3z"/>
			<path class="st0" d="M23.2,103.3c1,0,1.6,0.2,2,0.5c0.3,0.4,0.4,1,0.2,1.9c-0.2,0.9-0.5,1.6-1,2c-0.5,0.4-1.3,0.6-2.3,0.6h-1.6
				l1-5H23.2z M16.9,113.3h2.6l0.6-3.2h2.2c1,0,1.8-0.1,2.4-0.3c0.6-0.2,1.2-0.5,1.7-1c0.4-0.4,0.8-0.8,1.1-1.3
				c0.3-0.5,0.5-1,0.6-1.6c0.3-1.4,0.1-2.5-0.6-3.3c-0.7-0.8-1.8-1.2-3.3-1.2h-5L16.9,113.3z"/>
		</g>
	</g>
	<g>
		<path class="st0" d="M-9.7,71.9h1.4v-5.5l2.2,4.8c0.2,0.6,0.6,0.8,1.3,0.8c0.7,0,1-0.2,1.3-0.8l2.2-4.8v5.5H0v-5.5
			c0-0.5-0.2-0.8-0.7-0.9c-1.1-0.3-1.8,0-2.1,0.7l-2.1,4.8l-2.1-4.8c-0.3-0.7-1-1-2.1-0.7c-0.4,0.1-0.7,0.4-0.7,0.9V71.9L-9.7,71.9z
			"/>
		<path class="st0" d="M1.2,67.4h1.4v3c0,0.2,0.1,0.6,0.8,0.6c0.4,0,3,0,3,0v-3.6h1.4c0,0,0,4.9,0,5c0,1.2-1.5,1.5-2.2,1.5H1.2v-0.9
			c0,0,4.4,0,4.4,0c0.9-0.1,0.8-0.5,0.8-0.7v-0.4h-3c-1.4,0-2.3-0.6-2.3-1.3C1.2,70.5,1.2,67.5,1.2,67.4L1.2,67.4z"/>
		<path class="st0" d="M31.3,63.9c-0.9,0-1.5,0.1-2.1,0.3c-0.2,0.1-0.4,0.1-0.4,0.3c0.1,0.1,0.1,0.2,0.2,0.3
			c0.1,0.2,0.4,0.5,0.6,0.7c0.2,0.2,0.5,0.3,0.7,0.5c0.4,0.3,0.9,0.4,1.3,0.7c0.2,0.2,0.5,0.3,0.7,0.5c0.1,0.1,0.2,0.2,0.3,0.3
			c0,0,0,0,0,0c-0.1-0.1-0.1-0.2-0.2-0.3c-0.1-0.1-0.2-0.2-0.3-0.3c-0.3-0.4-0.7-0.8-1.1-1.1c-0.3-0.2-1.1-0.6-1.2-1c0,0,0,0,0,0
			c0.2,0,0.5-0.1,0.7-0.2c0.4-0.1,0.7-0.1,1.1-0.2c0.2,0,0.3-0.1,0.5-0.2c0,0,0-0.1,0-0.1c-0.2-0.2-0.3-0.5-0.5-0.6
			c-0.5-0.5-1.1-0.9-1.8-1.3c-0.3-0.2-0.8-0.4-1.1-0.5c-0.1-0.1-0.3-0.1-0.4-0.2c-0.2-0.2-0.3-0.5-0.4-0.8c-0.3-0.6-0.6-1.2-0.9-1.9
			c-0.2-0.4-0.3-0.8-0.5-1.2c-1.1-1.8-2.3-2.9-4.1-4c-0.4-0.2-0.9-0.3-1.4-0.4c-0.3,0-0.5,0-0.8,0c-0.2-0.1-0.3-0.3-0.5-0.4
			c-0.6-0.4-2.2-1.2-2.6-0.1c-0.3,0.7,0.4,1.4,0.7,1.7c0.2,0.2,0.4,0.5,0.5,0.8c0.1,0.2,0.1,0.4,0.2,0.6c0.2,0.5,0.3,1,0.6,1.4
			c0.1,0.2,0.2,0.5,0.4,0.7c0.1,0.1,0.2,0.2,0.3,0.4c-0.2,0.2-0.2,0.5-0.2,0.8c-0.4,1.2-0.2,2.7,0.3,3.6c0.2,0.3,0.6,0.9,1.1,0.6
			c0.5-0.2,0.4-0.8,0.5-1.3c0-0.1,0-0.2,0.1-0.3c0,0,0,0,0,0c0.2,0.3,0.3,0.6,0.4,0.9c0.3,0.5,0.9,1.1,1.4,1.4
			c0.3,0.2,0.5,0.5,0.8,0.6c0,0,0,0,0,0c0,0,0,0,0,0c-0.1-0.1-0.2-0.1-0.2-0.2c-0.2-0.2-0.4-0.4-0.6-0.6c-0.5-0.6-0.8-1.3-1.2-2
			c-0.2-0.3-0.3-0.7-0.5-1c-0.1-0.1-0.1-0.3-0.2-0.4c-0.2,0.2-0.4,0.4-0.5,0.7c-0.2,0.5-0.2,1-0.3,1.6c0,0,0,0,0,0
			c-0.3-0.1-0.5-0.4-0.6-0.7c-0.3-0.8-0.4-2-0.1-2.9c0.1-0.2,0.4-0.9,0.3-1.1c-0.1-0.2-0.3-0.3-0.4-0.5c-0.1-0.2-0.3-0.5-0.4-0.7
			c-0.3-0.6-0.4-1.3-0.7-1.9c-0.1-0.3-0.4-0.6-0.5-0.8c-0.2-0.3-0.4-0.5-0.6-0.8c-0.1-0.1-0.1-0.3,0-0.4c0-0.1,0.1-0.1,0.2-0.1
			c0.1-0.1,0.5,0,0.7,0.1c0.4,0.2,0.7,0.3,1.1,0.5c0.2,0.1,0.3,0.3,0.5,0.4c0.1,0,0.2,0,0.2,0c0.3,0.1,0.7,0,1.1,0.1
			c0.6,0.2,1.1,0.5,1.5,0.7c1.4,0.9,2.6,2.2,3.3,3.7c0.1,0.2,0.2,0.5,0.3,0.7c0.2,0.5,0.5,1.1,0.7,1.6c0.2,0.5,0.4,1,0.8,1.4
			c0.2,0.2,0.8,0.3,1.1,0.5c0.2,0.1,0.5,0.2,0.7,0.3c0.4,0.2,0.7,0.5,1.1,0.7C30.7,63.4,31.3,63.7,31.3,63.9L31.3,63.9z"/>
		<path class="st0" d="M20.4,54.6c-0.2,0-0.3,0-0.4,0.1c0,0,0,0,0,0c0,0,0,0,0,0c0.1,0.2,0.2,0.3,0.3,0.4c0.1,0.2,0.2,0.3,0.2,0.5
			c0,0,0,0,0,0c0.2-0.1,0.2-0.3,0.2-0.5c-0.1-0.1-0.1-0.2-0.1-0.2C20.6,54.7,20.4,54.7,20.4,54.6L20.4,54.6z"/>
		<path class="st0" d="M8.9,71.9h4c0.5,0,0.9-0.1,1.3-0.3c0.6-0.3,0.9-0.7,0.9-1.1v-1c0-0.4-0.3-0.8-1-1c-0.3-0.1-0.8-0.2-1.2-0.2
			h-1.7c-0.6,0-0.8-0.2-0.9-0.5c0,0,0-0.1,0-0.1v-0.6c0,0,0-0.1,0-0.1c0.1-0.3,0.2-0.4,0.7-0.4c0,0,0.1,0,0.1,0h4v-0.9h-3.9
			c-0.6,0-0.9,0-1.1,0.1c-0.8,0.3-1.2,0.7-1.2,1.4v0.8c0,0.6,0.7,1.2,1.9,1.3c0.1,0,0.3,0,0.4,0h1.4c0.1,0,0.1,0,0.2,0
			c0.4,0,0.6,0.1,0.8,0.3c0.1,0.1,0.1,0.2,0.1,0.3v0.8c0,0.1-0.1,0.2-0.2,0.3c-0.1,0.1-0.3,0.2-0.6,0.2c-0.1,0-0.1,0-0.1,0H8.9V71.9
			L8.9,71.9z"/>
		<path class="st0" d="M23.8,70.3c0,1,0.7,1.5,2.2,1.6c0.1,0,0.3,0,0.4,0h3.6V71h-3.7c-0.8,0-1.1-0.2-1.1-0.7v-4.8h-1.4V70.3
			L23.8,70.3z"/>
		<path class="st0" d="M16,70.4V67c0-0.8,0.6-1.4,1.8-1.5c0.1,0,0.3,0,0.4,0h2.7c0.1,0,0.3,0,0.4,0c1.2,0.2,1.8,0.7,1.8,1.5v3.3
			c0,0.7-0.2,1.1-0.8,1.3l1.4,1.2h-1.6l-1.1-1L19.7,72h-1.5c-0.2,0-0.5,0-0.8-0.1C16.4,71.6,16,71.1,16,70.4L16,70.4z M17.5,70.3
			c0,0,0,0.1,0,0.1c0.1,0.4,0.4,0.6,1,0.6h1.3L18.7,70h1.6l1,0.9c0.2-0.1,0.3-0.3,0.4-0.5c0,0,0-0.1,0-0.1v-3.2c0,0,0-0.1,0-0.1
			c-0.1-0.4-0.4-0.6-1-0.6h-2.1c-0.6,0-1,0.3-1,0.7V70.3L17.5,70.3z"/>
		<path class="st0" d="M30.7,71.9h0.2v-0.8h0.3V71h-0.8v0.2h0.3V71.9L30.7,71.9z M32.3,71.9h0.2V71h-0.3l-0.2,0.6L31.7,71h-0.3v0.9
			h0.2v-0.7h0l0.3,0.7H32l0.3-0.7l0,0V71.9L32.3,71.9z"/>
	</g>
	<g>
		<path class="st0" d="M23.3,140.2v23.7H-0.4v-23.7H23.3 M24,139.4H-1.2v25.3H24V139.4L24,139.4z"/>
		<path class="st0" d="M7,159c0.4,0.7,0.8,1.2,1.6,1.2c0.8,0,1.3-0.3,1.3-1.5v-8.1h2.4v8.1c0,2.4-1.4,3.6-3.5,3.6
			c-1.9,0-3-1-3.6-2.2"/>
		<path class="st0" d="M15.5,158.8c0.5,0.8,1.2,1.4,2.3,1.4c1,0,1.6-0.5,1.6-1.2c0-0.8-0.6-1.1-1.7-1.6l-0.6-0.2
			c-1.7-0.7-2.8-1.6-2.8-3.6c0-1.8,1.4-3.1,3.5-3.1c1.5,0,2.6,0.5,3.4,1.9l-1.8,1.2c-0.4-0.7-0.8-1-1.5-1s-1.1,0.4-1.1,1
			c0,0.7,0.4,1,1.4,1.4l0.6,0.2c2,0.9,3.2,1.8,3.2,3.7c0,2.1-1.7,3.3-3.9,3.3c-2.2,0-3.6-1-4.3-2.4"/>
	</g>
	<g>
		<path class="st0" d="M11.4,186.4c2.9,0,5.7,1.1,7.8,3.2c2.1,2.1,3.2,4.8,3.2,7.8s-1.1,5.7-3.2,7.8c-2.1,2.1-4.8,3.2-7.8,3.2
			c-2.9,0-5.7-1.1-7.8-3.2s-3.2-4.8-3.2-7.8c0-2.9,1.1-5.7,3.2-7.8C5.7,187.5,8.5,186.4,11.4,186.4 M11.4,185.6
			c-6.5,0-11.8,5.3-11.8,11.8c0,6.5,5.3,11.8,11.8,11.8c6.5,0,11.8-5.3,11.8-11.8C23.2,190.9,17.9,185.6,11.4,185.6L11.4,185.6z"/>
		<g>
			<path class="st1" d="M11.7,192.5L11.7,192.5c-0.5,0.6-0.9,1.3-1.2,2l-0.9,2.1c0,0,0,0,0,0c-0.3,0.8-0.5,1.4-0.8,1.9c0,0,0,0,0,0
				c-0.3,0.6-0.5,1.1-0.8,1.4c-0.3,0.4-0.6,0.6-0.9,0.8c-0.4,0.2-0.8,0.3-1.3,0.3c-0.2,0-0.3,0.1-0.3,0.3v2.7c0,0.2,0.1,0.3,0.3,0.3
				c2,0,3.7-0.8,4.9-2.3c0.4-0.5,0.7-1,1-1.6c0,0,0,0,0,0c0,0,0.5-1.2,0.7-1.5c0.4,0,2.9,0,2.9,0c0.2,0,0.3-0.1,0.3-0.3v-2.7
				c0-0.2-0.1-0.3-0.3-0.3c0,0-1,0-1.5,0c0.1-0.2,0.2-0.5,0.4-0.7c0.2-0.3,0.4-0.6,0.6-0.8c0,0,0,0,0,0c0.3-0.2,0.5-0.4,0.8-0.5
				c0.3-0.1,0.7-0.2,1.1-0.2c0.2,0,0.3-0.1,0.3-0.3v-2.7c0-0.2-0.1-0.3-0.3-0.3C14.6,190.1,12.9,190.9,11.7,192.5z"/>
		</g>
	</g>
	<g>
		<g>
			<path class="st0" d="M1.8,241.3c0,3.8,2.2,7.1,5.4,8.6l-4.6-12.5C2.1,238.6,1.8,239.9,1.8,241.3z"/>
			<path class="st0" d="M17.9,240.8c0-1.2-0.4-2-0.8-2.6c-0.5-0.8-0.9-1.5-0.9-2.3c0-0.9,0.7-1.7,1.6-1.7c0,0,0.1,0,0.1,0
				c-1.7-1.6-4-2.5-6.5-2.5c-3.4,0-6.3,1.7-8,4.3c0.2,0,0.4,0,0.6,0c1,0,2.6-0.1,2.6-0.1c0.5,0,0.6,0.7,0.1,0.8c0,0-0.5,0.1-1.1,0.1
				L9,247.2l2.1-6.3l-1.5-4.1c-0.5,0-1-0.1-1-0.1c-0.5,0-0.5-0.8,0.1-0.8c0,0,1.6,0.1,2.5,0.1c1,0,2.6-0.1,2.6-0.1
				c0.5,0,0.6,0.7,0.1,0.8c0,0-0.5,0.1-1.1,0.1l3.5,10.3l1-3.2C17.6,242.6,17.9,241.6,17.9,240.8z"/>
			<path class="st0" d="M11.6,242.1l-2.9,8.4c0.9,0.3,1.8,0.4,2.7,0.4c1.1,0,2.2-0.2,3.2-0.5c0,0,0-0.1-0.1-0.1L11.6,242.1z"/>
			<path class="st0" d="M19.8,236.7c0,0.3,0.1,0.6,0.1,1c0,1-0.2,2.1-0.7,3.4l-2.9,8.5c2.9-1.7,4.8-4.8,4.8-8.3
				C21,239.6,20.6,238.1,19.8,236.7z"/>
			<path class="st0" d="M11.4,230.1c-6.2,0-11.2,5-11.2,11.2c0,6.2,5,11.2,11.2,11.2c6.2,0,11.2-5,11.2-11.2
				C22.6,235.1,17.6,230.1,11.4,230.1z M11.4,252c-5.9,0-10.7-4.8-10.7-10.7c0-5.9,4.8-10.7,10.7-10.7c5.9,0,10.7,4.8,10.7,10.7
				C22.1,247.2,17.3,252,11.4,252z"/>
		</g>
	</g>
	<g>
		<g>
			<path class="st0" d="M9.3,305.4c0,0.6-0.3,1.1-0.9,1.1c-0.6,0-0.9-0.5-0.9-1.1v-2.1H6.4v2.1c0,1.2,0.8,2.2,2,2.2c1.2,0,2-1,2-2.2
				v-2.1H9.3L9.3,305.4z"/>
			<rect x="20.6" y="302.1" class="st0" width="1.1" height="5.4"/>
			<path class="st0" d="M3.9,304.1C3.9,304.1,3.9,304.1,3.9,304.1C3.8,304.1,3.8,304.1,3.9,304.1l-0.2-0.7h-1v4.2h1.1v-2.3
				c0-0.2,0.5-1.1,1.5-0.8c0.5,0.1,0.7,0.3,0.7,0.3s0-0.8,0-1.3c-0.2-0.1-0.3-0.1-0.5-0.2C4.5,303.1,3.9,304,3.9,304.1z"/>
			<path class="st0" d="M13,303.2c-1.2,0-2.2,1-2.2,2.2c0,0,0,3,0,3.4H12v-1.5l0-0.6c0,0,0,0,0,0c0,0,0,0,0.1,0
				c0.1,0.2,0.6,1,1.6,0.8c0.9-0.3,1.6-1.1,1.6-2.1C15.3,304.2,14.3,303.2,13,303.2z M13.1,306.6c-0.6,0-1.1-0.5-1.1-1.1
				c0-0.6,0.5-1.1,1.1-1.1c0.6,0,1.1,0.5,1.1,1.1C14.2,306.1,13.7,306.6,13.1,306.6z"/>
			<path class="st0" d="M17.9,303.2c-1.2,0-2.2,1-2.2,2.2c0,1,0.7,1.9,1.6,2.1c1,0.3,1.5-0.6,1.6-0.8c0,0,0,0,0.1,0c0,0,0,0,0,0
				l0,0.7h1.1v-2C20.1,304.2,19.2,303.2,17.9,303.2z M17.9,306.6c-0.6,0-1.1-0.5-1.1-1.1c0-0.6,0.5-1.1,1.1-1.1
				c0.6,0,1.1,0.5,1.1,1.1C19.1,306.1,18.5,306.6,17.9,306.6z"/>
			<path class="st0" d="M-0.8,302.1h-1.4v5.4h1.3c1.7,0,3-0.3,3-2.7C2.2,302.4,0.9,302.1-0.8,302.1z M-0.6,306.6l-0.5,0V303h0.5
				c1,0,1.6,0.1,1.6,1.8C1,306.5,0.4,306.6-0.6,306.6z"/>
		</g>
		<g>
			<circle class="st0" cx="9.8" cy="293.3" r="4"/>
			<path class="st0" d="M14.8,288.5c1.2,1.2,1.9,2.9,1.9,4.8c0,2.4-1.2,4.4-3,5.7c3.3-1,6.1-3.5,7.3-6.6c1.7-4.2,0.1-7.4-2.5-10.2
				c0.1,0.4,0.1,0.8,0.1,1.1C18.6,285.8,17,287.8,14.8,288.5z"/>
			<circle class="st0" cx="13.3" cy="283.4" r="3.1"/>
			<path class="st0" d="M4.5,297.8c-1-1.2-1.6-2.8-1.6-4.5c0-3.6,2.7-6.5,6.1-6.9c-0.6-0.9-0.9-1.9-0.9-3c0-2.9,2.4-5.3,5.3-5.3
				c0.2,0,0.5,0,0.7,0c-1.7-1.5-3.5-3-4.8-4.7c0.7,7.3-6.6,4.6-9.4,11.4C-2,289.3-0.3,294.9,4.5,297.8z"/>
		</g>
	</g>
	<g>
		<path id="T_3_" class="st0" d="M19.7,335.4L19.7,335.4l-0.2,0.1v0.5h-0.1v-0.5h-0.2v-0.1H19.7z"/>
		<path id="j-green_3_" class="st0" d="M4.4,339.8l-0.4-0.4c-1.2-1.2-1.6-2.9-1.1-4.4c-1.2-0.3-2.1-1.3-2.1-2.6
			c0-1.5,1.2-2.7,2.7-2.7c1.3,0,2.4,1,2.6,2.2c1.4-0.3,3,0.1,4.1,1.2l0.2,0.2l-2,2l-0.2-0.2c-0.6-0.6-1.7-0.6-2.3,0
			c-0.6,0.6-0.6,1.7,0,2.3l0.4,0.4l2,2l2.1,2.1l-2,2l-2.1-2.1L4.4,339.8L4.4,339.8z"/>
		<path id="j-yellow_3_" class="st0" d="M6.7,337.6l2.1-2.1l2-2l0.4-0.4c1.2-1.2,2.9-1.6,4.4-1.1c0.2-1.3,1.3-2.3,2.6-2.3
			c1.5,0,2.7,1.2,2.7,2.7c0,1.4-1,2.5-2.3,2.6c0.4,1.5,0.1,3.2-1.1,4.3l-0.2,0.2l-2-2l0.2-0.2c0.6-0.6,0.6-1.7,0-2.3
			c-0.6-0.6-1.7-0.6-2.3,0l-0.4,0.4l-2,2l-2.1,2.1L6.7,337.6L6.7,337.6z"/>
		<path id="j-red_3_" class="st0" d="M15.5,347.6c-1.5,0.5-3.2,0.1-4.4-1.1l-0.2-0.2l2-2l0.2,0.2c0.6,0.6,1.7,0.6,2.3,0
			c0.6-0.6,0.6-1.7,0-2.3l-0.4-0.4l-2-2l-2.1-2.1l2-2l2.1,2.1l2,2l0.4,0.4c1.1,1.1,1.5,2.7,1.2,4.2c1.3,0.2,2.3,1.3,2.3,2.6
			c0,1.5-1.2,2.7-2.7,2.7C16.8,349.7,15.8,348.8,15.5,347.6L15.5,347.6z"/>
		<path id="j-blue_3_" class="st0" d="M14.7,342.1l-2.1,2.1l-2,2l-0.4,0.4c-1.1,1.1-2.7,1.5-4.2,1.2c-0.3,1.2-1.3,2.1-2.6,2.1
			c-1.5,0-2.7-1.2-2.7-2.7c0-1.3,0.9-2.3,2.1-2.6c-0.4-1.5,0-3.1,1.2-4.2l0.2-0.2l2,2L6,342.2c-0.6,0.6-0.6,1.7,0,2.3
			c0.6,0.6,1.7,0.6,2.3,0l0.4-0.4l2-2l2.1-2.1L14.7,342.1L14.7,342.1z"/>
	</g>
</g>
</svg>
