<svg xmlns="http://www.w3.org/2000/svg"
	xmlns:xlink="http://www.w3.org/1999/xlink"
	width="30" height="45"
	viewBox="0 0 30 45">
	<style type="text/css">
		.icon2_sm{fill:#FFFFFF;}
	</style>

	<g>
		<g id="iconHTML5">
			<path class="icon2_sm" d="M21.6,6.8l-1.9,21.1l-8.3,2.3L3.1,28L1.2,6.8H21.6 M22.4,6.1h-22l2,22.4l9,2.5l9-2.5L22.4,6.1L22.4,6.1z"/>
			<path class="icon2_sm" d="M2.5,0h1.4v1.4h1.3V0h1.4v4.2H5.1V2.8H3.9v1.4H2.5L2.5,0L2.5,0z"/>
			<path class="icon2_sm" d="M8.4,1.4H7.2V0H11v1.4H9.8v2.8H8.4L8.4,1.4L8.4,1.4z"/>
			<path class="icon2_sm" d="M11.6,0h1.5L14,1.5L14.9,0h1.5v4.2h-1.4V2.1l-1,1.5h0l-1-1.5v2.1h-1.4V0z"/>
			<path class="icon2_sm" d="M17,0h1.4v2.8h2v1.4H17V0z"/>
			<polygon class="icon2_sm" points="11.4,10.7 11.4,10.7 4.5,10.7 4.6,11.4 5.3,19 11.4,19 11.4,19 14.8,19 14.5,22.6 11.4,23.4 
				11.4,23.4 11.4,23.4 8.3,22.6 8.1,20.4 6.7,20.4 5.4,20.4 5.8,24.7 11.4,26.3 11.4,26.3 11.4,26.3 17,24.7 17.1,24.2 17.7,17 
				17.8,16.2 17.1,16.2 11.4,16.2 11.4,16.2 7.8,16.2 7.5,13.4 11.4,13.4 11.4,13.4 18,13.4 18,13.4 18.1,12.8 18.2,11.4 18.3,10.7 
						"/>
		</g>	
	</g>
</svg>
