<svg xmlns="http://www.w3.org/2000/svg"
	xmlns:xlink="http://www.w3.org/1999/xlink"
	width="30px" height="30px"
	viewBox="0 0 30 30">
<style type="text/css">
	.icon9_sm{fill:#FFFFFF;}
</style>
	<g>
		<g id="iconJoomla">
			<path class="icon9_sm" d="M21.8,5.6L21.8,5.6l-0.2,0.1v0.5h-0.1V5.7h-0.2V5.6H21.8z"/>
			<path class="icon9_sm" d="M6.6,10L6.2,9.7C5,8.5,4.7,6.8,5.1,5.3C3.9,5,3,3.9,3,2.7C3,1.2,4.2,0,5.7,0
				C7,0,8.1,1,8.3,2.2c1.4-0.3,3,0.1,4.1,1.2l0.2,0.2l-2,2l-0.2-0.2c-0.6-0.6-1.7-0.6-2.3,0C7.5,6,7.5,7.1,8.2,7.7l0.4,0.4l2,2
				l2.1,2.1l-2,2L8.6,12L6.6,10L6.6,10z"/>
			<path class="icon9_sm" d="M8.8,7.8l2.1-2.1l2-2l0.4-0.4c1.2-1.2,2.9-1.6,4.4-1.1C17.8,1,18.9,0,20.3,0
				c1.5,0,2.7,1.2,2.7,2.7c0,1.4-1,2.5-2.3,2.6c0.4,1.5,0.1,3.2-1.1,4.3l-0.2,0.2l-2-2l0.2-0.2c0.6-0.6,0.6-1.7,0-2.3
				c-0.6-0.6-1.7-0.6-2.3,0l-0.4,0.4l-2,2l-2.1,2.1L8.8,7.8L8.8,7.8z"/>
			<path class="icon9_sm" d="M17.7,17.8c-1.5,0.5-3.2,0.1-4.4-1.1l-0.2-0.2l2-2l0.2,0.2c0.6,0.6,1.7,0.6,2.3,0
				c0.6-0.6,0.6-1.7,0-2.3L17.1,12l-2-2L13.1,8l2-2l2.1,2.1l2,2l0.4,0.4c1.1,1.1,1.5,2.7,1.2,4.2c1.3,0.2,2.3,1.3,2.3,2.6
				c0,1.5-1.2,2.7-2.7,2.7C19,19.9,17.9,19,17.7,17.8L17.7,17.8z"/>
			<path class="icon9_sm" d="M16.9,12.3l-2.1,2.1l-2,2l-0.4,0.4c-1.1,1.1-2.7,1.5-4.2,1.2C8,19,6.9,19.9,5.7,19.9
				c-1.5,0-2.7-1.2-2.7-2.7c0-1.3,0.9-2.3,2.1-2.6c-0.4-1.5,0-3.1,1.2-4.2l0.2-0.2l2,2l-0.2,0.2c-0.6,0.6-0.6,1.7,0,2.3
				c0.6,0.6,1.7,0.6,2.3,0l0.4-0.4l2-2l2.1-2.1L16.9,12.3L16.9,12.3z"/>
		</g>
	</g>
</svg>
