<svg xmlns="http://www.w3.org/2000/svg"
	xmlns:xlink="http://www.w3.org/1999/xlink"
	width="30px" height="45px"
	viewBox="0 0 30 45">
<style type="text/css">
	.icon5_sm{fill:#FFFFFF;}
</style>
	<g>
		<g id="iconJS">
			<path class="icon5_sm" d="M24.5,0.8v23.7H0.8V0.8H24.5 M25.3,0H0v25.3h25.3V0L25.3,0z"/>
			<path class="icon5_sm" d="M8.2,19.6c0.4,0.7,0.8,1.2,1.6,1.2c0.8,0,1.3-0.3,1.3-1.5v-8.1h2.4v8.1c0,2.4-1.4,3.6-3.5,3.6
				c-1.9,0-3-1-3.6-2.2"/>
			<path class="icon5_sm" d="M16.7,19.4c0.5,0.8,1.2,1.4,2.3,1.4c1,0,1.6-0.5,1.6-1.2c0-0.8-0.6-1.1-1.7-1.6l-0.6-0.2
				c-1.7-0.7-2.8-1.6-2.8-3.6c0-1.8,1.4-3.1,3.5-3.1c1.5,0,2.6,0.5,3.4,1.9l-1.8,1.2c-0.4-0.7-0.8-1-1.5-1c-0.7,0-1.1,0.4-1.1,1
				c0,0.7,0.4,1,1.4,1.4l0.6,0.2c2,0.9,3.2,1.8,3.2,3.7c0,2.1-1.7,3.3-3.9,3.3c-2.2,0-3.6-1-4.3-2.4"/>
		</g>
	</g>
</svg>
