<svg xmlns="http://www.w3.org/2000/svg"
	xmlns:xlink="http://www.w3.org/1999/xlink"
	width="30px" height="40px"
	viewBox="0 0 30 40">
<style type="text/css">
	.icon7_sm{fill:#FFFFFF;}
</style>
	<g>
		<g id="iconW">
			<path class="icon7_sm" d="M1.6,11.2c0,3.8,2.2,7.1,5.4,8.6L2.4,7.3C1.9,8.5,1.6,9.8,1.6,11.2z"/>
			<path class="icon7_sm" d="M17.7,10.7c0-1.2-0.4-2-0.8-2.6c-0.5-0.8-0.9-1.5-0.9-2.3c0-0.9,0.7-1.7,1.6-1.7c0,0,0.1,0,0.1,0
				c-1.7-1.6-4-2.5-6.5-2.5c-3.4,0-6.3,1.7-8,4.3c0.2,0,0.4,0,0.6,0c1,0,2.6-0.1,2.6-0.1c0.5,0,0.6,0.7,0.1,0.8c0,0-0.5,0.1-1.1,0.1
				l3.5,10.4l2.1-6.3L9.4,6.7c-0.5,0-1-0.1-1-0.1c-0.5,0-0.5-0.8,0.1-0.8c0,0,1.6,0.1,2.5,0.1c1,0,2.6-0.1,2.6-0.1
				c0.5,0,0.6,0.7,0.1,0.8c0,0-0.5,0.1-1.1,0.1L16,17l1-3.2C17.3,12.5,17.7,11.5,17.7,10.7z"/>
			<path class="icon7_sm" d="M11.4,12l-2.9,8.4c0.9,0.3,1.8,0.4,2.7,0.4c1.1,0,2.2-0.2,3.2-0.5c0,0,0-0.1-0.1-0.1L11.4,12z"/>
			<path class="icon7_sm" d="M19.6,6.6c0,0.3,0.1,0.6,0.1,1c0,1-0.2,2.1-0.7,3.4L16,19.5c2.9-1.7,4.8-4.8,4.8-8.3
				C20.8,9.5,20.3,7.9,19.6,6.6z"/>
			<path class="icon7_sm" d="M11.2,0C5,0,0,5,0,11.2c0,6.2,5,11.2,11.2,11.2c6.2,0,11.2-5,11.2-11.2C22.4,5,17.3,0,11.2,0z M11.2,21.9
				c-5.9,0-10.7-4.8-10.7-10.7c0-5.9,4.8-10.7,10.7-10.7c5.9,0,10.7,4.8,10.7,10.7C21.9,17.1,17.1,21.9,11.2,21.9z"/>
		</g>
	</g>
</svg>
