<svg xmlns="http://www.w3.org/2000/svg"
	xmlns:xlink="http://www.w3.org/1999/xlink"
	width="50px" height="45px"
	viewBox="0 0 50 45">
<style type="text/css">
	.icon3_sm{fill:#FFFFFF;}
</style>
	<g>
		<g id="iconMySQL">
			<path class="icon3_sm" d="M0,20h1.4v-5.5l2.2,4.8c0.2,0.6,0.6,0.8,1.3,0.8c0.7,0,1-0.2,1.3-0.8l2.2-4.8V20h1.4v-5.5
				c0-0.5-0.2-0.8-0.7-0.9c-1.1-0.3-1.8,0-2.1,0.7L4.8,19l-2.1-4.8c-0.3-0.7-1-1-2.1-0.7C0.2,13.7,0,13.9,0,14.5V20L0,20z"/>
			<path class="icon3_sm" d="M10.9,15.5h1.4v3c0,0.2,0.1,0.6,0.8,0.6c0.4,0,3,0,3,0v-3.6h1.4c0,0,0,4.9,0,5c0,1.2-1.5,1.5-2.2,1.5h-4.4V21
				c0,0,4.4,0,4.4,0c0.9-0.1,0.8-0.5,0.8-0.7v-0.4h-3c-1.4,0-2.3-0.6-2.3-1.3C10.9,18.6,10.9,15.5,10.9,15.5L10.9,15.5z"/>
			<path class="icon3_sm" d="M41,12c-0.9,0-1.5,0.1-2.1,0.3c-0.2,0.1-0.4,0.1-0.4,0.3c0.1,0.1,0.1,0.2,0.2,0.3c0.1,0.2,0.4,0.5,0.6,0.7
				c0.2,0.2,0.5,0.3,0.7,0.5c0.4,0.3,0.9,0.4,1.3,0.7c0.2,0.2,0.5,0.3,0.7,0.5c0.1,0.1,0.2,0.2,0.3,0.3c0,0,0,0,0,0
				c-0.1-0.1-0.1-0.2-0.2-0.3c-0.1-0.1-0.2-0.2-0.3-0.3c-0.3-0.4-0.7-0.8-1.1-1.1c-0.3-0.2-1.1-0.6-1.2-1c0,0,0,0,0,0
				c0.2,0,0.5-0.1,0.7-0.2c0.4-0.1,0.7-0.1,1.1-0.2c0.2,0,0.3-0.1,0.5-0.2c0,0,0-0.1,0-0.1c-0.2-0.2-0.3-0.5-0.5-0.6
				c-0.5-0.5-1.1-0.9-1.8-1.3c-0.3-0.2-0.8-0.4-1.1-0.5c-0.1-0.1-0.3-0.1-0.4-0.2c-0.2-0.2-0.3-0.5-0.4-0.8c-0.3-0.6-0.6-1.2-0.9-1.9
				c-0.2-0.4-0.3-0.8-0.5-1.2c-1.1-1.8-2.3-2.9-4.1-4c-0.4-0.2-0.9-0.3-1.4-0.4c-0.3,0-0.5,0-0.8,0c-0.2-0.1-0.3-0.3-0.5-0.4
				c-0.6-0.4-2.2-1.2-2.6-0.1c-0.3,0.7,0.4,1.4,0.7,1.7c0.2,0.2,0.4,0.5,0.5,0.8c0.1,0.2,0.1,0.4,0.2,0.6c0.2,0.5,0.3,1,0.6,1.4
				c0.1,0.2,0.2,0.5,0.4,0.7c0.1,0.1,0.2,0.2,0.3,0.4C29,6.3,29,6.7,28.9,6.9c-0.4,1.2-0.2,2.7,0.3,3.6c0.2,0.3,0.6,0.9,1.1,0.6
				c0.5-0.2,0.4-0.8,0.5-1.3c0-0.1,0-0.2,0.1-0.3c0,0,0,0,0,0c0.2,0.3,0.3,0.6,0.4,0.9c0.3,0.5,0.9,1.1,1.4,1.4
				c0.3,0.2,0.5,0.5,0.8,0.6c0,0,0,0,0,0c0,0,0,0,0,0c-0.1-0.1-0.2-0.1-0.2-0.2c-0.2-0.2-0.4-0.4-0.6-0.6c-0.5-0.6-0.8-1.3-1.2-2
				c-0.2-0.3-0.3-0.7-0.5-1C31,8.5,31,8.3,30.9,8.3c-0.2,0.2-0.4,0.4-0.5,0.7c-0.2,0.5-0.2,1-0.3,1.6c0,0,0,0,0,0
				c-0.3-0.1-0.5-0.4-0.6-0.7c-0.3-0.8-0.4-2-0.1-2.9c0.1-0.2,0.4-0.9,0.3-1.1c-0.1-0.2-0.3-0.3-0.4-0.5c-0.1-0.2-0.3-0.5-0.4-0.7
				c-0.3-0.6-0.4-1.3-0.7-1.9C28,2.6,27.8,2.3,27.6,2c-0.2-0.3-0.4-0.5-0.6-0.8c-0.1-0.1-0.1-0.3,0-0.4c0-0.1,0.1-0.1,0.2-0.1
				c0.1-0.1,0.5,0,0.7,0.1c0.4,0.2,0.7,0.3,1.1,0.5c0.2,0.1,0.3,0.3,0.5,0.4c0.1,0,0.2,0,0.2,0c0.3,0.1,0.7,0,1.1,0.1
				c0.6,0.2,1.1,0.5,1.5,0.7c1.4,0.9,2.6,2.2,3.3,3.7c0.1,0.2,0.2,0.5,0.3,0.7c0.2,0.5,0.5,1.1,0.7,1.6c0.2,0.5,0.4,1,0.8,1.4
				c0.2,0.2,0.8,0.3,1.1,0.5c0.2,0.1,0.5,0.2,0.7,0.3c0.4,0.2,0.7,0.5,1.1,0.7C40.4,11.5,41,11.8,41,12L41,12z"/>
			<path class="icon3_sm" d="M30.1,2.7c-0.2,0-0.3,0-0.4,0.1c0,0,0,0,0,0c0,0,0,0,0,0C29.7,2.9,29.9,3,30,3.2c0.1,0.2,0.2,0.3,0.2,0.5
				c0,0,0,0,0,0c0.2-0.1,0.2-0.3,0.2-0.5C30.4,3,30.4,3,30.3,2.9C30.3,2.8,30.1,2.7,30.1,2.7L30.1,2.7z"/>
			<path class="icon3_sm" d="M18.6,20h4c0.5,0,0.9-0.1,1.3-0.3c0.6-0.3,0.9-0.7,0.9-1.1v-1c0-0.4-0.3-0.8-1-1c-0.3-0.1-0.8-0.2-1.2-0.2
				h-1.7c-0.6,0-0.8-0.2-0.9-0.5c0,0,0-0.1,0-0.1V15c0,0,0-0.1,0-0.1c0.1-0.3,0.2-0.4,0.7-0.4c0,0,0.1,0,0.1,0h4v-0.9H21
				c-0.6,0-0.9,0-1.1,0.1c-0.8,0.3-1.2,0.7-1.2,1.4v0.8c0,0.6,0.7,1.2,1.9,1.3c0.1,0,0.3,0,0.4,0h1.4c0.1,0,0.1,0,0.2,0
				c0.4,0,0.6,0.1,0.8,0.3c0.1,0.1,0.1,0.2,0.1,0.3v0.8c0,0.1-0.1,0.2-0.2,0.3c-0.1,0.1-0.3,0.2-0.6,0.2c-0.1,0-0.1,0-0.1,0h-3.9V20
				L18.6,20z"/>
			<path class="icon3_sm" d="M33.5,18.4c0,1,0.7,1.5,2.2,1.6c0.1,0,0.3,0,0.4,0h3.6V19h-3.7c-0.8,0-1.1-0.2-1.1-0.7v-4.8h-1.4V18.4
				L33.5,18.4z"/>
			<path class="icon3_sm" d="M25.7,18.4v-3.3c0-0.8,0.6-1.4,1.8-1.5c0.1,0,0.3,0,0.4,0h2.7c0.1,0,0.3,0,0.4,0c1.2,0.2,1.8,0.7,1.8,1.5v3.3
				c0,0.7-0.2,1.1-0.8,1.3l1.4,1.2h-1.6l-1.1-1L29.4,20h-1.5c-0.2,0-0.5,0-0.8-0.1C26.2,19.6,25.7,19.2,25.7,18.4L25.7,18.4z
				 M27.2,18.3c0,0,0,0.1,0,0.1c0.1,0.4,0.4,0.6,1,0.6h1.3L28.4,18H30l1,0.9c0.2-0.1,0.3-0.3,0.4-0.5c0,0,0-0.1,0-0.1v-3.2
				c0,0,0-0.1,0-0.1c-0.1-0.4-0.4-0.6-1-0.6h-2.1c-0.6,0-1,0.3-1,0.7V18.3L27.2,18.3z"/>
			<path class="icon3_sm" d="M40.4,20h0.2v-0.8h0.3V19h-0.8v0.2h0.3V20L40.4,20z M42,20h0.2V19h-0.3l-0.2,0.6L41.4,19h-0.3V20h0.2v-0.7h0
				l0.3,0.7h0.1l0.3-0.7l0,0V20L42,20z"/>
		</g>
	</g>
</svg>
