<svg version="1.1" xmlns="http://www.w3.org/2000/svg"
	 width="117.3px" 
	 height="51.5px" 
	 viewBox="0 0 117.3 51.5">
<style type="text/css">
	.st0{fill:none;stroke:#FFFFFF;stroke-width:1.5;stroke-miterlimit:10;}
</style>
<path class="st0" d="M95.4,17.8c2.3,0,4.5,0,6.6,0c13.5,0,15.3-7.4,15.3-7.4H95.4c0,0-8.5,0-17,0C73.7,4.1,66.2,0,57.8,0
	c-8.4,0-15.9,4.1-20.6,10.3H0c0,0,1.9,7.4,15.3,7.4c5.6,0,12.8,0,18,0c-0.4,1.3-0.7,2.6-0.9,4h-21c0,0,1.9,7.4,15.3,7.4
	c1.7,0,3.6,0,5.6,0c0.1,1,0.3,2.1,0.6,3.1H21.1c0,0,1.9,7.4,15.2,7.4c4.6,7,12.5,11.7,21.6,11.7c9.1,0,17-4.7,21.6-11.8
	c0.2,0,0.4,0,0.6,0c13.5,0,15.3-7.4,15.3-7.4H82.7c0.3-1,0.4-2,0.6-3c3.3,0,6.1,0,8,0c13.5,0,15.3-7.4,15.3-7.4H83.2
	c-0.2-1.4-0.5-2.7-0.9-4H95.4z M57.8,44.5c-4.7,0-9.1-1.8-12.4-4.7c0,0,0,0,0,0v-0.1c0.4,0,0.7,0,1.1,0c13.5,0,15.3-7.4,15.3-7.4
	H40.3c-0.4-1-0.6-1.9-0.8-3c1.1,0,2.1,0,3.2,0c5.4,0,9.5,0,9.5,0c6.8,0,16,0,24.1,0C74.6,37.9,66.9,44.5,57.8,44.5z M52.1,21.8h-9.5
	h-3.1C41.3,13.4,48.8,7,57.8,7c4,0,7.7,1.3,10.7,3.4c-12,0.6-13.8,7.4-13.8,7.4h20c0.6,1.3,1.1,2.6,1.4,4H52.1z"/>
</svg>
