<svg xmlns="http://www.w3.org/2000/svg"
    xmlns:xlink="http://www.w3.org/1999/xlink"
    width="350" height="440"
    viewBox="0 -20 350 410">
  <style type="text/css">
    .st0{fill:#FFFFFF;}
  </style>

  <defs>
    <filter id="myFilter1">
      <feBlend mode="darken"/>
    </filter>
  </defs>

  <g id="blowball" filter="url(#myFilter1)">
      <path class="st0" d="M130.3,159.2c0.1,0.2,0.1,0.4,0.1,0.6c0,0,0,0,0,0C130.4,159.6,130.4,159.4,130.3,159.2
        C130.3,159.2,130.3,159.2,130.3,159.2z"/>
      <path class="st0" d="M19.2,171c1.1-0.2,2-1.1,2.8-2c-0.1,0.2-0.1,0.4-0.2,0.6c-0.7,2.1-1.6,4.7-0.9,6.9c0,0.1,0.1,0,0.1,0
        c-0.6-2.3,0.4-5.1,1.3-7.2c0.1-0.3,0.2-0.6,0.4-1c0.2-0.2,0.3-0.4,0.5-0.6c0.6-0.6,1.4-1.3,2.2-2.1c-0.2,0.6-0.4,1.2-0.5,1.8
        c-1.8,3.5-3.6,7-3.8,11c0,0,0.1,0,0.1,0c0.4-3.2,1.7-6.2,3.2-9c-0.3,1.1-0.6,2.1-1,3.1c-0.5,1.3-1.1,2.7-1.3,4.1c0,0,0,0,0,0
        c0.3-1.7,1.3-3.1,1.8-4.7c0.4-1.3,0.8-2.6,1.2-3.9c0.6-1.1,1.2-2.2,1.7-3.3c0,0,0,0,0,0c0,0.1,0,0.1,0,0.2c0,0.5,0,1-0.1,1.5
        c-0.2,1.2-0.6,2.4-1,3.5c-0.8,1.9-1.7,3.8-2.9,5.5c-0.1,0.1,0.1,0.2,0.1,0.1c1.5-1.9,2.6-4.1,3.4-6.4c0.4-1.1,0.8-2.3,0.8-3.5
        c0-0.4,0-0.8-0.1-1.3c0-0.1,0.1-0.1,0.1-0.2c0.2,0,0.4,0,0.5,0c0,0.4,0.1,0.8,0.1,1.2c0-0.1-0.1-0.3-0.1-0.4c0,0-0.1,0-0.1,0
        c0,0.2,0.1,0.4,0.2,0.6c-0.1,4.1-2,8.2-4.7,11.2c0,0,0,0.1,0,0c2-1.9,3.4-4.4,4.2-7c0.3-1,0.6-2,0.7-3.1c0.3,0.9,0.6,1.9,1,2.8
        c-0.1,0.1-0.1,0.2-0.2,0.4c0,0,0,0.1,0.1,0c0.1-0.1,0.1-0.2,0.2-0.3c0.8,2,1.9,4,3,5.8c0.3,1,0.8,2,1.5,2.8c0.5,0.5,1,1,1.5,1.4
        c0.2,0.3,0.4,0.5,0.6,0.8c0,0,0,0.1,0,0.1c-0.2,0-0.3,0-0.5,0.1c-0.5-0.3-1.1-0.6-1.5-0.9c-0.9-0.6-1.9-1.3-2.7-2.2
        c-0.1-0.1-0.2,0-0.1,0.1c0.7,1.1,1.9,2.1,3,2.8c0.2,0.1,0.4,0.3,0.7,0.5c-1.8,0.8-3,2.9-3.6,4.8c0,0,0,0,0,0
        c0.8-1.9,2.1-4,4.1-4.5c0.3,0.2,0.7,0.3,1,0.3c0,0,0,0,0,0c0,0,0,0,0,0.1c-3,1.5-4.4,5.8-4.3,8.9c0,0.1,0.1,0.1,0.1,0
        c0.1-3.1,1.5-7,4.4-8.4c0.1,0.1,0.1,0.2,0.2,0.3c0,0,0,0.1,0,0.1c-0.1,0.4-0.2,0.8-0.2,1.3c-0.2,0.4-0.3,0.7-0.4,1.1
        c-0.3,1.4-0.6,2.8-0.8,4.2c-0.3,2.4-0.4,5,0.4,7.3c0,0.1,0.1,0,0.1,0c-0.4-2.7-0.4-5.2,0.1-7.9c0.2-1,0.3-2.1,0.6-3.2
        c0,1.7,0.3,3.5,0.6,5.2c0.5,2.5,1.1,5.8,3.7,7.1c0.1,0,0.1-0.1,0.1-0.1c-1.6-1-2.3-3-2.8-4.7c-0.5-1.9-0.8-3.9-1-5.8
        c-0.1-1-0.2-2.1-0.1-3.1c0.1-0.2,0.2-0.4,0.3-0.7c0,0,0,0.1,0.1,0.1c0,0.1,0,0.2,0.1,0.2c0,0,0.1,0,0.1,0.1
        c-0.3,4,0.3,7.8,2.3,11.4c0,0,0.1,0,0.1,0c-1.5-3-2.1-6.4-2-9.8c0.4,1.6,0.9,3.1,1.6,4.6c0.9,2,2.6,5.5,5.2,5.5
        c0,0,0.1-0.1,0-0.1c-1.3-0.2-2.4-1.4-3.1-2.4c-0.8-1.2-1.4-2.4-2-3.7c-0.6-1.3-1.1-2.7-1.4-4.1c0-0.1,0-0.2-0.1-0.3
        c0.8,1.2,1.8,2.3,2.9,3.2c1.3,1.1,2.9,2.2,4.5,2.8c0,0,0,0,0,0c1.8,1.7,3.6,3.3,5.5,4.9c-0.4,1.9-0.4,3.9-0.3,5.8
        c0.1,1.2,0.2,2.5,0.5,3.7c-0.1,0.2-0.1,0.4-0.2,0.6c0,0,0,0.1,0,0.1c-0.1-0.1-0.3-0.2-0.5-0.2c-0.1,0-0.2,0-0.3,0
        c-0.3-1.5-0.6-3-0.9-4.6c-0.3-1.5-0.5-3.1-0.7-4.6c-0.1-0.9-0.3-1.8-0.2-2.7c0-0.1-0.1-0.1-0.1,0c-0.1,1,0,2.1,0.1,3.1
        c0.2,1.8,0.4,3.5,0.7,5.3c0.1,0.4,0.3,2.7,0.8,4.4c-0.1,0-0.1,0-0.1,0.1c-2.7-2.9-5.6-6.1-6.2-10c0-0.1-0.2-0.1-0.2,0
        c0.4,4.1,3.4,7.4,6.1,10.5c0,0,0,0,0,0c-0.8-0.2-1.5-0.7-2.2-1.1c-0.9-0.6-1.8-1.1-2.5-1.8c-1.8-1.6-3-3.6-3.5-5.9c0,0,0,0,0,0
        c0.2,2.4,1.5,4.6,3.3,6.2c0.8,0.7,1.7,1.3,2.6,1.9c0.6,0.4,1.4,0.9,2.1,1.2c0,0,0,0,0,0c-3.2-0.4-6.4-2-8-4.9
        c0-0.1-0.1,0-0.1,0.1c0.9,3.2,4.6,4.8,7.9,5.4c-0.1,0.2-0.3,0.5-0.4,0.7c-2.3-0.7-4.5-1.6-6.7-2.5c-2.2-0.9-4.3-2-6.5-2.8
        c-1.6-0.6-3.1-1.2-4.7-1.8c-0.4-0.2-0.9-0.4-1.3-0.6c-0.4-0.8-0.9-1.6-1.5-2.4c-1.1-1.4-2.6-2.5-4.1-3.4
        c0.9-0.7,1.6-1.9,1.9-2.8c0.9-2.7,0.9-5.9-0.2-8.6c0-0.1-0.1,0-0.1,0c0.9,2.4,0.9,5.2,0.2,7.6c-0.3,1-1.1,2.7-2.2,3.5
        c-0.2-0.1-0.3-0.2-0.5-0.2c0.6-1.3,0.7-2.9,0.9-4.3c0.3-2.6,0-5.1-0.4-7.6c0-0.1-0.1-0.1-0.1,0c0.3,2.4,0.6,4.8,0.2,7.2
        c-0.2,1.2-0.3,2.7-0.8,3.9c0-0.9-0.1-1.8-0.1-2.2c-0.1-2.6-0.4-5.1-0.9-7.7c0-0.1-0.2-0.1-0.1,0c0.4,2.4,0.6,4.8,0.6,7.3
        c0,1,0.2,2.1,0,3.2c0-0.1-0.1-0.1-0.1-0.2c0,0-0.1-0.1-0.1-0.1c0-1.8-0.2-3.6-0.5-5.4c-0.4-2.5-1.1-5-2-7.4c0,0-0.1,0-0.1,0
        c0.9,4.1,2.1,8.2,2,12.4c-0.2-0.1-0.5,0-0.6,0.3c0,0.2-0.1,0.4-0.1,0.5c-0.4-0.9-0.8-1.7-1.1-2.6c-0.5-1.5-0.9-3.1-0.8-4.6
        c0,0,0,0-0.1,0c-0.2,1.5,0,3,0.4,4.4c0.4,1.3,0.8,2.8,1.4,4c0,0.4,0.1,0.8,0.2,1.1c-0.4,3.2-0.3,6.6,0.7,9.7c0,0.1,0.1,0,0.1,0
        c-0.7-2.9-0.8-6.1-0.4-9.1c0.2,0.2,0.6,0.1,0.6-0.2c0,0,0,0,0,0c0.7,2.2,1,4.4,0.9,6.8c-0.1,3-0.5,6.1-1.9,8.8c0,0,0,0.1,0.1,0
        c1.5-2.7,2.1-5.9,2.2-8.9c0.1-2.1,0-4.6-0.6-6.7c0-0.1,0.1-0.1,0.1-0.2c0.1,0.1,0.1,0.2,0.2,0.3c0.2,0.3,0.5,0.7,0.7,1
        c0.3,0.6,0.6,1.3,0.9,1.9c0.7,3.9-0.3,8.3-1.4,11.9c0,0.1,0.1,0.1,0.1,0c1.1-3.1,2.1-6.8,2-10.2c0.1,0.3,0.2,0.6,0.3,0.9
        c0.9,3.2,0.9,6.4-0.1,9.5c0,0.1,0.1,0.1,0.1,0c1.3-3.3,1.5-6.7,0.4-10c-0.3-0.9-0.6-1.8-0.9-2.7c-0.1-0.6-0.3-1.1-0.5-1.7
        c0.8,0.6,1.6,1.1,2.4,1.6c1.8,2.7,2.6,6,2.1,9.2c0,0.1,0.1,0.1,0.1,0c0.5-3.1,0-6.2-1.5-8.8c0.6,0.3,1.1,0.6,1.7,0.8
        c0.8,1.4,1.4,2.9,2,4.4c0,0.1,0.2,0,0.1,0c-0.5-1.4-1-2.8-1.7-4.1c0.2,0.1,0.5,0.2,0.7,0.3c1.7,0.7,3.4,1.3,5.1,2
        c2.3,1,4.6,2.1,7,3c1.9,0.8,3.8,1.6,5.8,2.3c-0.2,0-0.5,0.1-0.7,0.1c-0.9,0.1-1.8,0.3-2.5,0.7c-0.1,0,0,0.2,0.1,0.1
        c0.7-0.3,1.8-0.3,2.8-0.4c-1.5,1.7-2.3,4.2-2.4,6.3c0,0,0,0,0,0c0.3-1.8,1-4.1,2.2-5.6c-1,2.1-1.7,4.3-1.4,6.7
        c0,0.1,0.1,0.1,0.1,0c-0.2-2.4,0.6-4.7,1.8-6.8c0.1-0.2,0.3-0.5,0.4-0.7c0.2,0,0.4-0.1,0.6-0.1c0.2,0.1,0.4,0.1,0.6,0.2
        c-0.4,1.4-0.6,2.8-0.9,4.3c-0.4,1.9-1,4-0.5,6c-2.1,1.4-4.1,3-5.8,4.7c-1.1,1.1-2.2,2.3-3.1,3.6c-0.2-1.3-0.7-2.6-1.2-3.7
        c-1.3-2.7-3.7-5.3-6.7-5.9c0,0-0.1,0.1,0,0.1c2.9,0.8,5.1,3.3,6.2,6c0.5,1.1,1,2.5,1.1,3.9c-0.4,0.1-0.9,0.2-1.2,0.4
        c0-1.2-0.1-2.3-0.3-3.5c-0.4-2-1.3-4.1-3.4-4.9c0,0,0,0,0,0c2,0.9,2.8,3.4,3,5.4c0.1,0.7,0.1,1.4,0.1,2.1
        c-1.2-3.4-4-6.1-6.5-8.9c0,0-0.1,0-0.1,0.1c1.5,1.8,3.2,3.5,4.6,5.5c0.6,1,1.1,1.9,1.5,3c-0.9-1.6-2.2-3.1-3.5-4.2
        c-2.3-2-6.2-4.7-9.5-3.8c0,0,0,0.1,0,0.1c3.5,0,6.6,1.8,9.1,4.1c1.6,1.5,3.4,3.5,4.1,5.8c-0.1,0.1-0.2,0.2-0.2,0.4
        c-1.1-3.8-4.9-5.3-7.8-7.5c0,0-0.1,0,0,0c2.7,2.3,6,3.8,7.2,7.3c-0.3-0.1-0.7,0.1-0.5,0.5c0.2,0.5,0.5,0.8,0.8,1.2c0,0,0,0,0,0
        c0.1,0.3,0.3,0.6,0.5,0.9c-0.1,0.1-0.1,0.2-0.1,0.3c0.6,1,1.5,1.7,2.2,2.6c0.7,0.8,1.2,1.8,1.6,2.8c0,0.1,0,0.1,0.1,0.2
        c-0.4,0.6-0.9,1.2-1.4,1.8c-0.1,0.2,0.1,0.4,0.2,0.3c0.5-0.4,1-0.7,1.5-1.1c0.4,1.6,0.3,3.2-0.1,4.8c0,0,0.1,0.1,0.1,0
        c0.6-1.6,0.8-3.4,0.3-5.1c0.6-0.6,1.2-1.1,1.7-1.8c0.3,0.3,0.6,0.7,0.9,1c0.7,0.9,1.2,1.8,1.7,2.8c-1,2.7-2.3,5.2-4.8,7.2
        c-0.2,0.2-0.1,0.5,0.2,0.4c2.6-0.8,4.3-2.4,5.6-4.4c0.1,0.4,0.2,0.9,0.2,1.3c0,0.1,0.1,0.1,0.1,0c0-0.5-0.1-1-0.2-1.5
        c1.1-1.8,1.9-3.9,2.7-6c0.7,0.8,1.3,1.7,1.7,2.7c0,0.1-0.1,0.1-0.1,0.2C22.9,336.9,5,322.4,0,398.7c-0.4,6,10.9,9.3,9.3,2.3
        c-12.8-53.5,34.9-110.8,43.5-146.4c1.7-0.6,3.7-0.5,5.5-0.3c-0.2,3.2,0,6.4,0.8,9.5c0.1,0.2,0.4,0.2,0.5,0c0.4-3,0.9-6,1.5-9
        c0.4,0.1,0.8,0.1,1.1,0.2c0.7,0.1,1.6,0.6,2.3,0.4c0,0,0,0,0,0c0.7,0.4,1.5,0.6,2,0c0.1,0,0.1,0,0.2,0c0.3-0.1,0.6-0.1,0.9-0.1
        c1.4,0.5,2.7,1.4,3.8,2.3c1.5,1.2,2.9,2.7,3.8,4.4c0,0,0.1,0,0.1,0c-1.3-2.7-3.7-5.2-6.6-6.6c0.2,0,0.4,0.1,0.6,0.1
        c1,0.2,2.1,0.4,3.1,0.7c1.5,0.4,2.9,0.9,4.3,1.5c1,0.5,1.9,1.2,3,1.3c0.1,0,0.1-0.1,0-0.1c-1.5-0.3-2.7-1.5-4.1-2.2
        c-1.4-0.6-2.9-1.1-4.5-1.4c-1-0.2-2.1-0.5-3.1-0.6c-0.3,0-0.6-0.1-0.9,0c0,0-0.1,0-0.1,0c0-0.1-0.1-0.2-0.1-0.2c0,0,0-0.1,0-0.1
        c0.3-0.2,0.7-0.3,1-0.4c2.1-0.5,4.4,0.2,6.4,0.9c2.3,0.9,4.6,2,6.8,3.1c0.1,0,0.1-0.1,0-0.1c-2.5-1.4-5-2.8-7.7-3.7
        c-0.7-0.2-1.5-0.5-2.4-0.6c0.9,0,1.7,0.1,2.4,0.2c2.4,0.4,4.8,1.3,6.8,2.8c0.1,0,0.1,0,0.1-0.1c-2.1-1.8-4.7-2.9-7.4-3.2
        c-1.3-0.2-2.5-0.2-3.8,0c-0.4,0-0.8,0.1-1.3,0.2c-0.1,0-0.2,0-0.3,0.1c0,0,0,0,0,0c0.5-0.6,1.4-1,2.1-1.3
        c0.9-0.4,1.8-0.7,2.8-0.8c2.9-0.2,5.7,0.8,8.3,1.9c0,0,0.1,0,0-0.1c-2.6-1.5-6.1-2.8-9.1-2.2c-1.1,0.2-2.2,0.6-3.1,1.1
        c-0.5,0.3-1.6,0.8-1.6,1.5c-0.2,0.1-0.4,0.2-0.6,0.3c0,0-0.1,0-0.1-0.1c1.6-2.6,4.4-3.8,7.5-3.6c0.1,0,0.1-0.1,0-0.1
        c-2.9-0.3-5.7,0.6-7.5,2.8c0-0.8-0.3-1.8-0.5-2.1c-0.1-0.3-0.3-0.6-0.4-1c0.4-0.9,0.8-1.7,1.3-2.5c0,0,0.1,0.1,0.1,0.1
        c0,0,0,0,0,0c0,0-0.1-0.1-0.1-0.1c1.3-2.3,2.9-4.4,4.4-6.6c0.9,0.6,2,1.1,3.1,1.4c-0.1,1.5,0,3,0.4,4.7c0,0.2,0.3,0.1,0.3-0.1
        c0-1.5,0.3-2.9,0.6-4.4c0.7,0.1,1.5,0.2,2.2,0.2c2,0,3.9-0.3,5.7-1c0,0,0,0,0,0.1c0,0.1-0.1,0.1-0.1,0.2
        c-0.1,0.2-0.3,0.4-0.5,0.5c-0.7,0.5-1.5,1-2.3,1.4c-1.5,0.6-3.2,1.3-4.9,0.9c-0.1,0-0.1,0.1,0,0.1c1.7,0.6,3.9-0.2,5.4-1
        c0.4-0.2,1.1-0.5,1.7-0.9c-0.9,1.8-1.5,3.8-1.8,5.8c0,0.1,0.1,0.1,0.1,0c0.5-2,1.1-4,2-5.8c0-0.1,0.2-0.3,0.3-0.5
        c0.4-0.3,0.7-0.7,0.8-1.1c0.3,0,0.6,0.1,1,0.1c-0.2,1-0.1,2.3-0.1,2.6c0.1,1.2,0.3,2.5,0.7,3.7c0.3,0.8,0.6,1.7,1.3,2.2
        c0,0,0.1,0,0.1-0.1c-1.2-1.2-1.5-3.6-1.6-5.2c-0.1-0.8-0.3-2.2,0.1-3.1c0,0,0,0,0.1,0c0.2,0,0.5,0,0.8,0c0,0.1,0.1,0.2,0.2,0.3
        c0.1,0.2,0.2,0.4,0.3,0.6c0.2,0.8,0.4,1.6,0.8,2.3c0.6,1.3,1.5,2.3,2.5,3.2c1,1.5,2.2,3,3.5,4.2c-2.3-0.6-4.8-0.6-7.1-0.3
        c0,0,0,0.1,0,0.1c2.7-0.1,5.4-0.1,8,0.9c0.7,0.5,1.4,0.9,2.1,1.2c0,0,0,0,0,0c0.1,0.1,0.2,0.1,0.2,0.2c-0.1,0.1,0,0.2,0.1,0.2
        c0.1,0,0.1,0,0.2,0c0,0,0,0,0,0c-0.5,0-1.1,0-1.7-0.1c-0.4,0-0.8,0-1.2,0c-1.4-0.3-2.7-0.5-4.1-0.8c-2.2-0.5-4.9-1.1-6-3.2
        c0-0.1-0.1,0-0.1,0.1c0.9,2,3.3,2.9,5.3,3.4c0.6,0.2,1.2,0.3,1.9,0.4c-2.3-0.2-4.6-0.2-6.9,0.3c-0.1,0,0,0.1,0,0.1
        c2.5-0.6,5.1-0.3,7.6,0c0.9,0.1,1.7,0.2,2.6,0.3c0.5,0.1,1,0.2,1.5,0.4c-0.9,0.2-1.7,0.3-2.6,0.3c-2.4-0.1-4.8-0.4-7.2-1
        c-0.1,0-0.1,0.1,0,0.2c2.2,0.7,4.6,1.1,6.9,1.3c1,0,1.9,0,2.8-0.2c0.4-0.1,0.7-0.2,1.1-0.3c0.1,0,0.2,0,0.3,0.1
        c-0.4,0.2-0.8,0.4-1.2,0.7c-0.2,0.1-0.5,0.1-0.7,0.2c-1.1,0.2-2.1,0.2-3.2,0.2c-1.8-0.1-3.8-0.1-5.6-0.7c-0.1,0-0.1,0.1-0.1,0.1
        c2,0.8,4.4,0.9,6.5,1c0.4,0,1.3,0,2.3-0.1c-0.3,0.3-0.6,0.6-0.8,0.8c-0.2,0.2-0.3,0.3-0.4,0.5c-0.2,0.1-0.4,0.2-0.6,0.2
        c-2,0.6-4.6,0.2-6.4,1.4c0,0,0,0.1,0,0.1c2.1-1,4.4-0.6,6.6-1.2c-0.5,0.6-1,1.2-1.4,1.8c-0.4,0.6-1,1.2-1.3,1.9c0,0,0,0,0,0
        c0.5-0.4,0.9-1.1,1.3-1.6c0.6-0.7,1.2-1.5,1.9-2.2c0,0,0,0,0.1-0.1c0.1,0,0.2-0.1,0.3-0.1c0.5-0.2,2.4-1.1,3.3-2
        c0,0,0,0.1,0.1,0.1c0,0,0,0,0,0c-1.4,1.4-3.4,2.8-3.4,4.9c0,0,0.1,0,0.1,0c0.1-2.2,2.2-3.3,3.6-4.7c1.6,1.1,3.2,2.2,4.2,4
        c0,0.1,0.1,0,0.1,0c-0.7-1.9-2.5-3-3.9-4.2c0,0,0,0,0,0c1,0.7,2.4,0.8,3.5,0.8c1.7,0,3.4-0.1,5.1,0c0.1,0,0.1-0.1,0-0.1
        c-1.4-0.2-2.7-0.2-4.1-0.2c-0.7,0-1.4-0.1-2.1-0.2c1.2,0,2.6-0.4,3.6-0.7c1.5-0.5,3.2-1,4.5-1.9c0,0,0-0.1,0-0.1
        c-2.9,1.4-6,2.2-9.2,2.2c-0.1,0-0.2,0.1-0.2,0.1c-0.1,0-0.1-0.1-0.2-0.1c0.2-0.1,0.5-0.2,0.7-0.3c0.2-0.1,0.2-0.4,0.1-0.6
        c0.5-0.2,1-0.5,1.6-0.7c2-1,3.9-2,6.1-2.4c0,0,0,0,0,0c-1.8,0.2-3.4,0.9-5,1.6c-0.9,0.4-1.7,0.8-2.6,1.2c0,0,0,0-0.1,0
        c0-0.2-0.2-0.3-0.4-0.3c0,0,0,0-0.1,0c0.8-0.6,1.4-1.4,2-1.9c1.4-1.2,3-2.3,3.8-4c0,0,0,0,0,0c-1,1.6-2.6,2.6-4,3.8
        c-0.8,0.7-1.5,1.3-2.4,1.8c-0.2-0.1-0.4-0.3-0.7-0.4c0.1-0.2,0.2-0.4,0.4-0.6c1-1.4,2.3-2.7,3.6-3.8c0.1,0,0-0.1-0.1-0.1
        c-1.6,1.2-3.1,2.7-4.3,4.3c-0.3-0.1-0.6-0.1-0.9-0.1c-0.5-0.4-1.1-0.7-1.6-1c-0.6-0.3-1.3-0.6-2-0.8c-1.3-1.1-2.4-2.5-3.3-3.9
        c0.5,0.4,1,0.7,1.6,1c0.1,0,0.1-0.1,0.1-0.1c-0.7-0.4-1.3-0.9-1.9-1.4c-0.2-0.2-0.3-0.5-0.5-0.7c-0.9-1.4-1.7-2.8-2.4-4.2
        c0-0.1-0.1-0.2-0.1-0.4c0.8,0.6,1.8,1.2,2,1.3c1.1,0.6,2.2,1.1,3.4,1.5c2,0.6,4.1,0.9,6.2,1.1c0,0,0.1-0.1,0-0.1
        c-2.9-0.6-5.8-1-8.5-2.4c-0.5-0.2-2.4-1.2-3.2-2c0-0.2,0-0.4,0-0.7c0-0.1,0-0.1,0-0.2c0.2,0,0.4-0.1,0.6-0.1
        c0.1,0,0.1,0.1,0.2,0.1c0.1,0,0.1,0,0.2-0.1c0,0,0.1,0,0.1,0c0.2,0.1,0.5,0.1,0.8,0.1c1.9,0.3,3.9,0.5,5.7,0.2
        c1.4-0.3,2.8-0.8,4.2-1.2c1.1,0.5,2.2,1.1,3.4,1.6c-0.3,0-0.5,0-0.8,0c0,0,0,0.1,0,0.1c0.3,0,0.7,0,1,0c1.4,0.6,2.9,1.3,4.3,1.9
        c0.7,0.3,1.3,0.6,2,0.9c-0.5,0.9-1.2,1.8-1.9,2.5c0,0,0,0.1,0.1,0.1c0.8-0.8,1.4-1.6,2-2.5c3.5,1.6,7.1,3.3,10.8,4.4
        c-2,0.2-4,0.8-5.6,1.8c-0.1,0,0,0.1,0,0.1c1.9-0.8,4-1.3,6.1-1.3c-3,0.5-5.7,1.9-8.1,3.8c-0.1,0,0,0.1,0.1,0.1
        c2.5-1.7,5.4-3,8.4-3.4c0.7-0.1,1.5-0.2,2.2-0.2c0.3,0.1,0.6,0.1,0.9,0.2c0,0,0,0,0,0c-0.3-0.1-0.5-0.1-0.8-0.2c0,0,0.1,0,0.1,0
        c0.5,0.1,1.1,0.3,1.6,0.5c0,0,0,0.1,0,0.1c0,0,0,0,0,0c0,0.1,0,0.1,0.1,0.2c0,0,0,0-0.1,0c-0.1,0-0.1,0-0.2,0.1
        c-4.5-0.3-9.2,1.5-12,5c0,0,0,0.1,0,0c2.8-3.1,7-4.6,11.1-4.5c-1.2,0.4-2.4,0.9-3.5,1.5c-1.8,1-3.4,2.5-4.5,4.3c0,0,0,0.1,0.1,0
        c1.3-1.8,3-3.2,5-4.1c1.2-0.6,2.4-0.9,3.7-1.3c0,0.1,0,0.1,0,0.2c-0.7,0.6-1.3,1.5-1.6,1.9c-1,1.4-1.9,2.9-2.4,4.5
        c0,0,0,0.1,0.1,0c0.7-1.4,1.5-2.9,2.5-4.1c0.5-0.7,1.1-1.4,1.7-1.9c0.1-0.1,0.3-0.2,0.4-0.3c0.2,0,0.4-0.1,0.6-0.1c0,0,0,0,0,0
        c-0.1,0.1,0.1,0.3,0.2,0.3c0.4,0,0.9-0.2,1.2-0.4c1.1-0.5,2-0.9,3.1-1.1c2.1-0.3,4.2-0.3,6.3,0c0,0,0.1-0.1,0-0.1
        c-2.2-0.6-4.8-0.6-7-0.2c-0.5,0.1-1,0.2-1.5,0.4c-0.2,0.1-0.4,0.2-0.6,0.3c0.2-0.2,0-0.6-0.2-0.7c3.1-1,6.2-2.2,8.2-4.9
        c0,0,0-0.1-0.1-0.1c-2.3,2.5-5.2,3.7-8.3,4.7c-0.1-0.1-0.2-0.1-0.3-0.1c-0.1,0-0.1,0-0.2,0c0,0,0,0-0.1,0
        c-0.1,0-0.1,0.1-0.2,0.1c-0.1,0-0.1,0.1-0.2,0.1c0,0,0,0,0,0c0,0,0,0,0,0c0,0,0,0,0-0.1c0,0,0,0,0,0c0.1,0,0.3,0,0.3-0.2
        c0.4-0.2,0.8-0.4,1.2-0.5c0.9-0.5,1.6-1.1,2.3-1.8c1.4-1.5,2.8-3,3.6-5c0-0.1-0.1-0.1-0.1,0c-1,2.1-2.7,3.9-4.4,5.4
        c-0.8,0.7-1.7,1.1-2.6,1.6c0.6-0.9,1.3-1.8,2-2.7c1.4-1.8,2.9-3.6,5-4.6c0.1,0,0-0.2-0.1-0.1c-2.3,1.1-3.8,2.9-5.4,4.7
        c-0.4,0.5-1,1.1-1.5,1.7c0-0.1,0.1-0.2,0.1-0.3c0.4-0.9,0.9-1.8,1.4-2.7c1.1-1.8,2.3-3.5,3.6-5.1c0-0.1,0-0.1-0.1-0.1
        c-1.7,1.6-3.1,3.6-4.2,5.6c-0.6,1-1.1,2.1-1.5,3.2c-0.1,0-0.3-0.1-0.4-0.1c0.1-1,0.5-1.9,1.1-2.9c0.8-1.3,1.7-2.8,3-3.7
        c0,0,0-0.1,0-0.1c-1.5,1-2.7,2.7-3.6,4.2c-0.3,0.6-0.8,1.4-1,2.3c-0.6,0-1.2,0-1.8,0c-0.9-0.2-1.9-0.3-2.9-0.2
        c-2.3-0.8-4.5-1.8-6.7-2.8c-1.4-0.6-2.8-1.3-4.2-1.9c1.1-1.7,2-3.7,2.8-5.6c1.2-2.7,2.7-5.5,2.7-8.5c0,0,0.1,0,0.1,0
        c-0.1,1.4-0.2,2.9-0.3,3.2c-0.5,3.6-1.5,7.3-3.9,10c0,0.1,0,0.1,0.1,0.1c2.8-3,3.9-7.1,4.4-11.1c0.1-0.8,0.2-1.6,0.2-2.5
        c0.1,0,0.1-0.1,0.2-0.1c0.2,0.8,0.3,1.6,0.5,2.3c-0.1,0.6-0.2,1.2-0.3,1.7c-0.2,1.2-0.3,2.3,0,3.4c0.6,2.7,1.9,5.7,4.3,7.3
        c0.1,0,0.1-0.1,0.1-0.1c-1.2-1.3-2.2-2.6-2.9-4.2c-0.6-1.3-1.2-3-1.2-4.4c0-0.7,0.2-1.6,0.3-2.5c0.4,1.3,1.1,2.5,2,3.5
        c1.8,2.1,4.4,3.4,7.1,2.7c0,0,0-0.1,0-0.1c-3.1,0.4-5.8-1.3-7.5-3.8c-0.7-1.1-1.2-2.2-1.5-3.4c0.1-1,0.1-2-0.4-2.8
        c0-0.1-0.1-0.1-0.1-0.1c0,0,0-0.1,0-0.1c0-0.1,0.1-0.1,0.1-0.2c0,0,0,0,0,0c1.8,2.3,4.3,4.8,7.1,5.4c2.9,0.7,5.3-1.1,7.7-2.3
        c0,0,0-0.1,0-0.1c-2.4,1-4.9,2.8-7.6,2c-2.6-0.8-4.6-2.8-6.4-4.9c0.2,0,0.4,0.1,0.6,0.1c0.2,0,0.4,0.1,0.6,0.1
        c1,0.4,2.1,0.9,3.1,1.2c1.7,0.5,3.7,1.1,5.6,0.9c1.1-0.1,1.9-0.6,2.7-1.1c4.7,0.4,9.4,0.6,14.1,0.6c-2.7,1.5-6.6,5.2-7.4,5.8
        c0,0,0,0.1,0,0c1.5-1.2,3.1-2.4,4.7-3.6c0.9-0.7,1.9-1.3,3-1.9c0.2-0.1,0.4-0.2,0.7-0.3c0.1,0.1,0.2,0.1,0.2,0.2
        c-0.8,0.8-1.9,1.5-2.7,2.1c-1.9,1.6-3.7,3.4-5.6,5c0,0,0,0.1,0.1,0.1c2.3-1.6,4.3-3.6,6.5-5.2c0.5-0.4,1.4-1,2.2-1.7
        c0,0,0.1,0.1,0.1,0.1c-2.6,4-6.3,7.7-10.9,9.1c0,0,0,0,0,0c4.6-1,8.9-4.7,11.4-8.7c0.1,0.1,0.1,0.1,0.2,0.2
        c0.1,0.1,0.2,0.1,0.3,0c-0.9,1.9-1.8,3.9-3,5.6c-1.5,2.3-3.4,4.4-4.4,6.9c0,0.1,0.1,0.1,0.1,0c1.2-2.5,3.1-4.5,4.6-6.8
        c1.3-1.9,2.1-4,3.2-6c0,0,0,0,0,0c0.1,0,0.1,0.1,0.2,0c0.2-0.1,0.4-0.1,0.7-0.2c0,1.5-0.1,2.9-0.6,4.4c-0.6,2.1-1.7,3.9-3.3,5.4
        c-0.1,0.1,0,0.1,0.1,0.1c2.8-2.4,4.4-6.3,4.3-10.1c3-1.3,5.2-4.7,6.4-7.5c0,0,0-0.1-0.1,0c-1.3,2.7-3.5,5.7-6.3,7
        c0-0.2,0-0.4-0.1-0.6c0.1-0.2,0.1-0.5,0.1-0.7c0.6-0.6,1.1-1.2,1.5-2c1.7-2.8,3.1-5.8,3.6-9.1c0-0.1-0.1-0.1-0.1,0
        c-0.7,3.1-2,6-3.6,8.6c-0.4,0.7-1,1.3-1.5,2c0,0,0,0,0,0c0.9-1.2,1.4-2.8,1.7-3.9c0.7-2.3,1-4.8,1.9-7.1c0-0.1-0.1-0.2-0.1-0.1
        c-0.9,2-1.3,4.2-1.9,6.3c-0.3,1.2-0.7,2.4-1.3,3.5c-0.4,0.7-0.9,1.2-1.4,1.7c-0.1,0-0.1,0.1-0.2,0.1c0.2-0.7,0.4-1.3,0.6-2
        c0.4-1.7,0.6-3.4,0.9-5.1c0.3-2.6,0.6-5.5-0.9-7.8c-0.1-0.1-0.2,0-0.1,0.1c1.6,2.8,0.9,6.4,0.4,9.4c-0.3,1.7-0.6,3.5-1.2,5.2
        c0,0,0-0.1,0-0.1c0-0.1-0.1-0.1-0.1-0.1c0-0.1,0-0.3,0-0.4c0.1-1,0.2-2,0.2-3.1c0.3-3.2-0.8-6.8-2.3-9.6c0-0.1-0.2,0-0.2,0.1
        c1.3,3.5,2.2,7,1.8,10.7c0,0.2-0.1,0.7-0.1,1.4c0,0,0-0.1,0-0.1c-0.3-1.1-0.6-2.1-0.9-3.2c-0.6-2.1-1.1-4.3-1.7-6.4
        c0-0.1-0.2,0-0.1,0c0.4,2.2,0.9,4.3,1.4,6.5c0.3,1.1,0.5,2.1,0.8,3.2c0.1,0.6,0.3,1.1,0.5,1.7c-0.2,0-0.5,0.1-0.8,0.2
        c-0.7-0.5-1.4-0.9-1.8-1.7c-1.2-1.7-1.3-3.7-1.6-5.6c0-0.2-0.3-0.2-0.3,0c0.2,1.8,0.2,3.8,1.2,5.4c0.5,0.9,1.3,1.5,2,2.1
        c-0.1,0-0.2,0.1-0.3,0.2c-4.7-0.2-9.3-0.3-14-0.8c1.2-0.9,2.2-2.2,3.3-3.3c0,0,0-0.1-0.1-0.1c-1.2,1.1-2.3,2.4-3.6,3.3
        c-1.6-0.1-3.1-0.3-4.7-0.5c-0.9-0.1-1.8-0.2-2.6-0.4c2-0.6,3.6-1.9,5.3-3.1c0,0,0-0.1,0-0.1c-1.8,1.4-3.9,2.7-6.1,3.1
        c-1.5-0.2-2.9-0.5-4.4-0.8c0,0,0,0,0-0.1c3.5,0.5,7.1-2.4,9.5-4.7c0,0,0-0.1-0.1-0.1c-2.5,2.1-5.9,4.8-9.3,4.3
        c0-0.1,0-0.3,0-0.4c0-0.4-0.2-0.7-0.4-0.9c0.3-0.1,0.6-0.1,0.9-0.1c0.4,0,0.7-0.1,1.1-0.2c0.9-0.1,1.8-0.3,2.7-0.8
        c0.7-0.3,1.3-0.7,1.9-1.2c0.5-0.3,1.1-0.6,1.6-0.9c2.4-1.4,5.5-3.4,6.6-6.1c0,0,0-0.1-0.1,0c-1.3,2.5-3.9,4.3-6.5,5.7
        c0,0-0.1-0.1-0.1,0c-0.2,0.1-0.3,0.2-0.4,0.3c-0.4,0.2-0.7,0.4-1.1,0.6c-1.8,1-3.8,1.9-5.9,2.1c-0.2,0-0.4,0-0.6,0.1
        c0,0,0-0.1,0-0.1c2.1-2.4,4.1-4.8,5.7-7.6c1.1-2,2.8-4.9,1.9-7.2c0.6-0.6,1.2-1.2,1.8-1.8c1.2-0.3,2.4-0.6,3.6-0.9
        c-1,2.4-2.2,4.6-3.8,6.6c-0.1,0.1,0.1,0.3,0.2,0.2c1.7-2.1,3.1-4.4,4.1-6.9c1.4-0.4,2.8-0.8,4.2-1.2c-0.4,2.7-1.3,5.3-2.7,7.6
        c0,0,0.1,0.1,0.1,0.1c1.6-2.2,2.7-5,3.1-7.8c0.9-0.3,1.8-0.5,2.7-0.8c0,1.4-0.1,2.9-0.3,4.3c0,0.1,0.1,0.1,0.1,0
        c0.3-1.4,0.5-2.9,0.5-4.4c5.3-1.6,10.6-3.2,15.8-4.8c0,0,0,0,0,0c0.1,0,0.3,0.1,0.4,0.1c0.1,0.1,0.3,0.2,0.4,0.2
        c-0.2,0.2-0.3,0.3-0.5,0.5c-0.7,0.7-1.3,1.4-1.9,2.1c-1.2,1.4-2.3,2.8-3.2,4.4c0,0,0,0.1,0.1,0c1-1.5,2.2-2.8,3.5-4.1
        c0.7-0.7,1.3-1.4,2-2c0,0,0.1-0.1,0.1-0.1c-1.2,3.7-2.4,7.5-5.9,9.8c0,0,0,0.1,0,0.1c3.6-2,5-5.8,6.2-9.5
        c-0.1,0.9-0.2,1.9-0.3,2.1c-0.2,1-0.6,2-0.9,3c-0.7,1.9-1.7,3.9-3.3,5.2c-0.1,0,0,0.1,0.1,0.1c2-1.4,3.1-3.7,3.9-5.9
        c0.4-1.2,0.8-2.3,1-3.6c0.1-0.6,0.1-1.1,0.1-1.7c0.1,0.1,0.2,0.2,0.3,0.2c-0.1,1.6-0.1,3.3,0.2,5c-0.1,0.3-0.2,0.7-0.3,1
        c-0.8,3-1.7,6-2.7,8.9c0,0,0,0,0.1,0c1.3-2.9,2.3-5.9,3.1-9c0.6,2.7,1.9,5.3,3.7,7.2c0,0,0.1,0,0-0.1c-1.8-2.1-3-4.9-3.6-7.8
        c0.3-1,0.8-2.7,0.7-4.1c0.7,3.7,1.5,7.7,4.2,10.3c0,0,0.1,0,0.1-0.1c-1.2-1.9-2.3-3.7-2.9-5.9c-0.6-2-1-4-1.3-6.1
        c1.1-0.7,3,2.1,3.5,2.7c0.9,1.3,2.1,3.2,1.6,4.8c0,0,0,0,0,0c1.1-1.8-2.4-7.2-4.4-8c0.4-0.1,0.7-0.2,1-0.3
        c1.3-0.6,2.6-1.4,3.6-2.4c0,0,0-0.1,0-0.1c-0.9,0.6-1.8,1.2-2.8,1.7c-0.6,0.3-1.4,0.7-2.1,0.8c-0.4,0.1-0.7,0-0.9-0.1
        c0-0.1,0-0.2,0-0.3c0,0,0,0,0.1,0c0,0,0,0,0,0c0,0,0,0-0.1,0c0,0,0,0,0,0c0.1-0.6,0.1-1.2,0.2-1.8c0.2-1,0.4-2,0.5-3.1
        c0.4-2.7,0.8-6.9,3.6-8.2c0.1,0,0-0.1,0-0.1c-3.2,1.3-3.4,5.8-4,8.7c-0.1,0.4-0.4,1.7-0.7,3.1c-0.1-0.1-0.3-0.1-0.4,0
        c-0.1-0.4-0.2-0.7-0.2-1.1c-0.1-0.4-0.2-0.9-0.3-1.3c-0.3-3.6-0.1-7.2,1.6-10.4c0,0,0-0.1-0.1,0c-1.6,2.7-2,5.8-2,8.9
        c-0.1-0.3-0.2-0.5-0.3-0.8c-0.9-2.4-2.2-4.6-3.8-6.5c0,0-0.1,0-0.1,0.1c1.5,2.1,2.7,4.5,3.6,6.9c0.2,0.7,0.5,1.4,0.6,2.2
        c0.1,1.1,0.2,2.2,0.4,3.2c-0.1,0-0.2,0.1-0.2,0.2c0,0.1,0,0.1-0.1,0.2c0,0,0,0,0,0c-0.4-0.5-0.8-1.1-1.1-1.6
        c-0.7-1-1.3-2.1-1.9-3.2c-1-2.2-1.8-4.4-1.9-6.8c0,0-0.1-0.1-0.1,0c-0.3,2.3,0.8,4.9,1.7,6.9c0.5,1.1,1,2.1,1.6,3
        c0.4,0.6,0.9,1.2,1.3,1.8c-0.2,0-0.5,0.1-0.7,0.1c-0.4-0.2-0.7-0.5-1-0.9c-0.7-0.8-1.4-1.7-1.9-2.7c-1-1.8-2.3-4.5-1.4-6.5
        c0,0,0,0,0,0c-1.1,2.2,0,4.8,1,6.8c0.6,1.2,1.4,2.4,2.4,3.3c-0.1,0-0.2,0-0.3-0.1c-0.8-0.3-1.7-0.7-2.4-1.3
        c-1.2-0.9-2-2-2.4-3.4c-0.8-2.7-0.5-5.8,0.6-8.4c0,0,0-0.1-0.1,0c-1.4,2.7-1.8,6.4-0.7,9.2c0.6,1.5,1.6,2.6,2.9,3.5
        c0.6,0.4,1.4,0.9,2.1,1c0.1,0,0.3,0,0.4,0c-1.3,0.4-2.6,0.8-3.9,1.1c-3.9,1.1-7.8,2.3-11.7,3.5c0-1.9-0.4-3.7-1.2-5.4
        c-0.2-0.4-0.9-2.4-1.7-3.3c0.1,0,0.3-0.1,0.4-0.1c2.3,1.8,2.8,5.3,3.7,7.9c0,0.1,0.1,0,0.1,0c-0.7-2.7-1.2-6-3.3-8
        c0,0,0.1,0,0.1,0c2.2,1.8,4.9,5.3,5.2,6.1c0.1,0.1,0.3,0.1,0.2-0.1c-0.4-0.9-2.7-4.2-4.9-6.2c0.3-0.1,0.5-0.2,0.6-0.3
        c0,0,0,0,0.1,0c0.4,0.1,0.9,0.2,1.3,0.5c1.6,0.9,2.9,2.4,3.4,4.2c0,0.1,0.1,0,0.1,0c-0.4-2.3-2.1-4.2-4.2-5
        c2.1-1.6,3.8-3.9,4.8-6.3c0-0.1-0.1-0.1-0.1,0c-1,2.1-2.6,4.4-4.5,5.8c-0.1,0.1-0.4,0.3-0.7,0.4c-0.5-0.1-1.3-0.2-1.9-0.2
        c-0.2-0.1-0.4-0.2-0.6-0.3c0,0,0,0,0-0.1c1.7-1.1,3-3,3.9-4.8c1-1.9,1.7-3.9,2.1-6c0-0.1-0.1-0.1-0.1,0
        c-0.5,2.1-1.3,4.1-2.3,5.9c-0.5,0.9-1.1,1.9-1.8,2.7c-0.3,0.4-0.7,0.8-1.1,1.1c-0.1,0.1-0.5,0.4-0.7,0.5c0-0.3-0.2-0.7-0.3-0.9
        c0.3-2,0.5-4.6,0.5-4.9c0.2-1.4,0.3-2.9,0.6-4.3c1-0.9,2-1.7,3-2.5c2.6-2.1,5.6-4.1,8.1-6.5c-1.2,2.5-2.2,5.2-3.5,7.6
        c0,0,0,0,0,0c1.9-2.8,3-6.1,4.7-9c0.5-0.6,1-1.2,1.4-1.9c0,0.1,0,0.2,0,0.2c0.1,0.5,0.1,0.9,0.1,1.4c0.1,1.1,0.1,2.2,0.1,3.3
        c0,1.2,0,2.3-0.3,3.5c-0.4,2-1.2,3.8-1.6,5.8c0,0.1,0.1,0.1,0.1,0c1.4-3.2,2.4-6.5,2.4-10.1c0-0.3,0-2.5-0.2-4c0,0,0.1,0,0.1,0
        c2.3,4.1,4.1,8.3,3.7,13.1c0,0,0,0,0,0c0.9-4.5-0.7-9-2.9-12.9c0.1,0.1,0.2,0.2,0.3,0.2c0.8,0.6,1.5,1.1,2.3,1.7
        c1.8,1.5,2.8,3.1,2.9,5.5c0,0,0,0,0,0c0.2-2-0.6-3.8-2-5.2c-0.8-0.8-1.6-1.4-2.5-2.1c-0.5-0.4-1-0.9-1.6-1.4
        c0-3.4,0.8-7,2.5-9.9c0,0,0-0.1,0,0c-1.5,2.6-2.5,5.5-2.8,8.5c0-0.1-0.1-0.2-0.1-0.2c0,0,0,0,0,0c0.2-1.8-0.3-3.6-0.3-5.4
        c0-2.4,0.2-4.7,1-6.9c0,0-0.1-0.1-0.1,0c-0.8,1.9-1.2,3.9-1.2,6c-0.1,1.9,0.3,3.8,0.2,5.7c0,0,0,0,0,0c-0.2-0.2-0.4-0.2-0.6-0.1
        c-0.4-0.8-0.9-1.6-1.3-2.4c-0.2-0.7-0.4-1.3-0.7-1.9c0-0.1,0-0.1-0.1-0.2c-0.7-2.7-1.1-5.7-0.1-8.4c0,0,0-0.1-0.1,0
        c-1,2.3-0.9,4.8-0.6,7.2c0,0-0.1-0.1-0.1-0.1c-1.6-2.6-3.8-4.8-6.4-6.4c0,0-0.1,0,0,0c2.5,1.9,4.8,4.1,6.3,6.8
        c0.2,0.4,0.4,0.8,0.6,1.2c0.2,0.7,0.4,1.3,0.7,2c0.1,0.5,0.3,0.9,0.4,1.4c-0.8-1.3-1.6-2.7-2.6-3.9c-1.7-2.1-3.6-4-5.6-5.7
        c0,0-0.1,0,0,0.1c2,2,4.1,4,5.7,6.4c1.2,1.7,2.1,3.5,3.1,5.3c0.1,0.3,0.2,0.6,0.3,0.9c0,0,0,0-0.1,0c-0.5-0.2-0.9-0.4-1.4-0.6
        c-1-0.5-1.9-1.1-2.8-1.9c-2.1-1.8-3.7-4.1-5.1-6.5c0-0.1-0.1,0-0.1,0.1c1.4,2.9,3.3,5.6,5.8,7.6c0.3,0.3,1.8,1.4,3,1.9
        c0,0,0,0,0,0c-0.8,0.5-1.4,1.3-1.9,2.1c-1.1,1.6-2.1,3.5-3.6,4.8c0,0,0,0.1,0,0c1.5-0.7,2.5-2.5,3.4-3.8
        c0.6-0.8,1.1-1.6,1.9-2.3c0.3-0.3,0.7-0.5,1-0.6c0,0,0,0,0.1,0c-0.6,0.9-1.1,1.8-1.6,2.8c-1.6,1.6-3.3,3-5.1,4.3
        c-2.1,1.6-4.2,3.3-6.3,5.1c0.1-0.4,0.2-0.8,0.3-1.1c0.3-1.1,0.9-3.2,2.5-3c0,0,0,0,0,0c-1.1-0.2-1.8,0.7-2.2,1.6
        c-0.4,0.9-0.7,1.9-0.9,2.8c-0.5,0.5-1.1,0.9-1.6,1.4c-0.2,0.1-0.3,0.3-0.5,0.4c0.1-1.6,0.3-3.2,0.7-4.7c0.3-1.3,0.9-3.2,2.4-3.5
        c0,0,0-0.1,0-0.1c-1.3,0.2-2,1.6-2.4,2.7c-0.6,1.8-0.9,3.8-1.1,5.7c0,0,0,0.1,0,0.1c-0.9,0.8-1.8,1.5-2.8,2.2
        c-0.2-0.6-0.3-1.2-0.4-1.7c-0.4-2.7,0.1-5.5,0.9-8.1c0-0.1-0.1-0.1-0.1,0c-1,2.7-1.7,5.9-1.1,8.8c0.1,0.5,0.2,0.9,0.3,1.4
        c-0.1,0.1-0.1,0.1-0.2,0.2c-0.3-1-0.6-2.1-0.7-3.1c-0.5-2.9-0.9-6.9,0.9-9.4c0,0,0,0,0,0c-2,2.4-1.7,6.4-1.3,9.2
        c0.2,1.2,0.4,2.5,0.8,3.7c-0.2,0.2-0.5,0.4-0.7,0.5c-0.5-0.7-1-1.4-1.5-2.1c-1.5-2.5-2.8-5.4-2.4-8.4c0-0.1-0.1-0.1-0.2,0
        c-0.6,2.9,0.5,5.9,2,8.5c0.5,0.8,1,1.6,1.6,2.4c-0.6,0.5-1.2,1-1.8,1.4c-2-1.1-3.8-2.5-5.2-4.3c1-3.6-1.4-7.5-3.3-10.4
        c-1.2-1.8-2.3-3.7-3.5-5.4c-0.5-0.7-1-1.3-1.6-1.9c0.7,0.4,1.5,0.8,2.2,1.3c1.1,0.7,2.1,1.5,3.1,2.4c1.9,1.8,3.5,4,4.3,6.5
        c0,0,0,0,0,0c-0.6-2.6-2.1-4.9-4-6.8c-1-1-2-1.8-3.1-2.6c-0.1-0.1-0.3-0.2-0.4-0.3c1.6,0.6,3.1,1.4,4.5,2.2
        c1.5,0.8,3,1.7,4.5,2.7c0.8,0.5,1.7,1,2.5,1.7c0,0,0.1,0,0-0.1c-0.8-0.8-1.8-1.4-2.7-2c-1.7-1.1-3.4-2.2-5.2-3.2
        c-0.4-0.2-3.7-2.1-5.6-2.4c1.8-0.4,4.9-0.9,5.1-0.9c3.4-0.1,6.6,1,9.8,1.8c0,0,0,0,0-0.1c-4-1.4-7.8-2.8-12.1-2
        c-1,0.2-2.1,0.3-3.1,0.5c1-1.7,2.8-3,4.5-4c2-1.2,4.1-2.1,6.3-2.9c0,0,0-0.1,0-0.1c-2.4,0.8-4.7,1.8-6.9,3
        c-1.3,0.7-2.7,1.7-3.7,2.8c0-0.1,0.1-0.2,0.1-0.3c1.2-1.9,2.4-3.9,3.6-5.9c2.2-3.9,4.3-7.9,6-12.1c0.4,1.8,1.3,3.3,2.4,4.8
        c0,0,0.1,0,0,0c-1-1.4-1.9-3.1-2.1-4.8c0-0.2,0-0.5,0-0.7c0.4-1,0.8-2,1.1-3c0.1,0.1,0.3,0.2,0.4,0.2c0.6,1.1,0.7,2.6,1.1,3.7
        c1,2.6,2.5,5.1,2.9,8c0,0.1,0.1,0.1,0.1,0c-0.4-3.1-1.9-5.7-2.7-8.7c-0.1-0.3-0.2-1.3-0.5-2.2c0,0,0,0,0.1,0
        c1.4,1.5,2.5,3.2,3.3,5c1,2.1,1.9,4.3,2.2,6.7c0,0,0,0,0,0c-0.5-3.9-1.7-7.8-4.1-10.9c0.6,0.3,1.1,0.7,1.6,1.1
        c0.2,0.3,0.4,0.6,0.6,0.8c1.2,2,2.1,4.1,3.2,6.2c0,0,0,0,0,0c-0.9-2.2-1.8-4.4-3-6.4c2,1.8,3.8,3.8,5.9,5.5c0,0,0.1,0,0,0
        c-2.4-2.3-4.4-5-7-7c-0.1-0.1-0.2-0.2-0.3-0.4c0.9,0.5,1.9,0.9,2.9,1.1c2,0.4,3.9-0.1,5.9-0.2c0,0,0,0,0,0
        c-1.8,0-3.7,0.4-5.5-0.1c-1.7-0.4-3.3-1.2-4.7-2.2c0.8,0.2,1.6,0.3,2.5,0.3c1.8,0.1,3.8,0,5.5-0.7c0,0,0-0.1,0-0.1
        c-1.9,0.5-4,0.5-5.9,0.2c-0.8-0.1-1.6-0.2-2.3-0.4c0.2-0.2,0.4-0.4,0.5-0.5c1-1.4,0.3-2.9-0.2-4.4c0,0,0,0,0,0
        c0.2,1,0.7,2.2,0.3,3.2c-0.2,0.6-0.7,1.2-1.3,1.5c-0.1,0-0.2-0.1-0.3-0.1c-0.1-0.1-0.1-0.2-0.2-0.3c0.6-1.6-1-3.5-1.9-4.5
        c-1.4-1.5-3-2.9-4.8-4.1c0,0-0.1,0,0,0.1c1.4,1.1,2.7,2.4,3.9,3.7c0.9,1,2.5,2.8,2.3,4.3c-0.4-0.4-0.8-0.8-1.3-1.1
        c-1.1-0.8-2.2-1.7-3.4-2.3c-2.8-1.4-5.9-1.5-8.9-1.7c-0.1,0-0.1,0.1,0,0.1c2.8,0.3,5.9,0.5,8.4,1.8c1.2,0.6,2.3,1.4,3.3,2.2
        c0.4,0.3,0.8,0.7,1.2,1.1c0,0,0,0,0,0c-0.1,0-0.1-0.1-0.2-0.1c0,0,0,0-0.1,0c-0.9-0.5-1.8-1-2.8-1.3c-1.3-0.4-2.6-0.6-3.9-0.8
        c-2.2-0.3-4.8-0.7-6.8,0.6c0,0,0,0,0,0c2.3-1,4.8-0.5,7.2,0c1.2,0.2,2.4,0.4,3.5,0.8c-1,0-1.9,0-2.8,0c-2.6-0.1-5.5-1.1-8,0.1
        c0,0,0,0,0,0c2.6-0.8,5.2,0.1,7.8,0.2c1.2,0,2.4,0,3.6,0.1c0.3,0,0.5,0.1,0.8,0.1c0.1,0.1,0.2,0.1,0.3,0.2
        c-1.2-0.1-2.5-0.1-3.7,0c-2.9,0.2-5.8,0.6-8.6,1.3c0,0,0,0,0,0c2.6-0.5,5.3-0.8,7.9-0.8c1.4,0,3.2-0.2,4.7,0.1
        c0,0.1,0.1,0.2,0.2,0.2l0.1,0c-0.1,0.1-0.1,0.2-0.2,0.2c-0.8,0.4-1.6,0.8-2.3,1.2c-1.4,0.8-3,1.4-4.7,1.5c-2,0.1-4-0.4-5.9-0.9
        c-0.1,0-0.1,0.1,0,0.1c3.2,1,6.7,1.6,9.9,0.2c0.8-0.4,1.6-0.8,2.4-1.2c0.1,0,0.2-0.1,0.4-0.2c-0.2,1-0.2,2.2-0.1,2.7
        c0,0,0,0,0,0.1c-0.7,1.7-1.5,3.5-2.3,5.2c-2,4.2-4.4,8.2-6.8,12.1c0.1-0.6,0.2-1.1,0.2-1.2c0.6-3.3,0.7-7.2-0.7-10.4
        c0,0,0,0,0,0c1.1,3,0.9,6.6,0.4,9.7c-0.2,1-0.4,1.9-0.7,2.9c0,0.1-0.1,0.2-0.1,0.3c-0.3,0.4-0.5,0.8-0.8,1.2c0,0,0,0,0-0.1
        c1-3.8,0.3-7.8-1-11.5c0,0-0.1,0-0.1,0c1.1,3.6,1.6,7.5,0.6,11.1c-0.1,0-0.1-0.1-0.2-0.1c0-0.3,0.1-0.7,0.1-1
        c0.1-1.1,0-2.3-0.2-3.4c-0.6-3-1.5-5.7-2.7-8.4c0,0-0.1,0-0.1,0c1.2,3,2.3,6.1,2.6,9.4c0.1,1.1,0,2.2-0.1,3.3
        c-0.1,0-0.2,0-0.4,0c-0.8-2.4-1.9-4.9-3.2-7.1c-1.4-2.4-3.3-4.9-6.1-5.7c0,0,0,0,0,0c2.8,1,4.8,3.8,6.1,6.4
        c1.1,2,1.8,4.1,2.6,6.3c0,0,0,0,0,0c-0.7-0.5-1.5-0.9-2.3-1.3c-1.1-1.3-2.2-2.6-3.7-3.6c-2-1.4-4.4-2.4-6.9-2.6
        c-0.1,0-0.1,0.1,0,0.1c2.7,0.6,5.3,1.5,7.5,3.4c0.8,0.7,1.5,1.5,2.1,2.4c-0.8-0.3-1.6-0.6-2.4-0.8c-2.7-0.7-5.8-1.2-8.6-0.8
        c-0.1,0-0.1,0.2,0,0.2c2.7-0.4,5.6,0.2,8.3,0.9c1.1,0.3,2.3,0.7,3.4,1.3c0.1,0.2,0.3,0.3,0.4,0.5c-4.4-1.6-9.5-2.2-13.9-0.7
        c0,0,0,0.1,0,0.1c4.3-1.1,9.2-0.6,13.5,1c-2.2-0.3-4.5-0.3-6.7-0.4c-2.3-0.1-5.8-0.3-7.3,1.8c0,0,0,0,0,0
        c1.9-1.9,5.5-1.5,7.9-1.4c2.5,0.2,5.3,0.1,7.7,0.8c0.1,0.1,0.1,0.1,0.2,0.2c0.1,0.1,0.2,0.1,0.3,0c0,0.1,0.1,0.2,0.1,0.3
        c0,0,0,0,0,0c-0.1,0-0.2,0-0.3,0c-0.3,0-0.6,0-0.8,0c-0.7,0-1.3,0.1-2,0.2c-1.5,0.2-3,0.5-4.5,0.9c-2.7,0.7-5.3,1.7-7.2,3.8
        c-0.1,0.1,0,0.2,0.1,0.1c2.2-2.1,5.2-3,8.1-3.7c1.7-0.4,3.4-0.6,5.2-0.8c0.3,0,0.8,0.1,1.3,0.1c-1,0.5-2,1.3-2.7,2
        c-1.3,1.2-2.4,2.5-3.3,3.9c-1.9,2.8-3.6,5.8-5.2,8.7c0,0.1,0,0.1,0.1,0c1.9-2.8,3.4-5.8,5.4-8.5c1-1.3,2-2.6,3.2-3.7
        c0.6-0.6,1.3-1.1,2-1.5c0.2-0.1,0.4-0.2,0.6-0.3c-0.2,0.2-0.4,0.5-0.6,0.7c-0.8,1.2-1.6,2.4-2.3,3.6c-3.7,5.3-6.8,11-10.7,16.2
        c0.4-2,0.9-4,1.1-6.1c0-0.1-0.1-0.1-0.1,0c-0.6,2.2-1.1,4.4-1.5,6.7c-0.2,0.2-0.4,0.5-0.6,0.7c-1.7,0.7-3.1,2.3-4.3,3.7
        c-1.4-2.2-2.6-4.6-3.4-7.1c0-0.1-0.2,0-0.1,0c0,0,0,0.1,0,0.1c-1-0.4-2.1-0.6-3.1-0.9c0.2-1.3,0.4-2.6,0.6-4
        c1.1,0,2.3,0.1,3.4,0.3c0.1,0,0.1-0.1,0-0.1c-1.1-0.3-2.3-0.4-3.4-0.5c0.2-1.3,0.5-2.6,0.8-4c0.9-4.1,1.7-8.3,2.7-12.4
        c-0.2,1.3-0.5,2.5-0.8,3.8c0,0.1,0.1,0.1,0.1,0c0.9-2.9,1.4-5.9,1.9-8.9c0.7-2.6,1.5-5.2,2.3-7.8c0.7,1.7,1.1,3.4,1.3,5.3
        c0.4,4.1-0.1,8-0.7,12c0,0,0,0,0,0c1-3.9,1.4-8,1.1-12c-0.1-1.2-0.3-2.4-0.6-3.6c0.4,0.8,0.8,1.6,1.1,2.5c0.9,2.3,1,4.6,0.6,7.1
        c0,0,0.1,0.1,0.1,0c0.5-2.3,0.5-4.7-0.2-6.9c-0.6-1.8-1.5-3.4-2.4-5c0.1-0.3,0.2-0.6,0.3-0.9c0.4,0.1,0.7,0.3,1,0.5
        c1.2,0.6,2.4,1.3,3.6,2c2.4,1.5,4.8,3.1,6.9,5.1c0.1,0,0.1,0,0.1-0.1c-2.3-2.1-4.7-4-7.4-5.6c-1.1-0.7-2.5-1.7-3.9-2.3
        c1,0.1,2,0.2,2.2,0.2c2.3,0.3,4.6,1,6.8,1.7c0,0,0,0,0,0c-1.8-0.8-3.7-1.3-5.5-1.8c-0.8-0.3-1.7-0.4-2.6-0.5
        c-0.1,0-0.5-0.1-0.9-0.1c0.1-0.4,0.3-0.8,0.5-1.2c0.4,0,0.8,0,1.3,0c2.9,0,6.1,0.9,8.6,2.6c0,0,0,0,0,0c-2.3-1.7-5-2.7-7.9-3
        c-0.6-0.1-1.1-0.1-1.7-0.1c0.2-0.4,0.4-0.9,0.5-1.3c0.2-0.1,0.4-0.2,0.7-0.3c1.5-0.6,3.1-1.2,4.8-1.2c0,0,0,0,0,0
        c-1.8,0-3.6,0.5-5.3,1.1c1.6-3.7,3.5-7.3,5.8-10.6c0.6-0.4,1.2-0.9,1.7-1.5c0,0,0,0,0,0c0.3,1.5,1.2,2.9,2,4
        c1.3,1.8,2.8,3.4,4.5,4.8c0,0,0.1,0,0,0c-1.4-1.4-2.7-2.9-3.9-4.5c-0.8-1.1-1.8-2.6-2.1-4c0.6,0.9,1.3,1.7,2,2.5
        c1.7,1.9,3.5,3.7,5.2,5.7c0,0,0.1,0,0,0c-1.4-1.7-2.8-3.3-4.2-5c-0.8-1-1.7-2-2.5-3c-0.3-0.3-0.5-0.7-0.7-1c0,0,0-0.1,0-0.1
        c0.2,0,0.3,0,0.5,0c0.2,0,0.3-0.1,0.4-0.3c0.7,0.4,1.5,0.8,2.2,1.2c2.1,1.4,3.9,3.2,4.9,5.5c0,0,0.1,0,0.1,0
        c-1-2.7-3.1-4.9-5.6-6.3c-0.2-0.1-0.7-0.4-1.3-0.8c0.3-0.1,0.6-0.2,1-0.2c1.2-0.1,2.3,0.1,3.5,0.3c2,0.4,4.3,0.9,6.1,2
        c0.1,0,0.1,0,0-0.1c-1.9-1.3-4.4-2-6.7-2.4c-1.2-0.2-2.4-0.4-3.6-0.2c-0.2,0-0.5,0.1-0.8,0.2c1.2-0.6,2.9-0.7,4-0.7
        c1.7,0,3.5,0,5.2,0.3c0,0,0,0,0-0.1c-2-0.5-4.1-0.7-6.1-0.6c-0.4,0-0.8,0-1.3,0.1c1.1-0.4,2.2-1,3.2-1.9c0.1-0.1,0-0.2-0.1-0.1
        c-2,1.7-4.5,2.3-7,2.4c-3.1-1.1-5.6-3.8-7.8-6.1c0,0-0.1,0,0,0c1.9,2.3,4.2,4.7,7,6.1c-0.3,0-0.7,0-1,0c-0.1,0-0.2,0-0.2,0.1
        c-1.3-0.3-2.7-1-3.7-1.6c-1.8-1-3.7-2.3-4.8-4c0,0-0.1,0-0.1,0c1.1,2,3.2,3.5,5.2,4.5c1.2,0.7,2.7,1.3,4.1,1.5
        c-1.1,0.5-4,0.7-4.5,0.7c-2.6-0.1-4.8-1.1-6.3-3.3c0,0-0.1,0-0.1,0c1.6,2.8,4.6,3.9,7.8,3.6c1.1-0.1,2.3-0.2,3.3-0.6
        c0.1-0.1,0.3-0.2,0.5-0.3c0,0,0,0,0,0c0,0.1,0,0.1,0,0.2c-0.1,0.2-0.2,0.5-0.4,0.7c-0.4,0.4-0.9,0.6-1.4,0.8
        c-1.2,0.3-2.5,0.2-3.6,0c-2.1-0.5-4.7-1.5-5.9-3.4c0,0,0,0,0,0c1.1,2.2,4.2,3.4,6.5,3.8c1.2,0.2,2.6,0.3,3.7-0.1
        c0.1-0.1,0.3-0.1,0.5-0.2c-1.2,1-2.7,1.5-4.2,1.2c-2.7-0.5-5.3-2.1-6.8-4.4c-0.1-0.1-0.2,0-0.1,0.1c1.7,2.5,4.7,4.6,7.7,4.8
        c1.4,0.1,2.4-0.3,3.5-1.2c0.4-0.3,1.4-0.9,1.6-1.5c0.2,0,0.3,0.1,0.5,0.1c-0.1,0.2-0.1,0.4-0.2,0.6c-0.5,0.5-1.2,1.2-1.3,1.2
        c-0.9,0.7-1.6,1.1-2.8,1.2c-2.8,0.2-6.1-0.6-8.2-2.6c-0.1,0-0.1,0-0.1,0.1c1.3,1.3,3.1,2.1,4.8,2.5c1.4,0.3,3.5,0.7,4.9,0.1
        c0.3-0.1,0.6-0.3,0.9-0.4c-1.7,2.2-3,4.7-4.3,7.2c-0.5,1.1-1,2.2-1.5,3.3c-0.5,0.2-1.1,0.5-1.7,0.8c1-2.1,2.1-4.2,3.7-5.9
        c0,0,0,0,0,0c-1.9,1.8-3.2,4-4.3,6.3c-0.2,0.1-0.4,0.3-0.5,0.4c0.7-2.6,0.6-5.4,0.7-8c0,0-0.1,0-0.1,0c-0.4,1.5-0.3,3.1-0.5,4.6
        c-0.1,1.2-0.3,2.4-0.6,3.6c-0.1-0.1-0.1-0.1-0.2-0.2c0,0,0,0,0,0c-0.1-0.3-0.1-0.7-0.2-1c-0.2-0.9-0.4-1.8-0.7-2.7
        c-0.7-1.9-1.9-3.5-3-5.2c0,0-0.1,0-0.1,0c1,1.9,2.1,3.6,2.8,5.6c0.3,0.9,0.5,1.9,0.6,2.9c-0.5-0.6-1-1.1-1.7-1.6
        c-0.3-0.3-0.5-0.5-0.5-0.6c-2.5-2.3-5.4-3.5-8.7-4.1c-0.1,0-0.1,0.1,0,0.1c2.8,0.7,5.4,1.8,7.6,3.7c-3.2-1.4-7.3-1.7-10.2-2
        c-0.1,0-0.1,0.1,0,0.1c3.6,0.5,8.7,1,11.8,3.5c0.2,0.3,0.5,0.6,0.7,0.9c-0.1,0-0.3,0.1-0.4,0.2c-4.6-2.1-10.2-1.3-14.9,0.1
        c0,0,0,0,0,0c4.5-0.9,9.3-1.4,13.6,0.1c-3.1-0.4-6.5,0.7-9.4,1.5c-2.8,0.7-5.9,1.7-7.6,4.2c-0.4,0-0.9,0-1.3-0.1
        c0.1-0.7,0.2-1.4,0.3-2.1c0.6-0.1,1.1-0.1,1.7-0.2c0,0,0-0.1,0-0.1c-0.5,0-1.1,0-1.6,0.1c0.7-5.3,1.9-10.4,3.9-15.4
        c0.3-0.4,0.5-0.8,0.7-1.3c3,2.2,6.8,3.3,10.4,1.8c0.1,0,0.1-0.2-0.1-0.2c-3.6,1.3-7.3,0.2-10.2-2c0-0.1,0-0.1,0.1-0.2
        c0.1,0,0.2,0,0.3,0.1c1,1,3.1,1.2,4.3,1.3c2.4,0.3,4.6,0,6.9-0.8c0.1,0,0-0.2,0-0.1c-2.3,0.6-4.4,0.9-6.8,0.5
        c-1.1-0.2-2.2-0.4-3.2-0.8c0.1,0,0.1-0.1,0.1-0.2c3.6,0.4,7.5-0.2,10.1-2.9c0,0,0-0.1,0,0c-2.7,2.5-6.6,3-10.2,2.5
        c0.1-0.1,0-0.3,0-0.4c1.3-0.9,2.7-1.3,4.2-1.9c1.9-0.8,3.7-2,5.7-2.5c0,0,0,0,0,0c-2.3,0.4-4.3,1.6-6.4,2.3
        c-0.5,0.2-1,0.3-1.5,0.5c1.8-1.4,3.4-3.2,3.8-3.6c0.1-0.1,0-0.1-0.1-0.1c-1.2,1.2-2.5,2.3-3.8,3.3c-0.2,0.2-0.7,0.5-1.1,0.9
        c-0.5,0.2-1,0.5-1.4,0.8c-0.3-0.1-0.6-0.1-0.8-0.1c-0.3,0-0.6,0.1-0.9,0.1c0,0,0,0,0,0c-0.1-0.1-0.3,0-0.3,0.1
        c-0.1,0.1-0.1,0.2-0.1,0.2c-2.6-0.8-5.2-2.4-6.3-4.7c0-0.1-0.2,0-0.1,0.1c0.7,1.7,2.3,3,3.9,3.8c0.6,0.4,1.3,0.7,2,1
        c-3.7,0.7-7.9-0.5-10.3-3.3c0-0.1-0.1,0-0.1,0.1c1.1,2,3.6,3,5.7,3.5c1.5,0.3,3,0.4,4.5,0.2c-0.5,0.3-1,0.6-1.5,0.9
        c-1,0.5-2.2,0.5-3.3,0.5c-2.2,0-6.3-0.3-7-3c0,0-0.1,0-0.1,0c0.6,2.9,4.8,3.3,7.1,3.3c1.4,0,2.7-0.1,3.9-0.7
        c0.5-0.3,1-0.6,1.5-0.9c-0.3,0.5-0.7,1-1.1,1.5c-0.7,0.7-1.6,1.3-2.5,1.6c-1.9,0.8-4,0.8-6,0c-0.1,0-0.1,0.1-0.1,0.1
        c2,0.8,4.3,0.9,6.4,0.1c1.5-0.6,3.2-1.8,4-3.3c0.1,0.1,0.2,0.2,0.4,0.3c-0.9,2.8-3.6,4-6.4,4.5c-0.1,0,0,0.1,0,0.1
        c2.1-0.3,4.1-1,5.5-2.4c-2,4.7-3.2,9.7-3.9,14.8c-2.3,0.3-4.6,1.1-6.4,2.5c0.9-1.5,1.9-3,3-4.4c1.1-1.4,2.4-3.1,4.1-3.7
        c0,0,0,0,0,0c-1.8,0.5-3.1,2.2-4.2,3.6c-1.1,1.3-2.2,2.6-3.1,4.1c0,0-0.1-0.1-0.1-0.1c1.1-3.4,1.9-6.8,4.2-9.7c0,0,0,0,0,0
        c-2.4,2.7-3.4,6.1-4.5,9.5c-0.1,0-0.2-0.1-0.3-0.1c0,0,0,0,0,0c0-0.1-0.1-0.2-0.2-0.1c0,0,0,0.1,0,0.1c-0.1,0-0.1,0-0.2,0
        c0.3-3.5,0.9-7.1,3.2-9.9c0,0,0-0.1,0,0c-2.6,2.4-3.4,6.4-3.7,10c-0.1,0-0.2,0.1-0.3,0.2c-0.1-0.3-0.2-0.7-0.2-1
        c-0.1-1-0.2-1.9-0.1-2.9c0.1-1.9,0.5-4.1,1.9-5.6c0,0,0-0.1-0.1-0.1c-1.5,1.4-2.1,3.7-2.2,5.7c-0.1,1.1-0.1,2.3,0.2,3.4
        c0,0.1,0,0.2,0.1,0.4c-0.6-0.9-1.3-1.7-1.9-2.4c-1.4-1.4-3-2.5-4.8-3.3c-0.1,0-0.1,0.1,0,0.1c1.7,0.8,3.3,2,4.6,3.4
        c0.2,0.3,0.5,0.6,0.7,0.8c-0.7-0.5-1.6-0.8-2.4-1c-2.2-0.6-4.4-0.8-6.7-0.7c-0.1,0-0.1,0.1,0,0.1c3.4,0.3,8.4,0.3,10.2,3.7
        c-0.1,0-0.2,0-0.4,0.1c-0.9,0.1-1.9,0.2-2.8,0.3c-1.2,0.1-2.5,0.3-3.6,0.8c-1.9,0.9-4,2.5-5,4.4c-1-4.6-2-9.2-3.5-13.6
        c0.1-0.4,0.2-0.8,0.3-1.2c0.4,0.6,0.8,1.2,1.3,1.8c0.9,1.1,2.1,2.2,3.6,2.4c0.1,0,0.1-0.1,0-0.1c-1.4-0.3-2.7-1.5-3.5-2.7
        c-0.4-0.5-0.9-1.2-1.3-1.9c0-0.2,0-0.4,0-0.6c3.8,2.6,8.2,1.2,11.9-0.9c0.1,0,0-0.2-0.1-0.1c-3.6,1.9-8.2,3.1-11.8,0.5
        c0,0-0.1,0-0.1,0c0.1,0,0.2-0.1,0.2-0.1c0,0,0-0.1,0-0.1c0,0.1,0.1,0.2,0.2,0.2c0,0,0.1,0.1,0.2,0.1c0,0,0,0,0.1,0
        c0,0,0,0,0.1,0c0.1,0,0.2,0,0.3,0.1c0,0,0,0,0.1,0c2,0.4,4.2,0.5,6.2-0.3c2.1-0.8,3.8-2.1,5.4-3.6c0,0,0-0.1,0-0.1
        c-1.7,1.3-3.5,2.6-5.5,3.3c-1,0.3-2,0.5-3.1,0.5c-0.1,0-0.5,0-0.9,0c3.6-0.5,6.9-3.3,8.5-6.4c0,0,0-0.1-0.1,0
        c-1.9,3.3-5.7,6.1-9.6,6c0,0,0,0,0,0c0.5-0.1,1.1-0.3,1.6-0.4c0.9-0.2,1.7-0.4,2.5-0.9c1.7-1,2.9-2.5,4-4.1c0,0,0-0.1-0.1,0
        c-1.2,1.7-2.7,3.3-4.6,4.1c-1,0.4-2.2,0.5-3.3,0.7c0.2-0.3,0.3-0.6,0.4-0.7c1.1-1.9,2.7-3.5,4.2-5.1c0,0,0-0.1-0.1-0.1
        c-1.4,1.4-2.9,2.8-4.1,4.4c-0.3,0.4-0.6,0.9-0.8,1.3c0,0,0,0,0,0c-0.1,0-0.2,0-0.2,0c0-0.2-0.2-0.4-0.5-0.4c0,0,0,0-0.1,0
        c1.5-3,3.9-5.4,6.9-7.2c0.1,0,0-0.1-0.1-0.1c-3.2,1.6-5.9,4.1-7.5,7.3c-0.2-0.1-0.5-0.2-0.9-0.2c0.2-0.5,0.3-1,0.6-1.5
        c0.7-1.5,2.1-3.1,3.6-3.9c0,0,0-0.1,0-0.1c-2.3,1.1-3.7,3.2-4.6,5.5c-0.5,0-1,0-1.2,0c-1.4-0.1-3.1-0.2-4.5,0.2
        c-0.1,0,0,0.1,0,0.1c1.2-0.2,2.5-0.1,3.7,0c0.6,0,1.2,0.1,1.8,0.2c0,0,0,0,0,0.1c-0.1,0-0.2,0.1-0.3,0.1c0,0,0,0,0,0
        c-1.2,0-2.4,0.3-3.6,0.6c-2.5,0.6-5.1,1.3-7.2,2.9c-0.1,0,0,0.1,0.1,0.1c2.4-1.2,4.7-2,7.3-2.6c0.7-0.2,1.6-0.4,2.4-0.5
        c0,0,0,0,0,0c-0.6,0.3-1.2,0.7-1.7,1.1c-0.4,0.2-0.8,0.3-1.2,0.5c-2.5,0.9-5,1.6-6.9,3.6c-0.1,0.1,0.1,0.3,0.2,0.2
        c1.7-1.8,4.1-2.4,6.4-3.1c-1.6,1.2-3.7,2.5-4.7,4.4c-0.1-0.6-0.2-1.1-0.3-1.7c0-0.1-0.1,0-0.1,0c0.1,0.6,0.2,1.3,0.2,2
        c0,0.1-0.1,0.2-0.1,0.4c0,0.1,0.1,0.1,0.1,0c0,0,0-0.1,0.1-0.1c0.2,4.1-0.6,8.8-4.1,10.9c0,0-0.1,0-0.1,0c0-0.1-0.1-0.2-0.1-0.3
        c0.1-0.3,0.1-0.6,0.1-1c1.5-2.1,2.5-4.6,2.9-7.3c0-0.1-0.1-0.1-0.1,0c-0.5,2.5-1.5,4.8-2.9,6.8c-0.1-0.1-0.3-0.1-0.4-0.1
        c0.1-0.7,0.2-1.4,0.2-1.9c0.7-2,1.6-3.9,2.8-5.7c0,0,0-0.1,0,0c-1.1,1.6-2,3.3-2.7,5.1c0-1.2,0-2.5-0.1-3.7
        c0-0.9-0.1-1.9,0.2-2.8c0-0.1-0.1-0.1-0.1,0c-0.7,1.7-0.4,3.7-0.4,5.5c0,0.8,0,1.7-0.1,2.5c-0.3,0.8-0.5,1.5-0.7,2.3
        c-0.2,0.3-0.5,0.5-0.7,0.8c0,0-0.1,0-0.1,0c-0.6-2.6-0.4-5.5,0.1-8.1c0-0.1-0.1-0.1-0.1,0c-0.7,2.7-1,5.6-0.5,8.4
        c-1.4,1.1-2.2,2.8-2.8,4.5c-0.9,1.1-1.9,2.4-3.2,3C19.1,171,19.1,171,19.2,171z M100.1,136.3c0.1-0.1,0.1-0.3,0.1-0.4
        c0,0,0,0,0,0c0,0,0.1,0,0.1,0.1c0,0,0,0,0,0.1C100.3,136.1,100.2,136.2,100.1,136.3z M122.8,145.4c0.1-0.1,0.2-0.1,0.4-0.1
        c0,0,0,0,0,0c-0.3,0.8-0.6,1.5-1,2.3C122.3,146.8,122.5,146,122.8,145.4z M155.9,201.9c0.6,0.7,0.4,2,0.3,2.9
        c-0.1,0.4-0.1,0.8-0.2,1.2C155.8,204.6,155.7,203.2,155.9,201.9z M119.6,229.7c0.5,0,0.9-0.1,1.4-0.2c0.1,0,0.1,0,0.2,0
        c2.5,0.4,5.1,0.7,7.7,0.9c-0.8,0.5-1.8,0.8-2.8,0.8C123.7,231.2,121.6,230.5,119.6,229.7z M117.7,228.9c0.7,0.1,1.5,0.3,2.2,0.4
        c-0.5,0-1,0-1.5-0.1C118.1,229.1,117.9,229,117.7,228.9z M97.1,256.4c-0.3,0.3-0.7,0.5-1.1,0.8c-0.4,0.2-0.8,0.5-1.2,0.7
        c0.3-0.4,0.7-0.8,1.1-1.1C96.3,256.7,96.7,256.5,97.1,256.4z M94.6,252.8c0.1,0,0.2,0.1,0.3,0.1c0.5,0.2,0.9,0.5,1.4,0.8
        C95.7,253.5,95.1,253.2,94.6,252.8z M87.3,243.6c0.6,1.2,1.3,2.3,2.1,3.4c-0.9-0.9-1.5-2-2-3.2
        C87.4,243.8,87.4,243.7,87.3,243.6z M23.3,196.7c1.1,0.8,2,1.7,2.8,2.8c-0.8-0.5-1.5-1-2.2-1.5
        C23.7,197.5,23.5,197.1,23.3,196.7z M28.8,200.9c-0.6-0.3-1.2-0.6-1.7-0.9c-1-1.7-2.4-3.2-4.1-4.2c0.1,0,0.2-0.1,0.2-0.1
        c0.5,0.3,1.1,0.6,1.7,1c1.1,0.7,2.1,1.5,2.9,2.6C28.1,199.7,28.4,200.3,28.8,200.9z M58.5,160.6c-0.1,2.5,0.3,5,0.8,7.3
        c0.7,3.8,1.7,7.6,2.7,11.2c0.5,1.9,1.3,3.7,2.1,5.5c-2.5-3.7-5.3-7.9-4-12.3c0-0.1-0.1-0.1-0.1,0c-0.8,2.6-0.2,5.3,0.9,7.7
        c0.7,1.5,1.5,3,2.4,4.5c-0.2-0.2-0.4-0.4-0.6-0.6c-1.7-1.5-3.3-3-4.3-5.1c0-0.1-0.2,0-0.1,0c0.9,2.3,2.6,4,4.4,5.6
        c0.6,0.5,1.1,1.1,1.7,1.6c-0.1-0.1-0.2-0.1-0.4-0.2c-1.4-0.8-2.9-1.4-4.2-2.4c-2.9-2.2-5.9-4.8-6.8-8.5c0-0.1-0.1,0-0.1,0
        c0.6,3.5,3.2,6.2,5.9,8.3c1.3,1,2.6,1.7,4.1,2.5c0.8,0.4,1.6,0.9,2.4,1.4c-0.1,0-0.2,0.1-0.2,0.1c-0.1,0-0.2,0.1-0.3,0.1
        c-0.2-0.1-0.5-0.2-0.7-0.3c-0.8-0.3-1.7-0.5-2.5-0.9c-2.1-0.9-4-2.1-5.8-3.6c-0.1-0.1-0.2,0.1-0.1,0.1c2,1.7,4.2,3.2,6.7,4.2
        c0.6,0.2,1.2,0.5,1.8,0.7c-0.3,0.1-0.6,0.3-0.9,0.5c0,0-0.1,0-0.1,0.1c-2.8,0.2-5.6,0.2-7.8,1.7c-5.1-8.3-7.1-18-9.2-27.6
        c1.6-1.8,3.3-3.7,5.7-4.5c1.2-0.4,2.5-0.5,3.8-0.6c0.1,0,0.2,0,0.2,0c-0.9,0.5-1.8,1.1-2.8,1.7c-2.6,1.5-4.9,3.7-6.2,6.4
        c0,0,0,0,0,0c1.5-2.5,3.6-4.6,6.1-5.9c1-0.5,1.9-1.2,2.9-1.7c0.4-0.2,0.8-0.4,1.3-0.6c0.1,0,0.1,0,0.2,0
        c-1.7,0.7-3.1,2.7-4.2,4.1c-2.3,3-3.7,6.6-3.7,10.4c0,0.1,0.1,0.1,0.1,0c0.5-3.6,1.4-7.1,3.8-10c1.1-1.3,2.5-3.4,4.3-4
        c-0.3,0.5-0.5,1-0.6,1.1c-0.8,1.4-1.6,2.8-2,4.3c-0.5,2.2-0.7,4.4-0.7,6.7c0.1,1.9,0.2,4,1.2,5.7c0,0.1,0.1,0,0.1-0.1
        c-0.8-1.7-1-3.8-1-5.7c0-2,0.1-4.1,0.6-6c0.4-1.5,1-2.7,1.7-4c0.3-0.6,0.7-1.2,1-1.7c0.1,0.2,0.3,0.3,0.4,0.3
        c-0.4,1.5-0.8,3-1,4.6c-0.2,1.6-0.1,3.2-0.1,4.9c0.1,3,0.1,6.3,1.6,9c0,0.1,0.1,0,0.1,0c-1.3-2.9-1.3-6.2-1.3-9.3
        c0-1.7-0.1-3.4,0.2-5.1C58.3,161.8,58.4,161.2,58.5,160.6z M57.5,193.2c-0.1-0.2-0.3-0.3-0.4-0.5c-0.6-0.8-1.2-1.6-1.7-2.5
        c2-1.3,4.3-1.3,6.7-1.5c-0.9,0.6-1.7,1.4-2.4,2.3c-0.6,0.8-1,1.6-1.5,2.5c-0.1-0.2-0.2-0.3-0.3-0.5
        C57.9,192.9,57.5,193,57.5,193.2z M54,198.1c0.7,0.6,1.5,1.2,2.2,1.7c-0.3,0-0.6,0.1-1,0.2c-1,0.4-1.8,1.1-2.4,2
        c0.1-0.5,0.2-0.9,0.3-1.4C53.4,199.8,53.7,198.9,54,198.1z M54,197.6c-0.7-0.6-1.4-1.2-2.1-1.7c0.4,0.4,0.9,0.7,1.3,1
        C53.4,197.1,53.7,197.3,54,197.6C54,197.5,54,197.6,54,197.6z M51.1,210.1c0,0.4,0.1,0.8,0.1,1.1c0.2,1.4,0.6,2.7,1.2,4
        c0.2,0.4,0.4,0.8,0.6,1.2c-0.3,0.2-0.5,0.4-0.7,0.6c-0.4,0.3-0.7,0.7-1,1c0,0,0,0,0,0c-0.6-1.5-0.6-3.3-0.7-4.9
        c0-1.1-0.1-2.1,0-3.2C50.9,210,51,210.1,51.1,210.1z M50.9,209.1c0-0.1,0-0.2,0.1-0.4c0.1,0.1,0.1,0.1,0.2,0.2
        c0,0.1,0,0.2,0,0.2C51,209.1,50.9,209.1,50.9,209.1z M67.1,199.5c-0.6-0.3-1.1-0.4-1.6-0.6c-0.1,0-0.2-0.1-0.3-0.1
        c0-0.7,0-1.5,0.1-2.2c0.1-1.2,0.3-2.5,0.6-3.8c0.2,1.5,0.4,3,0.9,4.5C66.9,198,67,198.8,67.1,199.5z M68.1,190.9
        c0.1-0.7,0.1-1.3,0.1-2c0,0,0,0,0,0c0,0,0,0,0,0c-0.1,0.8-0.1,1.6,0,2.4C68.2,191.1,68.1,191,68.1,190.9z M64.9,196.5
        c-0.1,0.7-0.1,1.5-0.1,2.2c-0.4-0.1-0.8-0.3-1.2-0.5c0.7-2.2,1.2-4.4,2-6.5c0-0.1,0.1-0.2,0.1-0.4c0,0,0,0,0,0
        C65.4,193.1,65,194.8,64.9,196.5z M52.5,207.4C52.5,207.4,52.5,207.3,52.5,207.4c0,0,0.1,0,0.1,0c0.9,0.9,1.8,1.6,2.8,2.3
        c-0.3,0-0.6,0-0.9-0.1C53.8,208.9,53.2,208.1,52.5,207.4z M53.8,209.5c-0.1,0-0.3,0-0.4,0c-0.3-0.3-0.5-0.5-0.7-0.8
        c0-0.1,0-0.2,0-0.3C53.1,208.8,53.4,209.1,53.8,209.5z M55.8,211.7c-0.1-0.1-0.2-0.2-0.4-0.4c0.1,0,0.2,0.1,0.3,0.1
        c0.7,0.6,1.4,1.1,2.1,1.6c-0.1,0.1-0.2,0.1-0.3,0.2C57,212.6,56.4,212.1,55.8,211.7z M57.1,213.4c-0.3,0.2-0.6,0.4-0.9,0.6
        c0-0.4,0-0.9,0-1.3c0,0,0,0,0,0C56.6,212.9,56.8,213.2,57.1,213.4z M54.4,208.4c0.3,0.2,0.7,0.3,1,0.5c0.6,0.3,1.2,0.6,1.8,0.9
        c-0.3,0-0.6,0-0.9,0C55.7,209.3,55,208.9,54.4,208.4z M57.1,249.4c0,0-0.1,0-0.1,0c-0.7-0.3-1.5-0.5-2.3-0.8
        c0.2-0.4,0.3-0.9,0.4-1.3c0.6,0.2,1.1,0.5,1.7,0.7C56.9,248.5,57,248.9,57.1,249.4z M57.2,248.1c0.5,0.3,1,0.6,1.5,0.9
        c0,0,0,0,0,0c0,0.3-0.1,0.7-0.1,1c-0.4-0.2-0.8-0.4-1.3-0.6C57.3,249,57.2,248.6,57.2,248.1z M55.3,246.9c0.9-2.7,1.9-5.3,2.9-8
        c-0.1,0.3-0.1,0.6-0.2,0.9c-0.4,2.4-1.3,5.1-1.2,7.7C56.4,247.3,55.8,247.1,55.3,246.9z M59.7,200.2c0.1-0.5,0.2-1,0.3-1.5
        c0.5,0.6,1,1.1,1.6,1.5c0,0.2,0,0.3,0,0.5C61,200.6,60.4,200.5,59.7,200.2C59.7,200.2,59.7,200.2,59.7,200.2z M61.7,202
        c0,0.5,0.1,0.9,0.1,1.4c-0.8-0.5-1.6-1.1-2.3-1.6c0-0.3,0.1-0.6,0.1-0.9C60.3,201.1,61,201.5,61.7,202z M61.6,201.3
        c0,0.2,0,0.3,0,0.5c-0.4-0.3-0.9-0.6-1.3-0.8C60.8,201.1,61.2,201.2,61.6,201.3z M61.9,200.4c0.3,0.2,0.6,0.3,0.9,0.5
        c-0.3,0-0.6-0.1-0.9-0.1C61.9,200.7,61.9,200.5,61.9,200.4z M64.4,201.8c0.2,0.1,0.5,0.3,0.7,0.4c0,0.1,0,0.1,0,0.2
        c-0.4,0.8-0.8,1.5-1.1,2.4c0,0-0.1,0-0.1,0c-0.6-0.4-1.1-0.7-1.6-1.1c-0.1-0.1-0.2-0.1-0.3-0.2c0-0.5-0.1-0.9-0.1-1.4
        c0.3,0.2,0.6,0.4,0.8,0.6c0.1,0,0.1,0,0.1-0.1c-0.3-0.2-0.6-0.5-0.9-0.7c0-0.2,0-0.4,0-0.6C62.7,201.5,63.6,201.6,64.4,201.8z
         M62.7,204.5c-0.2-0.1-0.4-0.1-0.6-0.2c0-0.1,0-0.2,0-0.3C62.3,204.2,62.5,204.3,62.7,204.5z M62,204.7c-0.4,0-0.7,0-1.1,0
        c-3,0.1-5.8,0.7-8.5,1.9c-0.1-0.1-0.1-0.1-0.2-0.2c0-0.1,0-0.2,0-0.3l0,0c0.5-0.5,1.1-0.8,1.8-1c1.1-0.3,2.3-0.5,3.4-0.6
        C59,204.4,60.6,204.3,62,204.7C62,204.6,62,204.6,62,204.7C62,204.7,62,204.7,62,204.7z M52.4,205.3c0.1-0.6,0.1-1.2,0.2-1.8
        c0.1-0.1,0.2-0.3,0.3-0.4c0.7-1.2,1.6-2.4,3-2.7c0.3-0.1,0.6-0.1,0.9-0.1c0.8,0.6,1.6,1.2,2.4,1.8c0,0.6,0,1.2,0.1,1.7
        c0,0.1,0.1,0.1,0.1,0c0-0.5,0-1.1,0-1.6c0.6,0.4,1.2,0.9,1.9,1.3c0.2,0.1,0.4,0.3,0.6,0.4c0,0.1,0,0.2,0.1,0.4
        c-1.9-0.4-4.1-0.2-6,0C54.8,204.4,53.4,204.6,52.4,205.3z M57.5,200.3c0.6,0.1,1.3,0.2,1.9,0.5c0,0.3-0.1,0.6-0.1,0.8
        C58.7,201.1,58.1,200.7,57.5,200.3z M58.5,193.9c0.5-1,1.1-1.9,1.7-2.7c0.9-1.1,1.9-1.9,3.1-2.5c0.4,0,0.8-0.1,1.1-0.1
        c-0.3,0.4-0.6,0.9-0.9,1.3c-0.9,1.3-1.6,2.8-2.3,4.3c-0.3,0.6-0.5,1.2-0.7,1.9C59.8,195.5,59.1,194.7,58.5,193.9z M65,188.8
        c-0.1,0.3-0.3,0.5-0.4,0.8c-0.7,1.5-1.2,3.1-1.8,4.7c-0.4,1-0.6,2-0.8,3c-0.4-0.3-0.8-0.6-1.2-0.9c0.4-1.1,0.9-2.2,1.5-3.3
        C63,191.6,63.9,190.1,65,188.8z M65.7,188.5C65.8,188.6,65.8,188.6,65.7,188.5c0.1,0.4,0,0.7,0,1.1c-0.1,0.5-0.2,1-0.3,1.3
        c-0.6,2.4-1.2,4.8-1.9,7.2c-0.4-0.2-0.8-0.4-1.2-0.7c0.2-1,0.5-2,0.9-3c0.5-1.4,1-2.7,1.6-4.1C65.1,189.8,65.4,189.1,65.7,188.5
        z M65.3,186.2C65.3,186.2,65.3,186.2,65.3,186.2c-1-2.3-2-4.6-2.8-6.9c-0.1-0.2-0.1-0.5-0.2-0.7c0.9,2.6,2.3,5,3.7,7.4
        c0,0.2-0.1,0.5-0.1,0.7C65.7,186.5,65.5,186.4,65.3,186.2z M59.8,235.2c0.4-1.1,0.9-2.3,1.7-3.2c0,0,0,0,0.1,0.1
        c-0.5,1.3-0.9,2.7-1.2,4.1c-0.2,1.4-0.2,2.8-0.3,4.2c0,0.1,0,0.2,0,0.3c-0.3,1.8-0.6,3.5-0.9,5.3c-0.5-0.2-1-0.4-1.5-0.6
        c-0.1,0-0.1,0.1,0,0.1c0.5,0.2,1,0.4,1.5,0.7c-0.1,0.8-0.2,1.6-0.3,2.4c0,0-0.1,0-0.1-0.1c-0.5-0.3-1-0.6-1.6-0.8
        c-0.1-2.7,0.9-5.4,1.3-8C58.8,238.2,59.3,236.7,59.8,235.2z M61.2,235.5c-0.2,0.7-0.3,1.3-0.5,2c0.1-0.6,0.1-1.1,0.2-1.7
        c0.2-1.1,0.6-2.2,1-3.3c0,0.1,0.1,0.1,0.1,0.2c0,0,0,0,0,0.1C61.7,233.7,61.4,234.6,61.2,235.5z M62,229
        c0.5-1.1,0.9-2.2,1.5-3.3c-0.2,1.2-0.4,2.5-0.4,3.7c-0.2,0.1-0.4,0.2-0.6,0.3c0-0.2-0.2-0.3-0.4-0.2c0,0,0-0.1,0-0.1
        C62,229.3,62,229.1,62,229z M63,230.2C63,230.2,63,230.2,63,230.2c0,0.2-0.1,0.3-0.1,0.4c0,0,0,0,0,0c-0.1,0-0.1,0-0.2,0
        c-0.1,0-0.2-0.1-0.2-0.1C62.6,230.3,62.8,230.3,63,230.2z M58.5,251.4c-1.5-0.3-3-0.4-4.6-0.3c0.2-0.7,0.5-1.4,0.7-2.1
        c0.8,0.2,1.5,0.5,2.2,0.8c0.6,0.2,1.2,0.5,1.7,0.8C58.6,250.8,58.5,251.1,58.5,251.4z M58,209.7c-0.7-0.3-1.4-0.7-2.1-1.1
        c-0.9-0.5-2.1-1-3-1.6c-0.1-0.1-0.2-0.2-0.2-0.3c2.8-1.1,5.8-1.7,8.9-1.7c0.7,0,1.5,0,2.2,0.1l0,0c0,0,0.1,0,0.1,0.1
        c-0.4,1.2-0.6,2.5-0.5,3.8C61.6,209.4,59.8,209.7,58,209.7z M59.5,212c-0.5,0.3-0.9,0.5-1.4,0.8c-0.6-0.4-1.1-0.8-1.6-1.2
        C57.5,211.8,58.5,211.9,59.5,212z M57,220.6C57,220.6,57,220.6,57,220.6c-0.4-0.3-0.7-0.6-1.1-0.9c0.2-0.1,0.5-0.3,0.7-0.4
        C56.8,219.8,56.9,220.2,57,220.6z M56.9,220.7C56.9,220.7,56.9,220.7,56.9,220.7c-0.9,0.7-1.8,1.4-2.6,2.1
        c-0.2-0.6-0.4-1.2-0.5-1.8c0.6-0.4,1.3-0.8,2-1.2C56.2,220.1,56.5,220.4,56.9,220.7z M53.4,216.2c-0.3-0.5-0.5-1.1-0.7-1.7
        c-0.5-1.2-0.8-2.5-0.9-3.9c0-0.1,0-0.3,0-0.4c0.4,0.1,0.9,0.2,1.3,0.3c0.4,0.1,0.8,0.3,1.2,0.4c0.5,0.4,0.8,0.7,1,0.8
        c0.3,0.3,0.7,0.6,1,0.9c0,0,0,0,0,0c-0.1,0.5-0.1,1-0.1,1.5C55,214.9,54.1,215.6,53.4,216.2z M54.2,197.7
        C54.2,197.7,54.2,197.7,54.2,197.7c0.9,0.5,1.7,1.1,2.7,1.6c0,0.1,0,0.2,0,0.3c0,0,0.1,0,0.1,0c0-0.1,0-0.2,0-0.3
        c0.3,0.2,0.7,0.4,1,0.5c-0.4-0.1-0.7-0.1-1.1-0.1C56,199.1,55.1,198.4,54.2,197.7z M58,195c0.4,1.2,1,2.4,1.8,3.4
        c-0.1,0.6-0.3,1.1-0.4,1.7c-0.9-0.3-1.7-0.8-2.5-1.2C57.1,197.6,57.5,196.3,58,195z M61.5,174.7c0.1,0.9,0.2,1.8,0.5,2.6
        c-0.4-1.4-0.7-2.7-1.1-4.1C61.1,173.7,61.3,174.2,61.5,174.7C61.5,174.7,61.5,174.7,61.5,174.7z M59.3,161.9
        c0.2,1.7,0.5,3.5,0.6,5.2c0.1,1.1,0.2,2.2,0.3,3.3c-0.1-0.5-0.2-1-0.3-1.5c-0.7-3.3-1.4-7.1-0.8-10.5c0,0,0,0,0,0c0,0,0,0,0.1,0
        c0,0,0,0,0.1,0c0,0.3,0,0.5,0,0.7C59.1,160,59.2,161,59.3,161.9z M65,176c0.4-4-0.4-8.1-1.6-11.9c-0.5-1.6-1.1-3.2-1.9-4.7
        c-0.2-0.3-0.4-0.8-0.7-1.3c0.7,0.6,1.3,1.2,1.9,2.1c0.7,1.2,1.3,2.4,1.7,3.7c0.8,2.4,1.2,4.9,1.7,7.4c-0.1,4.5-0.3,9.1,0,13.6
        c-2-3.2-4-6.3-4.5-10.2c0.2,0.3,0.4,0.7,0.7,1c0,0.1,0.1,0,0.1-0.1c-1.9-2.5-1.9-6.1-2.1-9.1c-0.1-1.6-0.4-3.1-0.6-4.7
        c-0.1-0.9-0.1-1.9-0.1-2.8c0-0.2,0-0.4,0.1-0.7c0.1,0,0.2,0,0.3,0c0.1,0,0.1-0.1,0.1-0.1c1.4,2,2.2,4.5,3,6.7
        C64.3,168.5,65.1,172.2,65,176C64.9,176.1,65,176.1,65,176z M61.4,157.5c0.4,0.2,0.8,0.4,1.2,0.7c1.1,0.8,2.1,1.9,2.8,3
        c0.4,0.6,0.7,1.2,1,1.8c-0.1,2.4-0.2,4.8-0.3,7.2c0,0.1,0,0.3,0,0.4c-0.4-2.4-0.7-4.9-1.5-7.3c-0.5-1.3-1-2.6-1.9-3.8
        c-0.4-0.6-1-1.3-1.6-1.9C61.2,157.6,61.3,157.5,61.4,157.5z M67,156.2c-0.4,0-0.9,0-1.3,0c-0.5,0-2.4,0-3.7,0.3
        c-0.1,0-0.2,0-0.4,0.1c1.7-1.2,3.6-2,5.6-2.4C67.1,154.8,67,155.5,67,156.2z M66.8,157.2c-0.7-0.3-1.5-0.5-2.3-0.7
        c0.7,0,1.4,0,2,0c0.1,0,0.2,0,0.4,0C66.9,156.8,66.9,157,66.8,157.2z M66.4,162.4c-0.3-0.7-0.7-1.3-1.2-1.9
        c-0.8-1.1-1.7-2.1-2.8-2.8c-0.2-0.1-0.4-0.3-0.7-0.5c0.1-0.1,0.3-0.1,0.4-0.2c1.5-0.1,3.1,0.2,4.5,0.6
        C66.7,159.2,66.5,160.8,66.4,162.4z M86.7,151.3c-0.1,0-0.3,0-0.4,0c-5.9-0.6-11.3,3.7-13.5,9.1c-1.4-1.2-3.2-2.1-4.8-2.8
        c-0.2-0.1-0.4-0.2-0.6-0.2c0-0.3,0.1-0.6,0.1-0.9c0.4,0,0.8,0,1.2,0c-0.1,0.1-0.1,0.2-0.2,0.3c0,0.1,0.1,0.1,0.1,0
        c0.1-0.1,0.2-0.2,0.2-0.4c1.4,0,2.8,0.1,4.1,0.5c0.1,0,0.1-0.1,0-0.1c-1.2-0.4-2.5-0.6-3.9-0.7c1.8-2.3,5-3.2,7.8-3.8
        c1.7-0.4,3.4-0.8,5.1-1.1c1-0.2,2.1-0.3,3.1-0.2C85.5,151.1,86.1,151.2,86.7,151.3z M87.8,153.2c-1.9,2.8-3.2,6-4.2,9.2
        c-0.1,0.5-0.3,0.9-0.4,1.4c-0.4,1.1-0.8,2.3-1.2,3.4c-0.5,1.5-1.2,2.7-1.3,4.3c0,0,0.1,0.1,0.1,0c0.2-1.5,0.9-2.8,1.4-4.1
        c-0.6,2.7-1.2,5.4-1.6,8.1c0,0.1,0,0.2-0.1,0.4c-2.2,0.7-4.1,2.3-5.8,3.7c-2.1,1.7-3.9,3.8-5.2,6.2c-0.2,0.1-0.5,0.2-0.7,0.3
        c0-0.1-0.1-0.1-0.1-0.2c0-0.1,0.1-0.2,0.1-0.3c0.6-1.6,1.2-3.2,1.9-4.8c1-2.4,1.9-4.8,3.2-7c0,0-0.1-0.1-0.1,0
        c-1.5,2.6-2.7,5.5-4,8.2c-0.1,0.2-0.7,1.5-1.3,2.9c0.1-0.9,0.1-1.9,0.3-2.8c0.2-1.7,0.6-3.4,1.1-5.1c0.8-2.9,1.7-6.7,4.5-8.2
        c0,0,0-0.1,0-0.1c-2.8,1.2-3.9,4.9-4.6,7.5c-0.5,1.8-1,3.6-1.3,5.4c-0.2,1.3-0.3,2.6-0.4,3.9c-0.2,0-0.4,0-0.7,0.2
        c-0.1,0.1-0.3,0.2-0.4,0.3c-0.1-0.4-0.1-0.8-0.2-1.2c0-0.1,0-0.3,0-0.4c0-0.1,0-0.1-0.1-0.1c-0.1-0.5-0.1-0.9-0.2-1.4
        c-0.1-2.1-0.1-4.1-0.1-6.2c0.2-2.7,0.9-5.4,2.6-7.6c0-0.1,0-0.1-0.1-0.1c-1.2,1.6-2,3.3-2.5,5.2c0-1.8,0.1-3.6,0.2-5.4
        c0.1-1.6,0.1-3.3,0.2-5c0.6,1.3,1,2.6,1.3,4c0,0,0,0,0,0c-0.3-1.5-0.7-3-1.3-4.5c0.1-1.9,0.2-3.7,0.4-5.6
        c0.2,0.1,0.5,0.2,0.7,0.3c1.6,0.6,3.3,1.4,4.7,2.5c-0.1,0.3-0.2,0.5-0.3,0.8c0,0.1,0.1,0.1,0.1,0c0.1-0.2,0.2-0.5,0.3-0.7
        c0.4,0.3,0.8,0.7,1.1,1.1c0,0.1,0.1,0,0.1-0.1c-0.3-0.5-0.7-0.9-1.1-1.3c2.1-4.7,6.5-8.1,11.6-8.5c-0.5,0.3-1.1,0.7-1.5,1.1
        c-1.3,1.2-2.3,2.7-3,4.3c-1.5,3.1-2.6,6.7-3,10.2c0,0.1,0.1,0.1,0.1,0c0.9-3.3,1.6-6.7,3.1-9.8c0.8-1.6,1.8-3.3,3.3-4.4
        c0.7-0.5,1.4-1,2.3-1.3c0.1,0,0.2-0.1,0.4-0.1c0.3,0,0.5,0,0.8,0.1c0.1,0.5,0.4,0.9,0.8,1.1C87.7,153.2,87.8,153.2,87.8,153.2z
         M69.5,188.2c-0.1,0-0.2,0-0.4,0c0-0.2,0-0.3,0.1-0.5c0-0.1,0-0.2,0-0.2c0-0.1,0.1-0.1,0.1-0.1c0.6-0.1,1.3-0.1,1.9,0
        c1.5,0.1,2.9,0.2,4.4,0.4c0.8,0.1,1.7,0.1,2.5,0.2c-0.3,1-0.6,2-0.8,3c-0.2-0.1-0.4-0.2-0.6-0.3c-1.5-0.7-2.9-1.3-4.5-1.7
        C71.3,188.6,70.4,188.4,69.5,188.2z M75.9,190.8c0.4,0.2,0.9,0.4,1.3,0.6c-0.1,0.4-0.2,0.9-0.2,1.3c-0.8-0.6-1.7-1.1-2.5-1.6
        c-0.3-0.2-1.5-1-2.8-1.7C73.1,189.7,74.5,190.2,75.9,190.8z M69.2,229.2c-0.2,0.4-0.3,0.9-0.5,1.3c-0.1,0-0.2,0.1-0.3,0.1
        C68.7,230.2,69,229.7,69.2,229.2z M72.4,223.1c-0.3,0.4-0.6,0.9-0.8,1.3c0.2-0.4,0.3-0.9,0.4-1.3c0.1-0.1,0.1-0.2,0.2-0.3
        C72.3,222.8,72.3,222.9,72.4,223.1C72.4,223,72.4,223,72.4,223.1z M78,236.7c-0.3,0.1-0.6,0.1-0.9,0.2c-0.1,0-0.1-0.1-0.2-0.1
        c0.2-0.5,0.3-1,0.5-1.5c0.2,0.2,0.3,0.5,0.5,0.7c0.7,1,1.6,2,2.6,2.8c0,0,0,0,0,0c-0.5-0.2-0.9-0.5-1.3-0.7
        c-0.6-0.3-1.3-0.7-1.9-1.1C77.5,236.9,77.7,236.9,78,236.7C78.1,236.8,78,236.7,78,236.7z M83,199.4c0.6,0.4,1.1,0.7,1.7,1
        c-0.5,0.3-1,0.6-1.5,0.8c0,0,0-0.1,0-0.1C83.2,200.5,83.1,200,83,199.4z M79.6,220c0,0.3,0,0.7,0.1,1c-0.1-0.3-0.3-0.6-0.5-0.9
        C79.3,220.1,79.4,220,79.6,220z M74.4,238.5c0,0.1,0,0.1,0,0.2c-0.7-0.1-1.4-0.3-2-0.4c0.2-0.4,0.5-0.8,0.7-1.2
        c0.5,0.3,1,0.7,1.5,1C74.5,238.2,74.5,238.4,74.4,238.5z M73.2,236.8c0.3-0.7,0.7-1.3,1-2c0.3,0.3,0.6,0.6,0.9,0.9
        c-0.1,0.4-0.2,0.9-0.3,1.3C74.2,237,73.7,236.9,73.2,236.8L73.2,236.8z M75.5,233c-0.2,0-0.4,0.1-0.6,0.1
        c0.2-0.4,0.3-0.8,0.5-1.2c0.1,0.1,0.2,0.3,0.2,0.4C75.6,232.6,75.5,232.8,75.5,233z M75.7,231c0,0.3,0,0.6,0,0.9
        c-0.1-0.1-0.1-0.2-0.2-0.3C75.5,231.4,75.6,231.2,75.7,231z M77,221.6c0.2,0.3,0.5,0.6,0.7,0.9c0,0.3,0.1,0.7,0.1,1
        C77.6,222.9,77.4,222.3,77,221.6z M78.7,227.3c0.1,0.3,0.2,0.6,0.3,1c0.1,1.2,0.3,2.5,0.6,3.7c-0.5,0.2-1,0.4-1.4,0.5
        C78.5,230.8,78.7,229.1,78.7,227.3C78.7,227.4,78.7,227.3,78.7,227.3z M79.6,230.1c0.2,0.6,0.4,1.1,0.5,1.7
        c-0.1,0-0.1,0-0.2,0.1C79.8,231.2,79.7,230.7,79.6,230.1z M80.2,231.9c0.4,1.4,0.9,2.7,1.4,4.1c0.1,0.3,0.3,0.6,0.4,1
        c-0.5-0.8-0.9-1.7-1.3-2.6c-0.3-0.8-0.5-1.5-0.7-2.3C80,232,80.1,231.9,80.2,231.9z M82.8,238.8c-0.8-0.5-1.7-1.1-2.4-1.8
        c-1-1-1.9-2.1-2.6-3.3c0.1-0.3,0.2-0.6,0.2-1c0.5-0.2,1.1-0.4,1.6-0.6c0.3,1.1,0.6,2.2,1.1,3.2
        C81.2,236.6,81.9,237.8,82.8,238.8z M75.1,235.4c-0.3-0.3-0.6-0.5-0.8-0.8c0.2-0.4,0.3-0.7,0.5-1.1c0.2,0,0.5-0.1,0.7-0.1
        C75.4,234.1,75.2,234.7,75.1,235.4z M74.7,237.2c0,0.2-0.1,0.4-0.1,0.5c-0.3-0.2-0.6-0.4-1-0.6C74,237.2,74.4,237.2,74.7,237.2z
         M74.1,240.9c-0.9-0.2-1.8-0.6-2.6-1.1c0.2-0.3,0.4-0.7,0.6-1c0.7,0.2,1.5,0.3,2.2,0.4C74.3,239.7,74.2,240.3,74.1,240.9z
         M79.2,195.4c0-0.2,0-0.4,0-0.6c0,0,0,0,0,0c0,0,0-0.1,0-0.1c0.3,0.2,0.5,0.4,0.8,0.5c0,0.1,0,0.1,0,0.2c0,0.3-0.1,0.5-0.1,0.8
        C79.6,195.9,79.4,195.7,79.2,195.4z M79.7,196.5c-0.1,0.4-0.1,0.8-0.1,1.2c-0.1-0.1-0.1-0.1-0.2-0.2c-0.1-0.6-0.1-1.1-0.2-1.7
        C79.4,196.1,79.5,196.3,79.7,196.5z M79.2,194.2c0-0.6,0-1.2,0-1.9c0.4,0.2,0.8,0.4,1.2,0.6c-0.1,0.6-0.3,1.2-0.4,1.9
        C79.7,194.6,79.4,194.4,79.2,194.2z M79.2,191.9c0-1.3,0.1-2.6,0.2-3.9c0.7,0.1,1.4,0.2,2.2,0.3c-0.4,1.4-0.8,2.9-1.1,4.3
        C80,192.3,79.6,192.1,79.2,191.9z M79.5,187.7c0.1-1.1,0.2-2.2,0.3-3.2c1-0.1,2.1-0.1,3.1-0.1c-0.4,1.2-0.8,2.5-1.2,3.7
        C80.9,187.9,80.2,187.8,79.5,187.7z M78.9,184.9c-0.3,0.9-0.5,1.8-0.8,2.6c-1.9-0.2-3.7-0.4-5.6-0.6c-0.9-0.1-2-0.3-3-0.2
        c0.1-0.1,0.2-0.3,0.2-0.4c0.4-0.2,0.7-0.3,1.2-0.4c1.6-0.5,3.3-0.7,4.9-1c1.2-0.2,2.3-0.3,3.5-0.4c0,0.1,0,0.1,0,0.2
        C79.1,184.7,79,184.7,78.9,184.9z M75.2,184.5c-1.6,0.2-3.4,0.5-5,1c0.5-1,1.1-2,1.9-2.9c0.9-1.1,2-2.1,3.1-3
        c1.6-1.3,3.4-2.8,5.4-3.6c-0.4,2.7-0.9,5.3-1.2,8C78,184.2,76.6,184.4,75.2,184.5z M88.3,160c-0.1,0.8-0.2,1.5-0.4,2.3
        c-1.2,4.3-2.1,8.6-3,12.9c-0.5,2.5-1.1,5.1-1.6,7.7c-0.1,0.4-0.3,0.8-0.4,1.2c-1,0-2.1,0-3.1,0c0.3-2.7,0.7-5.4,1.2-8.1
        c0.4-0.1,0.8-0.2,1.3-0.3c0.1,0,0-0.1,0-0.1c-0.4,0-0.8,0.1-1.2,0.2c0,0,0-0.1,0-0.1c0.6-3.6,1.2-7.3,2.2-10.9
        c0.4-1,0.7-2,1.1-3c1.1-2.9,2.4-5.8,4.1-8.4c0.1,0,0.3,0,0.4,0C89.2,155.6,88.7,157.9,88.3,160z M90.5,150.7
        c0.2-0.2,0.5-0.4,0.7-0.6c0.4-0.2,0.7-0.4,1.1-0.6c-0.1,0.4-0.3,0.7-0.4,1.1C91.4,150.6,90.9,150.6,90.5,150.7z M91.2,152.3
        c-0.2,0-0.3,0-0.5,0c0-0.2-0.1-0.5-0.4-0.7c-0.1,0-0.1-0.1-0.2-0.1c0-0.1,0.1-0.1,0.1-0.2c0.5-0.1,0.9-0.1,1.4-0.2
        C91.5,151.5,91.3,151.9,91.2,152.3z M90.7,153.6c-0.1-0.2-0.2-0.4-0.3-0.6c0,0,0,0,0,0c0.2,0,0.3,0.1,0.5,0.1
        C90.8,153.2,90.8,153.4,90.7,153.6z M89.4,155c0-0.5,0-1.1,0-1.7c0,0,0,0,0,0c0.1,0,0.2,0.1,0.3,0.1c0.1,0,0.2,0,0.2,0
        c0.1,0.2,0.2,0.4,0.4,0.6c0,0.1,0,0.1,0.1,0.2c-0.5,1.4-1,2.8-1.4,4.3C89.2,157.4,89.4,156.2,89.4,155z M89.2,196.4
        c-0.4,0.4-0.7,0.8-1.1,1.1c0,0-0.1,0.1-0.1,0.1c-1.4-1.7-2.3-3.8-2.7-6c0-0.1-0.2-0.1-0.2,0c0.3,2.3,1.1,4.5,2.5,6.4
        c-0.7,0.7-1.5,1.4-2.4,2c-0.8-0.4-1.5-0.8-2.3-1.2c-0.1-1.3-0.2-2.6-0.3-3.8c0-0.2,0-0.4,0-0.6c0.8,0.5,1.5,1.1,2.2,1.8
        c0.1,0.1,0.2-0.1,0.1-0.1c-0.7-0.7-1.5-1.4-2.3-2c0-1.5,0-3.1,0.1-4.6c0-0.3,0.1-0.7,0.1-1c1.1,0.2,2.1,0.4,3.1,0.7c0,0,0,0,0,0
        C86.8,191.7,87.9,194.1,89.2,196.4z M88.1,218c0.4-1.9,1.4-3.8,2.2-5.3c0-0.1,0.1-0.1,0.1-0.2c0.6,0.1,1.3,0.1,1.9,0.2
        c-0.3,0.7-0.5,1.3-0.7,2c-0.4,1.5-0.8,3-0.8,4.5C89.9,218.8,89,218.4,88.1,218z M90.8,219.8c0,0.1,0,0.2,0,0.4
        c-0.2-0.1-0.4-0.2-0.6-0.4c-0.4-0.3-0.7-0.5-1.1-0.8C89.6,219.3,90.2,219.5,90.8,219.8z M119.9,210c0.1,0.1,0.2,0.2,0.3,0.3
        c-0.8,0.2-1.7,0.3-2.5,0.5c-0.6,0.1-1.3,0.2-1.9,0.3c-0.3-1-0.6-2-1-2.9c0-0.1-0.1,0-0.1,0c0.3,1,0.6,1.9,0.8,2.9
        c-2,0.3-4,0.6-6,0.8c0-0.1-0.2-0.2-0.2,0c0,0,0,0,0,0c-0.6,0.1-1.2,0.1-1.8,0.2c0-0.1,0-0.1,0.1-0.2c0-0.1-0.1-0.2-0.2-0.1
        c0,0.1-0.1,0.2-0.1,0.3c-2.2,0.2-4.4,0.3-6.6,0.3c0-0.2-0.1-0.5-0.1-0.7c-0.3-1.5-0.4-3-0.4-4.5c0.2-0.1,0.3-0.1,0.5-0.2
        c0.3-0.1,0.6-0.2,0.9-0.4c0.6,0.7,1.3,1.4,2,2c2.1,1.5,5.4,2.9,7.9,1.7c0.1,0,0-0.2,0-0.1c-2.4,1-5.6-0.4-7.5-1.9
        c-0.6-0.5-1.3-1.1-1.9-1.8c0.2-0.1,0.3-0.1,0.5-0.2c1.2,0,2.4-0.1,3.7-0.3c1.8,0.7,3.7,1,5.7,0.7c0,0,0-0.1,0-0.1
        c-1.7,0.2-3.4-0.1-5-0.7c8.3-1,16-4.1,22.6-9.2c0.2-0.1,0.4-0.1,0.6-0.2c0.3-0.2,0.6-0.4,0.8-0.7c0,0.1,0,0.1-0.1,0.2
        c-0.3,1-0.8,1.8-1.3,2.7c-0.5,0.5-1.1,1-1.7,1.5c-1,0.9-2,1.8-3,2.6c-2.2,2-5.3,5-8.6,3.8c-0.1,0-0.1,0.1-0.1,0.1
        c2.9,1.6,6.4-1.3,8.4-3.1c1.2-1.1,2.4-2.1,3.6-3.1c-0.8,1-1.6,2-2.4,3.1c-1.9,2.5-4,5-7,6.4c-0.1,0,0,0.2,0,0.1
        c3.1-1.3,5.3-3.6,7.3-6.2c1.2-1.5,2.4-3,3.5-4.6c-1.6,4-4.1,7.4-7.2,10.4c-0.7,0.2-1.4,0.3-2,0.4c-0.1-0.1-0.2-0.3-0.4-0.4
        C119.9,209.8,119.8,209.9,119.9,210z M122,210.2c-0.4,0.4-0.8,0.8-1.3,1.1c0-0.3-0.1-0.6-0.2-0.8
        C121.1,210.4,121.6,210.3,122,210.2z M98.2,208.1c0,0.7,0.1,1.3,0.1,1.9c0.1,0.8,0.2,1.5,0.4,2.3c-0.6-0.1-1.3-0.3-1.9-0.5
        c0.2-1.2,0.5-2.3,0.9-3.5C97.9,208.2,98,208.1,98.2,208.1z M98,207.5c0.1-0.3,0.2-0.5,0.3-0.8c0,0.2,0,0.5-0.1,0.7
        C98.1,207.4,98.1,207.5,98,207.5z M97,206.3c0.3,0,0.6,0,0.8,0c-0.1,0.4-0.3,0.8-0.4,1.3c-0.5,0.1-0.9,0.1-1.4,0.2c0,0,0,0,0,0
        C96.3,207.2,96.6,206.8,97,206.3z M96.7,205.9c0,0-0.1,0-0.1,0c0.2-0.2,0.3-0.5,0.5-0.7c0,0,0.1,0,0.1,0.1
        C97.1,205.5,96.8,205.7,96.7,205.9z M95.3,204.6c0.3,0,0.5,0.1,0.8,0.1c-0.1,0.1-0.2,0.2-0.3,0.2c-0.6,0.3-1.1,0.5-1.7,0.7
        c-1.2-0.1-2.3-0.2-3.5-0.4c0.3-0.1,0.7-0.2,1-0.3c0.5-0.2,1-0.3,1.6-0.5C93.9,204.5,94.6,204.5,95.3,204.6z M93.2,203.9
        c-0.5,0-1.1,0-1.6,0c-2.2,0-4.3-0.4-6.3-0.9c0.7-0.5,1.3-1.1,1.9-1.7c1.6,0.6,3.2,1,4.7,1.6c0.8,0.3,1.7,0.6,2.5,0.9
        C94,203.8,93.6,203.8,93.2,203.9z M90.3,207.6c1.3-0.5,2.7-0.9,4-1.4c-0.5,0.5-1,1-1.4,1.6c-0.7,0-1.5-0.1-2.2-0.2
        C90.6,207.7,90.4,207.6,90.3,207.6z M90.4,211.7c0,0.1-0.1,0.1-0.1,0.2c-0.5-0.1-0.9-0.1-1.4-0.2c0-0.1,0-0.2,0-0.3
        c0.1,0,0.2,0,0.3,0.1C89.6,211.6,90,211.7,90.4,211.7z M90.8,211.8c0.4,0.1,0.8,0.2,1.3,0.3c-0.4,0-0.9-0.1-1.3-0.1
        C90.7,211.9,90.8,211.9,90.8,211.8z M94.6,211c-0.3-0.1-0.6-0.2-0.9-0.3c0.2-0.5,0.5-0.9,0.7-1.4c0.2,0,0.4-0.1,0.6-0.1
        C94.8,209.8,94.7,210.4,94.6,211z M93.5,207.9c0.5-0.6,1.1-1.2,1.6-1.7c0.2,0,0.3,0,0.5,0c-0.3,0.5-0.7,1.1-1,1.6
        C94.3,207.9,93.9,207.9,93.5,207.9z M96,205.6c0.1,0,0.1-0.1,0.2-0.1c-0.1,0.1-0.2,0.2-0.2,0.4c-0.1,0-0.2,0-0.3,0
        C95.8,205.7,95.9,205.6,96,205.6z M96.3,206.3C96.3,206.3,96.3,206.3,96.3,206.3c-0.3,0.5-0.6,1-0.8,1.6c-0.1,0-0.1,0-0.2,0
        C95.6,207.3,95.9,206.8,96.3,206.3z M97.2,208.5c-0.3,1-0.5,2.1-0.7,3.1c-0.5-0.1-0.9-0.3-1.4-0.4c0.1-0.7,0.3-1.4,0.5-2.1
        C96.1,208.9,96.6,208.7,97.2,208.5z M97.3,205.9c0-0.1,0.1-0.1,0.1-0.2c0.1-0.1,0.1-0.1,0.2-0.2c0.1,0.1,0.2,0.1,0.4,0.2
        c0,0.1,0,0.1-0.1,0.2C97.8,205.9,97.6,205.9,97.3,205.9z M96.9,221.8c-0.7-0.3-1.3-0.6-2-0.8c-0.8-2.6-0.6-5.4-0.1-8.1
        c0.2,0,0.4,0,0.6,0c0.3,0.1,0.5,0.1,0.8,0.1C95.8,216.1,95.9,219.1,96.9,221.8z M99,205.8c0.1,0,0.2-0.1,0.4-0.2
        c0.1-0.1,0.2-0.2,0.2-0.2c0,0.2,0,0.4,0,0.7c-0.2,0-0.4,0-0.6,0C99,205.9,99,205.9,99,205.8z M99.5,206.4c0,0.2,0,0.4,0,0.6
        c-0.2,0.1-0.4,0.2-0.6,0.2c0-0.3,0-0.5,0.1-0.8C99.1,206.4,99.3,206.4,99.5,206.4z M99.5,207.5c0,1.7,0.2,3.4,0.6,5
        c-0.3,0-0.6-0.1-0.9-0.1c-0.2-0.8-0.3-1.6-0.4-2.4c-0.1-0.7,0-1.5,0-2.2c0.1,0,0.1-0.1,0.2-0.1
        C99.2,207.6,99.3,207.6,99.5,207.5z M100.3,213.1c0.3,1.3,0.8,2.6,1.6,3.7c0,1,0.2,1.9,0.5,2.9c-0.9-1.6-1.7-3.2-2.4-4.9
        c-0.2-0.5-0.4-1-0.5-1.6C99.8,213.2,100,213.2,100.3,213.1z M101,206.4c-0.3,0.1-0.6,0.2-0.9,0.4c0-0.1,0-0.2,0-0.4
        C100.4,206.4,100.7,206.4,101,206.4z M100.1,206c0-0.4,0.1-0.7,0.1-1.1c0.2,0.3,0.3,0.6,0.5,0.8c0.1,0.1,0.1,0.2,0.2,0.3
        C100.7,206,100.4,206,100.1,206z M100.4,203.3c0.1-0.1,0.2-0.2,0.3-0.3c0.7,0.5,1.4,1,2.1,1.4c0.4,0.3,0.8,0.5,1.3,0.7
        c-0.7,0.3-1.3,0.6-2,0.8c-0.2,0-0.3,0-0.5,0C100.9,205.2,100.4,204.2,100.4,203.3z M104.5,205.4c0.3,0.1,0.6,0.3,0.8,0.4
        c-0.7,0.1-1.3,0.1-2,0.1C103.8,205.8,104.2,205.6,104.5,205.4z M105,205.2c5.8-2.7,11.2-6,16.4-9.7c0.1,0,0.2,0.1,0.2,0.1
        c1.7,0.8,3.7,1.2,5.6,1.4c0.7,0,1.4,0,2-0.1c-6.8,5-14.6,8.1-23,8.9c0,0,0,0-0.1,0c-0.3-0.1-0.5-0.2-0.8-0.4
        C105.2,205.3,105.1,205.3,105,205.2z M113.7,225.3c-0.1,0-0.2,0-0.3,0.1c0,0.1,0,0.1-0.1,0.2c-0.1-0.1-0.3,0-0.3,0.2
        c0,0.1,0,0.2,0,0.2c-2.8-3.9-4.6-8.9-3.7-13.6c2.1-0.2,4.1-0.5,6.2-0.9C116.5,216.1,116,221,113.7,225.3z M113,227.6
        c-0.3-0.1-0.6-0.1-0.9-0.2c0,0,0,0,0,0c0.1,0,0.1,0,0.2,0c0.1,0,0.2,0,0.3-0.1c0,0,0.1,0,0.1,0c0.1,0,0.1,0.1,0.2,0.1
        C113,227.5,113,227.5,113,227.6z M108.5,220.5c-0.8-2.4-1.8-5.4-1.2-7.9c0.6-0.1,1.2-0.1,1.8-0.2c-1.1,4.7,0.7,9.8,3.4,13.8
        c0,0,0,0.1,0,0.1c0,0,0.1,0.1,0.1,0.1c0,0,0,0,0,0C110.7,225,109.3,222.8,108.5,220.5z M111.8,226.6c-2.8-0.6-5.7-1.6-7.4-4
        c-1.1-1.5-2-3.5-2.2-5.4c0.6,0.8,1.4,1.5,2.3,1.9c0,0,0.1,0,0-0.1c-1-0.5-1.8-1.4-2.4-2.4c0-0.5,0-1,0.2-1.5
        c0-0.1-0.1-0.1-0.2,0c-0.1,0.4-0.2,0.8-0.2,1.2c-0.5-1-0.9-2.2-1.2-3.3c0.2,0,0.3-0.1,0.5-0.1c1.9,0,3.9-0.2,5.8-0.3
        c-0.7,2.6,0.1,5.6,0.9,8c0.7,2.1,1.9,4,3.5,5.6c0,0.1,0,0.1,0.1,0.2C111.6,226.5,111.7,226.6,111.8,226.6z M108,226.5
        c0.3,0.1,0.6,0.2,0.9,0.3c0.5,0.1,0.9,0.3,1.4,0.4c-0.1,0-0.1,0-0.2,0c-1.2,0-2.5-0.3-3.6-0.7c-0.6-0.2-1.1-0.4-1.7-0.7
        C105.8,226,106.9,226.3,108,226.5z M103.6,225.1c-0.1-0.1-0.2-0.2-0.3-0.3c0.6,0.2,1.1,0.4,1.7,0.6
        C104.5,225.4,104.1,225.3,103.6,225.1z M111.1,227.4c-0.8,0.4-1.9,0.5-2.6,0.6c-1.2,0.1-2.5,0.1-3.7-0.5
        c-1.2-0.6-2.1-1.4-2.8-2.5c0.6,0.2,1.2,0.3,1.9,0.5c0.7,0.4,1.4,0.8,2.3,1.1c1.1,0.4,2.5,0.9,3.7,0.9
        C110.2,227.6,110.7,227.5,111.1,227.4C111.1,227.4,111.1,227.4,111.1,227.4z M101.7,224.6c-0.1-0.1-0.2-0.3-0.2-0.4
        c0.4,0.2,0.9,0.3,1.3,0.5c0.1,0.1,0.2,0.2,0.3,0.3C102.6,224.9,102.2,224.7,101.7,224.6z M101.1,223.5c-0.4-1-0.7-2-0.8-3.1
        c0-0.2-0.3-0.2-0.3,0c0.1,0.9,0.3,1.9,0.7,2.9c-1.1-0.4-2.2-0.9-3.3-1.3c-1.1-2.8-1.2-5.8-0.7-8.9c0.4,0.1,0.8,0.1,1.2,0.2
        c0.4,0,0.8,0,1.2,0c0.2,0.6,0.3,1.1,0.6,1.7c0.8,2.1,1.9,4,3.2,5.8c0.4,0.9,0.9,1.7,1.4,2.4c1,1.4,2.4,2.3,3.9,2.9
        c-0.2-0.1-0.4-0.2-0.7-0.2c-1.7-0.6-3.3-1.2-5-1.9c-0.4-0.6-0.8-1.3-0.9-2.1c0-0.1-0.1-0.1-0.1,0c0.1,0.8,0.4,1.4,0.8,2
        C101.8,223.8,101.5,223.6,101.1,223.5z M101.1,224.4c-1.1-0.3-2.1-0.7-3.2-1.1c-0.1-0.2-0.2-0.5-0.3-0.7
        c1.1,0.5,2.2,0.9,3.3,1.3C101,224.1,101.1,224.3,101.1,224.4z M97.6,223.2c-0.7-0.3-1.4-0.6-2.1-0.8c-0.1-0.2-0.2-0.5-0.3-0.7
        c0.7,0.3,1.4,0.6,2.1,0.9C97.3,222.7,97.4,223,97.6,223.2z M95.1,222.2c-1.1-0.4-2.1-0.9-3.1-1.4c-0.3-0.1-0.6-0.3-0.8-0.4
        c0-0.1,0-0.3,0-0.4c0.9,0.4,1.8,0.8,2.7,1.1c0.3,0.1,0.6,0.3,1,0.4C94.9,221.7,95,222,95.1,222.2z M91.1,219.4
        c0.1-1.7,0.5-3.5,1.1-5.1c0.2-0.5,0.4-1.1,0.6-1.6c0.3,0,0.6,0.1,0.9,0.1c0.2,0,0.4,0,0.5,0c0,0.1,0,0.2,0,0.3
        c-0.3,2.6-0.4,5.2,0.3,7.7c-0.9-0.4-1.9-0.8-2.8-1.2C91.5,219.6,91.3,219.5,91.1,219.4z M91.9,210c0.1-0.1,0.1-0.2,0.2-0.3
        c0.1,0,0.1,0,0.2,0c0.5-0.1,1-0.1,1.5-0.2c-0.2,0.4-0.4,0.7-0.5,1.1c0,0-0.1,0-0.1,0C92.8,210.4,92.4,210.2,91.9,210z
         M87.8,217.9c-0.3-0.1-0.5-0.3-0.8-0.4c-0.3-0.2-0.6-0.5-0.9-0.7c0.1-0.1,0.2-0.3,0.2-0.5c0,0,0,0,0,0c2-0.6,2.7-2.2,2.6-3.9
        c0.3,0,0.7,0.1,1,0.1c-0.1,0.1-0.2,0.3-0.2,0.4C89,214.3,88.1,216.1,87.8,217.9z M87,207c-0.1-0.1-0.1-0.2-0.2-0.3
        c0.4-0.1,0.9-0.3,1.3-0.4c0.5-0.2,1.1-0.4,1.6-0.6c1.1,0.2,2.3,0.3,3.4,0.4c-1.3,0.5-2.7,0.9-3.9,1.4
        C88.5,207.3,87.8,207.1,87,207z M86.5,206.2c-0.3-0.4-0.6-0.8-0.8-1.2c1,0.2,1.9,0.3,2.9,0.5C87.9,205.7,87.2,206,86.5,206.2z
         M85.3,204.5c-0.2-0.3-0.5-0.7-0.7-1c0,0,0,0,0,0c2,0.6,4.2,1,6.3,1.1c0.1,0,0.2,0,0.2,0c-0.6,0.2-1.1,0.4-1.7,0.6
        C88.1,204.9,86.7,204.7,85.3,204.5z M89.3,199.8c1.5,1.3,3.2,2.4,4.9,3.2c0.2,0.1,0.4,0.2,0.6,0.3c0.1,0,0.1,0.1,0.2,0.1
        c-1-0.3-2.1-0.7-3.1-1c-1.5-0.5-3-0.9-4.5-1.4c0.3-0.3,0.5-0.6,0.8-0.9c0.2-0.2,0.4-0.5,0.6-0.7C89,199.5,89.1,199.6,89.3,199.8
        z M90.1,197.8c0.7,1,1.4,2,2.1,3c0.3,0.4,0.6,0.8,1,1.1c-1-0.6-2-1.3-2.9-2c-0.4-0.3-0.8-0.6-1.1-1
        C89.5,198.6,89.8,198.2,90.1,197.8z M94.6,198.7c0.2,0.5,1,2.9,1.9,4.4c0,0,0,0,0,0c-0.2,0-0.4-0.1-0.6-0.1
        c-0.3-0.1-0.6-0.2-1-0.3c-0.1-0.1-0.3-0.2-0.4-0.3c-1.3-1.1-2.3-2.4-3.3-3.7c-0.3-0.4-0.6-0.8-0.8-1.2c0,0,0.1-0.1,0.1-0.1
        c0.9-0.9,1.7-1.9,2.5-2.9c0.4-0.4,0.8-0.8,1.2-1.3c0,0.1,0,0.2,0,0.3C94.1,195.2,94,197,94.6,198.7z M95,192
        c0.8-1,1.6-2.1,2.3-3.1c1.4-2,2.9-4,4.3-6c-0.4,0.9-0.8,1.8-1.2,2.7c-0.6,0.8-1,1.9-1.3,2.8c-0.5,1.5-0.8,3.1-0.9,4.7
        c-0.3,3-0.2,6.1,0.4,9c-0.1,0-0.1,0-0.2,0c-0.4,0-0.8,0.1-1,0.3c-0.1,0.1-0.2,0.2-0.3,0.3c0,0,0,0,0,0c-0.3-0.5-0.5-1.1-0.7-1.3
        c-0.6-1.1-1.1-2.2-1.5-3.4c-0.5-1.6-0.4-3.5-0.2-5.2c0.1-0.2,0.3-0.3,0.4-0.5C95.2,192.2,95.1,192.1,95,192z M104.6,176.6
        c-0.7,1.3-1.3,2.6-1.9,3.9c-0.8,1.1-1.6,2.3-2.4,3.4c-0.9,1.3-1.9,2.7-2.8,4c0.5-0.8,1.1-1.6,1.6-2.5
        C100.9,182.5,102.7,179.5,104.6,176.6z M109.6,170.5c-1.9,2.8-3.8,5.5-5.7,8.2c0.5-1,1.1-2.1,1.7-3.1c0.9-1.6,1.8-3.1,2.9-4.5
        c0.2-0.2,0.5-0.5,0.8-0.9C109.4,170.4,109.5,170.5,109.6,170.5z M120.5,187.4c-0.4-0.6-0.8-1.2-1.2-1.9c-0.5-3.1-1.6-6.2-3-9.1
        c0.2,0.3,0.5,0.7,0.7,1C119,180.4,120.9,183.6,120.5,187.4z M125.4,192.1c-1.3,1-2.7,2-4,2.9c-2.8-1.5-3.9-4.4-4.6-7.4
        c0,0-0.1,0-0.1,0c0.6,3,1.5,6.1,4.3,7.7c-4,2.8-8.2,5.4-12.6,7.7c-1.3,0.7-2.6,1.3-4,1.9c-0.6-0.3-1.2-0.7-1.8-1.1
        c-0.5-0.4-1.1-0.8-1.6-1.2c0.9-0.9,2-1.7,2.3-1.9c2.4-1.2,5.9-2.2,8.5-1.1c0,0,0,0,0,0c-1.5-0.8-3.3-0.7-5-0.4
        c-1.4,0.2-3,0.5-4.1,1.4c-0.2,0.2-1.2,0.9-2.1,1.8c0.1-0.1,0.2-0.3,0.3-0.4c1-1,2-2.1,3.3-2.8c2.6-1.4,5.4-1.5,8.2-0.7
        c0,0,0,0,0,0c-2.9-1-6.3-1.2-9,0.7c-1.2,0.8-2.5,1.9-3.4,3c0,0,0,0,0,0c1.1-1.7,2.5-3,4.2-4.2c2.4-1.7,5.1-3.1,7.9-3.6
        c0.1,0,0.1-0.1,0-0.1c-3,0.4-6,1.7-8.4,3.5c-1.5,1.1-3.2,2.5-4.3,4.1c0.3-1,0.6-1.9,1.1-2.9c0.8-1.6,1.9-2.8,3.2-4.1
        c2.3-2.2,4.7-4.5,8-5.3c0,0,0,0,0,0c-3.4,0.7-5.9,3-8.4,5.3c-2.1,2-3.5,4.3-4.3,7c-0.7-2.9-0.7-6-0.5-9c0.3-2.8,0.9-5.5,2.4-7.9
        c0,0,0-0.1-0.1-0.1c-0.1,0.1-0.2,0.2-0.3,0.3c0.6-1.2,1.2-2.3,1.8-3.5c1.3-1.8,2.6-3.6,3.8-5.4c1.3-1.8,2.6-3.7,3.8-5.6
        c0.1,0,0.2,0.1,0.4,0.1c0.4,2.3-0.1,4.8-0.7,7c-0.9,3.5-2.5,6.7-4,9.9c0,0,0,0.1,0,0c1.7-3.3,3.5-6.5,4.4-10.1
        c0.2-0.9,0.5-1.9,0.6-2.9c0,1.1,0,2.1,0,3.1c-0.2,3.5-1.9,6.8-3.2,10c0,0,0,0,0,0c1.5-3.4,3.3-6.6,3.6-10.4
        c0.1-1.6,0.2-3.2,0.1-4.8c0-0.6,0-1.3-0.2-2c0.1,0,0.2,0,0.3,0c0,0,0.1,0,0.1,0c0,0.1,0.1,0.2,0.1,0.2c0.3,0.6,0.5,1.3,0.7,1.9
        c0.4,1.5,0.5,3.1,0.3,4.7c-0.2,3-0.9,5.9-1.8,8.8c0,0,0,0,0.1,0c0.9-3,1.9-6.1,2.1-9.3c0.1-1.5,0-3-0.3-4.5
        c-0.2-0.6-0.4-1.4-0.6-2.1c3.3,4.4,5.9,9.2,7.1,14.5c-0.2-0.6-0.5-1.2-0.6-1.8c0-0.1-0.1,0-0.1,0c0.2,1,0.5,1.9,0.9,2.7
        c0.1,0.4,0.2,0.8,0.2,1.2c0,0,0,0,0,0c0-0.3-0.1-0.6-0.1-0.9C120.7,188.7,122.9,190.6,125.4,192.1z M125.7,192.3
        c1.7,1,3.5,1.8,5.3,2.6c-0.3,0.2-0.6,0.6-0.8,0.8c-0.7,0.7-1.9,0.9-2.8,0.8c-1.8-0.1-3.9-0.5-5.6-1.3c0,0,0,0,0,0
        c0.8-0.6,1.6-1.2,2.4-1.7C124.7,193.1,125.2,192.7,125.7,192.3z M131.1,194.3c-1.7-0.7-3.4-1.4-5-2.3c0.6-0.4,1.2-0.9,1.7-1.3
        C128.8,191.9,129.9,193.2,131.1,194.3z M129.1,190.4c0.4,0.9,0.9,1.7,1.5,2.5c-0.8-0.8-1.6-1.7-2.3-2.7c0.2-0.2,0.4-0.3,0.6-0.5
        C128.9,190,129,190.2,129.1,190.4z M130,191.3c-0.1-0.2-0.2-0.4-0.3-0.5c-0.2-0.4-0.4-0.8-0.5-1.2c0.1-0.1,0.1-0.1,0.2-0.1
        C129.6,190.1,129.8,190.7,130,191.3z M132,191c0,0.5-0.2,1.7-0.1,2.7l0,0c0,0-0.1,0.1-0.1,0.1c0,0,0-0.1,0-0.1
        c-0.8-1.4-1.6-3-2.1-4.6c0.6-0.5,1.1-0.9,1.7-1.4c0.3-0.3,0.6-0.5,1-0.8C132.2,188.3,132.1,189.7,132,191z M133.6,193.4
        c-0.1-0.1-0.2-0.1-0.2-0.2c-0.1-0.1-0.1-0.1-0.2-0.2c-0.3-0.3-0.7,0-0.8,0.3c0,0,0,0,0,0c0,0,0,0,0,0c-0.1-1.1,0.1-2.4,0.1-3.3
        c0.1-1.1,0.1-2.2,0.2-3.4c0.7-0.6,1.4-1.2,2.1-1.8c-0.1,0.6-0.2,1.3-0.3,1.9C134.3,187.3,134,190.9,133.6,193.4z M134.8,202.6
        c0-0.6-0.4-3.9-1-5.5c0,0,0.1,0,0.1,0c0.7,0.4,2.1,3.6,2.3,4c0.6,1.5,0.9,3.1,1,4.7c-0.9,0.3-1.8,0.5-2.6,0.8
        C134.8,205.3,134.9,203.9,134.8,202.6z M130.1,207.9c0.4-1.1,0.8-2.1,1.1-3.3c0.5-1.9,0.9-3.8,1.2-5.7c0-0.3,0.1-0.6,0.1-0.9
        c0.1-0.2,0.1-0.5,0.2-0.7c0.2,0.2,0.5,0.2,0.7,0c0,0,0,0,0,0c0.1,0.2,0.1,0.5,0.1,0.5c0.2,0.6,0.3,1.2,0.4,1.8
        c0.3,1.4,0.5,2.8,0.5,4.2c0,1-0.1,2-0.2,2.9C132.8,207.1,131.4,207.5,130.1,207.9z M126.2,208.9c1.3-1.5,2.5-3,3.5-4.7
        c0.7-1.2,1.3-2.3,1.8-3.6c-0.3,1.4-0.5,2.9-0.9,4.3c-0.3,1.1-0.6,2.1-1,3.1C128.5,208.3,127.3,208.6,126.2,208.9z M125.7,209
        c-0.9,0.2-1.8,0.4-2.7,0.6c3.5-3.1,6.4-7.1,7.8-11.6c0,0,0.1-0.1,0.1-0.1c0.2-0.3,0.6-0.8,0.9-1.2c0.1,0.1,0.1,0.3,0.2,0.4
        c0,0,0,0,0,0c0,0.1,0,0.3,0,0.4c-0.2,0.8-0.4,1.5-0.6,2.3c-0.6,1.5-1.3,3-2.1,4.5C128.2,205.9,127,207.5,125.7,209z
         M115.6,225.1c0.4-0.9,0.8-1.8,1.3-2.7c0.7-1.3,1.3-2.6,1.9-3.9c0.7-1.8,1.5-3.6,1.8-5.5c0.1-0.4,0.2-1,0.2-1.5
        c0.6-0.5,1.2-0.9,1.8-1.4c0.9-0.2,1.8-0.4,2.7-0.6c0.1,0,0.1,0,0.2-0.1c-0.5,0.5-0.9,1.1-1.4,1.6c0-0.1-0.1,0-0.1,0
        c0,0,0,0,0,0.1c-0.3,0.3-0.6,0.6-0.9,0.9c0,0,0,0.1,0.1,0.1c0.3-0.3,0.6-0.5,0.9-0.8c0.6,2.6-1.1,5.2-2.4,7.3
        c-1.6,2.6-3.6,4.7-5.5,7.1c0-0.1,0-0.1-0.1-0.2C115.8,225.3,115.7,225.2,115.6,225.1z M115.4,224.4c-0.1,0.2-0.3,0.5-0.4,0.9
        c-0.1,0.1-0.1,0.1-0.2,0.2c-0.1-0.1-0.2-0.3-0.3-0.5c2-4.1,2.4-9,1.3-13.5c1.5-0.3,3-0.6,4.5-0.9c0.1,0.3,0.2,0.6,0.2,0.9
        c-0.1,0.1-0.1,0.1-0.2,0.2c-0.1,0.1,0,0.2,0.1,0.1c0,0,0.1-0.1,0.1-0.1c0,1.1-0.5,2.5-0.8,3.2c-0.6,1.7-1.3,3.3-2,5
        C117.1,221.4,116.1,222.8,115.4,224.4z M102.9,241.5c3.7-0.3,6.6-2.7,8.5-5.9c1-1.7,1.9-3.5,2.6-5.3c-0.1,3-1.7,5.9-2.8,8.7
        c-0.7,1.7-1.5,3.5-2.4,5.1c-1.7-0.8-3.5-1.5-5.2-2.3C103.3,241.7,103.1,241.6,102.9,241.5z M98.8,239.6c-1.2-0.6-2.5-1.3-3.6-2
        c1.6-1.3,3-2.8,4.1-4.6c0-0.1-0.1-0.1-0.1,0c-1.1,1.7-2.6,3.3-4.3,4.5c-0.2-0.1-0.4-0.3-0.6-0.4c1.5-1.8,2.7-3.7,3.9-5.7
        c0,0,0-0.1,0,0c-1.2,2-2.5,3.9-4,5.6c-0.7-0.4-1.3-0.9-2-1.3c0.1-0.1,0.2-0.3,0.2-0.4c1.3-2.3,2-4.9,2.7-7.5c0,0,0,0-0.1,0
        c-0.8,2.5-1.5,5.1-2.8,7.4c-0.1,0.1-0.2,0.3-0.2,0.4c-1-0.7-2-1.5-2.9-2.3c-1.1-1-2.1-1.9-3.2-2.9c0-2.1,0.2-4.2,0.7-6.2
        c0,0,0,0-0.1,0c-0.5,1.9-0.8,3.9-0.9,6c-0.4-0.4-0.8-0.8-1.2-1.1c0.1-1.3,0.2-2.5,0.2-3.8c0-0.1-0.1-0.1-0.1,0
        c0,1.2-0.2,2.4-0.3,3.5c-0.4-0.3-0.7-0.7-1.1-1c-0.1-0.1-0.2-0.2-0.3-0.3c0.2,0.1,0.3,0.2,0.5,0.3c0.1,0.1,0.3-0.1,0.2-0.3
        c-0.4-0.3-0.8-0.7-1.1-1.2c0-0.2,0.1-0.4,0.1-0.6c0-0.1-0.1-0.1-0.1,0c0,0.2-0.1,0.3-0.1,0.5c-0.9-1.3-1.5-2.8-2.2-4.2
        c-0.1-0.6-0.1-1.3-0.1-1.9c1.4-0.4,2.7-1,3.9-1.9c1.3,0.8,2.6,1.6,4,2.3c0.2,0.7,0.5,1.4,1,2.1c0,0,0.1,0,0.1-0.1
        c-0.5-0.6-0.7-1.2-0.9-1.9c0.9,0.4,1.8,0.7,2.8,0.9c0.2,1.8,1,3.6,2.4,5c0,0,0.1,0,0.1-0.1c-1.3-1.4-1.9-3.1-2.2-4.8
        c0.3,0.1,0.7,0.1,1,0.1c0.1,0,0.1,0,0.2-0.1c1,0.5,2,0.9,2.9,1.3c0,0.1,0.1,0.2,0.1,0.3c0.1,0.1,0.3,0,0.2-0.1
        c0.7,0.3,1.4,0.6,2.1,0.8c0.5,0.9,1.2,1.8,2,2.6c0,0,0.1,0,0,0c-0.7-0.8-1.2-1.6-1.7-2.4c1,0.4,2.1,0.7,3.1,1
        c0.8,1.5,2.1,2.8,3.8,3.3c1.5,0.5,3,0.5,4.5,0.2c0.6-0.1,1.7-0.3,2.2-0.8c0.3,0.1,0.6,0.2,0.9,0.2c-0.3,0.4-0.5,0.8-0.9,1.1
        c-0.6,0.6-1.4,1.1-2.2,1.4c-1.5,0.6-3.1,0.9-4.7,0.7c-3.4-0.4-6.2-2.6-6.8-6.1c0-0.1-0.2-0.1-0.2,0c0.5,3.7,3.4,6.2,7.1,6.5
        c1.8,0.2,3.5-0.1,5.1-0.9c0.7-0.3,1.5-0.8,2.2-1.4c-0.3,0.5-0.6,1-0.8,1.4c-0.8,1.4-1.6,2.7-2.7,3.9c-2.9,3-7.3,4.9-11,1.9
        c-0.1-0.1-0.2,0.1-0.1,0.2c3.5,3.1,8.2,1.5,11.2-1.6c1.3-1.3,2.3-2.9,3.2-4.6c0.3-0.5,0.8-1.4,1.1-2.2c0,0.1,0.1,0.2,0.1,0.4
        c-0.1,0.6-0.2,1.1-0.5,1.6c-0.6,1.3-1.4,2.6-2.3,3.8c-1.9,2.3-4.3,4.1-7,5.4c-0.1,0.1-0.1,0.2,0.1,0.2c2.9-1.3,5.6-3.3,7.6-5.8
        c1-1.3,1.9-2.7,2.4-4.2c0-0.1,0-0.1,0.1-0.2c0,0,0,0.1,0.1,0.1c-0.2,0.5-0.4,1-0.6,1.5c-0.7,1.5-1.3,3-2.2,4.4
        c-1.9,3.2-4.7,5.7-8.4,6c-1.2-0.5-2.3-1.1-3.5-1.6c0.6-0.2,1.3-0.3,1.9-0.5c0.1,0,0.1-0.1,0-0.1
        C100.3,239.3,99.5,239.4,98.8,239.6z M85.8,238.5c-0.2-0.2-0.3-0.4-0.5-0.6c-0.8-1.2-1.5-2.4-2-3.7c-0.8-2.2-1.3-4.5-1.1-6.8
        c0.6,0.6,1.2,1.2,1.9,1.8c-0.2,1.5-0.3,3-0.1,4.5C84.1,235.4,85,236.9,85.8,238.5z M84.2,232.9c-0.1-1.2,0-2.4,0.1-3.5
        c0.1,0.1,0.1,0.1,0.2,0.2c0.3,0.3,0.7,0.6,1,0.9c-0.1,2.5,0.2,5,0.5,7.4C85.2,236.4,84.3,234.8,84.2,232.9z M82.2,231.6
        c-0.7-1.8-1.3-3.7-1.6-5.6c0-0.1,0-0.2-0.1-0.3c0,0,0.1,0.1,0.1,0.1c0.5,0.5,0.9,1,1.4,1.4C81.8,228.6,81.9,230.1,82.2,231.6z
         M94,237.4c0.2,0.1,0.4,0.2,0.6,0.3c-0.4,0.3-0.9,0.6-1.3,0.8c-0.2,0.1-0.4,0.2-0.6,0.3c0.3-0.3,0.7-0.7,1-1
        C93.8,237.7,93.9,237.5,94,237.4z M90.3,240.5c0.1,0,0.2-0.1,0.3-0.1c0.4-0.2,0.8-0.5,1.2-0.8c0.8-0.2,1.5-0.6,2.2-1.1
        c0.3-0.2,0.6-0.4,0.9-0.7c1.1,0.7,2.3,1.3,3.5,1.9c-1.3,0.3-2.6,0.8-3.9,1C93,240.9,91.7,240.7,90.3,240.5z M88.6,239.9
        c0.7,0,1.4,0,2.1-0.1c0.1,0,0.1,0,0.2,0c0,0,0,0-0.1,0c-0.6,0.3-1.1,0.5-1.6,0.5c-0.2,0-0.5-0.1-0.7-0.1
        C88.7,240.2,88.7,240.1,88.6,239.9z M86.8,239.4c0,0,0.1,0,0.2,0c1-0.6,2.3-0.7,3.2-1.4c0.7-0.6,1.3-1.3,1.7-2
        c0.6,0.4,1.3,0.9,1.9,1.3c0,0,0,0,0,0.1c-0.6,0.6-1.2,1.3-1.8,1.8c-0.8,0.2-1.7,0.3-2.6,0.3c-0.6,0-1.3,0-1.9,0.1
        C87.2,239.5,87,239.5,86.8,239.4C86.8,239.5,86.8,239.4,86.8,239.4z M86.4,237.7c-0.1-0.7-0.2-1.3-0.3-2
        c-0.1-1.2-0.3-2.5-0.3-3.7c0-0.4,0-0.7,0-1.1c1.8,1.7,3.7,3.5,5.8,4.9c0,0,0,0,0.1,0c-0.6,1-1.5,1.9-2.6,2.3
        c-0.7,0.3-1.8,0.4-2.3,1c0-0.1-0.1-0.1-0.2-0.1C86.5,238.6,86.5,237.8,86.4,237.7z M84.8,237.9c0.1,0.2,0.3,0.4,0.4,0.6
        c0.3,0.4,0.6,0.8,1,1.2c-0.2,0-0.3,0.1-0.5,0.2C85.4,239.2,85.1,238.6,84.8,237.9z M83.1,238.5
        C83.1,238.5,83.1,238.5,83.1,238.5c-0.7-1.2-1.2-2.5-1.6-3.6c-0.4-1-0.7-2.1-1.1-3.1c0.3-0.1,0.5-0.3,0.8-0.4
        c0.1,0,0-0.1-0.1-0.1c-0.3,0.1-0.5,0.3-0.8,0.4c-0.3-1-0.6-1.9-0.9-2.9c-0.1-0.3-0.2-0.5-0.2-0.8c0-0.6-0.1-1.2,0-1.8
        c0-0.2-0.3-0.2-0.3,0c0,0.1,0,0.2,0,0.3c-0.2-1-0.4-2-0.5-3c0,0,0,0,0,0c0.1,0.1,0.2,0.2,0.3,0.3c0.5,0.6,1,1.2,1.5,1.7
        c0.1,0.3,0.1,0.6,0.2,0.9c0.5,2.6,1.4,5,2.4,7.4c0.1,0.3,0.2,0.5,0.3,0.8c0.3,0.6,0.5,1.3,0.9,1.9c0,0.1,0.1,0.2,0.1,0.3
        c0.5,1.1,1,2.2,1.5,3.3c0,0-0.1,0-0.1,0l0,0c-0.1-0.1-0.3-0.1-0.4-0.2c-0.1-0.1-0.2-0.2-0.4-0.2C84.1,239.4,83.6,239,83.1,238.5
        z M83.9,240.3c-0.2-0.1-0.4-0.1-0.6-0.2c-0.5-0.3-1.1-0.5-1.6-0.8c-0.6-0.4-1.1-0.8-1.7-1.3c-0.9-0.9-1.7-1.9-2.4-2.9
        c-0.1-0.1-0.1-0.2-0.2-0.2c0.1-0.3,0.2-0.6,0.3-0.9c0.6,1.2,1.3,2.2,2.3,3.1c0.9,0.9,1.8,1.7,2.9,2.3c0.3,0.2,0.6,0.4,0.9,0.6
        C83.9,240,84,240.1,83.9,240.3C84,240.2,84,240.2,83.9,240.3z M81.8,240.4c-1.4-0.3-2.8-0.6-4.1-1.1c-0.1-0.1-0.3-0.1-0.4-0.2
        c0,0,0,0-0.1,0c0,0,0,0,0,0c-0.3-0.1-0.6-0.2-0.8-0.4c0.2-0.5,0.3-1,0.5-1.5c0.9,0.6,1.9,1.2,2.8,1.7c0.4,0.2,2.3,1.2,4,1.9
        C83,240.6,82.4,240.5,81.8,240.4z M75.4,241.9c0.2-0.9,0.5-1.8,0.8-2.7c0.2,0,0.3,0,0.5,0c0.4,0.2,0.7,0.3,1.1,0.5
        c1.5,0.6,3.1,1,4.7,1.3c0.2,0,0.4,0.1,0.6,0.1C80.6,242.2,78,242.3,75.4,241.9z M71.1,240.5c0.1-0.2,0.2-0.3,0.3-0.5
        c0.9,0.5,1.8,0.8,2.8,1c0,0.2,0,0.4-0.1,0.6C73,241.3,72,240.9,71.1,240.5z M71.7,229.7c-0.4,0.2-0.8,0.3-1.3,0.5
        c-0.4,0.1-0.9,0.2-1.3,0.3c0.6-1.7,1.4-3.4,2.3-5c0.3-0.6,0.7-1.1,1-1.6C72.5,225.8,72.2,227.8,71.7,229.7z M70.8,233.2
        c-0.2,0-0.4,0-0.5,0c0-0.2,0-0.3-0.1-0.5c0-0.1-0.1,0-0.1,0c0,0.2,0,0.3,0,0.4c-0.6,0-1.2-0.1-1.7-0.2c0.2-0.6,0.4-1.3,0.6-1.9
        c0.7-0.2,1.4-0.4,2.2-0.6c0.2-0.1,0.3-0.1,0.5-0.2c0,0.1,0,0.2-0.1,0.2C71.3,231.4,71.1,232.3,70.8,233.2z M70.5,234
        c-0.1-0.1-0.1-0.2-0.1-0.3c0.1,0,0.2,0,0.2,0C70.6,233.8,70.5,233.9,70.5,234z M69.8,235.9c-0.4-0.2-0.8-0.3-1.2-0.5
        c-0.2-0.1-0.5-0.2-0.7-0.4c0.1-0.5,0.2-1,0.4-1.5c0.7,0.1,1.3,0.1,2,0.2c0.1,0.2,0.1,0.4,0.2,0.6
        C70.2,234.8,70,235.4,69.8,235.9z M69.3,237.2c-0.6-0.3-1.2-0.6-1.7-1c0.1-0.2,0.1-0.5,0.2-0.7c0.5,0.2,1,0.4,1.5,0.6
        c0.1,0.1,0.3,0.1,0.4,0.1C69.6,236.6,69.4,236.9,69.3,237.2z M69,237.9c-0.2-0.2-0.5-0.4-0.7-0.6c0.3,0.1,0.5,0.3,0.8,0.4
        C69.1,237.8,69,237.8,69,237.9z M65,250.3c0,0,0-0.1,0-0.1C65.1,250.2,65.1,250.2,65,250.3c0.4,0.6,1.1,2.3,0.5,2.9
        C65.2,252.3,65.1,251.3,65,250.3z M65,252c-0.1-0.3-0.2-0.5-0.3-0.8c0-0.1,0.1-0.3,0.1-0.4C64.9,251.2,65,251.6,65,252z
         M64.5,251.8c0.2,0.5,0.3,0.9,0.4,1.4c-0.2,0-0.5,0-0.7,0C64.3,252.8,64.4,252.3,64.5,251.8z M65.7,244.3
        c0.5-2.4,1.1-4.8,1.7-7.2c0.5,0.4,1,0.8,1.5,1.2c-0.6,1.2-1.2,2.4-1.8,3.7c-0.5,0.8-0.9,1.7-1.4,2.6
        C65.7,244.5,65.7,244.4,65.7,244.3z M68,233c-0.3,0-0.5-0.1-0.8-0.1c0.3-0.5,0.6-1,0.9-1.5c0.2,0,0.3-0.1,0.5-0.1
        C68.4,231.8,68.2,232.4,68,233z M67.5,234.9c-0.4-0.2-0.7-0.4-1-0.6c0.1-0.3,0.3-0.6,0.4-0.9c0,0,0,0,0,0c0.3,0,0.6,0.1,0.9,0.1
        C67.7,234,67.6,234.4,67.5,234.9z M67.3,236c-0.4-0.3-0.8-0.6-1.1-0.9c0-0.1,0.1-0.2,0.1-0.3c0.4,0.2,0.7,0.4,1.1,0.6
        c0,0,0,0,0,0C67.4,235.6,67.3,235.8,67.3,236z M65.3,245.1c0,0.1,0,0.3-0.1,0.4c0,0,0,0.1-0.1,0.1c-0.6-1-0.9-2.2-1.2-3.4
        c0.5-2.2,1.1-4.4,2-6.5c0.1,0.1,0.3,0.3,0.4,0.4c0.3,0.2,0.5,0.5,0.8,0.7C66.4,239.5,65.7,242.3,65.3,245.1z M61.6,251.9
        c0.1-0.2,0.1-0.5,0.2-0.7c0.7,0.6,1.3,1.3,1.7,2.1c0,0,0,0,0,0.1c0,0-0.1,0.1-0.1,0.1C62.8,252.9,62.3,252.4,61.6,251.9z
         M62.3,253c-0.3-0.2-0.5-0.3-0.8-0.5c0,0,0-0.1,0-0.1C61.8,252.6,62,252.8,62.3,253z M61.9,250.7c0.2-0.7,0.4-1.5,0.5-2.2
        c0.5,0.5,0.9,1,1.2,1.6c-0.1,0.7-0.2,1.4-0.2,2.2c-0.3-0.4-0.6-0.7-0.9-1C62.3,251.1,62.1,250.9,61.9,250.7z M62.5,248.2
        c0.1-0.4,0.2-0.8,0.3-1.1c0.5,0.3,0.9,0.8,1.3,1.3c-0.1,0.4-0.2,0.8-0.3,1.3C63.4,249.1,63,248.6,62.5,248.2z M62.9,246.9
        c0.3-1.3,0.6-2.6,0.9-3.9c0.3,1,0.7,2,1.3,2.8c-0.3,0.7-0.6,1.4-0.8,2.2C63.8,247.5,63.4,247.1,62.9,246.9
        C62.9,246.9,62.9,246.9,62.9,246.9z M61.1,254.2c0.1-0.4,0.2-0.9,0.3-1.3c0.7,0.4,1.3,1,1.9,1.6c0,0,0,0,0,0
        c-0.5-0.1-1.1-0.1-1.5-0.2C61.6,254.3,61.4,254.3,61.1,254.2z M70.5,196.8c-0.5-1.1-0.9-2.1-1.4-3.2c-0.1-0.2-0.2-0.5-0.3-0.7
        c-0.2-1.4-0.2-2.7,0-4.1c0.7,0.1,1.8,0.7,2,0.8c1.5,0.7,3,1.6,4.4,2.5c0.5,0.3,1.1,0.7,1.6,1c-0.1,0.7-0.2,1.4-0.2,2.1
        c0,0.3,0,0.6,0,0.9C74.6,195.6,72.4,195.9,70.5,196.8z M64.2,224.2c0.1-0.3,0.3-0.5,0.4-0.8c0.6-1.1,1.2-2.3,1.9-3.3
        c0.1-0.1,0.2-0.1,0.3-0.2c-0.1,1.5-0.6,3.1-1.2,4.5c-0.7,1.6-1.4,3.1-2.1,4.7c0,0,0,0,0,0C63.5,227.5,63.9,225.8,64.2,224.2z
         M52.9,254.3c0.3-0.9,0.6-1.9,0.9-2.8c1.6,0,3.2,0.1,4.7,0.4c-0.1,0.7-0.1,1.4-0.2,2c0,0-0.1,0-0.1,0
        C56.5,253.7,54.5,253.6,52.9,254.3z M57.4,220.4c-0.1-0.4-0.3-0.8-0.4-1.2c1.2-0.6,2.4-1.3,3.7-1.8c-0.2,0.3-0.4,0.6-0.5,0.9
        C59.2,219,58.3,219.7,57.4,220.4z M55.4,228.8c-0.3-0.1-0.7-0.3-1-0.5c0.5-0.5,1-1,1.5-1.4c0,0.1,0.1,0.1,0.1,0.2
        C55.8,227.7,55.6,228.2,55.4,228.8z M49.2,238c0.1-0.4,0.3-0.8,0.4-1.2c0,0.1,0.1,0.2,0.1,0.3c0,0.1,0.1,0,0.1,0
        c-0.1-0.1-0.1-0.3-0.2-0.4c0.5-1.5,1.1-2.9,1.7-4.2c0.7-1.4,1.6-2.7,2.7-3.8c0.4,0.2,0.7,0.4,1.1,0.6c-1.5,3.8-2.9,7.7-4.3,11.6
        C50.5,239.8,49.9,238.9,49.2,238z M47.7,233.1c-0.4-0.6-0.9-1.1-1.4-1.6c0.3-0.6,0.6-1.1,0.9-1.7c1.6-3.2,3.3-6.6,6.4-8.6
        c0.1,0.7,0.3,1.3,0.5,1.9c-1.9,1.7-3.6,3.7-4.8,6C48.6,230.4,48.1,231.7,47.7,233.1z M47,235.5c-0.5-0.5-1-0.9-1.6-1.3
        c-0.1-0.1-0.3-0.2-0.4-0.3c0.4-0.7,0.7-1.4,1.1-2.1c0.5,0.5,1,1,1.5,1.5C47.4,234.1,47.2,234.8,47,235.5z M46.3,238.1
        c-0.6-1-1.3-1.9-2.1-2.7c0.2-0.4,0.5-0.7,0.7-1.1c0.3,0.2,0.5,0.4,0.7,0.5c0.4,0.3,0.9,0.7,1.3,1.1
        C46.7,236.6,46.5,237.4,46.3,238.1z M43,237.1c0.4-0.5,0.7-0.9,1-1.4c0.8,0.8,1.6,1.7,2.2,2.7c-0.2,0.8-0.5,1.7-0.8,2.5
        c-0.4-0.9-0.9-1.8-1.5-2.7C43.6,237.8,43.3,237.5,43,237.1z M43.5,233c-1.4-0.7-3-1.3-4.5-1.2c0.4-0.8,0.5-1.7,0.5-2.7
        c1.3,0,2.8,0.4,3.8,0.9c0.4,0.2,0.8,0.4,1.2,0.6C44.2,231.4,43.8,232.2,43.5,233z M42.9,234.3c-0.1-0.1-0.3-0.2-0.4-0.3
        c-0.9-0.6-1.8-1.1-2.8-1.5c-0.1,0-0.2-0.1-0.4-0.1c1.4,0,2.8,0.4,4,1C43.2,233.7,43,234,42.9,234.3z M37.6,233.4
        c1.1,0.7,2.2,1.3,3.3,2.2c0.3,0.3,0.6,0.5,0.9,0.8c-0.3,0.6-0.7,1.1-1.1,1.7c-0.4-0.9-0.8-1.8-1.4-2.6
        C38.7,234.8,38.1,234.1,37.6,233.4z M38.7,229.2c-0.4,0.7-0.8,1.5-1.1,2.3c0-0.3-0.1-0.6-0.1-0.9c0-0.3,0.1-0.5,0.1-0.8
        C37.9,229.5,38.3,229.3,38.7,229.2z M38.3,231.6C38.3,231.6,38.3,231.6,38.3,231.6c-0.1-0.3-0.5-0.1-0.5,0.1c0,0,0,0,0,0
        c0,0-0.1,0-0.1,0c0.3-0.7,0.7-1.4,1.1-2.1C38.8,230.4,38.7,231.1,38.3,231.6z M41.5,233.8c0.4,0.3,0.8,0.5,1.2,0.8
        c-0.2,0.5-0.5,0.9-0.7,1.4c-1.2-1.2-2.6-2.2-4.1-2.9c0.1-0.1,0.1-0.2,0.1-0.4c0-0.1,0-0.1,0-0.2c0,0,0,0,0,0c0,0,0.1,0,0.1,0
        c0.1,0.1,0.2,0.1,0.4,0C39.5,232.9,40.5,233.2,41.5,233.8z M48.4,220.4C48.4,220.5,48.5,220.4,48.4,220.4c0.7-0.4,1.3-0.8,2-1.2
        c-2.6,3.3-4.1,7.1-5.7,11c-0.6-0.4-1.3-0.7-2.1-1c-1-0.3-2-0.6-3.1-0.6c1.1-1.6,2.4-3,3.8-4.3C45,222.9,46.6,221.6,48.4,220.4z
         M50.1,208.3c0,0.1,0,0.2-0.1,0.3c-0.2,0.1-0.5,0.3-0.8,0.3c0,0-0.1,0-0.1,0c0.1-0.1,0.2-0.1,0.3-0.2c0.2-0.1,0.3-0.3,0.5-0.3
        C50,208.4,50,208.4,50.1,208.3C50.1,208.3,50.1,208.3,50.1,208.3z M50.3,209.9c0,0.3,0,0.5,0,0.8c0,1.3,0.1,2.5,0.2,3.8
        c0.1,1.2,0.2,2.6,0.7,3.8c0,0-0.1,0-0.1,0.1c-0.9,0.5-1.8,1-2.7,1.6c-0.2-2,0.4-4.1,0.8-6.1c0.3-1.3,0.5-2.7,0.9-4
        C50.2,209.8,50.2,209.8,50.3,209.9z M51.3,195.9c0.8,0.7,1.7,1.4,2.5,2c-0.3,0.8-0.6,1.6-0.9,2.4c-0.2,0.8-0.5,1.7-0.6,2.6
        c0,0.1-0.1,0.1-0.1,0.2c-0.2,0.4-0.5,0.8-0.7,1.3c-0.2-1-0.3-1.9-0.4-2.9C51.1,199.6,51.1,197.7,51.3,195.9z M47.2,191.8
        c1.2,1,2.4,2.1,3.6,3.1C49.6,193.9,48.4,192.9,47.2,191.8z M42.3,187.1c-0.1-0.1-0.3-0.3-0.4-0.4c-0.7-0.7-1.3-1.4-1.9-2.2
        c-0.4-0.5-0.8-1-1.2-1.5c0-0.1,0.1-0.3,0.1-0.4c0.3,0.5,0.8,0.9,1.1,1.2c1,0.8,2.1,1.5,3.2,2.1c2.3,1.2,4.8,1.9,7.2,2.8
        c0.1,0,0.1-0.1,0.1-0.1c-2.2-1-4.4-1.8-6.6-2.9c-1.2-0.6-2.3-1.2-3.3-2.1c-0.4-0.4-0.9-0.8-1.2-1.3c0,0,0-0.1-0.1-0.1
        c0.1-0.1,0.2-0.1,0.3-0.2c0.5-0.2,1-0.4,1.5-0.5c1.2-0.2,2.4-0.2,3.6-0.2c2.2,0.2,4.4,0.6,6.5,1c1.1,2.8,2.3,5.5,3.9,8.1
        c-0.5,0.4-0.9,0.9-1.4,1.5c-0.1,0.1,0.1,0.2,0.1,0.1c0.4-0.5,0.9-1,1.4-1.3c0.8,1.3,1.6,2.5,2.6,3.7c0,0.2,0.1,0.3,0.1,0.5
        c-0.5,1.4-0.9,2.8-1,4.3c-0.9-0.5-1.7-1-2.5-1.6c0.6-1.3,1.3-2.4,2.4-3.3c0,0,0-0.1,0,0c-1.1,0.8-1.9,2-2.5,3.2
        c-0.4-0.3-0.7-0.5-1-0.8c-0.6-0.4-1.1-0.9-1.7-1.3c0.1-0.7,0.3-1.5,0.6-2.2c0.1-0.1-0.1-0.2-0.2-0.1c-0.3,0.7-0.5,1.4-0.7,2.1
        c-1.3-1.1-2.5-2.2-3.8-3.3c-0.1-0.1-0.3-0.2-0.4-0.3c0.3,0.1,0.6,0.1,0.9,0.1c0,0,0.1-0.1,0-0.1c-0.4-0.1-0.8-0.2-1.1-0.3
        C45.3,189.7,43.8,188.4,42.3,187.1z M39.5,184.4C39.5,184.4,39.6,184.4,39.5,184.4c-0.3-0.2-0.6-0.6-0.9-0.9
        c0,0,0.1-0.1,0.1-0.2C38.9,183.6,39.2,184,39.5,184.4z M38.2,183.8c0.1,0,0.1-0.1,0.2-0.1c1.1,1.2,2.3,2.4,3.6,3.5
        c0.1,0.1,0.2,0.2,0.3,0.2c0.9,1,1.9,1.9,2.8,2.8c-1.3-0.7-2.6-1.6-3.6-2.6C40.1,186.5,39,185.2,38.2,183.8z M29.1,169.7
        c0.9-1.6,1.2-4.5-0.1-5.9c0.7-0.4,1.4-1,2-1.6c2.2-2,3.9-4.5,4.4-7.5c0-0.1-0.1-0.1-0.1,0c-0.6,2.4-1.9,4.6-3.7,6.3
        c-0.8,0.8-1.7,1.7-2.7,2.3c-0.1,0.1-0.2,0.1-0.3,0.1c-0.1,0-0.1-0.1-0.2-0.1c3.6-2.4,4.4-7.3,3.9-11.5c1.1-1.9,3.3-3.1,5-4.4
        c0.4-0.3,0.7-0.6,1.1-0.8c0.8-0.4,1.7-0.8,2.5-1.1c0.2-0.1,0.4-0.1,0.7-0.2c-0.2,0.2-0.3,0.3-0.4,0.4c-1,0.9-1.8,2-2.7,3
        c-1.9,2.1-3.4,4.5-4.4,7.1c0,0.1,0.1,0.1,0.1,0c1.7-3.9,4.6-7.3,7.8-10.2c0.1,0.2,0.2,0.4,0.3,0.6c0,0.4,0,0.8-0.1,1.2
        c-0.1-0.3-0.2-0.5-0.3-0.8c0,0-0.1,0,0,0c0.1,0.3,0.2,0.6,0.3,0.9c-0.1,1-0.4,1.9-0.9,2.9c-0.7,1.5-1.4,2.9-2,4.4
        c0,0.1,0.1,0.1,0.1,0c0.8-1.8,1.9-3.4,2.6-5.2c0.1-0.3,0.3-0.7,0.4-1.1c1.2,4.3,2.2,8.7,3.2,13.1c1.4,6.5,2.9,13.6,5.4,20.2
        c-2.4-0.6-4.8-1.2-7.2-1.4c-1.3-0.1-2.6-0.1-3.8,0.3c-0.3,0.1-0.6,0.2-0.9,0.4c0.2-0.4,0.4-0.8,0.6-1.1c0.5-0.7,1.1-1.3,1.8-1.8
        c1.6-1.1,3.4-1.8,5.3-2.1c0,0,0,0,0,0c-2.1,0.3-4.2,1-5.9,2.3c-0.7,0.5-1.5,1.2-2,2c0-0.1,0-0.1-0.1-0.1
        c0.4-0.9,1.1-1.8,1.6-2.4c1.5-1.7,3.5-3,5.6-3.9c0.1,0,0-0.1,0-0.1c-2.3,0.9-4.7,2.3-6.3,4.2c-0.3,0.3-0.5,0.7-0.8,1.1
        c0.6-3.6,2.7-6.7,4.7-9.6c0,0,0-0.1-0.1,0c-2.4,3.2-4.6,6.6-5.3,10.6c-0.1-0.3-0.2-0.5-0.3-0.7c-0.1-0.1-0.1-0.2-0.2-0.2
        c-0.2-0.8-0.3-1.6-0.3-2.5c-0.1-1.3,0-2.6,0.2-3.9c0.3-2.4,0.7-5.1,2.4-6.9c0,0,0-0.1-0.1-0.1c-1.8,1.8-2.3,4.5-2.7,6.9
        c-0.2,1.3-0.4,2.7-0.3,4c0,0.8,0.1,1.6,0.3,2.4c0,0,0,0,0,0c-0.1-0.1-0.1-0.1-0.2-0.1c0,0,0,0,0,0c-1.1-3-1.1-6.3-0.2-9.5
        c0-0.1-0.1-0.1-0.2,0c-0.8,2.8-1.1,5.7-0.5,8.4c-1-2.2-1.6-4.5-1.2-7.1c0,0,0,0,0,0c-0.7,2.9,0,6,1.4,8.6
        c-0.1,0.2-0.2,0.4-0.3,0.7c-0.1-0.1-0.2-0.1-0.3-0.2c0-0.1-0.1-0.2-0.1-0.3c-0.3-0.9-0.7-1.7-1-2.7c-0.8-3-0.5-6.2,0-9.2
        c0-0.1-0.1-0.1-0.1,0c-0.7,3.1-1.1,6.5-0.1,9.6c0.2,0.7,0.5,1.4,0.7,2.1c-0.2-0.1-0.3-0.3-0.5-0.4c-0.7-0.9-1.4-1.9-2.1-2.9
        c-0.5-1.1-0.8-2.3-0.9-3.4c0-0.1-0.2-0.1-0.2,0c0.1,0.7,0.2,1.4,0.3,2.1C30.8,173.2,29.9,171.5,29.1,169.7z M28.1,164.2
        c0.1,0,0.3-0.1,0.4-0.1c1.4,1.3,1.4,3.7,0.6,5.5c-0.4-0.9-0.7-1.8-1-2.8C28.1,165.9,28.2,165,28.1,164.2z M25.7,165.5
        c0.1-0.3,0.2-0.6,0.4-0.9c0,0,0,0,0.1,0C26,164.9,25.9,165.2,25.7,165.5z M25.7,163.6C25.7,163.6,25.7,163.5,25.7,163.6
        c0.1-0.1,0.1-0.1,0.1-0.1c0,0,0,0,0.1,0c0,0,0,0,0.1,0c-0.1,0.1-0.1,0.2-0.2,0.4C25.7,163.8,25.7,163.7,25.7,163.6z M23,167.2
        c0.5-1.3,1.2-2.5,2.2-3.3c0,0.2,0.1,0.4,0.1,0.6c0,0,0,0,0,0c-0.3,0.5-0.6,0.9-1,1.3C23.9,166.3,23.5,166.7,23,167.2z"/>
  </g>
  <svg viewBox="-180 -200 360 400">
    <defs>
        <path id="seed" stroke="none" class="st0" d="m0,0c3.1-3.5,3.9-8.7,2.8-13.2c-0.6-2.4-3.4-4.7-6-5.5c0.5-0.4,0.8-0.8,1-1.4c6.7-3.6,14.1-6,21.5-7.4c4.1-0.7,8.2-1.3,12.4-1.3c3.9,0,7.4,0.7,11.2,1.3c1,0.2,1.1-1.3,0.2-1.5c-3.6-0.8-7.8-0.7-11.5-0.5        c-4.4,0.2-8.8,0.7-13.1,1.6c-7.2,1.5-14.2,4-20.6,7.6c0.9-2.9-1.1-7.9-2.4-10c0,0-0.1,0-0.1,0c0.7,1.4,2.8,7.6,1.9,10.3        c-0.2,0.1-0.4,0.2-0.5,0.3c0.2-1.2-0.1-2.5-0.6-3.8c-0.5-4.1-2.5-8.3-5.3-10.8c0,0-0.1,0,0,0c2,2.1,3.6,5.3,4.3,8.5        c-0.3-0.5-0.5-0.9-0.8-1.3c-2.2-3.2-5.4-5.1-8.6-6.9c0,0-0.1,0,0,0.1c2.9,1.8,6.1,3.5,8,6.4c0.7,1.1,1.3,2.3,1.8,3.5        c0.1,1.1,0.1,2.2,0,3.2c-0.1-0.3-0.2-0.5-0.3-0.8c-0.1-0.2-0.3-0.1-0.2,0.1c0,0,0,0.1,0,0.1c-0.1-0.1-0.1-0.2-0.2-0.3        c-1.4-3.5-4.1-6.3-7.8-7.6c0,0-0.1,0.1,0,0.1c3,1.4,4.8,3.3,6.1,5.8c-3.5-2.9-8.9-4.2-12.7-5.3c0,0,0,0,0,0        c3.2,1.1,6.6,2,9.5,3.7c1.9,1,3.2,2.2,4.2,3.6c0.1,0.4,0.3,0.7,0.4,1.1c-2.2-2-4.6-3.9-7.5-4.7c-0.1,0-0.2,0.2-0.1,0.2        c2.4,0.7,4.2,2.2,5.9,3.8c-2.2-1-4.8-1.3-6.9-1.8c0,0,0,0,0,0c2.3,0.7,5.2,1.1,7.4,2.4c0,0,0,0,0,0.1c0,0.1,0,0.2,0,0.3        c-0.1,0.1,0,0.3,0.1,0.4c0,0,0,0.1,0.1,0.1c0,0.2,0.1,0.4,0.2,0.5c-1.3-0.7-3.1-0.9-4.3-1.3c-0.1,0-0.1,0.1,0,0.1        c1.4,0.6,3.4,0.8,4.7,1.8c-0.3,0.9-0.7,1.8-1.3,2.6c-0.9,1.2-2.1,2.1-3.2,3c0,0,0,0.1,0,0c2.1-1.1,4.1-3,4.9-5.2        c0.1,0.1,0.1,0.1,0.2,0.2c0,1.2,0.2,2.4,0.3,3.6c-0.9,2.9-2.6,5.6-4.9,7.7c0,0,0,0,0,0c1.9-1.6,3.7-4,4.8-6.7c0,0.1,0,0.2,0,0.4        c-0.2,2.4-0.9,4.6-2.1,6.7c0,0.1,0.1,0.2,0.1,0.1c1.4-1.9,2.5-4.6,2.9-7.3c0.6,5.2,0.6,10.6-4.3,13.8c0,0,0,0,0,0        c5-2.7,5.9-9.7,5.1-15.4c0.4,1.3,0.5,2.6,0.6,3.9c0.2,3.1-0.1,6.2-0.1,9.3c0,0,0.1,0,0.1,0c0.5-3.6,1-7.2,0.6-10.9        c-0.2-1.7-0.6-3-1.3-4.2c0-0.1,0-0.2,0-0.2c0.4,0.2,0.8,0.4,1.3,0.6c1.5,2.5,2,6,1.7,8.6c0,0.1,0.2,0.1,0.2,0        c0.4-2.6-0.1-5.7-1.1-8.2c0.7,0.4,1.4,0.8,1.9,1.5c2.7,3.6,1.3,8-0.5,11.7c0,0,0,0,0,0c1.9-3,3.2-6.7,1.9-10.2        c-0.7-1.9-2.1-2.8-3.5-3.6c-0.2-0.5-0.5-1-0.8-1.5c2.8,1.1,5,3.6,5.4,6.5z"/>
    </defs>
    <g id="fleSeed">
        <g id="transSeed1">
            <g id="rotSeed1">
                <g id="scaleSeed1">
                    <use id="seed1" xlink:href="#seed" />
                    <animateTransform
                        xlink:href="#transSeed1"
                        attributeName="transform"
                        type="translate"
                        values="-110 -20; -110 -20; 100 -200"
                        keyTimes="0; 0.2;1"
                        dur="15s"
                        begin="0s"
                        fill="freeze"
                        repeatCount="indefinite"/>
                    <animateTransform
                        xlink:href="#rotSeed1"
                        attributeName="transform"
                        type="rotate"
                        values="110; 110; 180;360"
                        keyTimes="0; 0.2; 0.5;1"
                        dur="15s"
                        begin="0s"
                        fill="freeze"
                        repeatCount="indefinite"/>
                    <animateTransform
                        xlink:href="#scaleSeed1"
                        attributeName="transform"
                        type="scale"
                        values=".5;.5;.75;.5"
                        keyTimes="0;.2;.5;1"
                        dur="15s"
                        begin="0s"
                        fill="freeze"
                        repeatCount="indefinite"/>
                </g>
            </g>
        </g>
        <g id="transSeed2">
            <g id="rotSeed2">
                <g id="scaleSeed2">
                    <use id="seed2" stroke="blue" xlink:href="#seed" />
                    <animateTransform
                        xlink:href="#transSeed2"
                        attributeName="transform"
                        type="translate"
                        values="-110 -20; -110 -20; 200 -200"
                        keyTimes="0; 0.1;1"
                        dur="17s"
                        begin="0s"
                        fill="freeze"
                        repeatCount="indefinite"/>
                    <animateTransform
                        xlink:href="#rotSeed2"
                        attributeName="transform"
                        type="rotate"
                        values="110; 110; 180;270"
                        keyTimes="0; 0.1; 0.5;1"
                        dur="17s"
                        begin="0s"
                        fill="freeze"
                        repeatCount="indefinite"/>
                    <animateTransform
                        xlink:href="#scaleSeed2"
                        attributeName="transform"
                        type="scale"
                        values=".5;.5;.75;1"
                        keyTimes="0;.1;.5;1"
                        dur="17s"
                        begin="0s"
                        fill="freeze"
                        repeatCount="indefinite"/>
                </g>
            </g>
        </g>
        <g id="transSeed3">
            <g id="rotSeed3">
                <g id="scaleSeed3">
                    <use id="seed1" xlink:href="#seed" />
                    <animateTransform
                        xlink:href="#transSeed3"
                        attributeName="transform"
                        type="translate"
                        values="-110 -20; -110 -20; 300 -200"
                        keyTimes="0; 0.3;1"
                        dur="20s"
                        begin="0s"
                        fill="freeze"
                        repeatCount="indefinite"/>
                    <animateTransform
                        xlink:href="#rotSeed3"
                        attributeName="transform"
                        type="rotate"
                        values="110; 110; -180;-360"
                        keyTimes="0; 0.3; 0.5;1"
                        dur="20s"
                        begin="0s"
                        fill="freeze"
                        repeatCount="indefinite"/>
                    <animateTransform
                        xlink:href="#scaleSeed3"
                        attributeName="transform"
                        type="scale"
                        values=".5;.5;.75;.5"
                        keyTimes="0;.3;.5;1"
                        dur="20s"
                        begin="0s"
                        fill="freeze"
                        repeatCount="indefinite"/>
                </g>
            </g>
        </g>
        <g id="transSeed4">
            <g id="rotSeed4">
                <g id="scaleSeed4">
                    <use id="seed4" xlink:href="#seed" />
                    <animateTransform
                        xlink:href="#transSeed4"
                        attributeName="transform"
                        type="translate"
                        values="-110 -20; -110 -20; 150 -200"
                        keyTimes="0; 0.4;1"
                        dur="25s"
                        begin="0s"
                        fill="freeze"
                        repeatCount="indefinite"/>
                    <animateTransform
                        xlink:href="#rotSeed4"
                        attributeName="transform"
                        type="rotate"
                        values="110; 110; -280;-360"
                        keyTimes="0; 0.4; 0.75;1"
                        dur="25s"
                        begin="0s"
                        fill="freeze"
                        repeatCount="indefinite"/>
                    <animateTransform
                        xlink:href="#scaleSeed4"
                        attributeName="transform"
                        type="scale"
                        values=".5;.5;.75;.3"
                        keyTimes="0;.4;.75;1"
                        dur="25s"
                        begin="0s"
                        fill="freeze"
                        repeatCount="indefinite"/>
                </g>
            </g>
        </g>
        <g id="transSeed5">
            <g id="rotSeed5">
                <g id="scaleSeed5">
                    <use id="seed5" xlink:href="#seed" />
                    <animateTransform
                        xlink:href="#transSeed5"
                        attributeName="transform"
                        type="translate"
                        values="-110 -20; -110 -20; 450 -200"
                        keyTimes="0; 0.05;1"
                        dur="30s"
                        begin="0s"
                        fill="freeze"
                        repeatCount="indefinite"/>
                    <animateTransform
                        xlink:href="#rotSeed5"
                        attributeName="transform"
                        type="rotate"
                        values="110; 110; -280; -200; -360"
                        keyTimes="0; .05;  .75;  .85;    1"
                        dur="30s"
                        begin="0s"
                        fill="freeze"
                        repeatCount="indefinite"/>
                    <animateTransform
                        xlink:href="#scaleSeed5"
                        attributeName="transform"
                        type="scale"
                        values=".5;.5;.75;1"
                        keyTimes="0;.05;.75;1"
                        dur="30s"
                        begin="0s"
                        fill="freeze"
                        repeatCount="indefinite"/>
                </g>
            </g>
        </g>
        <g id="transSeed6">
            <g id="rotSeed6">
                <g id="scaleSeed6">
                    <use id="seed6" xlink:href="#seed" />
                    <animateTransform
                        xlink:href="#transSeed6"
                        attributeName="transform"
                        type="translate"
                        values="-110 -20; -110 -20; 50 -200"
                        keyTimes="0; 0.05;1"
                        dur="35s"
                        begin="0s"
                        fill="freeze"
                        repeatCount="indefinite"/>
                    <animateTransform
                        xlink:href="#rotSeed6"
                        attributeName="transform"
                        type="rotate"
                        values="110; 110; 170; -200; -360"
                        keyTimes="0; .05;  .75;  .85;    1"
                        dur="35s"
                        begin="0s"
                        fill="freeze"
                        repeatCount="indefinite"/>
                    <animateTransform
                        xlink:href="#scaleSeed6"
                        attributeName="transform"
                        type="scale"
                        values=".5;.5;.75;1.2"
                        keyTimes="0;.05;.75;1"
                        dur="35s"
                        begin="0s"
                        fill="freeze"
                        repeatCount="indefinite"/>
                </g>
            </g>
        </g>
        <g id="transSeed7">
            <g id="rotSeed7">
                <g id="scaleSeed7">
                    <use id="seed7" xlink:href="#seed" />
                    <animateTransform
                        xlink:href="#transSeed7"
                        attributeName="transform"
                        type="translate"
                        values="-110 -20; -110 -20; 350 -200"
                        keyTimes="0; 0.05;1"
                        dur="40s"
                        begin="0s"
                        fill="freeze"
                        repeatCount="indefinite"/>
                    <animateTransform
                        xlink:href="#rotSeed7"
                        attributeName="transform"
                        type="rotate"
                        values="110; 110; 360; -200; -360"
                        keyTimes="0; .05;  .65;  .85;    1"
                        dur="40s"
                        begin="0s"
                        fill="freeze"
                        repeatCount="indefinite"/>
                    <animateTransform
                        xlink:href="#scaleSeed7"
                        attributeName="transform"
                        type="scale"
                        values=".5;.5;.75;1.2"
                        keyTimes="0;.05;.75;1"
                        dur="40s"
                        begin="0s"
                        fill="freeze"
                        repeatCount="indefinite"/>
                </g>
            </g>
        </g>
    </g>
</svg>

    
<!--
  <rect width="360" height="400" stroke="black" fill="none" />
  <line x1="50" y1="0" x2="50" y2="10" stroke="black" />
  <line x1="100" y1="0" x2="100" y2="20" stroke="black"
  stroke-width="2"/>
  <line x1="150" y1="0" x2="150" y2="10" stroke="black" />
  <line x1="200" y1="0" x2="200" y2="20" stroke="black"
  stroke-width="2"/>
  <line x1="250" y1="0" x2="250" y2="10" stroke="black" />
  <line x1="300" y1="0" x2="300" y2="20" stroke="black"
  stroke-width="2"/>
  <line x1="350" y1="0" x2="350" y2="10" stroke="black" />
  <line x1="400" y1="0" x2="400" y2="20" stroke="black"
  stroke-width="2"/>

  <line x1="360" y1="50" x2="350" y2="50" stroke="black" />
  <line x1="360" y1="100" x2="340" y2="100" stroke="black"
  stroke-width="2"/>
  <line x1="360" y1="150" x2="350" y2="150" stroke="black" />
  <line x1="360" y1="200" x2="340" y2="200" stroke="black"
  stroke-width="2"/>
  <line x1="360" y1="250" x2="350" y2="250" stroke="black" />
  <line x1="360" y1="300" x2="340" y2="300" stroke="black"
  stroke-width="2"/>
  <line x1="360" y1="350" x2="350" y2="350" stroke="black" />
  <line x1="360" y1="400" x2="340" y2="400" stroke="black"
  stroke-width="2"/>
-->
</svg>
