<svg xmlns="http://www.w3.org/2000/svg" 
	 xmlns:xlink="http://www.w3.org/1999/xlink"
	 width="350px" height="400px"
	 viewBox="0 0 350 420" 
	 >
<style type="text/css">
	.st0{fill:#FFFFFF;}
	.st1{fill-rule:evenodd;clip-rule:evenodd;fill:#FFFFFF;}
</style>

<g id="iconHTML5big" opacity="0">
	<path class="st0" d="M196.7,55.1l-4.1,46.4l-18.3,5.1l-18.2-5.1l-4.1-46.5H196.7 M198.4,53.5h-48.3l4.4,49.3l19.7,5.5l19.8-5.5
		L198.4,53.5L198.4,53.5z"/>
	<path class="st0" d="M154.6,40.1h3.1v3h2.8v-3h3.1v9.2h-3.1v-3.1h-2.8v3.1h-3.1L154.6,40.1L154.6,40.1z"/>
	<path class="st0" d="M167.6,43.1h-2.7v-3.1h8.5v3.1h-2.7v6.1h-3.1L167.6,43.1L167.6,43.1z"/>
	<path class="st0" d="M174.7,40.1h3.2l2,3.2l2-3.2h3.2v9.2H182v-4.6l-2.1,3.3h-0.1l-2.1-3.3v4.6h-3V40.1z"/>
	<path class="st0" d="M186.6,40.1h3.1v6.2h4.3v3h-7.4V40.1z"/>
	<polygon class="st0" points="174.3,63.6 174.2,63.6 159.1,63.6 159.2,65.2 160.7,81.9 174.2,81.9 174.3,81.9 181.7,81.9 181,89.7 
		174.2,91.5 174.2,91.5 174.2,91.5 167.5,89.7 167.1,84.9 163.8,84.9 161,84.9 161.8,94.4 174.2,97.8 174.3,97.8 174.3,97.8 
		186.6,94.4 186.7,93.4 188.2,77.4 188.3,75.8 186.7,75.8 174.3,75.8 174.2,75.8 166.3,75.8 165.7,69.6 174.2,69.6 174.3,69.6 
		188.8,69.6 188.9,69.6 189,68.2 189.3,65.2 189.4,63.6 	"/>
	<animate 
				attributeName="fill-opacity"
				from="0"
				to="1"
				dur="5s"
				begin="0s"
				fill="freeze"/>
</g>
<g id="iconCSS3big" opacity="0">
	<g>
		<path class="st0" d="M74.8,55.1l-4.3,46.6l-18.3,4.9L34,101.7l-4.3-46.6H74.8 M76.6,53.5H27.9l4.6,49.5l19.8,5.3l19.8-5.3
			L76.6,53.5L76.6,53.5z"/>
		<g>
			<polygon class="st0" points="41,46.2 41,43.3 45.3,43.3 45.3,40.1 37.8,40.1 37.8,49.2 45.3,49.2 45.3,46.2 			"/>
			<path class="st0" d="M53.1,43.3h3v-3.2h-7.5c0,0,0,1.6,0,3.2c1,1,1.5,1.5,3,2.9c-0.9,0-3,0-3,0v2.9h7.5v-2.9L53.1,43.3z"/>
			<path class="st0" d="M63.7,43.3h3v-3.2h-7.5c0,0,0,1.6,0,3.2c1,1,1.5,1.5,3,2.9c-0.9,0-3,0-3,0v2.9h7.5v-2.9L63.7,43.3z"/>
		</g>
		<polygon class="st0" points="66.8,69.5 67.4,63.5 52.2,63.5 36.8,63.5 37.5,69.5 52.2,69.5 53.1,69.5 52.2,69.9 38.1,75.8 
			38.6,81.6 52.2,81.6 52.2,81.6 59.6,81.7 59.1,89.5 52.2,91.4 52.2,91.4 52.2,91.4 45.6,89.7 45.2,84.9 45.1,84.9 39,84.9 
			39,84.9 39.8,94.2 52.2,97.9 52.2,97.9 52.3,97.9 64.7,94.3 66.3,75.8 52.2,75.8 52.2,75.8 52.2,75.8 		"/>
	</g>
	<animate 
		attributeName="opacity"
		from="0"
		to="1"
		dur="5s"
		begin="icon1_sm_anim.end"
		fill="freeze"/>
</g>
<g id="iconPHPbig" opacity="0">
	<path class="st0" d="M58.9,179c-28.2,0-51.1,12-51.1,26.9c0,14.9,22.9,26.9,51.1,26.9s51.1-12,51.1-26.9
		C110,191.1,87.1,179,58.9,179z M58.9,230.8c-27.1,0-49.1-11.1-49.1-24.9c0-13.8,22-24.9,49.1-24.9c27.1,0,49.1,11.1,49.1,24.9
		C108,219.7,86,230.8,58.9,230.8z"/>
	<g>
		<path class="st0" d="M39.8,198.4c2.2,0,3.7,0.4,4.5,1.2c0.7,0.8,0.9,2.2,0.5,4.2c-0.4,2.1-1.2,3.6-2.3,4.5
			c-1.2,0.9-2.9,1.3-5.3,1.3h-3.6l2.2-11.3H39.8z M25.5,221.1h5.9l1.4-7.2h5c2.2,0,4-0.2,5.5-0.7c1.4-0.5,2.7-1.2,3.9-2.3
			c1-0.9,1.8-1.9,2.4-3c0.6-1.1,1-2.3,1.3-3.6c0.6-3.2,0.2-5.7-1.4-7.5c-1.6-1.8-4-2.7-7.4-2.7H30.8L25.5,221.1z"/>
		<path class="st0" d="M55.2,187H61l-1.4,7.2h5.2c3.3,0,5.5,0.6,6.8,1.7c1.2,1.1,1.6,3,1.1,5.5L70.3,214h-5.9l2.3-11.9
			c0.3-1.4,0.2-2.3-0.3-2.8c-0.5-0.5-1.4-0.7-2.9-0.7h-4.7l-3,15.4H50L55.2,187z"/>
		<path class="st0" d="M85.7,198.4c2.2,0,3.7,0.4,4.5,1.2c0.7,0.8,0.9,2.2,0.5,4.2c-0.4,2.1-1.2,3.6-2.3,4.5
			c-1.2,0.9-2.9,1.3-5.3,1.3h-3.6l2.2-11.3H85.7z M71.4,221.1h5.9l1.4-7.2h5c2.2,0,4-0.2,5.5-0.7c1.4-0.5,2.7-1.2,3.9-2.3
			c1-0.9,1.8-1.9,2.4-3c0.6-1.1,1-2.3,1.3-3.6c0.6-3.2,0.2-5.7-1.4-7.5c-1.6-1.8-4-2.7-7.4-2.7H76.6L71.4,221.1z"/>
	</g>
	<animate 
		attributeName="opacity"
		from="0"
		to="1"
		dur="5s"
		begin="icon4_sm_anim.end"
		fill="freeze"/>
</g>
<g id="iconMySQLbig" opacity="0">
	<path class="st0" d="M146.1,218.9h3.2v-12.5l4.9,10.9c0.6,1.3,1.4,1.8,2.9,1.8c1.6,0,2.3-0.5,2.9-1.8l4.9-10.9v12.5h3.2v-12.5
		c0-1.2-0.5-1.8-1.5-2.1c-2.4-0.7-4-0.1-4.8,1.5l-4.8,10.8l-4.7-10.8c-0.7-1.6-2.3-2.3-4.8-1.5c-1,0.3-1.5,0.9-1.5,2.1V218.9
		L146.1,218.9z"/>
	<path class="st0" d="M170.8,208.7h3.2v6.9c0,0.4,0.1,1.3,1.9,1.3c0.9,0,6.9,0,6.9,0v-8.2h3.2c0,0,0,11.2,0,11.3
		c0,2.8-3.4,3.4-5,3.4h-10v-2.1c0,0,10,0,10.1,0c2-0.2,1.8-1.2,1.8-1.6v-0.8H176c-3.1,0-5.2-1.4-5.2-3
		C170.8,215.7,170.9,208.7,170.8,208.7L170.8,208.7z"/>
	<path class="st0" d="M239.3,200.7c-1.9,0-3.5,0.1-4.7,0.7c-0.4,0.1-1,0.1-1,0.6c0.2,0.2,0.2,0.5,0.4,0.8c0.3,0.5,0.8,1.1,1.3,1.5
		c0.5,0.4,1,0.8,1.6,1.1c1,0.6,2,0.9,2.9,1.5c0.5,0.3,1.1,0.8,1.6,1.1c0.3,0.2,0.4,0.5,0.8,0.6c0,0,0,0,0-0.1
		c-0.2-0.2-0.2-0.5-0.4-0.8c-0.2-0.2-0.5-0.5-0.7-0.7c-0.7-0.9-1.6-1.8-2.5-2.5c-0.8-0.5-2.5-1.3-2.8-2.2c0,0,0,0,0,0
		c0.5,0,1.2-0.2,1.7-0.4c0.8-0.2,1.6-0.2,2.4-0.4c0.4-0.1,0.8-0.2,1.2-0.3c0-0.1,0-0.1,0-0.2c-0.4-0.4-0.8-1-1.2-1.4
		c-1.2-1.1-2.6-2.1-4-3c-0.8-0.5-1.7-0.8-2.5-1.2c-0.3-0.1-0.8-0.2-1-0.5c-0.4-0.5-0.7-1.2-1-1.9c-0.7-1.3-1.4-2.8-2-4.2
		c-0.4-1-0.7-1.9-1.2-2.8c-2.5-4.1-5.2-6.7-9.4-9.1c-0.9-0.5-2-0.7-3.1-1c-0.6,0-1.2-0.1-1.8-0.1c-0.4-0.2-0.8-0.6-1.1-0.9
		c-1.4-0.9-5-2.8-6-0.3c-0.7,1.6,1,3.1,1.5,3.9c0.4,0.6,1,1.2,1.2,1.8c0.2,0.4,0.2,0.9,0.4,1.3c0.4,1.1,0.8,2.3,1.3,3.3
		c0.3,0.5,0.6,1,0.9,1.5c0.2,0.3,0.5,0.4,0.6,0.8c-0.3,0.5-0.4,1.2-0.6,1.8c-0.9,2.8-0.5,6.2,0.7,8.2c0.4,0.6,1.3,1.9,2.6,1.4
		c1.1-0.4,0.9-1.8,1.2-3c0.1-0.3,0-0.5,0.2-0.7c0,0,0,0,0,0c0.3,0.7,0.7,1.3,1,2c0.8,1.2,2.1,2.4,3.2,3.3c0.6,0.4,1,1.2,1.8,1.5
		c0,0,0,0,0-0.1c0,0,0,0,0,0c-0.1-0.2-0.4-0.3-0.6-0.5c-0.4-0.4-0.9-1-1.3-1.5c-1-1.4-1.9-2.9-2.7-4.4c-0.4-0.8-0.7-1.6-1-2.3
		c-0.1-0.3-0.1-0.7-0.4-0.9c-0.4,0.5-0.9,1-1.2,1.7c-0.5,1-0.5,2.3-0.7,3.7c-0.1,0,0,0-0.1,0c-0.8-0.2-1-1-1.3-1.7
		c-0.7-1.7-0.9-4.5-0.2-6.5c0.2-0.5,0.9-2.1,0.6-2.6c-0.1-0.5-0.6-0.7-0.9-1.1c-0.3-0.5-0.7-1-0.9-1.6c-0.6-1.4-0.9-2.9-1.5-4.2
		c-0.3-0.6-0.8-1.3-1.2-1.9c-0.5-0.7-1-1.1-1.3-1.9c-0.1-0.3-0.3-0.7-0.1-1c0-0.2,0.1-0.3,0.3-0.3c0.3-0.3,1.2,0.1,1.5,0.2
		c0.9,0.4,1.7,0.7,2.4,1.2c0.3,0.2,0.7,0.7,1.1,0.8c0.2,0,0.3,0,0.5,0c0.8,0.2,1.7,0,2.4,0.3c1.3,0.4,2.5,1,3.5,1.7
		c3.2,2,5.8,4.9,7.6,8.3c0.3,0.6,0.4,1.1,0.7,1.7c0.5,1.2,1.1,2.4,1.7,3.6c0.5,1.1,1,2.3,1.7,3.3c0.4,0.5,1.8,0.8,2.5,1
		c0.5,0.2,1.2,0.4,1.7,0.7c0.8,0.5,1.7,1.1,2.4,1.7C238,199.6,239.2,200.2,239.3,200.7L239.3,200.7z"/>
	<path class="st0" d="M214.4,179.5c-0.4,0-0.7,0-1,0.1c0,0,0,0,0,0c0,0,0,0,0,0c0.2,0.4,0.5,0.7,0.8,1c0.2,0.4,0.4,0.8,0.6,1.2
		c0,0,0,0,0,0c0.3-0.2,0.5-0.6,0.5-1.2c-0.1-0.2-0.2-0.3-0.3-0.5C214.9,179.9,214.6,179.7,214.4,179.5L214.4,179.5z"/>
	<path class="st0" d="M188.4,218.9h9.2c1.1,0,2.1-0.2,2.9-0.6c1.4-0.6,2-1.5,2-2.6v-2.3c0-0.9-0.8-1.8-2.3-2.3
		c-0.8-0.3-1.8-0.5-2.7-0.5h-3.8c-1.3,0-1.9-0.4-2.1-1.2c0-0.1,0-0.2,0-0.3v-1.4c0-0.1,0-0.2,0-0.3c0.2-0.7,0.5-0.8,1.6-1
		c0.1,0,0.2,0,0.3,0h9.1v-2.1h-8.9c-1.3,0-2,0.1-2.6,0.3c-1.9,0.6-2.7,1.5-2.7,3.1v1.9c0,1.4,1.6,2.7,4.3,2.9c0.3,0,0.6,0,0.9,0h3.3
		c0.1,0,0.2,0,0.3,0c1,0.1,1.4,0.3,1.7,0.6c0.2,0.2,0.2,0.4,0.2,0.6v1.9c0,0.2-0.1,0.5-0.4,0.8c-0.3,0.2-0.8,0.4-1.4,0.4
		c-0.1,0-0.2,0-0.3,0h-8.8V218.9L188.4,218.9z"/>
	<path class="st0" d="M222.4,215.2c0,2.2,1.6,3.4,4.9,3.6c0.3,0,0.6,0,0.9,0h8.3v-2.1h-8.4c-1.9,0-2.6-0.5-2.6-1.6v-11h-3.2V215.2
		L222.4,215.2z"/>
	<path class="st0" d="M204.5,215.3v-7.6c0-1.9,1.4-3.1,4-3.5c0.3,0,0.6,0,0.9,0h6c0.3,0,0.6,0,0.9,0c2.7,0.4,4,1.5,4,3.5v7.6
		c0,1.6-0.6,2.4-1.9,2.9l3.1,2.8h-3.7l-2.5-2.3l-2.6,0.1h-3.4c-0.6,0-1.2-0.1-1.9-0.2C205.5,218.2,204.5,217.1,204.5,215.3
		L204.5,215.3z M208,215.2c0,0.1,0,0.2,0.1,0.3c0.2,0.9,1,1.4,2.3,1.4h2.9l-2.6-2.4h3.7l2.3,2.1c0.4-0.2,0.7-0.6,0.8-1
		c0-0.1,0-0.2,0-0.3V208c0-0.1,0-0.2,0-0.3c-0.2-0.8-1-1.3-2.2-1.3h-4.8c-1.4,0-2.3,0.6-2.3,1.6V215.2L208,215.2z"/>
	<path class="st0" d="M237.9,218.9h0.5v-1.8h0.6v-0.4h-1.7v0.4h0.6V218.9L237.9,218.9z M241.5,218.9h0.4v-2.1h-0.7l-0.5,1.5
		l-0.6-1.5h-0.6v2.1h0.4v-1.6h0l0.6,1.6h0.3l0.6-1.6l0,0V218.9L241.5,218.9z"/>
	<animate 
		attributeName="opacity"
		from="0"
		to="1"
		dur="5s"
		begin="icon3_sm_anim.end"
		fill="freeze"/>
</g>
<g id="iconJSbig" opacity="0">
	<path class="st0" d="M330.7,45.7v56.9h-56.9V45.7H330.7 M332.5,43.9h-60.6v60.6h60.6V43.9L332.5,43.9z"/>
	<path class="st0" d="M291.6,90.8c1.1,1.6,1.9,3,3.9,3c1.8,0,3.1-0.8,3.1-3.6V70.9h5.7v19.4c0,5.9-3.5,8.6-8.5,8.6
		c-4.5,0-7.2-2.4-8.6-5.2"/>
	<path class="st0" d="M311.9,90.4c1.3,2,2.8,3.5,5.6,3.5c2.4,0,3.9-1.2,3.9-2.8c0-1.9-1.5-2.6-4.1-3.8l-1.4-0.6
		c-4.1-1.7-6.8-3.9-6.8-8.6c0-4.2,3.3-7.5,8.4-7.5c3.7,0,6.3,1.3,8.1,4.5L321,78c-1-1.7-2-2.4-3.7-2.4s-2.7,1.1-2.7,2.4
		c0,1.7,1.1,2.4,3.5,3.5l1.4,0.6c4.8,2.1,7.6,4.2,7.6,9c0,5.1-4,7.9-9.4,7.9c-5.3,0-8.8-2.5-10.4-5.8"/>
	<animate 
		attributeName="opacity"
		from="0"
		to="1"
		dur="5s"
		begin="icon5_sm_anim.end"
		fill="freeze"/>
</g>
<g id="iconFbig" opacity="0">
	<path class="st0" d="M315.6,176.9c7.3,0,14.1,2.8,19.2,8c5.1,5.1,8,12,8,19.2c0,7.3-2.8,14.1-8,19.2c-5.1,5.1-12,8-19.2,8
		c-7.3,0-14.1-2.8-19.2-8c-5.1-5.1-8-12-8-19.2c0-7.3,2.8-14.1,8-19.2C301.6,179.8,308.4,176.9,315.6,176.9 M315.6,175
		c-16.1,0-29.1,13-29.1,29.1c0,16.1,13,29.1,29.1,29.1c16.1,0,29.1-13,29.1-29.1C344.7,188,331.7,175,315.6,175L315.6,175z"/>
	<g>
		<path class="st1" d="M316.3,192L316.3,192c-1.2,1.5-2.2,3.2-3,5l-2.2,5.3c0,0,0,0,0,0c-0.7,1.9-1.3,3.5-1.9,4.6c0,0,0,0,0,0
			c-0.7,1.5-1.3,2.6-1.9,3.4c-0.7,0.9-1.5,1.5-2.3,1.9c-1,0.4-2,0.7-3.3,0.7c-0.5,0-0.8,0.4-0.8,0.8v6.7c0,0.5,0.4,0.8,0.8,0.8
			c5,0,9.1-1.9,12.1-5.7c0.9-1.2,1.7-2.5,2.4-3.9c0,0,0,0,0,0c0,0,1.3-2.9,1.6-3.7c0.9,0,7.1,0,7.1,0c0.5,0,0.8-0.4,0.8-0.8v-6.7
			c0-0.5-0.4-0.8-0.8-0.8c0,0-2.3,0-3.8,0c0.3-0.6,0.6-1.1,0.9-1.6c0.5-0.8,1.1-1.5,1.6-1.9c0,0,0,0,0,0c0.6-0.5,1.3-0.9,2-1.2
			c0.8-0.3,1.7-0.4,2.6-0.4c0.4,0,0.8-0.4,0.8-0.8V187c0-0.5-0.4-0.8-0.8-0.8C323.4,186.2,319.4,188.2,316.3,192z"/>
	</g>
	<animate 
		attributeName="opacity"
		from="0"
		to="1"
		dur="5s"
		begin="icon6_sm_anim.end"
		fill="freeze"/>
</g>
<g id="iconWbig" opacity="0">
	<g>
		<path class="st0" d="M31.9,338.6c0,9.9,5.8,18.5,14.1,22.5L34,328.4C32.6,331.5,31.9,335,31.9,338.6z"/>
		<path class="st0" d="M73.7,337.3c0-3.1-1.1-5.2-2.1-6.9c-1.3-2.1-2.5-3.8-2.5-5.9c0-2.3,1.7-4.4,4.2-4.4c0.1,0,0.2,0,0.3,0
			c-4.4-4.1-10.4-6.6-16.9-6.6c-8.7,0-16.4,4.5-20.9,11.3c0.6,0,1.1,0,1.6,0c2.6,0,6.7-0.3,6.7-0.3c1.3-0.1,1.5,1.9,0.2,2.1
			c0,0-1.4,0.2-2.9,0.2l9.1,27.1l5.5-16.4l-3.9-10.7c-1.3-0.1-2.6-0.2-2.6-0.2c-1.3-0.1-1.2-2.1,0.2-2.1c0,0,4.1,0.3,6.6,0.3
			c2.6,0,6.7-0.3,6.7-0.3c1.3-0.1,1.5,1.9,0.2,2.1c0,0-1.4,0.2-2.9,0.2l9,26.9l2.5-8.3C72.9,342,73.7,339.5,73.7,337.3z"/>
		<path class="st0" d="M57.3,340.8l-7.5,21.8c2.2,0.7,4.6,1,7.1,1c2.9,0,5.7-0.5,8.3-1.4c-0.1-0.1-0.1-0.2-0.2-0.3L57.3,340.8z"/>
		<path class="st0" d="M78.8,326.6c0.1,0.8,0.2,1.7,0.2,2.6c0,2.5-0.5,5.4-1.9,9l-7.6,22.1c7.4-4.3,12.4-12.4,12.4-21.6
			C81.9,334.2,80.8,330.2,78.8,326.6z"/>
		<path class="st0" d="M56.9,309.4c-16.1,0-29.1,13.1-29.1,29.1c0,16.1,13.1,29.1,29.1,29.1c16.1,0,29.1-13.1,29.1-29.1
			C86,322.5,72.9,309.4,56.9,309.4z M56.9,366.4c-15.3,0-27.8-12.5-27.8-27.8c0-15.3,12.5-27.8,27.8-27.8
			c15.3,0,27.8,12.5,27.8,27.8C84.7,353.9,72.2,366.4,56.9,366.4z"/>
	</g>
	<animate 
		attributeName="opacity"
		from="0"
		to="1"
		dur="5s"
		begin="icon7_sm_anim.end"
		fill="freeze"/>
</g>
<g id="iconDrupalbig" opacity="0">
	<g>
		<path class="st0" d="M189.1,361.2c0,1.2-0.5,2.1-1.7,2.1c-1.2,0-1.7-0.9-1.7-2.1v-4h-2.2v4c0,2.3,1.5,4.2,3.8,4.2
			c2.3,0,3.8-1.9,3.8-4.2v-4h-2.2L189.1,361.2z"/>
		<rect x="210.7" y="354.7" class="st0" width="2.1" height="10.4"/>
		<path class="st0" d="M178.8,358.6c0,0,0,0.1-0.1,0.1c-0.1,0-0.1-0.1-0.1-0.1l-0.2-1.4h-1.9v7.9h2.2v-4.3c0-0.4,1-2,2.8-1.6
			c0.9,0.2,1.3,0.6,1.3,0.6s0-1.5,0-2.4c-0.3-0.2-0.6-0.3-0.9-0.3C180,356.7,178.8,358.5,178.8,358.6z"/>
		<path class="st0" d="M196.3,357c-2.3,0-4.2,1.9-4.2,4.2c0,0,0,5.7,0,6.5h2.2v-2.9l0-1.1c0,0,0-0.1,0.1-0.1c0.1,0,0.1,0,0.1,0.1
			c0.2,0.4,1.1,1.9,3.1,1.5c1.8-0.5,3.1-2.1,3.1-4C200.5,358.9,198.6,357,196.3,357z M196.3,363.3c-1.2,0-2.1-1-2.1-2.1
			c0-1.2,1-2.1,2.1-2.1c1.2,0,2.1,1,2.1,2.1C198.4,362.4,197.4,363.3,196.3,363.3z"/>
		<path class="st0" d="M205.6,357c-2.3,0-4.2,1.9-4.2,4.2c0,1.9,1.3,3.5,3.1,4c2,0.5,2.9-1.1,3.1-1.5c0,0,0-0.1,0.1-0.1
			c0.1,0,0.1,0.1,0.1,0.1l0,1.3h2.2v-3.9C209.8,358.9,207.9,357,205.6,357z M205.6,363.3c-1.2,0-2.2-1-2.2-2.1c0-1.2,1-2.1,2.2-2.1
			c1.2,0,2.1,1,2.1,2.1C207.7,362.4,206.8,363.3,205.6,363.3z"/>
		<path class="st0" d="M169.8,354.7h-2.6v10.4h2.5c3.2,0,5.8-0.6,5.8-5.2C175.4,355.3,173,354.7,169.8,354.7z M170.3,363.3l-0.9,0
			v-6.8h0.9c2,0,3,0.3,3,3.4C173.3,363.2,172.1,363.3,170.3,363.3z"/>
	</g>
	<g>
		<circle class="st0" cx="190" cy="338" r="7.7"/>
		<path class="st0" d="M199.6,328.8c2.3,2.4,3.7,5.6,3.7,9.2c0,4.5-2.3,8.5-5.7,10.9c6.4-2,11.6-6.7,14-12.5c3.3-8,0.2-14-4.9-19.5
			c0.2,0.7,0.2,1.4,0.2,2.2C206.9,323.7,203.8,327.6,199.6,328.8z"/>
		<circle class="st0" cx="196.8" cy="319" r="5.9"/>
		<path class="st0" d="M179.8,346.5c-1.9-2.3-3.1-5.3-3.1-8.6c0-6.8,5.1-12.4,11.7-13.2c-1.1-1.6-1.8-3.6-1.8-5.8
			c0-5.6,4.5-10.2,10.2-10.2c0.5,0,0.9,0,1.4,0.1c-3.3-2.9-6.6-5.8-9.3-9c1.3,13.9-12.7,8.9-17.9,21.7
			C167.5,330.3,170.7,341,179.8,346.5z"/>
	</g>
	<animate 
		attributeName="opacity"
		from="0"
		to="1"
		dur="5s"
		begin="icon8_sm_anim.end"
		fill="freeze"/>
</g>
<g id="iconJoomlabig" opacity="0">
	<path id="T_5_" class="st0" d="M333.3,327v0.2h-0.5v1.3h-0.2v-1.3h-0.5V327H333.3z"/>
	<path id="j-green_5_" class="st0" d="M290,339.6l-1.1-1.1c-3.4-3.4-4.4-8.2-3.2-12.5c-3.4-0.8-5.9-3.8-5.9-7.4
		c0-4.2,3.4-7.6,7.6-7.6c3.8,0,6.9,2.8,7.5,6.4c4.1-1,8.6,0.2,11.8,3.4l0.4,0.4l-5.6,5.6l-0.4-0.4c-1.8-1.8-4.8-1.8-6.6,0
		c-1.8,1.8-1.8,4.8,0,6.6l1.1,1.1l5.6,5.6l5.9,5.9l-5.6,5.6l-5.9-5.9L290,339.6L290,339.6z"/>
	<path id="j-yellow_5_" class="st0" d="M296.2,333.4l5.9-5.9l5.6-5.6l1.1-1.1c3.4-3.4,8.2-4.4,12.5-3.2c0.5-3.7,3.7-6.5,7.5-6.5
		c4.2,0,7.6,3.4,7.6,7.6c0,3.9-2.9,7-6.6,7.5c1.2,4.3,0.2,9-3.2,12.4l-0.4,0.4l-5.6-5.6l0.4-0.4c1.8-1.8,1.8-4.8,0-6.6
		c-1.8-1.8-4.8-1.8-6.6,0l-1.1,1.1l-5.6,5.6l-5.9,5.9L296.2,333.4L296.2,333.4z"/>
	<path id="j-red_5_" class="st0" d="M321.5,361.7c-4.3,1.3-9.2,0.3-12.6-3.1l-0.4-0.4l5.6-5.6l0.4,0.4c1.8,1.8,4.8,1.8,6.6,0
		c1.8-1.8,1.8-4.8,0-6.6l-1.1-1.1l-5.6-5.6l-5.9-5.9l5.6-5.6l5.9,5.9l5.6,5.6l1.1,1.1c3.2,3.2,4.3,7.8,3.3,11.9
		c3.7,0.5,6.5,3.7,6.5,7.5c0,4.2-3.4,7.6-7.6,7.6C325.2,367.7,322.2,365.1,321.5,361.7L321.5,361.7z"/>
	<path id="j-blue_5_" class="st0" d="M319.3,345.9l-5.9,5.9l-5.6,5.6l-1.1,1.1c-3.2,3.2-7.8,4.3-11.9,3.3c-0.8,3.4-3.8,5.9-7.4,5.9
		c-4.2,0-7.6-3.4-7.6-7.6c0-3.6,2.5-6.6,5.8-7.4c-1.1-4.2,0-8.8,3.3-12l0.4-0.4l5.6,5.6l-0.4,0.4c-1.8,1.8-1.8,4.8,0,6.6
		c1.8,1.8,4.8,1.8,6.6,0l1.1-1.1l5.6-5.6l5.9-5.9L319.3,345.9L319.3,345.9z"/>
	<animate 
		attributeName="opacity"
		from="0"
		to="1"
		dur="5s"
		begin="icon9_sm_anim.end"
		fill="freeze"/>
</g>
</svg>
